<svg width="1427" height="640" viewBox="0 0 1427 640" fill="none" xmlns="http://www.w3.org/2000/svg">
<rect x="-13" width="1440" height="640" fill="#53AA51"/>
<mask id="mask0_1_5425" style="mask-type:alpha" maskUnits="userSpaceOnUse" x="-13" y="0" width="1440" height="640">
<rect x="-13" width="1440" height="640" fill="#53AA51"/>
</mask>
<g mask="url(#mask0_1_5425)">
<g opacity="0.3">
<path d="M944.683 -140.507V-152H937.906V-140.507H479.389V-152H472.612V-140.507H-36V787.507H472.612V799H479.389V787.507H937.758V799H944.389V787.507H1453V-140.507H944.683ZM712.036 211.366C772.445 213.134 820.919 262.792 820.919 323.5C820.919 384.208 772.445 433.865 712.036 435.634V211.366ZM-29.2224 202.673L270.316 210.335C268.106 211.072 265.896 211.808 263.686 212.692L260.592 213.871L263.097 220.207L266.191 219.028C270.316 217.408 274.442 216.081 278.714 214.903L281.956 214.019L281.072 210.63L297.279 211.072V211.661L300.668 211.514C301.699 211.514 302.731 211.514 303.762 211.366V435.781C302.731 435.781 301.699 435.781 300.668 435.634L297.279 435.486V436.076L281.367 436.518L282.251 433.129L279.009 432.245C274.736 431.213 270.464 429.74 266.485 428.119L263.391 426.94L260.887 433.276L263.981 434.455C266.043 435.339 268.253 436.076 270.464 436.812L-29.0751 444.475V202.673H-29.2224ZM-29.2224 451.253L62.1273 448.895V460.094H68.9048V448.748L122.536 447.422V458.62H129.313V447.274L182.945 445.948V457.147H189.722V445.801L243.353 444.475V455.673H250.131V444.327L307.151 442.854H310.54V442.707C374.632 440.938 426.2 388.334 426.2 323.795C426.2 259.255 374.632 206.651 310.54 204.883V204.736H307.151L250.131 203.262V191.916H243.353V203.115L189.722 201.789V190.443H182.945V201.641L129.313 200.315V188.969H122.536V200.168L68.9048 198.841V187.495H62.1273V198.694L-29.2224 196.337V-32.0567L96.0151 -29.1097C290.649 -29.1097 449.037 129.292 449.037 323.942C449.037 518.592 290.649 676.994 95.8677 676.994L-29.3698 679.941V451.253H-29.2224ZM307.151 435.781C308.329 435.781 309.361 435.781 310.54 435.634V211.366C370.948 213.134 419.422 262.792 419.422 323.5C419.422 384.208 370.948 433.865 310.54 435.634V435.781H307.151ZM705.259 435.781C644.85 434.013 596.376 384.356 596.376 323.647C596.376 262.939 644.85 213.282 705.259 211.514V435.781ZM705.259 204.588C641.166 206.356 589.598 258.96 589.598 323.5C589.598 388.039 641.166 440.644 705.259 442.412V780.729H479.389V769.235H472.612V780.729H-29.2224V686.277L96.0151 683.33C294.332 683.33 455.815 521.981 455.815 323.5C455.815 125.019 294.48 -36.3299 96.1624 -36.3299L-29.2224 -39.2769V-133.729H472.612V-122.235H479.389V-133.729H705.259V204.588ZM1446.52 444.475L1146.98 436.812C1149.19 436.076 1151.4 435.339 1153.46 434.455L1156.56 433.276L1154.05 426.94L1150.96 428.119C1146.83 429.74 1142.56 431.066 1138.43 432.245L1135.19 433.129L1136.08 436.518L1120.16 436.076V435.486L1116.77 435.634C1115.74 435.634 1114.71 435.634 1113.68 435.781V211.366C1114.71 211.366 1115.74 211.366 1116.77 211.514L1120.16 211.661V211.072L1136.37 210.63L1135.49 214.019L1138.73 214.903C1143 216.081 1147.27 217.408 1151.25 219.028L1154.35 220.207L1156.85 213.871L1153.76 212.692C1151.55 211.808 1149.34 211.072 1147.13 210.335L1446.66 202.673V444.475H1446.52ZM1446.52 195.895L1355.17 198.252V187.053H1348.39V198.399L1294.76 199.726V188.527H1287.98V199.873L1234.35 201.199V190H1227.57V201.346L1173.94 202.673V191.474H1167.16V202.82L1110.14 204.293H1106.76V204.441C1042.66 206.209 991.095 258.813 991.095 323.353C991.095 387.892 1042.66 440.496 1106.76 442.264V442.412H1110.14L1167.16 443.885V455.231H1173.94V444.033L1227.57 445.359V456.705H1234.35V445.506L1287.98 446.832V458.178H1294.76V446.98L1348.39 448.306V459.652H1355.17V448.453L1446.52 450.811V679.204L1321.28 676.257C1126.65 676.257 968.257 517.855 968.257 323.205C968.257 128.555 1126.65 -29.8465 1321.43 -29.8465L1446.66 -32.7935V195.895H1446.52ZM1106.9 211.366V435.781C1046.49 434.013 998.02 384.356 998.02 323.647C998.02 262.792 1046.49 213.134 1106.9 211.366ZM1446.52 -39.1295L1321.28 -36.1825C1122.96 -36.1825 961.48 125.166 961.48 323.647C961.48 522.128 1122.96 683.33 1321.13 683.33L1446.52 686.277V780.876H944.683V769.383H937.906V780.876H712.036V442.559C776.128 440.791 827.697 388.187 827.697 323.647C827.697 259.108 776.128 206.504 712.036 204.736V-133.729H937.906V-122.235H944.683V-133.729H1446.52V-39.1295Z" fill="#479547"/>
<path d="M65.516 290.199C50.1929 290.199 37.3744 300.513 33.3963 314.659H17.0418V267.802H10.2642V379.198H17.0418V332.341H33.5436C37.3744 346.339 50.3402 356.801 65.6634 356.801C84.0807 356.801 98.9618 341.919 98.9618 323.5C98.8145 305.229 83.9333 290.199 65.516 290.199ZM17.0418 325.71V321.437H32.3649C32.3649 322.174 32.2176 322.911 32.2176 323.5C32.2176 324.237 32.2176 324.974 32.3649 325.563H17.0418V325.71ZM65.516 350.17C50.9295 350.17 38.9952 338.235 38.9952 323.647C38.9952 309.06 50.9295 297.124 65.516 297.124C80.1025 297.124 92.0369 309.06 92.0369 323.647C92.0369 338.235 80.1025 350.17 65.516 350.17Z" fill="#479547"/>
<path d="M212.56 384.208L210.792 381.261L205.045 384.945L206.813 387.745C209.318 391.723 212.118 395.407 215.064 399.091L217.274 401.743L222.431 397.47L220.221 394.818C217.569 391.429 214.917 387.892 212.56 384.208Z" fill="#479547"/>
<path d="M212.56 263.086C214.917 259.402 217.569 255.719 220.368 252.33L222.579 249.677L217.422 245.404L215.212 248.057C212.265 251.593 209.465 255.424 206.961 259.402L205.193 262.202L210.939 265.886L212.56 263.086Z" fill="#479547"/>
<path d="M198.415 295.209C199.594 290.936 200.92 286.662 202.541 282.684L203.719 279.59L197.384 277.085L196.205 280.179C194.437 284.452 193.111 289.02 191.932 293.588L191.048 296.83L197.531 298.598L198.415 295.209Z" fill="#479547"/>
<path d="M198.562 351.939L197.678 348.697L191.196 350.465L192.08 353.707C193.258 358.275 194.732 362.695 196.352 366.968L197.531 370.063L203.867 367.558L202.688 364.463C200.92 360.485 199.594 356.212 198.562 351.939Z" fill="#479547"/>
<path d="M235.839 236.858C239.228 234.058 242.764 231.406 246.595 229.048L249.394 227.28L245.711 221.533L242.911 223.302C238.933 225.807 235.25 228.606 231.566 231.553L228.914 233.764L233.187 238.921L235.839 236.858Z" fill="#479547"/>
<path d="M195.026 330.278C194.879 328.068 194.879 325.858 194.879 323.647C194.879 321.437 194.879 319.227 195.026 317.164L195.174 313.775L188.396 313.333L188.249 316.722C188.101 319.079 188.101 321.29 188.101 323.647C188.101 326.005 188.101 328.363 188.249 330.72L188.396 334.109L195.174 333.667L195.026 330.278Z" fill="#479547"/>
<path d="M235.986 410.437L233.334 408.227L229.061 413.384L231.714 415.594C235.25 418.541 239.08 421.341 243.059 423.846L245.858 425.614L249.541 419.867L246.742 418.099C242.911 415.741 239.375 413.236 235.986 410.437Z" fill="#479547"/>
<path d="M1351.93 356.801C1367.25 356.801 1380.07 346.487 1384.05 332.341H1400.55V379.198H1407.33V267.802H1400.55V314.659H1384.05C1380.22 300.661 1367.25 290.199 1351.93 290.199C1333.51 290.199 1318.63 305.081 1318.63 323.5C1318.63 341.919 1333.51 356.801 1351.93 356.801ZM1385.08 321.437H1400.4V325.71H1385.08C1385.08 324.973 1385.22 324.237 1385.22 323.647C1385.22 322.763 1385.08 322.174 1385.08 321.437ZM1351.93 296.977C1366.51 296.977 1378.45 308.912 1378.45 323.5C1378.45 338.088 1366.51 350.023 1351.93 350.023C1337.34 350.023 1325.41 338.088 1325.41 323.5C1325.26 308.912 1337.19 296.977 1351.93 296.977Z" fill="#479547"/>
<path d="M1174.38 423.846C1178.36 421.341 1182.05 418.541 1185.73 415.594L1188.38 413.384L1184.11 408.227L1181.46 410.437C1178.07 413.236 1174.38 415.889 1170.7 418.246L1167.9 420.015L1171.58 425.761L1174.38 423.846Z" fill="#479547"/>
<path d="M1202.23 399.091C1205.18 395.554 1207.98 391.723 1210.48 387.745L1212.25 384.945L1206.5 381.261L1204.74 384.061C1202.38 387.745 1199.73 391.429 1196.93 394.818L1194.72 397.47L1199.87 401.743L1202.23 399.091Z" fill="#479547"/>
<path d="M1181.46 236.858L1184.11 239.068L1188.38 233.911L1185.73 231.701C1182.19 228.754 1178.36 225.954 1174.38 223.449L1171.58 221.681L1167.9 227.427L1170.7 229.196C1174.53 231.406 1178.07 234.058 1181.46 236.858Z" fill="#479547"/>
<path d="M1204.88 263.086L1206.65 265.886L1212.4 262.202L1210.63 259.402C1208.12 255.424 1205.32 251.593 1202.38 248.057L1200.17 245.404L1195.01 249.677L1197.22 252.33C1199.87 255.719 1202.53 259.402 1204.88 263.086Z" fill="#479547"/>
<path d="M1218.88 295.209L1219.76 298.45L1226.25 296.682L1225.36 293.44C1224.18 288.873 1222.71 284.452 1221.09 280.032L1219.91 276.937L1213.58 279.442L1214.75 282.537C1216.37 286.81 1217.85 290.936 1218.88 295.209Z" fill="#479547"/>
<path d="M1222.27 317.017C1222.42 319.227 1222.42 321.437 1222.42 323.5C1222.42 325.71 1222.42 327.92 1222.27 330.131L1222.12 333.52L1228.9 333.962L1229.05 330.573C1229.19 328.215 1229.19 325.858 1229.19 323.5C1229.19 321.142 1229.19 318.785 1229.05 316.575L1228.9 313.185L1222.12 313.628L1222.27 317.017Z" fill="#479547"/>
<path d="M1221.09 366.968C1222.86 362.695 1224.18 358.127 1225.36 353.707L1226.25 350.465L1219.76 348.697L1218.88 351.939C1217.7 356.212 1216.37 360.485 1214.75 364.463L1213.58 367.558L1219.91 370.063L1221.09 366.968Z" fill="#479547"/>
</g>
</g>
</svg>
