<?xml version="1.0" encoding="iso-8859-1"?>
<!--
  ~ Copyright (c) Murwa 2018.
  ~
  ~ All rights reserved.
  -->

<!-- Generator: Adobe Illustrator 19.0.0, SVG Export Plug-In . SVG Version: 6.00 Build 0)  -->
<svg xmlns="http://www.w3.org/2000/svg" xmlns:xlink="http://www.w3.org/1999/xlink" version="1.1" id="Layer_1" x="0px" y="0px" viewBox="0 0 512 512" style="enable-background:new 0 0 512 512;" xml:space="preserve" width="512px" height="512px">
<g>
	<g>
		<path d="M456.511,96.82C407.6,35.289,334.516,0,256,0S104.4,35.289,55.489,96.82C19.188,142.484,0,197.527,0,256    c0,58.473,19.188,113.516,55.489,159.18C104.4,476.711,177.484,512,256,512s151.601-35.289,200.511-96.82    C492.812,369.516,512,314.473,512,256C512,197.527,492.812,142.484,456.511,96.82z M16.168,256    c0-52.692,16.637-102.403,48.165-144.182c15.289,7.125,29.452,16.724,41.8,28.309H83.537v16.168h37.608    c9.311,11.527,16.884,24.17,22.615,37.726h-33.276v16.168h39.101c3.681,12.24,5.856,24.879,6.5,37.726h-34.821v16.168h34.821    c-0.642,12.843-2.817,25.481-6.492,37.726h-39.108v16.168h33.279c-5.734,13.549-13.308,26.191-22.612,37.726H83.537v16.168h22.606    c-12.341,11.579-26.502,21.175-41.809,28.309C32.806,358.403,16.168,308.691,16.168,256z M256,495.832    c-70.085,0-135.536-30.033-181.198-82.731c20.344-10.061,38.745-24.144,53.837-41.227h35.741v-16.168h-23.043    c8.138-11.722,14.773-24.35,19.832-37.726h35.548v-16.168h-30.31c3.323-12.296,5.286-24.923,5.867-37.726h29.833v-16.168h-29.832    c-0.582-12.809-2.547-25.437-5.872-37.726h30.315v-16.168h-35.554c-5.053-13.382-11.685-26.01-19.826-37.726h23.043v-16.168    h-35.753c-15.098-17.09-33.506-31.179-53.824-41.228C120.465,46.202,185.915,16.168,256,16.168s135.536,30.033,181.198,82.731    c-20.344,10.061-38.745,24.144-53.837,41.227h-35.741v16.168h23.043c-8.138,11.722-14.773,24.35-19.832,37.726h-35.548v16.168    h30.31c-3.323,12.296-5.286,24.923-5.867,37.726h-29.833v16.168h29.832c0.582,12.809,2.547,25.437,5.872,37.726h-30.315v16.168    h35.554c5.053,13.382,11.685,26.01,19.826,37.726h-23.043v16.168h35.753c15.098,17.09,33.506,31.179,53.824,41.228    C391.534,465.798,326.085,495.832,256,495.832z M447.667,400.182c-15.289-7.125-29.452-16.724-41.8-28.309h22.596v-16.168h-37.608    c-9.311-11.527-16.884-24.17-22.615-37.726h33.276v-16.168h-39.101c-3.681-12.24-5.856-24.879-6.5-37.726h34.821v-16.168h-34.821    c0.642-12.843,2.817-25.481,6.492-37.726h39.108v-16.168h-33.279c5.734-13.549,13.308-26.191,22.612-37.726h37.614v-16.168    h-22.606c12.341-11.579,26.502-21.175,41.809-28.309c31.527,41.779,48.165,91.492,48.165,144.182    C495.832,308.692,479.194,358.403,447.667,400.182z" fill="#ffffff"/>
	</g>
</g>
<g>
</g>
<g>
</g>
<g>
</g>
<g>
</g>
<g>
</g>
<g>
</g>
<g>
</g>
<g>
</g>
<g>
</g>
<g>
</g>
<g>
</g>
<g>
</g>
<g>
</g>
<g>
</g>
<g>
</g>
</svg>
