<?xml version="1.0" encoding="utf-8"?>
<!--
  ~ Copyright (c) Murwa 2018.
  ~
  ~ All rights reserved.
  -->

<!-- Generator: Adobe Illustrator 17.0.0, SVG Export Plug-In . SVG Version: 6.00 Build 0)  -->
<!DOCTYPE svg PUBLIC "-//W3C//DTD SVG 1.1//EN" "http://www.w3.org/Graphics/SVG/1.1/DTD/svg11.dtd">
<svg version="1.1" id="Capa_1" xmlns="http://www.w3.org/2000/svg" xmlns:xlink="http://www.w3.org/1999/xlink" x="0px" y="0px"
	 width="612px" height="792px" viewBox="0 0 612 792" enable-background="new 0 0 612 792" xml:space="preserve">
<g>
	<path fill="#24367E" d="M505.702,313.248l23.872-73.78c-34.894-49.692-86.257-87.267-145.734-105.072l-62.041,44.736v89.616
		l99.42,71.839L505.702,313.248z"/>
	<path fill="#24367E" d="M578.96,390.515l-63.065-45.912l-87.405,28.399l-36.992,113.712l53.708,73.922l78.352,0.132
		C558.35,514.94,579.03,457.843,579.03,396C579.03,394.164,578.995,392.34,578.96,390.515z"/>
	<path fill="#24367E" d="M183.13,371.883l-87.893-28.556l-62.16,45.193c-0.068,2.485-0.107,4.978-0.107,7.48
		c0,61.023,20.128,117.43,54.085,162.944l77.73,0.241l54.769-75.385L183.13,371.883z"/>
	<path fill="#24367E" d="M191.094,339.916l97.735-71.165v-89.624l-61.32-44.742c-59.747,17.88-110.784,55.706-145.699,105.724
		l23.207,71.812L191.094,339.916z"/>
	<path fill="#24367E" d="M246.247,503.151l-54.989,75.684l24.34,74.794c28.309,9.961,58.731,15.401,90.403,15.401
		c30.738,0,60.304-5.11,87.897-14.519l24.393-74.831l-55.601-76.529H246.247z"/>
	<path fill="#FFD604" d="M306,90C137.271,90,0,227.271,0,396s137.271,306,306,306s306-137.271,306-306S474.729,90,306,90z
		 M321.799,179.132l62.041-44.736c59.477,17.808,110.667,55.381,145.563,105.072l-23.786,73.78l-84.442,27.34l-99.377-71.839
		V179.132z M227.509,134.385l61.32,44.742v89.624l-97.735,71.165l-85.991-27.997l-23.38-71.81
		C116.639,190.092,167.762,152.265,227.509,134.385z M87.054,558.944C53.098,513.43,32.97,457.023,32.97,396
		c0-2.502,0.039-4.995,0.107-7.48l62.16-45.195l87.893,28.556l36.423,111.92l-54.769,75.385L87.054,558.944z M393.897,654.511
		C366.304,663.92,336.738,669.03,306,669.03c-31.672,0-62.094-5.44-90.403-15.403l-24.34-74.794l54.989-75.684h116.443
		l55.601,76.529L393.897,654.511z M445.206,560.634l-53.708-73.922L428.491,373l87.405-28.399l63.065,45.912
		c0.037,1.826,0.07,3.649,0.07,5.485c0,61.843-20.68,118.94-55.471,164.766L445.206,560.634z"/>
</g>
</svg>
