<?xml version="1.0" encoding="utf-8"?>
<!-- Generator: Adobe Illustrator 26.5.0, SVG Export Plug-In . SVG Version: 6.00 Build 0)  -->
<svg version="1.1" id="Layer_1" xmlns="http://www.w3.org/2000/svg" xmlns:xlink="http://www.w3.org/1999/xlink" x="0px" y="0px"
	 viewBox="0 0 556.13 145.99" style="enable-background:new 0 0 556.13 145.99;" xml:space="preserve">
<style type="text/css">
	.st0{fill:#F5A844;}
	.st1{fill:#FFFFFF;}
</style>
<g>
	<g>
		<path class="st0" d="M311.61,103.42c-0.46,0.41-19.12,4.55-19.12,4.55c-1.33,0-2.25-0.23-2.77-0.69c-0.51-0.46-0.77-1.3-0.77-2.53
			v-43h-41.62v39.07c0,1.33-0.23,2.2-0.69,2.61c-0.46,0.41-19.27,4.55-19.27,4.55c-1.23,0-2.13-0.23-2.69-0.69
			c-0.56-0.46-0.85-1.3-0.85-2.53V7.63c0-1.23,0.28-2.07,0.85-2.53c0.56-0.46,18.97-4.62,18.97-4.62c1.54,0,2.53,0.21,2.99,0.61
			c0.46,0.41,0.69,1.28,0.69,2.61v38.24h41.62V7.63c0-1.23,0.25-2.07,0.77-2.53c0.51-0.46,18.89-4.62,18.89-4.62
			c1.53,0,2.53,0.21,2.99,0.61c0.46,0.41,0.69,1.28,0.69,2.61v97.12C312.3,102.14,312.07,103.01,311.61,103.42z"/>
		<path class="st0" d="M343.25,12.8c0,3.58-1.26,6.58-3.76,8.98c-2.51,2.41-5.56,3.61-9.14,3.61c-3.48,0-6.48-1.2-8.98-3.61
			c-2.51-2.4-3.76-5.4-3.76-8.98c0-1.84,0.33-3.53,1-5.07c0.66-1.54,1.59-2.87,2.76-3.99c1.18-1.13,2.54-2.02,4.07-2.69
			c1.54-0.67,3.17-1,4.91-1c1.74,0,3.4,0.33,4.99,1c1.58,0.67,2.97,1.56,4.15,2.69c1.18,1.13,2.1,2.46,2.76,3.99
			C342.91,9.27,343.25,10.96,343.25,12.8z M341.25,101.27c0,1.13-0.21,1.87-0.61,2.23c-0.41,0.36-18.43,4.47-18.43,4.47
			c-1.13,0-1.95-0.18-2.46-0.54c-0.51-0.36-0.77-1.1-0.77-2.23V34.04c0-1.13,0.25-1.87,0.77-2.23c0.51-0.36,18.12-4.47,18.12-4.47
			c1.43,0,2.35,0.18,2.76,0.54c0.41,0.36,0.61,1.1,0.61,2.23V101.27z"/>
		<path class="st0" d="M370.09,139.45c0,1.13-0.18,1.84-0.54,2.15c-0.36,0.31-18.53,4.39-18.53,4.39c-1.12,0-1.93-0.15-2.44-0.46
			s-0.76-1.02-0.76-2.15v-108c0-1.13,0.18-2.02,0.54-2.69c0.36-0.66,1.2-1.36,2.54-2.07c4.91-2.25,10.42-3.84,16.51-4.76
			c6.09-0.92,11.9-1.38,17.43-1.38c7.27,0,13.38,1.1,18.35,3.3c4.96,2.2,8.96,5.17,11.98,8.91c3.02,3.74,5.19,8.16,6.53,13.28
			c1.33,5.12,2,10.6,2,16.43c0,5.73-0.72,11.13-2.16,16.2c-1.44,5.07-3.65,9.5-6.62,13.28c-2.98,3.79-6.75,6.78-11.32,8.98
			c-4.57,2.2-9.93,3.3-16.09,3.3c-3.08,0-5.93-0.13-8.55-0.38c-2.62-0.26-5.57-0.75-8.85-1.46V139.45z M400.34,65.94
			c0-4.2-0.41-7.73-1.23-10.6c-0.82-2.87-2.03-5.17-3.63-6.91c-1.6-1.74-3.55-2.97-5.87-3.69c-2.31-0.72-4.91-1.08-7.79-1.08
			c-1.44,0-3.32,0.15-5.63,0.46c-2.32,0.31-4.35,0.72-6.1,1.23v41.93c2.67,0.72,5.06,1.18,7.18,1.38c2.11,0.21,3.99,0.31,5.63,0.31
			c5.15,0,9.34-1.74,12.58-5.22C398.72,80.28,400.34,74.34,400.34,65.94z"/>
		<path class="st0" d="M507.91,65.58c0,13.52-3.22,23.96-9.68,31.33c-6.45,7.37-16.28,11.06-29.48,11.06
			c-13.31,0-23.04-3.69-29.18-11.06c-6.14-7.37-9.21-17.71-9.21-31.02c0-6.55,0.9-12.46,2.69-17.74c1.79-5.27,4.35-9.7,7.68-13.28
			c3.32-3.58,7.37-6.35,12.13-8.29c4.76-1.94,10.16-2.92,16.2-2.92c12.9,0,22.6,3.71,29.1,11.13
			C504.66,42.21,507.91,52.48,507.91,65.58z M484.72,66.04c0-3.48-0.26-6.65-0.77-9.52c-0.51-2.87-1.38-5.32-2.61-7.37
			c-1.23-2.05-2.82-3.66-4.76-4.84c-1.95-1.18-4.35-1.77-7.22-1.77c-5.43,0-9.44,2.07-12.06,6.22c-2.61,4.15-3.92,9.75-3.92,16.82
			c0,7.68,1.2,13.52,3.61,17.51c2.4,3.99,6.37,5.99,11.9,5.99c2.86,0,5.3-0.59,7.29-1.77c2-1.18,3.63-2.82,4.91-4.91
			c1.28-2.1,2.2-4.53,2.77-7.29C484.44,72.34,484.72,69.32,484.72,66.04z"/>
		<g>
			<path class="st1" d="M514.58,24.48V0.08h6.62v9.86h0.33l7.34-9.86h7.72l-8.24,10.86l8.43,13.53h-7.91l-5.48-9.15l-2.19,2.86v6.29
				H514.58z"/>
			<path class="st1" d="M538.55,24.48V0.08h17.58v5.34h-10.96v4.19h10.05v5.34h-10.05v4.19h10.91v5.34H538.55z"/>
		</g>
	</g>
	<g>
		<path class="st1" d="M68.03,49.15c2.87,1.13,5.35,2.64,7.45,4.53c2.1,1.9,3.81,3.99,5.15,6.3c1.33,2.3,2.3,4.79,2.92,7.45
			c0.61,2.66,0.92,5.27,0.92,7.83c0,4.91-0.95,9.37-2.84,13.36c-1.9,3.99-4.51,7.42-7.83,10.29c-3.33,2.87-7.22,5.1-11.67,6.68
			c-4.45,1.59-9.24,2.38-14.36,2.38H9.21c-3.69,0-6.14-0.74-7.37-2.23C0.61,104.26,0,101.88,0,98.6V9.84c0-3.28,0.61-5.68,1.84-7.22
			c1.23-1.54,3.69-2.3,7.37-2.3h37.62c4.61,0,8.93,0.51,12.98,1.54c4.04,1.02,7.55,2.64,10.52,4.84s5.3,5.02,6.99,8.44
			c1.69,3.43,2.53,7.55,2.53,12.36c0,4.3-1.1,8.32-3.3,12.06c-2.2,3.74-5.04,6.58-8.52,8.52V49.15z M23.34,41.01h20.89
			c1.23,0,2.53-0.15,3.92-0.46c1.38-0.3,2.64-0.84,3.76-1.6c1.13-0.76,2.05-1.83,2.76-3.2c0.72-1.37,1.08-3.12,1.08-5.26
			c0-3.05-0.97-5.44-2.92-7.16c-1.95-1.73-4.56-2.59-7.83-2.59H23.34V41.01z M60.35,73.72c0-4.09-1.26-7.42-3.76-9.98
			c-2.51-2.56-6.22-3.84-11.13-3.84H23.34v27.49h22.12c2.86,0,5.27-0.43,7.22-1.3c1.94-0.87,3.48-1.97,4.61-3.3
			c1.13-1.33,1.92-2.81,2.38-4.45C60.12,76.69,60.35,75.16,60.35,73.72z"/>
		<path class="st1" d="M129.11,23.66c11.98,0,20.96,2.99,26.95,8.98c5.99,5.99,8.98,14.56,8.98,25.72c0,5.32-1.03,8.96-3.07,10.9
			c-2.05,1.95-4.86,2.92-8.44,2.92h-39.32c0.1,3.28,0.64,5.99,1.61,8.14c0.97,2.15,2.28,3.89,3.92,5.22
			c1.64,1.33,3.56,2.25,5.76,2.77c2.2,0.51,4.58,0.77,7.14,0.77c2.97,0,5.99-0.36,9.06-1.07c3.07-0.72,5.94-1.64,8.6-2.77
			c1.23-0.41,2.07-0.54,2.54-0.38c0.46,0.15,0.89,0.64,1.3,1.46l4.91,11.06c0.41,0.92,0.48,1.64,0.23,2.15
			c-0.26,0.51-0.79,1.02-1.61,1.53c-3.79,2.46-8.19,4.22-13.21,5.3c-5.02,1.08-9.68,1.61-13.98,1.61c-13.41,0-23.34-3.33-29.79-9.98
			c-6.45-6.65-9.68-17.2-9.68-31.64c0-6.76,0.89-12.77,2.69-18.04c1.79-5.27,4.35-9.75,7.68-13.44c3.32-3.69,7.32-6.47,11.98-8.37
			C118.02,24.6,123.27,23.66,129.11,23.66z M129.57,42.08c-4.2,0-7.63,1.49-10.29,4.45c-2.66,2.97-4.2,6.76-4.61,11.36h28.72
			c0-2.25-0.23-4.35-0.69-6.3c-0.46-1.94-1.2-3.61-2.23-4.99c-1.03-1.38-2.41-2.48-4.15-3.3C134.58,42.5,132.33,42.08,129.57,42.08z
			"/>
		<path class="st1" d="M217.17,104.13c0,0.46-0.56,0.89-1.69,1.29c-3.79,1.12-9.66,1.73-13.45,2.04c-3.79,0.3-7.02,0.61-9.67,0.46
			c-5.12-0.29-11.17-1.87-14.96-5.61c-3.79-3.74-5.68-9.24-5.68-16.51l1.54-77.26c0.1-1.23,0.43-2.1,1-2.61
			c0.56-0.51,1.41-0.92,2.54-1.23l14.13-4.61c0.92-0.2,1.66-0.1,2.23,0.31c0.56,0.41,0.84,1.23,0.84,2.46v22.75h16.89
			c1.13,0,1.82,0.23,2.07,0.69c0.25,0.46,0.38,1.1,0.38,1.92v10.9c0,1.02-0.1,1.77-0.31,2.23c-0.21,0.46-0.92,0.69-2.15,0.69h-16.89
			v39.14c0,2.98,0.74,5.03,2.23,6.16c1.48,1.13,3.71,1.69,6.68,1.69c0.72,0,1.59-0.05,2.61-0.15c1.02-0.1,2.07-0.2,3.15-0.31
			c1.07-0.1,2.12-0.2,3.15-0.31c1.02-0.1,1.89-0.21,2.61-0.31c1.64-0.31,2.51,0.2,2.61,1.53L217.17,104.13z"/>
	</g>
</g>
</svg>
