<?xml version="1.0" encoding="iso-8859-1"?>
<!--
  ~ Copyright (c) Murwa 2018.
  ~
  ~ All rights reserved.
  -->

<!-- Generator: Adobe Illustrator 19.0.0, SVG Export Plug-In . SVG Version: 6.00 Build 0)  -->
<svg xmlns="http://www.w3.org/2000/svg" xmlns:xlink="http://www.w3.org/1999/xlink" version="1.1" id="Capa_1" x="0px" y="0px" viewBox="0 0 497.271 497.271" style="enable-background:new 0 0 497.271 497.271;" xml:space="preserve" width="512px" height="512px">
<g>
	<g>
		<g>
			<polygon points="440.626,441.511 441.252,258.31 497.271,201.902 455.187,129.08 442.956,129.058 442.999,190.125      383.313,190.146 383.313,129.08 371.082,129.036 329.062,201.881 383.572,256.757 382.86,256.757 382.493,372.937      353.394,338.446 299.251,326.409 299.251,404.862 272.59,404.862 272.59,320.499 256.843,317.047 237.063,297.202      207.856,328.911 207.942,329.602 183.33,329.602 183.395,328.911 154.102,297.202 134.343,317.047 118.704,320.499      118.704,404.862 92.043,404.862 92.043,326.409 37.9,338.446 0,474.32 468.086,474.32 440.368,441.468    " fill="#FFFFFF"/>
			<path d="M195.755,299.532c44.479,0,80.89-61.994,89.842-117.043H105.869C114.692,237.969,151.276,299.532,195.755,299.532z" fill="#FFFFFF"/>
			<path d="M317.155,147.479h-21.032C292.629,94.2,281.628,22.951,195.625,22.951c-86.067,0-97.004,71.248-100.585,124.528H73.017     v15.445h244.138V147.479z" fill="#FFFFFF"/>
		</g>
	</g>
	<g>
	</g>
	<g>
	</g>
	<g>
	</g>
	<g>
	</g>
	<g>
	</g>
	<g>
	</g>
	<g>
	</g>
	<g>
	</g>
	<g>
	</g>
	<g>
	</g>
	<g>
	</g>
	<g>
	</g>
	<g>
	</g>
	<g>
	</g>
	<g>
	</g>
</g>
<g>
</g>
<g>
</g>
<g>
</g>
<g>
</g>
<g>
</g>
<g>
</g>
<g>
</g>
<g>
</g>
<g>
</g>
<g>
</g>
<g>
</g>
<g>
</g>
<g>
</g>
<g>
</g>
<g>
</g>
</svg>
