<?xml version="1.0" encoding="iso-8859-1"?>
<!-- Generator: Adobe Illustrator 16.0.0, SVG Export Plug-In . SVG Version: 6.00 Build 0)  -->
<!DOCTYPE svg PUBLIC "-//W3C//DTD SVG 1.1//EN" "http://www.w3.org/Graphics/SVG/1.1/DTD/svg11.dtd">
<svg version="1.1" id="Capa_1" xmlns="http://www.w3.org/2000/svg" xmlns:xlink="http://www.w3.org/1999/xlink" x="0px" y="0px"
	 width="960.8px" height="960.8px" viewBox="0 0 960.8 960.8" style="enable-background:new 0 0 960.8 960.8;" xml:space="preserve"
	>
<g>
	<path d="M843.9,163.8c-44.2,95.9-69.3,188.5-75.2,276.601h192.1C952.101,334.9,909.5,239.1,843.9,163.8z"/>
	<path d="M116.9,797c44.1-95.9,69.3-188.6,75.2-276.6H0C8.7,625.9,51.3,721.7,116.9,797z"/>
	<path d="M520.4,440.4h168.1c6.4-107.3,38.101-219.601,94.601-335.101c-73-59-163.601-97.1-262.7-105.2V440.4z"/>
	<path d="M116.9,163.8C51.3,239.1,8.7,334.9,0,440.4h192.1c-3.9-57.301-15.9-116.8-35.9-177.4C145.3,230.2,132.3,197.3,116.9,163.8z
		"/>
	<path d="M232.2,237.9c22.8,68.9,36.2,136.8,40.1,202.5h168.1V0C341.3,8.2,250.7,46.3,177.7,105.3
		C199.6,150.2,217.6,194,232.2,237.9z"/>
	<path d="M960.8,520.4H768.7c7.2,104,41.1,199.699,75.8,275.899C909.8,721.1,952.101,625.6,960.8,520.4z"/>
	<path d="M440.4,520.4H272.3c-6.4,107.199-38.1,219.5-94.6,335.1c73,59,163.6,97.1,262.7,105.3V520.4z"/>
	<path d="M520.4,960.8c99.3-8.2,190.1-46.399,263.2-105.7c-42-87.5-87.2-204.199-95.101-334.699H520.4V960.8z"/>
</g>
<g>
</g>
<g>
</g>
<g>
</g>
<g>
</g>
<g>
</g>
<g>
</g>
<g>
</g>
<g>
</g>
<g>
</g>
<g>
</g>
<g>
</g>
<g>
</g>
<g>
</g>
<g>
</g>
<g>
</g>
</svg>
