<svg id="Layer_1" data-name="Layer 1" xmlns="http://www.w3.org/2000/svg" viewBox="0 0 24 24"><defs><style>.cls-1{fill:#040045;}.cls-2{fill:none;stroke:#fff;stroke-linecap:round;stroke-linejoin:round;stroke-width:1.5px;}</style></defs><rect class="cls-1" x="-0.62" y="-0.62" width="25.25" height="25.25"/><path class="cls-2" d="M15.59,11.8H14v-4a2,2,0,1,0-4,0v4H8.44a.7.7,0,0,0-.71.7A.68.68,0,0,0,8,13l3.57,3.43a.71.71,0,0,0,1,0h0L16.11,13a.71.71,0,0,0-.52-1.22Z"/><path class="cls-2" d="M4,15.77v2.14a1.79,1.79,0,0,0,1.65,1.9H18.39A1.78,1.78,0,0,0,20,17.91V15.77"/></svg>