<svg id="Layer_1" data-name="Layer 1" xmlns="http://www.w3.org/2000/svg" viewBox="0 0 24 24"><defs><style>.cls-1{fill:#040045;}.cls-2{fill:none;stroke:#fff;stroke-linecap:round;stroke-linejoin:round;stroke-width:1.5px;}</style></defs><rect class="cls-1" x="-0.62" y="-0.62" width="25.25" height="25.25"/><path class="cls-2" d="M19.57,6.53h.49a2.07,2.07,0,0,0,1.51-.63,2.14,2.14,0,0,0-1.51-3.66H4.48A2.14,2.14,0,0,0,3,2.87a2.07,2.07,0,0,0-.63,1.51A2.15,2.15,0,0,0,4.48,6.53H5"/><path class="cls-2" d="M20.07,21.75H4.45a1.16,1.16,0,0,1-1.18-1.16.76.76,0,0,1,0-.15L5,6.19a1.17,1.17,0,0,1,1.16-1h12.2a1.18,1.18,0,0,1,1.16,1l1.76,14.25a1.18,1.18,0,0,1-1,1.31A1.08,1.08,0,0,1,20.07,21.75Z"/><line class="cls-2" x1="16.29" y1="8.39" x2="17.53" y2="19.22"/><line class="cls-2" x1="7.69" y1="8.39" x2="7.13" y2="13.31"/><line class="cls-2" x1="11.8" y1="7.69" x2="11.8" y2="17.1"/></svg>