<svg id="Layer_1" data-name="Layer 1" xmlns="http://www.w3.org/2000/svg" viewBox="0 0 24 24"><defs><style>.cls-1{fill:#040045;}.cls-2{fill:none;stroke:#fff;stroke-linecap:round;stroke-linejoin:round;stroke-width:1.5px;}.cls-3{isolation:isolate;}.cls-4{fill:#fff;}</style></defs><rect class="cls-1" x="-0.62" y="-0.62" width="25.25" height="25.25"/><path class="cls-2" d="M2.37,8.83A4.87,4.87,0,0,1,7.22,4.36h9.4A5,5,0,0,1,20.22,6a4.94,4.94,0,0,1,1.33,3.71v1.42"/><path class="cls-2" d="M21.53,16.17h0a4.92,4.92,0,0,1-4.91,5.28H7.22c-2.92,0-4.89-2.38-4.89-5.3V13.71"/><g class="cls-3"><path class="cls-4" d="M8.21,15.08l-.27-.71H5.63l-.27.72a2.11,2.11,0,0,1-.27.58.41.41,0,0,1-.36.15.57.57,0,0,1-.39-.16.5.5,0,0,1-.16-.36,1,1,0,0,1,0-.24c0-.09.07-.2.13-.35L5.79,11l.15-.38a1.81,1.81,0,0,1,.19-.37A.67.67,0,0,1,6.39,10,.78.78,0,0,1,6.78,10a.82.82,0,0,1,.4.09.67.67,0,0,1,.26.24,1.78,1.78,0,0,1,.17.3l.17.44,1.48,3.66a1.79,1.79,0,0,1,.18.61.51.51,0,0,1-.17.36.54.54,0,0,1-.4.17.56.56,0,0,1-.23-.05.7.7,0,0,1-.16-.13,1.45,1.45,0,0,1-.14-.26C8.29,15.27,8.24,15.16,8.21,15.08ZM5.94,13.5H7.63l-.86-2.34Z"/><path class="cls-4" d="M11.18,10.56v1.61a2.13,2.13,0,0,1,.61-.47,1.47,1.47,0,0,1,.76-.17,1.65,1.65,0,0,1,.92.25,1.68,1.68,0,0,1,.62.72,2.78,2.78,0,0,1,.22,1.13,3.07,3.07,0,0,1-.12.88,2.26,2.26,0,0,1-.36.69,1.56,1.56,0,0,1-.56.46,1.74,1.74,0,0,1-.73.16,1.76,1.76,0,0,1-.46-.06,1.19,1.19,0,0,1-.36-.16,1.34,1.34,0,0,1-.26-.19l-.28-.3v.1a.65.65,0,0,1-.14.45.51.51,0,0,1-.37.16.43.43,0,0,1-.35-.16.65.65,0,0,1-.14-.45V10.6a.81.81,0,0,1,.13-.48.45.45,0,0,1,.36-.17.46.46,0,0,1,.38.16A.65.65,0,0,1,11.18,10.56Zm.05,3.13a1.41,1.41,0,0,0,.29,1,.92.92,0,0,0,.75.34.87.87,0,0,0,.69-.35,1.52,1.52,0,0,0,.29-1,1.94,1.94,0,0,0-.12-.72,1.09,1.09,0,0,0-.34-.46.85.85,0,0,0-.52-.17.88.88,0,0,0-.53.17,1.06,1.06,0,0,0-.38.47A1.88,1.88,0,0,0,11.23,13.69Z"/><path class="cls-4" d="M18.94,14.51a.9.9,0,0,1-.12.42,1.55,1.55,0,0,1-.36.43,1.85,1.85,0,0,1-.61.32,2.35,2.35,0,0,1-.82.13,2,2,0,0,1-1.53-.57A2.1,2.1,0,0,1,15,13.71a2.47,2.47,0,0,1,.25-1.15,1.81,1.81,0,0,1,.73-.77,2.24,2.24,0,0,1,1.14-.28,2.27,2.27,0,0,1,.75.12,2.12,2.12,0,0,1,.58.31,1.49,1.49,0,0,1,.36.41.82.82,0,0,1,.13.4.42.42,0,0,1-.15.32.45.45,0,0,1-.34.13.34.34,0,0,1-.22-.07,1,1,0,0,1-.19-.21,1.51,1.51,0,0,0-.41-.45,1,1,0,0,0-.53-.14.91.91,0,0,0-.75.36,1.55,1.55,0,0,0-.29,1,1.93,1.93,0,0,0,.07.55,1.17,1.17,0,0,0,.22.43.93.93,0,0,0,.33.26,1,1,0,0,0,.44.09,1,1,0,0,0,.54-.14,1.37,1.37,0,0,0,.4-.45.89.89,0,0,1,.21-.28.36.36,0,0,1,.27-.1.39.39,0,0,1,.32.15A.43.43,0,0,1,18.94,14.51Z"/></g><polyline class="cls-2" points="20.11 14.88 21.52 13.53 22.93 14.88"/><polyline class="cls-2" points="3.79 10.07 2.38 11.42 0.96 10.07"/></svg>