<svg id="Layer_1" data-name="Layer 1" xmlns="http://www.w3.org/2000/svg" viewBox="0 0 24 24"><defs><style>.cls-1{fill:#040045;}.cls-2{fill:none;stroke:#fff;stroke-linecap:round;stroke-linejoin:round;stroke-width:1.5px;}.cls-3{fill:#fff;}</style></defs><rect class="cls-1" x="-0.62" y="-0.62" width="25.25" height="25.25"/><path class="cls-2" d="M8.36,13.12a3.58,3.58,0,0,1,7.16,0h0"/><rect class="cls-2" x="6.35" y="13.11" width="11.25" height="8.07" rx="1.56"/><path class="cls-2" d="M14.58,10.66h3.78a1.75,1.75,0,0,0,1.75-1.75V6.57a1.73,1.73,0,0,0-1.72-1.75H5.63A1.75,1.75,0,0,0,3.88,6.57V8.91a1.75,1.75,0,0,0,1.75,1.75H9.36"/><circle class="cls-3" cx="6.94" cy="7.56" r="0.91"/><circle class="cls-3" cx="10.3" cy="7.56" r="0.91"/><circle class="cls-3" cx="13.65" cy="7.56" r="0.91"/><circle class="cls-3" cx="17.01" cy="7.56" r="0.91"/></svg>