<svg id="Layer_1" data-name="Layer 1" xmlns="http://www.w3.org/2000/svg" viewBox="0 0 24 24"><defs><style>.cls-1{fill:#040045;}.cls-2{fill:none;stroke:#fff;stroke-linecap:round;stroke-linejoin:round;stroke-width:1.5px;}</style></defs><rect class="cls-1" x="-0.62" y="-0.62" width="25.25" height="25.25"/><path class="cls-2" d="M2.34,8.37v7.07c0,3,2,5.42,5,5.42H17a5,5,0,0,0,3.67-1.63A5.16,5.16,0,0,0,22,15.44V8.35"/><path class="cls-2" d="M7.86,10A5,5,0,0,1,7,7.2a4.6,4.6,0,0,1,.09-.91,5,5,0,0,1,.78-2,5.17,5.17,0,0,1,8.6,0,5,5,0,0,1,.78,2,4.6,4.6,0,0,1,.09.91A5.2,5.2,0,0,1,16.51,10"/><path class="cls-2" d="M17.38,6.53h2.78a1.93,1.93,0,0,1,1.58.81h0A1.52,1.52,0,0,1,22,8h0a1.93,1.93,0,0,1,0,.34,1.88,1.88,0,0,1-1.86,1.88H4.26A1.88,1.88,0,0,1,2.34,8.36h0a.24.24,0,0,1,0-.12h0a1.6,1.6,0,0,1,.41-1h0a2,2,0,0,1,1.51-.7H7"/></svg>