<svg xmlns="http://www.w3.org/2000/svg" viewBox="0 0 64 64"><g data-name="Layer 2"><rect width="21.42" height="7.4" x="21.29" y="18.11" rx="2.35" ry="2.35"/><path d="M22.7,16.22a4.33,4.33,0,0,1,.94-.11H40.36a4.33,4.33,0,0,1,.94.11l2.64-3.74a1,1,0,0,0,.18-.58V4a1,1,0,0,0-1-1h-4a1,1,0,0,0-1,1V6.44H35V4a1,1,0,0,0-1-1H30a1,1,0,0,0-1,1V6.44H25.83V4a1,1,0,0,0-1-1h-4a1,1,0,0,0-1,1v7.9a1,1,0,0,0,.18.58Z"/><polygon points="43.38 43.68 39.21 27.51 24.79 27.51 20.62 43.68 43.38 43.68"/><path d="M50,50.93H48.65c0-.1,0-.21,0-.31V48a2.32,2.32,0,0,0-2.31-2.32H17.64A2.32,2.32,0,0,0,15.33,48v2.62c0,.1,0,.21,0,.31H14a1,1,0,0,0-1,1V60a1,1,0,0,0,1,1H50a1,1,0,0,0,1-1V51.93A1,1,0,0,0,50,50.93Z"/></g></svg>