<svg id="Layer_1" data-name="Layer 1" xmlns="http://www.w3.org/2000/svg" xmlns:xlink="http://www.w3.org/1999/xlink" viewBox="0 0 354.18 325.41"><defs><style>.cls-1{fill:url(#New_Gradient_Swatch_15);}.cls-2{fill:url(#New_Gradient_Swatch_15-2);}.cls-3{fill:url(#New_Gradient_Swatch_15-3);}.cls-4{fill:url(#New_Gradient_Swatch_15-4);}</style><linearGradient id="New_Gradient_Swatch_15" x1="156.99" y1="124.04" x2="312.15" y2="124.04" gradientUnits="userSpaceOnUse"><stop offset="0" stop-color="#950c37"/><stop offset="0.43" stop-color="#ff265a"/><stop offset="1" stop-color="#ff4d7c"/></linearGradient><linearGradient id="New_Gradient_Swatch_15-2" x1="74.91" y1="165.47" x2="267.89" y2="165.47" xlink:href="#New_Gradient_Swatch_15"/><linearGradient id="New_Gradient_Swatch_15-3" x1="102.67" y1="166.96" x2="240.06" y2="166.96" xlink:href="#New_Gradient_Swatch_15"/><linearGradient id="New_Gradient_Swatch_15-4" x1="129.26" y1="165.85" x2="213.54" y2="165.85" xlink:href="#New_Gradient_Swatch_15"/></defs><g id="xzBEJj.tif"><path class="cls-1" d="M312.15,111.55a14.14,14.14,0,0,1-5.6,5.59q-7.57,4.68-15,9.68a7.4,7.4,0,0,1-7.83.58c-6.17-2.81-12.39-5.54-18.54-8.38a3.41,3.41,0,0,0-3.62.24q-37,22.26-74,44.39a3.6,3.6,0,0,0-1.93,3.5,14.55,14.55,0,0,1-13.95,14.25c-7,.38-13.72-5.43-14.61-12.84-.65-5.45,1.56-9.85,5.87-13.07a13,13,0,0,1,13.55-1.74,5,5,0,0,0,5.08-.32q37-21.48,74.14-42.8a3.74,3.74,0,0,0,2.18-3.79c-.12-7.33,0-14.67-.08-22a6.63,6.63,0,0,1,3.34-6.14c5.58-3.59,11.31-7,16.66-10.89,3.78-2.77,9.94-.28,10.12,4.65.24,6.54,1.27,13.05,1.83,19.58a3.3,3.3,0,0,0,1.86,2.86c5.1,3,10.21,6.07,15.19,9.31a50.76,50.76,0,0,1,5.31,4.56Zm-36.62-31c-2.88,1.81-5.51,3.39-8,5.1a2.42,2.42,0,0,0-.73,1.74c-.05,6.48-.07,12.95,0,19.42a2.65,2.65,0,0,0,1.34,1.94c5.3,2.29,10.64,4.47,16,6.61a2.7,2.7,0,0,0,2.1.06c2.7-1.87,5.3-3.89,8.18-6.05-4.55-2.46-8.8-4.77-13.06-7a5.92,5.92,0,0,1-3.47-4.57l-.48-3.66C276.79,89.69,276.18,85.29,275.53,80.56Z"/><path class="cls-2" d="M86,169.53c1.46,30,16.81,56.54,48.43,71.9,29,14.09,57.8,11.6,84.69-6.08,19.3-12.68,31.26-31,35.79-53.64,3.19-16,2.77-31.93-3.47-47.34-1.35-3.34-.2-6,2.9-7.17s5.63.16,6.88,3.54c8.76,23.61,9.1,47.3-.31,70.72-9.25,23-25.17,40.27-47.62,51.1-25.57,12.36-51.78,13.25-78,2.52-22.57-9.23-39.3-25.14-50.29-47a92.32,92.32,0,0,1-10-45.6A93.33,93.33,0,0,1,92.72,111c12.55-17.66,29.14-30.21,49.63-37,36.09-12,68.07-4.28,95.89,21.39a26.27,26.27,0,0,1,3.7,4.12,5.11,5.11,0,0,1-.81,6.55,5.18,5.18,0,0,1-6.55.77,33.41,33.41,0,0,1-3.73-3.11,88.1,88.1,0,0,0-41.77-22.22,83.31,83.31,0,0,0-53.36,5.69c-19.83,9-34,23.66-42.75,43.57C88.23,141.52,86.11,152.92,86,169.53Z"/><path class="cls-3" d="M229.38,163.63c-.67-3.81-1.49-9-2.57-14.22-.72-3.45.43-5.91,3.64-6.85,2.94-.85,5.54.63,6.47,3.95,7,24.69,2.45,47-14.67,66.21-15.4,17.24-35.08,24.8-58.11,22.51-18.79-1.86-34.23-10.55-46.08-25.17s-17-31.68-14.94-50.55c3.23-29.5,25.49-54.09,54.59-59.78,22.92-4.48,43.23,1.58,60.76,17,2.57,2.26,2.83,5.41.81,7.81a5.19,5.19,0,0,1-7.63.6A75.82,75.82,0,0,0,194.1,114c-23.18-10.16-52-3.11-67.5,17-15.09,19.62-17.1,40.84-6.06,62.95,10.76,21.54,36.08,33.94,60,29.88a57.8,57.8,0,0,0,47.55-46.93C228.73,173,228.85,169.07,229.38,163.63Z"/><path class="cls-4" d="M202.42,165c-.07-1.23-.15-2.46-.22-3.69-.18-3.57,2.1-5.64,6.29-5.7,2.89,0,4.85,2,5,5.19.43,9.85-1,19.3-6.61,27.64-9.58,14.26-23.15,21.15-40.16,19.15C148.43,205.48,136,195,130.94,177.23c-6.75-23.69,7.46-47,31.53-52.45,12.37-2.79,23.7.18,33.91,7.57,2.52,1.82,3.44,5.3,2.12,7.33a6.1,6.1,0,0,1-8.27,1.91c-9.43-5.68-19.35-7.41-29.89-3.56-13.68,5-21.56,18.64-19.63,33.81,1.7,13.38,13.49,24.62,27.24,26,18.66,1.83,34.14-12,34.4-30.69,0-.7,0-1.39,0-2.09Z"/></g></svg>