<?xml version="1.0" encoding="iso-8859-1"?>
<!-- Generator: Adobe Illustrator 18.0.0, SVG Export Plug-In . SVG Version: 6.00 Build 0)  -->
<!DOCTYPE svg PUBLIC "-//W3C//DTD SVG 1.1//EN" "http://www.w3.org/Graphics/SVG/1.1/DTD/svg11.dtd">
<svg version="1.1" id="Capa_1" xmlns="http://www.w3.org/2000/svg" xmlns:xlink="http://www.w3.org/1999/xlink" x="0px" y="0px"
	 viewBox="0 0 406.526 406.526" style="enable-background:new 0 0 406.526 406.526;" xml:space="preserve">
<g>
	<path style="fill:#211915;" d="M375.714,212.141c-11.305,0-21.202,6.125-26.563,15.226L170.43,191.353
		c-2.929-0.594-5.966,0.158-8.283,2.043c-2.317,1.884-3.671,4.704-3.692,7.69l-0.147,21.299l-11.19-34.522
		c-1.703-5.254-7.342-8.135-12.596-6.43c-5.254,1.703-8.132,7.343-6.429,12.596l12.606,38.892h-2.582l-16.103-49.68
		c-1.702-5.254-7.342-8.134-12.596-6.43c-5.254,1.703-8.132,7.343-6.429,12.596l14.104,43.514h-4.84l-23.045-69.686
		c3.7-0.749,6.819-3.563,7.753-7.477c1.282-5.372-2.034-10.766-7.406-12.047l-44.733-10.673c-4.37-1.05-8.901,0.958-11.074,4.892
		l-4.333,7.846c-2.67,4.835-0.916,10.918,3.918,13.589c4.832,2.67,10.917,0.917,13.588-3.919l0.657-1.188l19.104,4.558
		l10.261,31.028c-4.469-1.569-9.266-2.432-14.264-2.432c-23.808,0-43.177,19.369-43.177,43.178c0,0.783,0.024,1.56,0.065,2.333H10
		c-5.523,0-10,4.478-10,10s4.477,10,10,10h15.737c7.576,12.484,21.3,20.844,36.94,20.844s29.364-8.359,36.94-20.844h5.334
		c0.025,0,0.049,0.003,0.074,0.003c0.025,0,0.049-0.003,0.074-0.003h25.671c0.025,0,0.049,0.003,0.074,0.003
		c0.025,0,0.05-0.003,0.075-0.003h23.457c0.025,0,0.049,0.003,0.074,0.003c0.025,0,0.05-0.003,0.075-0.003h13.62
		c0.008,0,0.016,0,0.023,0c0.007,0,0.015,0,0.022,0h178.377c4.153,12.111,15.646,20.844,29.147,20.844
		c16.99,0,30.812-13.822,30.812-30.812S392.704,212.141,375.714,212.141z M375.714,253.764c-5.961,0-10.812-4.85-10.812-10.812
		s4.85-10.812,10.812-10.812s10.812,4.85,10.812,10.812S381.676,253.764,375.714,253.764z M178.37,213.355l97.095,19.565h-97.229
		L178.37,213.355z M62.677,253.764c-12.78,0-23.177-10.397-23.177-23.177c0-12.78,10.397-23.178,23.177-23.178
		s23.177,10.397,23.177,23.178C85.854,243.367,75.457,253.764,62.677,253.764z"/>
</g>
<g>
</g>
<g>
</g>
<g>
</g>
<g>
</g>
<g>
</g>
<g>
</g>
<g>
</g>
<g>
</g>
<g>
</g>
<g>
</g>
<g>
</g>
<g>
</g>
<g>
</g>
<g>
</g>
<g>
</g>
</svg>
