<svg id="Layer_1" data-name="Layer 1" xmlns="http://www.w3.org/2000/svg" xmlns:xlink="http://www.w3.org/1999/xlink" viewBox="0 0 354.18 325.41"><defs><style>.cls-1{fill:url(#linear-gradient);}.cls-2{fill:url(#linear-gradient-2);}.cls-3{fill:url(#linear-gradient-3);}.cls-4{fill:url(#linear-gradient-4);}.cls-5{fill:url(#linear-gradient-5);}</style><linearGradient id="linear-gradient" x1="218.5" y1="186.44" x2="251.63" y2="186.44" gradientUnits="userSpaceOnUse"><stop offset="0" stop-color="#005781"/><stop offset="0.57" stop-color="#00a9b3"/><stop offset="1" stop-color="#03cddd"/></linearGradient><linearGradient id="linear-gradient-2" x1="69.42" y1="153.31" x2="284.75" y2="153.31" xlink:href="#linear-gradient"/><linearGradient id="linear-gradient-3" x1="160.53" y1="70.49" x2="168.81" y2="70.49" xlink:href="#linear-gradient"/><linearGradient id="linear-gradient-4" x1="177.09" y1="70.49" x2="185.37" y2="70.49" xlink:href="#linear-gradient"/><linearGradient id="linear-gradient-5" x1="113.48" y1="166.18" x2="140.6" y2="166.18" xlink:href="#linear-gradient"/></defs><path class="cls-1" d="M235.06,169.88a16.56,16.56,0,1,0,16.57,16.56A16.58,16.58,0,0,0,235.06,169.88Zm0,24.84a8.28,8.28,0,1,1,8.28-8.28A8.29,8.29,0,0,1,235.06,194.72Z"/><path class="cls-2" d="M234.93,107.76c.09-1.37.13-2.75.13-4.14a20.73,20.73,0,0,0-20.7-20.7,20.4,20.4,0,0,0-4.14.42v-8.7a8.3,8.3,0,0,0,8.28-8.29V49.79a8.29,8.29,0,0,0-8.28-8.28H94.27A8.28,8.28,0,0,0,86,49.79V66.35a8.29,8.29,0,0,0,8.28,8.29v8.7a20.48,20.48,0,0,0-4.14-.42,20.73,20.73,0,0,0-20.71,20.7c0,30.32,19.71,44.79,26,48.62a58.16,58.16,0,0,0,37.19,43.18l-6.39,32.43h-7.07a20.73,20.73,0,0,0-20.71,20.71v16.56H144v-8.28H106.69v-8.28a12.44,12.44,0,0,1,12.43-12.43H133l7.58-38.45a57.5,57.5,0,0,0,11.66,1.18,58.88,58.88,0,0,0,11.68-1.18l5.19,26H152.24A8.3,8.3,0,0,0,144,232v8.28a8.3,8.3,0,0,0,8.28,8.29v8.28a8.3,8.3,0,0,0,8.29,8.28H284.75V107.76ZM214.36,91.2a12.43,12.43,0,0,1,12.42,12.42c0,1.39-.05,2.78-.15,4.14H210.22V91.93A12.61,12.61,0,0,1,214.36,91.2ZM77.71,103.62A12.43,12.43,0,0,1,90.13,91.2a12.61,12.61,0,0,1,4.14.73v49c0,.08,0,.15,0,.23C87.4,135.14,77.71,123.23,77.71,103.62Zm24.84,37.27V74.64h49.69V66.35h-58V49.79h116V66.35H193.65v8.29h8.28v33.12H185.37v70.15a49.68,49.68,0,0,1-82.82-37Zm69.37,54.54a57.48,57.48,0,0,0,13.45-7v35.25h-7.82ZM152.24,232h74.54v8.28H152.24Zm8.29,24.85v-8.28h74.53v8.28H160.53Zm115.94,0H243.34v-8.28a8.29,8.29,0,0,0-8.28-8.29V232a8.29,8.29,0,0,0-8.28-8.28H210.22V158.63c6.05-4.58,10.49-14.25,11.91-26H248c1.43,11.77,5.86,21.44,11.92,26v55.62c-6.71,5.07-11.43,16.4-12.27,29.91l8.26.51c.86-13.7,5.81-22.29,10-24.48l2.24-1.16V153.85L266,152.69c-4.24-2.19-9.19-10.78-10-24.48l-.24-3.88h-41.2l-.24,3.88c-.85,13.7-5.8,22.29-10,24.48l-2.25,1.16v69.86h-8.28V116h82.82Z"/><rect class="cls-3" x="160.53" y="66.35" width="8.28" height="8.28"/><rect class="cls-4" x="177.09" y="66.35" width="8.28" height="8.28"/><path class="cls-5" d="M121.23,152.55l-7.75,2.91a41.19,41.19,0,0,0,24.29,24.36L140.6,172A33,33,0,0,1,121.23,152.55Z"/></svg>