<svg id="Layer_1" data-name="Layer 1" xmlns="http://www.w3.org/2000/svg" xmlns:xlink="http://www.w3.org/1999/xlink" viewBox="0 0 354.18 325.41"><defs><style>.cls-1{fill:url(#linear-gradient);}.cls-2{fill:url(#linear-gradient-2);}.cls-3{fill:url(#linear-gradient-3);}.cls-4{fill:url(#linear-gradient-4);}.cls-5{fill:url(#linear-gradient-5);}.cls-6{fill:url(#linear-gradient-6);}.cls-7{fill:url(#linear-gradient-7);}.cls-8{fill:url(#linear-gradient-8);}.cls-9{fill:url(#linear-gradient-9);}.cls-10{fill:url(#linear-gradient-10);}.cls-11{fill:url(#linear-gradient-11);}.cls-12{fill:url(#linear-gradient-12);}.cls-13{fill:url(#linear-gradient-13);}</style><linearGradient id="linear-gradient" x1="81.11" y1="83.26" x2="258.92" y2="261.07" gradientUnits="userSpaceOnUse"><stop offset="0" stop-color="#005781"/><stop offset="0.57" stop-color="#00a9b3"/><stop offset="1" stop-color="#03cddd"/></linearGradient><linearGradient id="linear-gradient-2" x1="87.34" y1="77.03" x2="265.15" y2="254.84" xlink:href="#linear-gradient"/><linearGradient id="linear-gradient-3" x1="134.55" y1="29.81" x2="312.37" y2="207.63" xlink:href="#linear-gradient"/><linearGradient id="linear-gradient-4" x1="99.13" y1="65.24" x2="276.94" y2="243.05" xlink:href="#linear-gradient"/><linearGradient id="linear-gradient-5" x1="116.56" y1="47.81" x2="294.37" y2="225.62" xlink:href="#linear-gradient"/><linearGradient id="linear-gradient-6" x1="91.85" y1="72.51" x2="269.67" y2="250.33" xlink:href="#linear-gradient"/><linearGradient id="linear-gradient-7" x1="57.62" y1="106.74" x2="235.44" y2="284.55" xlink:href="#linear-gradient"/><linearGradient id="linear-gradient-8" x1="74.84" y1="89.52" x2="252.66" y2="267.33" xlink:href="#linear-gradient"/><linearGradient id="linear-gradient-9" x1="92.07" y1="72.3" x2="269.88" y2="250.11" xlink:href="#linear-gradient"/><linearGradient id="linear-gradient-10" x1="44.86" y1="119.5" x2="222.68" y2="297.31" xlink:href="#linear-gradient"/><linearGradient id="linear-gradient-11" x1="62.09" y1="102.28" x2="239.9" y2="280.09" xlink:href="#linear-gradient"/><linearGradient id="linear-gradient-12" x1="32.11" y1="132.26" x2="209.92" y2="310.07" xlink:href="#linear-gradient"/><linearGradient id="linear-gradient-13" x1="49.33" y1="115.04" x2="227.14" y2="292.85" xlink:href="#linear-gradient"/></defs><path class="cls-1" d="M252.47,159.49c-2.85-.73-5.9-1.43-8.71-2.14v-7.88H93.61c-.07,1.39-.21,2.78-.21,4.16q0,38.91,0,77.81c0,6,.69,6.64,6.85,6.64q31.73,0,63.46,0h4.91c1,2.87,1.93,5.56,3,8.71h-5.07c-22,0-44-.2-66.06.11-7.81.1-13-2.71-15.82-10V105.6c2.47-7.7,7.76-11,15.79-10.51,3.75.24,7.53.07,11.29,0,3,0,5.24,1,5.19,4.39s-2.35,4.33-5.31,4.33c-4.35,0-8.69.07-13,0-3.38-.07-5.2,1.37-5.2,4.85v31.6H243.76V139c0-10.52.13-21.05-.2-31.57,0-1.23-2.77-3.2-4.42-3.39-4.14-.5-8.38-.17-12.58-.18-3,0-5.29-1.09-5.33-4.35s2.26-4.38,5.25-4.37c4.64,0,9.28-.14,13.91.05,6.24.24,11.85,5,12,11.08C252.68,123.91,252.47,141.56,252.47,159.49Z"/><path class="cls-2" d="M281.18,225.61c-.88,3.61-1.53,7.29-2.67,10.81a50.2,50.2,0,0,1-97.5-9.18C177.15,196,200.69,169.56,232,170c23.64.3,44.71,18.55,48.41,41.92.17,1.12.53,2.2.81,3.3Zm-50.45,36.52a41.72,41.72,0,1,0-41.61-41.71A41.64,41.64,0,0,0,230.73,262.13Z"/><path class="cls-3" d="M211.72,99.27c0,4.49.08,9,0,13.47-.09,4.27-2.77,6.75-7.22,6.92-4.76.18-8.23-2.11-8.34-6.3-.24-9.55-.25-19.12,0-28.66.11-4,4-6.41,8.57-6.09,4.22.3,6.86,2.75,6.95,6.76C211.81,90,211.72,94.64,211.72,99.27Z"/><path class="cls-4" d="M125.3,98.86c0-4.48-.09-9,0-13.45.12-4.21,2.88-6.68,7.31-6.81,4.68-.14,8,2.28,8.1,6.52q.3,14.09,0,28.19c-.1,4.21-3.46,6.53-8.23,6.36-4.45-.17-7.08-2.6-7.18-6.93C125.22,108.12,125.3,103.49,125.3,98.86Z"/><path class="cls-5" d="M168.38,95.14c4.49,0,9,0,13.46,0,3.09-.05,5.32,1.3,5.3,4.39s-2.34,4.37-5.38,4.36q-13.68,0-27.36,0c-2.89,0-5-1.34-5.06-4.2-.09-3.12,2-4.55,5.14-4.53C159.11,95.16,163.75,95.14,168.38,95.14Z"/><path class="cls-6" d="M227.15,212.55c0-4.05,0-8.1,0-12.15,0-3,.93-5.26,4.31-5.25s4.42,2.38,4.46,5.26c.08,6.51-.15,13,.15,19.53a6.81,6.81,0,0,0,2.61,4.68c4.28,2.93,8.87,5.42,13.37,8,2.67,1.54,4.52,3.63,2.84,6.69s-4.52,2.53-7.14,1c-5.85-3.44-11.81-6.73-17.42-10.52a8.59,8.59,0,0,1-3.05-5.55C226.81,220.41,227.15,216.46,227.15,212.55Z"/><rect class="cls-7" x="105.78" y="162.2" width="22.35" height="7.73" rx="3.87"/><rect class="cls-8" x="140.22" y="162.2" width="22.35" height="7.73" rx="3.87"/><rect class="cls-9" x="174.66" y="162.2" width="22.35" height="7.73" rx="3.87"/><rect class="cls-10" x="105.78" y="187.72" width="22.35" height="7.73" rx="3.87"/><rect class="cls-11" x="140.22" y="187.72" width="22.35" height="7.73" rx="3.87"/><rect class="cls-12" x="105.78" y="213.24" width="22.35" height="7.73" rx="3.87"/><rect class="cls-13" x="140.22" y="213.24" width="22.35" height="7.73" rx="3.87"/></svg>