<svg id="Layer_1" data-name="Layer 1" xmlns="http://www.w3.org/2000/svg" xmlns:xlink="http://www.w3.org/1999/xlink" viewBox="0 0 354.18 325.41"><defs><style>.cls-1{fill:url(#New_Gradient_Swatch_15);}.cls-2{fill:url(#New_Gradient_Swatch_15-2);}</style><linearGradient id="New_Gradient_Swatch_15" x1="88.11" y1="177.12" x2="266.15" y2="177.12" gradientUnits="userSpaceOnUse"><stop offset="0" stop-color="#950c37"/><stop offset="0.43" stop-color="#ff265a"/><stop offset="1" stop-color="#ff4d7c"/></linearGradient><linearGradient id="New_Gradient_Swatch_15-2" x1="71.56" y1="172.33" x2="282.7" y2="172.33" xlink:href="#New_Gradient_Swatch_15"/></defs><path class="cls-1" d="M111.2,259a23.14,23.14,0,0,0,22-16,23.08,23.08,0,0,0,43.95,0,23.07,23.07,0,0,0,44,0,23.12,23.12,0,1,0,15.57-29.22,23.05,23.05,0,0,0-22-39.17,23,23,0,0,0-22-39.16,23.09,23.09,0,1,0-31.14,0,23,23,0,0,0-22,39.16,23.05,23.05,0,0,0-22,39.17A23.08,23.08,0,1,0,111.2,259Zm15.57-40.09a22.76,22.76,0,0,0,12.81,0,23,23,0,0,0-6.4,9.94A23.15,23.15,0,0,0,126.77,218.87Zm28.38,34a17,17,0,1,1,17-17A17.07,17.07,0,0,1,155.15,252.92Zm28.39-78.39a22.76,22.76,0,0,0-12.81,0,23.1,23.1,0,0,0,6.4-9.94A23.06,23.06,0,0,0,183.54,174.53Zm-12.81-34a22.52,22.52,0,0,0,12.81,0,23.15,23.15,0,0,0-6.41,9.95A23.13,23.13,0,0,0,170.73,140.53Zm6.4,39.12a17,17,0,1,1-17,17A17.07,17.07,0,0,1,177.13,179.65Zm15.57,0a22.76,22.76,0,0,0,12.81,0,23.1,23.1,0,0,0-6.4,9.94A23.21,23.21,0,0,0,192.7,179.7Zm12.81,34a22.76,22.76,0,0,0-12.81,0,23.21,23.21,0,0,0,6.41-9.94A23.1,23.1,0,0,0,205.51,213.7Zm-50.36-24.06a23.1,23.1,0,0,0-6.4-9.94,22.76,22.76,0,0,0,12.81,0A23.21,23.21,0,0,0,155.15,189.64Zm6.41,24.06a22.76,22.76,0,0,0-12.81,0,23.1,23.1,0,0,0,6.4-9.94A23.21,23.21,0,0,0,161.56,213.7Zm9.16,5.17a22.79,22.79,0,0,0,12.82,0,23.06,23.06,0,0,0-6.41,9.94A23,23,0,0,0,170.72,218.87Zm28.39,34a17,17,0,1,1,17-17A17.07,17.07,0,0,1,199.11,252.92Zm15.57-34a22.76,22.76,0,0,0,12.81,0,23.21,23.21,0,0,0-6.41,9.94A23,23,0,0,0,214.68,218.87Zm28.38-.05A17.05,17.05,0,1,1,226,235.87,17.07,17.07,0,0,1,243.06,218.82Zm-22-39.17a17,17,0,1,1-17.05,17A17.06,17.06,0,0,1,221.08,179.65Zm-22-39.17a17.05,17.05,0,1,1-17.05,17.05A17.07,17.07,0,0,1,199.11,140.48Zm-39-22.11a17,17,0,1,1,17,17A17.07,17.07,0,0,1,160.08,118.37Zm-22,39.16a17,17,0,1,1,17.05,17.05A17.07,17.07,0,0,1,138.1,157.53Zm-22,39.17a17.05,17.05,0,1,1,17.05,17.05A17.07,17.07,0,0,1,116.13,196.7Zm-4.93,22.12a17.05,17.05,0,1,1-17,17.05A17.07,17.07,0,0,1,111.2,218.82Z"/><path class="cls-2" d="M98,267.9H256.27A26.39,26.39,0,0,0,279,228L197.54,88.38a23.74,23.74,0,0,0-40.83,0L75.31,228A26.39,26.39,0,0,0,98,267.9ZM80.52,231.09,161.91,91.47a17.71,17.71,0,0,1,30.43,0l81.41,139.65a20.36,20.36,0,0,1-17.48,30.77H98a20.35,20.35,0,0,1-17.47-30.77Z"/></svg>