<svg xmlns="http://www.w3.org/2000/svg" xmlns:xlink="http://www.w3.org/1999/xlink" width="15px" height="15px" viewBox="0 0 15 15" version="1.1">    <title>SPORTS/ICONS/BETSLIP/American-football</title>    <g id="Page-1" stroke="none" stroke-width="1" fill="none" fill-rule="evenodd">        <g id="main_sprite_dark" transform="translate(-600.000000, -900.000000)" fill="#FFFFFF">            <g id="Group" transform="translate(600.000000, 900.000000)">                <g id="icon_americanfootball" transform="translate(6.500000, 6.500000) scale(1, -1) translate(-6.500000, -6.500000) translate(0.000000, -0.000000)">                    <path d="M7.06328437,3.82654043 C7.35870641,4.0806898 7.64665353,4.34296414 7.92647574,4.61368847 L8.38602114,5.07323732 C8.67461825,5.37126157 8.95346547,5.6780608 9.22288777,5.99363502 L9.63888361,6.49705876 C10.9515455,8.13960465 12.0071349,9.99502501 12.7494275,12.001245 C12.9112759,11.2963218 13,10.5634486 13,9.80945048 C13,4.39171402 8.60799392,0 3.19062309,0 C2.43695563,0 1.70473795,0.0887247782 1.000145,0.250249374 C3.0300747,1.0013225 4.90595594,2.07349482 6.56278937,3.40794148 L7.06328437,3.82654043 Z" id="Fill-1"/>                    <path d="M7.92667073,5.53281867 L7.46712533,5.07326982 C7.18697813,4.80254549 6.100189,3.87044782 6.100189,3.87044782 C4.3897311,2.50317624 2.4400756,1.42450394 0.327271727,0.702030745 C6.49993503e-05,0.787350254 6.49993498e-05,2.71567877 0,3.19054952 C-0.000733987276,8.55289691 4.39200608,13 9.80937691,13 C10.6702933,13 11.50261,12.8813753 12.297877,12.6727258 C11.5835342,10.584281 10.5211198,8.65573586 9.17628324,6.9595651 C9.17628324,6.9595651 8.21494285,5.83084292 7.92667073,5.53281867 Z" id="Fill-4"/>                </g>            </g>        </g>    </g></svg>