<svg id="Capa_1" enable-background="new 0 0 512 512" height="512" viewBox="0 0 512 512" width="512" xmlns="http://www.w3.org/2000/svg" xmlns:xlink="http://www.w3.org/1999/xlink"><linearGradient id="SVGID_1_" gradientUnits="userSpaceOnUse" x1="256" x2="256" y1="421" y2="91"><stop offset="0" stop-color="#fd3a84"/><stop offset="1" stop-color="#ffa68d"/></linearGradient><g><g><path d="m509.824 248.22c-34.85-57.439-129.836-157.22-253.824-157.22-107.11 0-205.527 77.62-253.824 157.22-2.901 4.781-2.901 10.779 0 15.561 49.61 81.765 148.482 157.219 253.824 157.219 107.11 0 205.528-77.62 253.824-157.22 2.902-4.781 2.902-10.779 0-15.56zm-418.824 73.158c-22.431-20.015-42.834-43.465-58.022-65.388 15.031-21.734 35.348-45.124 58.022-65.363zm300 23.929c-42.998 30.337-88.262 45.693-135 45.693-46.728 0-91.995-15.354-135-45.694v-178.612c42.998-30.338 88.263-45.694 135-45.694 46.728 0 91.995 15.354 135 45.694zm30-23.933v-130.752c22.288 19.887 42.725 43.307 58.022 65.388-15.031 21.734-35.348 45.124-58.022 65.364zm-180-95.374v15h-30v-15c0-8.284-6.716-15-15-15s-15 6.716-15 15v15h-15c-8.284 0-15 6.716-15 15s6.716 15 15 15h15v15c0 8.284 6.716 15 15 15s15-6.716 15-15v-15h30v15c0 8.284 6.716 15 15 15s15-6.716 15-15v-15h30v15c0 8.284 6.716 15 15 15s15-6.716 15-15v-15h15c8.284 0 15-6.716 15-15s-6.716-15-15-15h-15v-15c0-8.284-6.716-15-15-15s-15 6.716-15 15v15h-30v-15c0-8.284-6.716-15-15-15s-15 6.716-15 15z" fill="url(#SVGID_1_)"/></g></g></svg>