<svg height="511pt" viewBox="0 1 511 511.99988" width="511pt" xmlns="http://www.w3.org/2000/svg"><path d="m510.027344 162.449219c-2.566406 29.921875-7.09375 58.289062-13.535156 84.796875-3.65625 15.035156-7.921876 29.480468-12.800782 43.261718-17.039062 48.222657-41.550781 88.542969-72.847656 119.835938-31.292969 31.296875-71.613281 55.808594-119.835938 72.847656-13.78125 4.878906-28.226562 9.144532-43.261718 12.800782-26.507813 6.441406-54.875 10.96875-84.796875 13.535156-21.097657 1.800781-41 2.472656-58.890625 2.472656-49.496094 0-83.65625-5.117188-85.566406-5.410156l-10.910157-1.671875-1.671875-10.910157c-.402344-2.613281-9.738281-65-2.9375-144.457031 2.566406-29.921875 7.09375-58.289062 13.535156-84.796875 3.65625-15.035156 7.921876-29.480468 12.800782-43.261718 17.039062-48.222657 41.550781-88.542969 72.847656-119.835938 31.292969-31.296875 71.613281-55.808594 119.835938-72.847656 13.78125-4.878906 28.226562-9.144532 43.261718-12.800782 26.507813-6.441406 54.875-10.96875 84.796875-13.535156 79.464844-6.800781 141.84375 2.535156 144.457031 2.9375l10.910157 1.671875 1.671875 10.910157c.402344 2.613281 9.738281 65 2.9375 144.457031zm0 0" fill="#9a4c00"/><path d="m510.027344 162.449219c-2.566406 29.921875-7.09375 58.289062-13.535156 84.796875-3.65625 15.035156-7.921876 29.480468-12.800782 43.261718-17.039062 48.222657-41.550781 88.542969-72.847656 119.835938-31.292969 31.296875-71.613281 55.808594-119.835938 72.847656-13.78125 4.878906-28.226562 9.144532-43.261718 12.800782-26.507813 6.441406-54.875 10.96875-84.796875 13.535156-21.097657 1.800781-41 2.472656-58.890625 2.472656-49.496094 0-83.65625-5.117188-85.566406-5.410156l-10.910157-1.671875 497.835938-497.835938 1.671875 10.910157c.402344 2.613281 9.738281 65 2.9375 144.457031zm0 0" fill="#703700"/><path d="m247.746094 495.992188c-26.507813 6.441406-54.875 10.96875-84.796875 13.535156-21.097657 1.800781-41 2.472656-58.890625 2.472656-49.496094 0-83.65625-5.117188-85.566406-5.410156l-10.910157-1.671875-1.671875-10.910157c-.402344-2.613281-9.738281-65-2.9375-144.457031 2.566406-29.921875 7.09375-58.289062 13.535156-84.796875zm0 0" fill="#ffaa20"/><path d="m510.027344 162.449219c-2.566406 29.921875-7.09375 58.289062-13.535156 84.796875l-231.238282-231.238282c26.507813-6.441406 54.875-10.96875 84.796875-13.535156 79.464844-6.800781 141.84375 2.535156 144.457031 2.9375l10.910157 1.671875 1.671875 10.910157c.402344 2.613281 9.738281 65 2.9375 144.457031zm0 0" fill="#ffaa20"/><path d="m325.4375 208.316406-24.082031 24.074219 39.808593 39.816406-21.246093 21.246094-39.808594-39.808594-25.023437 25.015625 39.808593 39.816406-21.246093 21.246094-39.808594-39.808594-25.023438 25.023438 39.808594 39.808594-21.246094 21.246094-39.816406-39.808594-23.109375 23.121094-21.257813-21.257813 23.121094-23.109375-39.808594-39.816406 21.246094-21.246094 39.808594 39.808594 25.023438-25.023438-39.808594-39.808594 21.246094-21.246093 39.816406 39.808593 25.015625-25.023437-39.808594-39.808594 21.246094-21.246093 39.816406 39.808593 24.074219-24.082031-39.808594-39.808594 21.246094-21.246094 39.816406 39.808594 23.109375-23.121094 21.257813 21.257813-23.121094 23.109375 39.808594 39.816406-21.246094 21.246094zm0 0" fill="#eee5dd"/><path d="m132.125 380.375 115.621094 115.617188c-26.507813 6.441406-54.875 10.96875-84.796875 13.535156-21.097657 1.800781-41 2.472656-58.890625 2.472656-49.496094 0-83.65625-5.117188-85.566406-5.410156l-10.910157-1.671875zm0 0" fill="#ff8900"/><path d="m346.683594 187.0625 39.808594 39.816406-21.246094 21.246094-39.808594-39.808594-24.082031 24.074219 39.808593 39.816406-21.246093 21.246094-39.808594-39.808594-25.023437 25.015625 39.808593 39.816406-21.246093 21.246094-39.808594-39.808594-25.023438 25.023438 39.808594 39.808594-21.246094 21.246094-39.816406-39.808594-23.109375 23.121094-10.628906-10.628907 205.351562-205.351562 10.628907 10.628906zm0 0" fill="#ddcbbb"/><path d="m510.027344 162.449219c-2.566406 29.921875-7.09375 58.289062-13.535156 84.796875l-115.617188-115.621094 124.542969-124.542969 1.671875 10.910157c.402344 2.613281 9.738281 65 2.9375 144.457031zm0 0" fill="#ff8900"/></svg>