<svg id="Layer_1" data-name="Layer 1" xmlns="http://www.w3.org/2000/svg" xmlns:xlink="http://www.w3.org/1999/xlink" viewBox="0 0 354.18 325.41"><defs><style>.cls-1{fill:url(#linear-gradient);}.cls-2{fill:url(#linear-gradient-2);}.cls-3{fill:url(#linear-gradient-3);}</style><linearGradient id="linear-gradient" x1="174.72" y1="115.88" x2="265.6" y2="266.02" gradientUnits="userSpaceOnUse"><stop offset="0" stop-color="#005781"/><stop offset="0.57" stop-color="#00a9b3"/><stop offset="1" stop-color="#03cddd"/></linearGradient><linearGradient id="linear-gradient-2" x1="188.43" y1="194.76" x2="216.9" y2="241.79" xlink:href="#linear-gradient"/><linearGradient id="linear-gradient-3" x1="129.04" y1="136.21" x2="247.22" y2="331.46" xlink:href="#linear-gradient"/></defs><path class="cls-1" d="M181.06,87A76.91,76.91,0,0,0,115,124.62a3.25,3.25,0,1,0,5.61,3.3,70.21,70.21,0,0,1,130.63,35.72v19.63a3.26,3.26,0,1,0,6.51,0V163.64A76.77,76.77,0,0,0,181.06,87Z"/><path class="cls-2" d="M194.08,183a21.11,21.11,0,1,0,21.11,21.11A21.13,21.13,0,0,0,194.08,183Zm0,35.71a14.6,14.6,0,1,1,14.6-14.6A14.62,14.62,0,0,1,194.08,218.69Z"/><path class="cls-3" d="M181.06,71A91.72,91.72,0,0,0,123.45,91a93.12,93.12,0,0,0-32.4,50.42,3.25,3.25,0,0,0,3.16,4l.39,0a104.33,104.33,0,0,1,10.76-.52c9,0,21.65,1,31.37,5.84,0,5.88,0,23.53-1.34,43a355.52,355.52,0,0,0-36.08,2.89,2.9,2.9,0,0,0-.6.07c-14.94,2.1-23.07,4.71-26.59,6.08s-5.78,3.33-6.76,5.92c-3.1,8.25-4.69,18-4.7,29v.15c0,3,.11,6,.33,8.89a128.87,128.87,0,0,0,1.75,13.57c1.08,5.81,1.42,6.34,2.11,7a3.25,3.25,0,0,0,2.25.9l.38,0,1.28.09h.11c4.62.36,9.09.54,13.26.54,38,0,49.91-14.82,53.21-27.25,2.73-10.29,4.8-24.26,6.15-41.52,3.35-.07,6.9-.12,10.59-.14.16,8,.84,16.29,4.15,23.46,4.81,10.4,14.55,16.84,29.78,19.69a52.51,52.51,0,0,0,9.66.93c15,0,27.81-7.29,37-21.09a72.14,72.14,0,0,0,8.73-18.51l29.5-4a3.28,3.28,0,0,0,2.82-3.23V163.64A92.78,92.78,0,0,0,181.06,71ZM100.17,227.6c.82-10.66,1.78-20.35,2.23-24.78,9.55-1.22,20.48-2.06,32.52-2.49-.72,9-1.64,17.09-2.73,24.14A258.09,258.09,0,0,0,100.17,227.6Zm-1.31,33.6c-.24-6,0-15.08.83-26.92A263.15,263.15,0,0,1,131.06,231c-.63,3.3-1.31,6.32-2,9C126,251.37,115.88,258.5,98.86,261.2Zm-6.48.77c-3.23.28-6.68.42-10.28.42-3.9,0-8.07-.17-12.4-.49a123,123,0,0,1-2.47-21.51c4.44-1,14.28-3.07,25.86-5A261.56,261.56,0,0,0,92.38,262Zm3.38-58.21c-.54,5.39-1.45,14.74-2.2,24.89-11.16,1.86-20.83,3.87-26.29,5.07a72.36,72.36,0,0,1,4.18-22.66c.16-.43.77-1.27,3-2.16C77.38,207.77,83.93,205.64,95.76,203.76Zm139.94-3a65.36,65.36,0,0,1-8.49,18.7c-8.06,12-18.66,18.09-31.54,18.09a46.55,46.55,0,0,1-8.46-.82c-26.38-4.94-28.53-19.67-28.67-39.94v-.2c0-1.49,0-3,0-4.56,0-8.67,0-17.63-1.85-26.4-5-23.69-34.29-27.22-51.32-27.22-2.3,0-4.58.06-6.79.18a85.94,85.94,0,0,1,82.49-61.14,86.27,86.27,0,0,1,86.17,86.17v30.78l-28.8,3.89A3.25,3.25,0,0,0,235.7,200.78ZM143.24,155a21.42,21.42,0,0,1,7.07,12C152,175.1,152,183.72,152,192.05v1.43c-3.47,0-6.84.07-10.06.14C143,177.84,143.21,163.39,143.24,155Z"/></svg>