<svg viewBox="0 0 100 100" xmlns="http://www.w3.org/2000/svg" id="am-football-icon">
  <path d="M58.023 6.538c2.647-.335 5.312-.5 8-.5 3.146 0 6.294.237 9.405.775 5.129.925 10.813 2.407 13.925 6.85 2.221 3.225 3.091 7.592 3.703 11.387.925 5.5 1.037 11.11.555 16.666L58.023 6.538zM8.473 51.769c2.037-7.406 11.48-34.013 42.53-42.4l40 39.494c-2.185 7.46-12.038 34.344-42.96 41.954L8.474 51.77zm15.792 41.307c-5.054-.925-10.275-2.462-13.442-6.737-2.332-3.15-3.203-7.408-3.85-11.222-.927-5.555-1.056-11.237-.593-16.85L41.988 93.41c-2.65.334-5.37.519-8.038.519-3.258 0-6.5-.26-9.684-.853zm70.126-82.8C89.944 3.943 82.503 1.943 76.483.887 73.15.296 69.595 0 66.02 0c-2.887 0-5.85.185-8.794.555-1.778.26-3.335 1.223-4.26 2.648-.556-.185-1.185-.24-1.777-.093-39.07 9.48-48.143 44.92-49.07 48.938-.15.61-.054 1.22.186 1.775a6.058 6.058 0 0 0-2.038 3.981c-.518 6.556-.278 12.72.687 18.388.776 4.443 1.85 9.534 4.963 13.755 4.516 6.11 11.59 8.092 17.255 9.128a62.09 62.09 0 0 0 10.795.925c2.888 0 5.87-.185 8.833-.555a6.378 6.378 0 0 0 4-2.278h.313c.222 0 .445 0 .667-.056 38.884-8.517 48.588-44.382 49.57-48.438.183-.684.053-1.387-.243-2.035a5.796 5.796 0 0 0 2.592-4.444c.555-6.406.334-12.516-.612-18.107-.758-4.5-1.795-9.647-4.7-13.813zM50.115 46.658c-.517.038-2.406-2.37-2.777-2.775-1.11-1.075-2.35-2.462-4.038-1.427-3.463 2.147 1.963 6.11 3.445 7.591L35.914 60.861c-1.15-1.148-2.28-2.333-3.463-3.463-1.667-1.555-5.037-1.166-4.39 1.796.241 1.056 1.296 1.85 2.038 2.593l4 4 4.072 4.073c.741.74 1.63 1.962 2.685 2.22 3 .816 3.444-2.72 1.85-4.387-1.11-1.185-2.295-2.315-3.442-3.462 1.74-1.778 3.517-3.518 5.259-5.275 1.222-1.225 2.407-2.447 3.647-3.65.334-.313 1.444-1.85 1.908-1.888.52-.056 2.13 2.038 2.556 2.481 1.259 1.24 2.962 3.148 4.74 1.35 2.407-2.406-2.35-5.737-3.888-7.22l7.165-7.146c.98-.981 2.038-2.5 3.238-3.24.928-.556.89-.038 1.816.925 1.038 1.019 2.555 3.185 4.185 3.185 2.594 0 2.78-2.812 1.445-4.313-2.166-2.443-4.683-4.666-7.037-7-1.443-1.48-4.813-6.237-7.22-3.85-2.408 2.407 2.407 5.74 3.887 7.222L55.54 41.25l-3.61 3.612c-.277.259-1.425 1.778-1.815 1.795z" fill-rule="evenodd"/>
</svg>
