<svg id="Layer_1" data-name="Layer 1" xmlns="http://www.w3.org/2000/svg" xmlns:xlink="http://www.w3.org/1999/xlink" viewBox="0 0 354.18 325.41"><defs><style>.cls-1{fill:url(#linear-gradient);}.cls-2{fill:url(#linear-gradient-2);}.cls-3{fill:url(#linear-gradient-3);}.cls-4{fill:url(#linear-gradient-4);}.cls-5{fill:url(#linear-gradient-5);}.cls-6{fill:url(#linear-gradient-6);}.cls-7{fill:url(#linear-gradient-7);}.cls-8{fill:url(#linear-gradient-8);}.cls-9{fill:url(#linear-gradient-9);}.cls-10{fill:url(#linear-gradient-10);}.cls-11{fill:url(#linear-gradient-11);}.cls-12{fill:url(#linear-gradient-12);}.cls-13{fill:url(#linear-gradient-13);}.cls-14{fill:url(#linear-gradient-14);}</style><linearGradient id="linear-gradient" x1="84.14" y1="173.94" x2="284.29" y2="173.94" gradientUnits="userSpaceOnUse"><stop offset="0" stop-color="#ff9d00"/><stop offset="0.61" stop-color="#ffd300"/><stop offset="1" stop-color="#ffd071"/></linearGradient><linearGradient id="linear-gradient-2" x1="134.31" y1="167.77" x2="220.83" y2="167.77" xlink:href="#linear-gradient"/><linearGradient id="linear-gradient-3" x1="146.67" y1="180.13" x2="234.1" y2="180.13" xlink:href="#linear-gradient"/><linearGradient id="linear-gradient-4" x1="152.34" y1="173.95" x2="216.08" y2="173.95" xlink:href="#linear-gradient"/><linearGradient id="linear-gradient-5" x1="134.66" y1="220.37" x2="140.91" y2="220.37" xlink:href="#linear-gradient"/><linearGradient id="linear-gradient-6" x1="125.81" y1="229.22" x2="132.07" y2="229.22" xlink:href="#linear-gradient"/><linearGradient id="linear-gradient-7" x1="116.97" y1="238.06" x2="123.22" y2="238.06" xlink:href="#linear-gradient"/><linearGradient id="linear-gradient-8" x1="108.13" y1="246.9" x2="114.38" y2="246.9" xlink:href="#linear-gradient"/><linearGradient id="linear-gradient-9" x1="99.28" y1="255.75" x2="105.54" y2="255.75" xlink:href="#linear-gradient"/><linearGradient id="linear-gradient-10" x1="262.88" y1="92.15" x2="269.14" y2="92.15" xlink:href="#linear-gradient"/><linearGradient id="linear-gradient-11" x1="254.04" y1="100.99" x2="260.29" y2="100.99" xlink:href="#linear-gradient"/><linearGradient id="linear-gradient-12" x1="245.2" y1="109.83" x2="251.45" y2="109.83" xlink:href="#linear-gradient"/><linearGradient id="linear-gradient-13" x1="236.35" y1="118.68" x2="242.61" y2="118.68" xlink:href="#linear-gradient"/><linearGradient id="linear-gradient-14" x1="227.51" y1="127.52" x2="233.76" y2="127.52" xlink:href="#linear-gradient"/></defs><path class="cls-1" d="M282.25,86.42a12.59,12.59,0,0,0-10.51-10.51A163.77,163.77,0,0,0,239,74,162,162,0,0,0,94.56,178.7a162.74,162.74,0,0,0-8.39,82.78A12.6,12.6,0,0,0,96.67,272a162.9,162.9,0,0,0,25.62,2q6.39,0,12.75-.5A162,162,0,0,0,282.25,86.42Zm-4.7,37.87a155.61,155.61,0,0,1-45.17,97.83h0A155.56,155.56,0,0,1,97.65,265.81a6.38,6.38,0,0,1-5.31-5.31,156,156,0,0,1,0-49.08,157.57,157.57,0,0,1,8.08-30.52,155,155,0,0,1,31.92-51.32,156.84,156.84,0,0,1,48.2-34.94,154.94,154.94,0,0,1,58.71-14.38q3.36-.15,6.74-.15a157.5,157.5,0,0,1,24.78,2,6.37,6.37,0,0,1,5.3,5.32A155.53,155.53,0,0,1,277.55,124.29Z"/><path class="cls-2" d="M145.66,181.54l9.81-9.8a21.77,21.77,0,0,0,6.41-15.48,22.12,22.12,0,0,0-.64-5.28,22.12,22.12,0,0,0,5.28.64A21.77,21.77,0,0,0,182,145.21l9.8-9.81a17.43,17.43,0,0,1,24.61,0l4.42-4.42a23.65,23.65,0,0,0-33.45,0l-9.8,9.8a15.64,15.64,0,0,1-22.11,0l-4.42,4.43a15.62,15.62,0,0,1,0,22.1l-9.81,9.81a23.65,23.65,0,0,0,0,33.45,3.13,3.13,0,0,0,4.42-4.42A17.43,17.43,0,0,1,145.66,181.54Z"/><path class="cls-3" d="M222.76,137.33a3.11,3.11,0,0,0,0,4.42,17.42,17.42,0,0,1,0,24.6L213,176.16a21.75,21.75,0,0,0-6.41,15.47,22,22,0,0,0,.64,5.28,22.12,22.12,0,0,0-5.28-.63,21.71,21.71,0,0,0-15.48,6.41l-9.81,9.8a17.4,17.4,0,0,1-24.6,0,3.13,3.13,0,1,0-4.42,4.43,23.66,23.66,0,0,0,33.44,0l9.81-9.81a15.64,15.64,0,0,1,22.11,0l4.42-4.42a15.66,15.66,0,0,1,0-22.11l9.81-9.81a23.66,23.66,0,0,0,0-33.44A3.13,3.13,0,0,0,222.76,137.33Z"/><path class="cls-4" d="M215.16,143a3.11,3.11,0,0,0-4.42,0l-4.42,4.42L201.9,143l-4.42,4.43,4.42,4.42-4.42,4.42-4.43-4.42-4.42,4.42,4.42,4.42-4.42,4.42-4.42-4.42-4.42,4.42,4.42,4.42-4.42,4.42-4.42-4.42L171,174l4.42,4.42L171,182.79l-4.43-4.42-4.42,4.42,4.42,4.42-4.42,4.42-4.42-4.42-4.42,4.42,4.42,4.42-4.42,4.43a3.13,3.13,0,0,0,4.42,4.42l4.42-4.43,4.42,4.43,4.43-4.43-4.43-4.42,4.43-4.42,4.42,4.42,4.42-4.42-4.42-4.42,4.42-4.42,4.42,4.42,4.42-4.42-4.42-4.42,4.42-4.43,4.42,4.43,4.43-4.42-4.43-4.43,4.43-4.42,4.42,4.42,4.42-4.42-4.42-4.42,4.42-4.42,4.42,4.42,4.42-4.42-4.42-4.42,4.42-4.42A3.13,3.13,0,0,0,215.16,143Z"/><circle class="cls-5" cx="137.78" cy="220.37" r="3.13"/><path class="cls-6" d="M128.94,226.09a3.13,3.13,0,1,0,3.13,3.13A3.13,3.13,0,0,0,128.94,226.09Z"/><circle class="cls-7" cx="120.1" cy="238.06" r="3.13"/><circle class="cls-8" cx="111.25" cy="246.9" r="3.13"/><circle class="cls-9" cx="102.41" cy="255.75" r="3.13"/><circle class="cls-10" cx="266.01" cy="92.15" r="3.13"/><circle class="cls-11" cx="257.17" cy="100.99" r="3.13"/><circle class="cls-12" cx="248.32" cy="109.83" r="3.13"/><circle class="cls-13" cx="239.48" cy="118.68" r="3.13"/><path class="cls-14" d="M230.64,130.65a3.13,3.13,0,1,0-3.13-3.13A3.13,3.13,0,0,0,230.64,130.65Z"/></svg>