<svg viewBox="0 0 100 100" xmlns="http://www.w3.org/2000/svg" id="badminton-icon">
  <path d="M4.527 95.393c3.22 3.01 7.279 4.607 11.538 4.607 4.48 0 8.686-1.743 11.855-4.913l6.08-6.08 58.465-23.9c4.501-1.838 6.707-4.595 7.352-7.808.793-3.928-1.02-8.638-4.933-12.553-3.08-3.078-7.416-4.781-12.228-4.781-.74 0-1.488.038-2.234.12l-1.92.203.385-1.89c.97-4.768-.38-9.73-3.76-13.393-2.948-2.731-6.622-4.167-10.475-4.167-1.03 0-2.049.103-3.044.303l-1.887.38.2-1.914c.588-5.62-1.098-10.926-4.652-14.48C52 1.856 48.099.002 44.616.002c-3.948 0-7.468 2.067-9.704 7.542L11.018 66.027l-6.08 6.08a16.705 16.705 0 0 0-.415 23.288zm19.45-45.765 5.317 5.321-10.265 13.363-1.906-1.907 6.855-16.776zm9.806-24 10.2 10.198-10.257 13.355-6.79-6.79 6.85-16.765zm23.843 47.46-6.789-6.79 13.353-10.26 10.197 10.199-16.758 6.853zm-24 9.81-1.908-1.908 13.355-10.262 5.314 5.319-16.76 6.85zm12.07-21.743-6.83-6.832 10.26-13.354 9.922 9.925-13.352 10.26zm-11.26-1.064 5.494 5.494L26.575 75.85l-2.4-2.397 10.26-13.363zm48.222-14.33c3.255 0 6.14 1.096 8.128 3.086 2.44 2.436 3.756 5.305 3.355 7.307-.295 1.452-1.594 2.66-3.869 3.586l-8.647 3.537-11.669-11.673 5.129-3.943c2.39-1.239 5.004-1.9 7.574-1.9zM64.654 26.634c2.342 0 4.579.857 6.314 2.413a9.426 9.426 0 0 1-.244 12.874l-5.913 4.544-11.257-11.26 4.541-5.912a9.387 9.387 0 0 1 6.56-2.659zM40.281 9.737c1.609-3.939 3.663-3.939 4.34-3.939 1.93 0 4.441 1.311 6.554 3.424 3.638 3.64 4.107 10.07 1.178 15.711l-3.939 5.128-11.668-11.673 3.535-8.65zM9.038 76.203l3.843-3.843 14.79 14.779-3.849 3.85a10.898 10.898 0 0 1-7.757 3.213 10.939 10.939 0 0 1-7.385-2.854 10.937 10.937 0 0 1 .36-15.146z" fill-rule="evenodd"/>
</svg>
