<svg xmlns="http://www.w3.org/2000/svg" xmlns:xlink="http://www.w3.org/1999/xlink" version="1.1" id="Layer_1" x="0px" y="0px" viewBox="0 0 512 512" style="enable-background:new 0 0 512 512;fill: #fff;" xml:space="preserve"><g>	<g>		<path d="M26.379,354.263c-35.172,35.173-35.172,92.203,0,127.376c35.175,35.174,92.202,35.175,127.377,0L26.379,354.263z"/>	</g></g><g>	<g>					<rect x="109.005" y="292.065" transform="matrix(0.7071 -0.7071 0.7071 0.7071 -233.3356 200.9435)" width="33.775" height="180.135"/>	</g></g><g>	<g>		<path d="M474.85,245.465c-26.535-26.535-42.457-10.615-68.991-37.148c-26.536-26.538-10.616-42.459-37.15-68.995    c-26.537-26.538-42.459-10.616-68.997-37.152c-26.537-26.537-10.616-42.459-37.154-68.998    C236.022,6.636,228.06,30.519,201.522,3.98L98.029,282.615l127.376,127.376L512,314.458    C485.464,287.923,501.385,272.001,474.85,245.465z"/>	</g></g><g></g><g></g><g></g><g></g><g></g><g></g><g></g><g></g><g></g><g></g><g></g><g></g><g></g><g></g><g></g></svg>