<svg id="Layer_1" data-name="Layer 1" xmlns="http://www.w3.org/2000/svg" xmlns:xlink="http://www.w3.org/1999/xlink" viewBox="0 0 354.18 325.41"><defs><style>.cls-1{fill:url(#New_Gradient_Swatch_15);}</style><linearGradient id="New_Gradient_Swatch_15" x1="66.02" y1="173.07" x2="289.12" y2="173.07" gradientUnits="userSpaceOnUse"><stop offset="0" stop-color="#950c37"/><stop offset="0.43" stop-color="#ff265a"/><stop offset="1" stop-color="#ff4d7c"/></linearGradient></defs><path class="cls-1" d="M144,266.21c-10.55,0-18.76-2.58-20.6-9.06l-.5-1.8c-8.4.37-15.55.64-18.4.43C80,254.15,74.93,237.5,69,218.22c-4.47-14.84-4-25.51,1.46-32.64,4.72-6.18,12.92-9.17,24.37-8.87,13.84.36,35.52,1.69,54.65,2.86,17.42,1.07,33.88,2.09,41.73,2.2h.22c13.79,0,31.26-13.18,37.46-28.33,4.8-11.65,13.82-45.85,17.93-61.84a4.43,4.43,0,0,1,.39-1.5c1.07-4.19,1.73-6.8,1.76-6.92a4.29,4.29,0,0,1,8.32,2.08c-.06.25-.29,1.15-.65,2.57l23.25.91c.44-2,.69-3.21.71-3.3A4.29,4.29,0,1,1,289,87.23c-.18.86-18.24,85.63-23.94,107.76-5.61,21.77-19.65,46.14-33.45,49.22a199.69,199.69,0,0,1-21.95,3.14c-2.68.27-5.23.54-7.66.84-7.54,5.64-18.84,10.5-30.11,13.69A107.61,107.61,0,0,1,144,266.21ZM128,242l3.61,12.82c.13.47,2.37,2.45,10.22,2.76s17.56-1.09,27.72-4,19.2-6.81,25.6-11.12,7.37-7.26,7.24-7.73L198.82,222c-6.7,6.32-19,12.49-33.57,16.6-11,3.1-21.73,4.6-30.34,4.23A43.11,43.11,0,0,1,128,242ZM93.31,185.27c-7.82,0-13.19,1.85-16,5.51-3.61,4.73-3.63,13.12-.07,24.95,5.76,18.86,9.24,30.25,27.84,31.5,2.32.17,9.75-.12,15.41-.37l-3.69-13.1h0c-3.32-11.76,17.76-23.51,38.76-29.45h0c21.05-5.93,45.21-6.95,48.53,4.82v.05l6.58,23.26a9.59,9.59,0,0,1-.41,6.22,174.32,174.32,0,0,0,19.52-2.83c8-1.78,21-19.87,27-43,4.37-17,16.13-71.36,21.33-95.58l-23.6-.93c-4.4,17-12.85,48.72-17.64,60.37C230.22,173,211,190.35,191.48,190.35h-.33c-8.08-.12-24.63-1.14-42.16-2.21-19.06-1.18-40.65-2.5-54.34-2.85C94.19,185.27,93.75,185.27,93.31,185.27Zm31.75,46.16c.15.48,2.4,2.47,10.23,2.81s17.52-1.06,27.63-3.92c17.69-5,29.74-12.6,32.5-17.55a2.44,2.44,0,0,0,.43-1.29c-.14-.49-2.38-2.49-10.24-2.83s-17.56,1.06-27.7,3.92h0c-10.12,2.86-19.21,6.81-25.6,11.12s-7.38,7.25-7.25,7.73Z"/></svg>