<svg id="Layer_1" data-name="Layer 1" xmlns="http://www.w3.org/2000/svg" xmlns:xlink="http://www.w3.org/1999/xlink" viewBox="0 0 354.18 325.41"><defs><style>.cls-1{fill:url(#linear-gradient);}</style><linearGradient id="linear-gradient" x1="136.12" y1="120.71" x2="237.22" y2="317.57" gradientUnits="userSpaceOnUse"><stop offset="0" stop-color="#ff9d00"/><stop offset="0.61" stop-color="#ffd300"/><stop offset="1" stop-color="#ffd071"/></linearGradient></defs><path class="cls-1" d="M161.89,273.73A102.85,102.85,0,1,0,59.05,170.89,103,103,0,0,0,161.89,273.73Zm64.62-170.79a94,94,0,0,1,10.54,11.83,93,93,0,0,1,7.32,11.41q1.08,2,2.07,4a93.58,93.58,0,0,1,5,12.77,92.48,92.48,0,0,1,2.31,9,93.66,93.66,0,0,1-22.46,82c-1.54,1.69-3.16,3.31-4.81,4.88l-1.14-1.16c-1.3-1.4-2.48-2.93-3.7-4.43a79.26,79.26,0,0,1,1.3-9.37,93.93,93.93,0,0,1,2.65-10l-4.46-1.51a97.08,97.08,0,0,0-2.8,10.54c-.34,1.6-.61,3.23-.82,4.74-1-1.46-2-2.88-2.95-4.41a99,99,0,0,1-4.84-9.22,86.93,86.93,0,0,1,3.49-8.9c2.2-4.7,4.87-9.21,4.9-9.26l-4-2.4c-.12.19-2.82,4.75-5.11,9.66-.72,1.52-1.37,3.08-1.93,4.52-1-2.58-1.89-5.19-2.62-7.81-.7-2.36-1.29-4.81-1.82-7.32,1-1.61,3.12-5,5.46-8a102.13,102.13,0,0,1,6.75-8l-3.4-3.26a104.34,104.34,0,0,0-7.1,8.38c-1,1.35-2,2.74-2.9,4a113.09,113.09,0,0,1-1.06-14.81c0-.34,0-.68,0-1,1.33-1.38,4.11-4.19,7-6.68a88.68,88.68,0,0,1,8.24-6.3L213.1,153a90.39,90.39,0,0,0-8.73,6.66c-1.29,1.1-2.55,2.24-3.68,3.32a106.38,106.38,0,0,1,2.38-15.69c1.6-1.06,4.92-3.2,8.26-5a81.48,81.48,0,0,1,9.38-4.17l-1.6-4.43a85.39,85.39,0,0,0-10,4.45c-1.49.79-2.95,1.63-4.28,2.43a94.49,94.49,0,0,1,5.79-14.71,89.94,89.94,0,0,1,9.15-2.91,74.7,74.7,0,0,1,10-1.81l-.47-4.69a79.34,79.34,0,0,0-10.73,1.94c-1.63.41-3.25.89-4.73,1.36.24-.41.45-.83.69-1.24a87.32,87.32,0,0,1,10.75-14.38ZM116.17,89c1.66-.93,3.34-1.81,5.06-2.64a93.26,93.26,0,0,1,40.66-9.24A94.24,94.24,0,0,1,180.8,79q4.57.94,9,2.31A93.34,93.34,0,0,1,223,99.78c-.37.37-.69.69-1.09,1.11a91.71,91.71,0,0,0-11.38,15.2c-.35.59-.65,1.19-1,1.78-.35-1.65-.71-3.51-1-5.44a96.31,96.31,0,0,1-1-11.75l-4.71.06a93.92,93.92,0,0,0,3.35,23.42,97.79,97.79,0,0,0-6,15.54c-.73-1.52-1.5-3.23-2.23-5a102.88,102.88,0,0,1-3.73-11.17l-4.56,1.2a108.65,108.65,0,0,0,3.93,11.75c1.88,4.6,4,8.73,4.78,10.13A110,110,0,0,0,196,163.06c-1-1.32-2.15-2.82-3.24-4.4a108.4,108.4,0,0,1-6.15-9.95l-4.15,2.23a113.9,113.9,0,0,0,6.44,10.41c2.79,4.05,5.77,7.61,6.82,8.84,0,.24,0,.47,0,.71a117.5,117.5,0,0,0,1.18,15.91c-1.29-1.07-2.7-2.3-4.11-3.62-4.16-3.84-8.08-8.36-8.12-8.4L181,177.87c.17.19,4.14,4.76,8.48,8.76a108.38,108.38,0,0,0,8.55,7.2c.53,2.51,1.14,5,1.84,7.33a91.09,91.09,0,0,0,3,8.71c-1.5-.76-3.17-1.65-4.83-2.65-5-2.95-9.75-6.45-9.8-6.48l-2.78,3.79c.2.15,5,3.66,10.17,6.74a96.57,96.57,0,0,0,10,5.15,104.1,104.1,0,0,0,4.88,9.27c1.09,1.82,2.32,3.52,3.52,5.24-1.67-.39-3.53-.87-5.42-1.47a115.48,115.48,0,0,1-11-4.12l-1.9,4.3A115.07,115.07,0,0,0,207.25,234a89.28,89.28,0,0,0,11.13,2.67c1.18,1.44,2.32,2.93,3.58,4.29l1,1.08c-.48.42-1,.86-1.45,1.27a95.26,95.26,0,0,1-11,7.84q-1.93,1.17-3.93,2.25a93.19,93.19,0,0,1-16.81,7.11q-4.41,1.36-9,2.31a94.35,94.35,0,0,1-52.32-4.24q-2.22-.85-4.39-1.81-2.82-1.25-5.53-2.66-4-2.08-7.74-4.53c-2-1.29-3.93-2.65-5.8-4.09-1-.73-1.93-1.47-2.86-2.25l2-2.1c1.33-1.44,2.55-3,3.8-4.55A90.83,90.83,0,0,0,118.62,234a114.26,114.26,0,0,0,11.56-4.32l-1.9-4.3c-.06,0-5.55,2.44-11.06,4.13-1.7.54-3.39,1-4.93,1.36,1.13-1.64,2.3-3.25,3.33-5a105.69,105.69,0,0,0,5.06-9.64,96,96,0,0,0,9.59-4.95c5.17-3.08,10-6.59,10.17-6.74l-2.78-3.79s-4.82,3.52-9.8,6.49c-1.5.89-3,1.71-4.39,2.42,1.06-2.77,2-5.56,2.82-8.37.73-2.49,1.36-5.09,1.91-7.74,1.57-1.2,4.91-3.84,8.15-6.89,4.36-4,8.33-8.59,8.5-8.78l-3.56-3.08s-4,4.55-8.15,8.42c-1.25,1.18-2.52,2.3-3.7,3.29a118.28,118.28,0,0,0,1.12-15.62c0-.36,0-.7,0-1.06,1.27-1.5,4-4.79,6.49-8.44a114.27,114.27,0,0,0,6.46-10.44l-4.15-2.23a106.82,106.82,0,0,1-6.17,10c-1,1.42-2,2.78-2.92,4a110.4,110.4,0,0,0-2.51-16.52c.91-1.72,2.86-5.53,4.56-9.69a108,108,0,0,0,3.92-11.76l-4.55-1.2a103.66,103.66,0,0,1-3.73,11.17c-.66,1.62-1.36,3.18-2,4.59a99.07,99.07,0,0,0-6.12-15.6,99.52,99.52,0,0,0,2.2-10.52,98.93,98.93,0,0,0,1-12.42l-4.71-.06a96.78,96.78,0,0,1-1,11.77c-.25,1.73-.57,3.41-.89,4.94-.28-.49-.52-1-.81-1.47a91.9,91.9,0,0,0-11.45-15.28l-2-2.06A93.08,93.08,0,0,1,116.17,89ZM83.24,222q-2.43-3.75-4.52-7.74-1.43-2.72-2.67-5.54a93.43,93.43,0,0,1-8-37.8A94.8,94.8,0,0,1,70,152a93.87,93.87,0,0,1,9.42-25.81,94.14,94.14,0,0,1,19.18-24.5c.63.63,1.34,1.36,2.15,2.2a86.45,86.45,0,0,1,10.83,14.46c.31.51.57,1,.87,1.56-1.6-.52-3.37-1.06-5.17-1.51a79.92,79.92,0,0,0-10.75-1.94l-.47,4.69a75,75,0,0,1,10,1.81,91.61,91.61,0,0,1,9.58,3.08,94.57,94.57,0,0,1,5.77,14.8c-1.44-.87-3-1.81-4.69-2.69a84.89,84.89,0,0,0-10-4.45l-1.59,4.43a82.23,82.23,0,0,1,9.38,4.18c3.67,1.95,7.3,4.33,8.66,5.24a106.15,106.15,0,0,1,2.34,15.77c-1.22-1.17-2.59-2.44-4-3.65a90.32,90.32,0,0,0-8.75-6.68l-2.59,3.92a89.49,89.49,0,0,1,8.27,6.32c3.21,2.73,6.25,5.85,7.36,7,0,.22,0,.43,0,.65a112.71,112.71,0,0,1-1.11,15.24c-.95-1.4-2-2.93-3.16-4.42a103.84,103.84,0,0,0-7.11-8.4l-3.4,3.26a99.48,99.48,0,0,1,6.76,8,100,100,0,0,1,5.7,8.4c-.51,2.41-1.09,4.76-1.76,7-.77,2.74-1.72,5.45-2.76,8.14-.6-1.56-1.3-3.28-2.1-5-2.29-4.92-5-9.48-5.11-9.67l-4,2.4c0,.05,2.7,4.56,4.9,9.26a86.71,86.71,0,0,1,3.64,9.35c-1.42,3-3,6-4.71,8.94-1,1.64-2.09,3.17-3.17,4.73-.22-1.64-.49-3.43-.87-5.21a98.05,98.05,0,0,0-2.81-10.56l-4.46,1.51a94.93,94.93,0,0,1,2.66,10,80,80,0,0,1,1.32,9.81c-1.14,1.4-2.25,2.85-3.46,4.16l-2.18,2.24c-2.14-2-4.2-4-6.15-6.15-1.8-2-3.5-4.06-5.13-6.19C85.89,225.89,84.53,224,83.24,222Z"/></svg>