<?xml version="1.0" encoding="iso-8859-1"?>
<!-- Generator: Adobe Illustrator 19.0.0, SVG Export Plug-In . SVG Version: 6.00 Build 0)  -->
<svg xmlns="http://www.w3.org/2000/svg" xmlns:xlink="http://www.w3.org/1999/xlink" version="1.1" id="Layer_1" x="0px" y="0px" viewBox="0 0 419.558 419.558" style="enable-background:new 0 0 419.558 419.558;" xml:space="preserve" width="512" height="512">
<g>
	<circle style="fill:#E8E8E8;" cx="209.779" cy="209.779" r="209.779"/>
	<path style="fill:#D5D6D8;" d="M417.883,236.219c-49.305-12.149-103.574,1.037-142.101,39.563   c-38.526,38.526-51.713,92.796-39.564,142.102c44.567-5.631,87.675-25.546,121.897-59.769   C392.338,323.893,412.253,280.785,417.883,236.219z"/>
	<path style="fill:#C3C6C8;" d="M270.479,270.478c-40.125,40.125-54.026,96.69-41.718,148.214c5.01-0.452,10.005-1.085,14.978-1.897   c-11.819-47.045,0.624-98.987,37.348-135.71c36.723-36.724,88.665-49.168,135.711-37.348c0.81-4.973,1.443-9.968,1.895-14.977   C367.169,216.453,310.604,230.354,270.479,270.478z"/>
	<g>
		<path style="fill:#FF6361;" d="M289.211,296.711c-1.919,0-3.839-0.732-5.304-2.196l-26.857-26.858    c-2.929-2.93-2.929-7.678,0-10.607c2.93-2.928,7.678-2.928,10.607,0l26.857,26.857c2.929,2.93,2.929,7.678,0,10.608    C293.05,295.978,291.13,296.711,289.211,296.711z"/>
		<path style="fill:#FF6361;" d="M333.423,267.619c-2.982,0-5.802-1.79-6.971-4.729l-14.039-35.29    c-1.531-3.849,0.348-8.21,4.196-9.741c3.847-1.529,8.21,0.347,9.741,4.196l14.039,35.29c1.531,3.849-0.348,8.21-4.196,9.741    C335.284,267.447,334.346,267.619,333.423,267.619z"/>
		<path style="fill:#FF6361;" d="M385.539,258.389c-0.071,0-0.143-0.001-0.215-0.003c-4.141-0.116-7.402-3.567-7.286-7.708    l1.068-37.965c0.116-4.14,3.549-7.383,7.708-7.286c4.141,0.116,7.402,3.567,7.286,7.708l-1.068,37.965    C392.918,255.168,389.583,258.389,385.539,258.389z"/>
		<path style="fill:#FF6361;" d="M260.115,340.924c-0.923,0-1.861-0.171-2.771-0.533l-35.29-14.04    c-3.849-1.531-5.727-5.893-4.196-9.741c1.531-3.85,5.896-5.728,9.741-4.196l35.29,14.04c3.849,1.531,5.728,5.893,4.196,9.741    C265.917,339.134,263.097,340.924,260.115,340.924z"/>
		<path style="fill:#FF6361;" d="M212.92,394.103c-4.045,0-7.379-3.221-7.493-7.289c-0.116-4.141,3.146-7.592,7.286-7.708    l37.965-1.068c0.071-0.002,0.144-0.003,0.215-0.003c4.045,0,7.379,3.221,7.493,7.289c0.116,4.141-3.145,7.592-7.286,7.708    l-37.965,1.068C213.064,394.102,212.991,394.103,212.92,394.103z"/>
	</g>
	<path style="fill:#D5D6D8;" d="M183.34,1.674c12.148,49.307-1.037,103.574-39.564,142.102S50.981,195.488,1.674,183.34   c5.631-44.567,25.545-87.674,59.769-121.897C95.665,27.22,138.773,7.305,183.34,1.674z"/>
	<path style="fill:#C3C6C8;" d="M190.892,0.858c-5.009,0.45-10.004,1.079-14.976,1.889c2.834,11.292,4.296,23.013,4.296,34.957   c0,38.065-14.823,73.852-41.74,100.768c-26.916,26.917-62.703,41.74-100.768,41.74c-11.944,0-23.665-1.462-34.958-4.296   c-0.809,4.972-1.438,9.967-1.889,14.976c11.929,2.846,24.273,4.32,36.847,4.32c42.071,0,81.625-16.384,111.375-46.133   c29.749-29.75,46.133-69.304,46.133-111.375C195.212,25.131,193.737,12.787,190.892,0.858z"/>
	<g>
		<path style="fill:#FF6361;" d="M157.203,164.703c-1.919,0-3.839-0.732-5.304-2.196l-26.855-26.855    c-2.929-2.93-2.929-7.678,0-10.607c2.93-2.928,7.678-2.928,10.608,0l26.855,26.855c2.929,2.93,2.929,7.678,0,10.607    C161.042,163.971,159.122,164.703,157.203,164.703z"/>
		<path style="fill:#FF6361;" d="M194.729,107.678c-0.923,0-1.861-0.171-2.77-0.533l-35.289-14.039    c-3.849-1.531-5.727-5.893-4.196-9.741c1.531-3.85,5.896-5.729,9.741-4.196l35.289,14.039c3.849,1.531,5.728,5.893,4.196,9.741    C200.53,105.888,197.71,107.678,194.729,107.678z"/>
		<path style="fill:#FF6361;" d="M168.665,41.522c-4.045,0-7.379-3.221-7.493-7.289c-0.116-4.141,3.145-7.592,7.286-7.708    l37.964-1.067c4.188-0.103,7.592,3.146,7.708,7.286c0.116,4.141-3.145,7.592-7.286,7.708l-37.964,1.067    C168.808,41.521,168.736,41.522,168.665,41.522z"/>
		<path style="fill:#FF6361;" d="M100.178,202.232c-2.981,0-5.802-1.79-6.971-4.73l-14.039-35.289    c-1.531-3.849,0.348-8.21,4.196-9.741c3.846-1.529,8.21,0.347,9.741,4.196l14.039,35.289c1.531,3.849-0.348,8.21-4.196,9.741    C102.039,202.061,101.101,202.232,100.178,202.232z"/>
		<path style="fill:#FF6361;" d="M32.958,214.134c-0.071,0-0.143-0.001-0.215-0.003c-4.141-0.116-7.402-3.567-7.286-7.708    l1.067-37.964c0.114-4.068,3.449-7.289,7.493-7.289c0.071,0,0.143,0.001,0.215,0.003c4.141,0.116,7.402,3.567,7.286,7.708    l-1.067,37.964C40.337,210.913,37.002,214.134,32.958,214.134z"/>
	</g>
</g>















</svg>
