<svg xmlns="http://www.w3.org/2000/svg" xmlns:xlink="http://www.w3.org/1999/xlink" width="15px" height="15px" viewBox="0 0 15 15" version="1.1">    <title>Baseball icon</title>    <g id="Page-1" stroke="none" stroke-width="1" fill="none" fill-rule="evenodd">        <g id="main_sprite_dark" transform="translate(-350.000000, -1200.000000)" fill="#FFFFFF" fill-rule="nonzero">            <path d="M357.5,1200 C359.500082,1200 361.317307,1200.78291 362.661932,1202.05898 C362.336167,1202.39645 362.041659,1202.76323 361.781325,1203.15471 L361.781325,1203.15471 L361.369463,1202.90804 L361.311454,1202.87994 C361.153032,1202.82016 360.969673,1202.8802 360.879467,1203.03053 C360.777986,1203.19967 360.83283,1203.41905 361.001966,1203.52054 L361.001966,1203.52054 L361.41322,1203.76686 C361.172807,1204.21126 360.973984,1204.68146 360.821966,1205.17224 L360.821966,1205.17224 L360.359852,1205.05211 L360.296282,1205.04147 C360.127437,1205.02868 359.968381,1205.13788 359.924125,1205.30753 C359.874335,1205.49839 359.988694,1205.69348 360.179551,1205.74327 L360.179551,1205.74327 L360.641951,1205.86419 C360.554477,1206.27726 360.499457,1206.70231 360.479685,1207.13655 L360.479685,1207.13655 L360,1207.13691 L359.935803,1207.14271 C359.769196,1207.17319 359.642857,1207.32018 359.642857,1207.49691 C359.642857,1207.69573 359.802755,1207.85691 360,1207.85691 L360,1207.85691 L360.47939,1207.8569 C360.498905,1208.29342 360.554037,1208.72066 360.641951,1209.13581 L360.641951,1209.13581 L360.179551,1209.25673 L360.118886,1209.27851 C359.965307,1209.34983 359.879867,1209.52282 359.924125,1209.69247 C359.973913,1209.88332 360.168995,1209.99768 360.359852,1209.94789 L360.359852,1209.94789 L360.821887,1209.8275 C360.973915,1210.31838 361.172766,1210.78867 361.41322,1211.23314 L361.41322,1211.23314 L361.001966,1211.47946 L360.949878,1211.51743 C360.822572,1211.62908 360.789261,1211.81912 360.879467,1211.96947 C360.980949,1212.1386 361.200327,1212.19344 361.369463,1212.09196 L361.369463,1212.09196 L361.781325,1211.84529 C362.041659,1212.23677 362.336167,1212.60355 362.660589,1212.9414 C361.317307,1214.21709 359.500082,1215 357.5,1215 C355.529515,1215 353.736515,1214.24009 352.39807,1212.99734 C352.74523,1212.64431 353.058137,1212.25855 353.332961,1211.84529 L353.332961,1211.84529 L353.744823,1212.09196 L353.802832,1212.12006 C353.961254,1212.17984 354.144613,1212.1198 354.234819,1211.96947 C354.3363,1211.80033 354.281456,1211.58095 354.11232,1211.47946 L354.11232,1211.47946 L353.701066,1211.23314 C353.941478,1210.78874 354.140302,1210.31854 354.29232,1209.82776 L354.29232,1209.82776 L354.754433,1209.94789 L354.818004,1209.95853 C354.986848,1209.97132 355.145905,1209.86212 355.190161,1209.69247 C355.23995,1209.50161 355.125592,1209.30652 354.934735,1209.25673 L354.934735,1209.25673 L354.472335,1209.13581 C354.559809,1208.72274 354.614829,1208.29769 354.6346,1207.86345 L354.6346,1207.86345 L355.114286,1207.86286 L355.186262,1207.85555 C355.349007,1207.82198 355.471428,1207.67683 355.471428,1207.50286 C355.471428,1207.32612 355.345089,1207.17914 355.178483,1207.14865 L355.178483,1207.14865 L355.114286,1207.14286 L354.634896,1207.1431 C354.615381,1206.70658 354.560248,1206.27934 354.472335,1205.86419 L354.472335,1205.86419 L354.934735,1205.74327 L354.9954,1205.72149 C355.148978,1205.65017 355.234418,1205.47718 355.190161,1205.30753 C355.140373,1205.11668 354.94529,1205.00232 354.754433,1205.05211 L354.754433,1205.05211 L354.292399,1205.1725 C354.140371,1204.68162 353.94152,1204.21133 353.701066,1203.76686 L353.701066,1203.76686 L354.11232,1203.52054 L354.164408,1203.48257 C354.291714,1203.37092 354.325025,1203.18088 354.234819,1203.03053 C354.133337,1202.8614 353.913958,1202.80656 353.744823,1202.90804 L353.744823,1202.90804 L353.332961,1203.15471 C353.058137,1202.74145 352.74523,1202.35569 352.399249,1202.00246 C353.736515,1200.75991 355.529515,1200 357.5,1200 Z M351.899604,1202.51316 C352.202454,1202.82367 352.477258,1203.16167 352.719927,1203.52305 L352.719927,1203.52305 L352.519833,1203.64303 L352.467745,1203.68099 C352.34044,1203.79265 352.307128,1203.98269 352.397334,1204.13303 C352.498815,1204.30216 352.718194,1204.35701 352.88733,1204.25553 L352.88733,1204.25553 L353.088146,1204.1355 C353.294661,1204.52154 353.466746,1204.92878 353.600294,1205.35309 L353.600294,1205.35309 L353.372123,1205.41271 L353.311457,1205.43448 C353.157879,1205.5058 353.072439,1205.67878 353.116696,1205.84844 C353.166485,1206.0393 353.361567,1206.15366 353.552424,1206.10387 L353.552424,1206.10387 L353.780048,1206.04392 C353.854062,1206.40129 353.901376,1206.76843 353.919813,1207.14316 L353.919813,1207.14316 L353.685715,1207.14286 L353.613737,1207.15017 C353.450994,1207.18374 353.328571,1207.32889 353.328571,1207.50286 C353.328571,1207.67959 353.454911,1207.82658 353.621517,1207.85706 L353.621517,1207.85706 L353.685715,1207.86286 L353.919488,1207.86339 C353.900824,1208.23585 353.85363,1208.60079 353.780048,1208.95608 L353.780048,1208.95608 L353.552424,1208.89613 L353.488854,1208.88549 C353.320009,1208.87271 353.160953,1208.98191 353.116696,1209.15156 C353.066907,1209.34242 353.181266,1209.5375 353.372123,1209.58729 L353.372123,1209.58729 L353.600294,1209.64691 C353.466746,1210.07122 353.294661,1210.47846 353.088146,1210.8645 L353.088146,1210.8645 L352.88733,1210.74447 L352.829322,1210.71638 C352.670899,1210.65659 352.48754,1210.71663 352.397334,1210.86697 C352.295852,1211.03611 352.350697,1211.25548 352.519833,1211.35697 L352.519833,1211.35697 L352.719947,1211.47691 C352.477279,1211.8383 352.202474,1212.17631 351.899623,1212.48682 C350.717367,1211.16152 350,1209.41453 350,1207.5 C350,1205.62432 350.688548,1203.90945 351.826671,1202.59437 L351.899604,1202.51316 Z M363.156026,1202.57445 C364.30447,1203.89211 365,1205.61483 365,1207.5 C365,1209.38517 364.30447,1211.10789 363.156026,1212.42555 C362.876051,1212.13205 362.621168,1211.81471 362.394358,1211.47695 L362.394358,1211.47695 L362.594453,1211.35697 L362.64654,1211.31901 C362.773846,1211.20735 362.807158,1211.01731 362.716951,1210.86697 C362.615471,1210.69784 362.396092,1210.64299 362.226956,1210.74447 L362.226956,1210.74447 L362.02614,1210.8645 C361.819624,1210.47846 361.64754,1210.07122 361.513992,1209.64691 L361.513992,1209.64691 L361.742163,1209.58729 L361.802829,1209.56552 C361.956406,1209.4942 362.041846,1209.32122 361.99759,1209.15156 C361.947801,1208.9607 361.752718,1208.84634 361.561861,1208.89613 L361.561861,1208.89613 L361.334238,1208.95608 C361.260224,1208.59871 361.21291,1208.23157 361.194473,1207.85684 L361.194473,1207.85684 L361.428571,1207.85691 L361.492768,1207.8511 C361.659375,1207.82063 361.785715,1207.67363 361.785715,1207.49691 C361.785715,1207.29808 361.625816,1207.13691 361.428571,1207.13691 L361.428571,1207.13691 L361.194798,1207.13661 C361.213462,1206.76415 361.260656,1206.39921 361.334238,1206.04392 L361.334238,1206.04392 L361.561861,1206.10387 L361.625432,1206.11451 C361.794277,1206.12729 361.953333,1206.01809 361.99759,1205.84844 C362.047378,1205.65758 361.93302,1205.4625 361.742163,1205.41271 L361.742163,1205.41271 L361.513992,1205.35309 C361.64754,1204.92878 361.819624,1204.52154 362.02614,1204.1355 L362.02614,1204.1355 L362.226956,1204.25553 L362.284964,1204.28363 C362.443387,1204.34341 362.626746,1204.28337 362.716951,1204.13303 C362.818433,1203.96389 362.763588,1203.74452 362.594453,1203.64303 L362.594453,1203.64303 L362.394339,1203.52309 C362.577503,1203.25031 362.778975,1202.99086 362.996998,1202.7465 L363.156026,1202.57445 Z" id="Baseball-icon"/>        </g>    </g></svg>