<svg viewBox="0 0 100 100" xmlns="http://www.w3.org/2000/svg" id="baseball-icon">
  <g fill-rule="evenodd">
    <path d="M8.306 34.451c-6.445 17.24-1.29 37.314 12.663 49.34 14.087 12.144 34.923 14.11 51.112 4.85 16.192-9.258 25.042-28.312 21.642-46.63-3.39-18.285-18.25-32.886-36.56-35.889-18.146-2.982-36.907 6.022-45.935 22.046a44.634 44.634 0 0 0-2.922 6.285zM3.1 32.507c.909-2.433 2.01-4.8 3.286-7.065C16.56 7.382 37.618-2.72 58.063.64 78.71 4.028 95.375 20.442 99.185 41c3.833 20.657-6.12 42.042-24.347 52.464C56.643 103.87 33.243 101.707 17.343 88 1.637 74.464-4.164 51.936 3.101 32.508z"/>
    <path d="m58.952 10.94-8.809-.358c-2.083-.09-2.222 3.16-.132 3.246l8.809.36c2.086.087 2.218-3.16.132-3.25zm-8.737 8.677c-2.907.486-2.177 4.994.748 4.513l12.25-2.036c2.908-.477 2.175-5.002-.75-4.516l-12.25 2.039zm4.348 11.919c-2.806.893-1.436 5.264 1.389 4.361l11.827-3.772c2.81-.896 1.445-5.264-1.384-4.361l-11.83 3.772zm16.382 5.006L60.47 43.208c-2.486 1.58-.046 5.45 2.455 3.861l10.473-6.666c2.491-1.58.044-5.454-2.453-3.861zm6.694 8.736-8.698 8.853c-2.066 2.102 1.184 5.326 3.263 3.208l8.703-8.854c2.061-2.107-1.184-5.327-3.266-3.209zm7.278 6.12L80.57 63.025c-1.03 2.756 3.246 4.38 4.287 1.602L89.207 53c1.028-2.76-3.25-4.38-4.291-1.603zm-49.18-4.526a2.292 2.292 0 0 0-3.234.132l-8.42 9.125c-2 2.159 1.352 5.284 3.362 3.106l8.426-9.125a2.298 2.298 0 0 0-.133-3.24c-.925-.853.93.862 0 0zm4.844 10.425-10.47 6.667c-2.486 1.586-.047 5.454 2.459 3.861l10.472-6.667c2.483-1.586.044-5.454-2.461-3.86zm-5.386 16.43c-2.778.987-1.274 5.31 1.523 4.32l11.704-4.139c2.782-.98 1.27-5.31-1.525-4.315L35.195 73.73zm2.466 9.187c-2.936-.236-3.316 4.333-.36 4.564l12.374.98c2.935.226 3.32-4.33.364-4.566l-12.378-.98zm-17.37-32.067 7.029-10.236c1.666-2.426-2.103-5.032-3.778-2.586L16.518 48.26c-1.662 2.425 2.093 5.03 3.775 2.588zm-5.305-7.322 3.403-8.132c.805-1.928-2.195-3.186-3-1.256L11.99 42.27c-.805 1.927 2.19 3.181 2.998 1.255z"/>
  </g>
</svg>
