<?xml version="1.0" ?><svg id="Icons" style="enable-background:new 0 0 32 32;" version="1.1" viewBox="0 0 32 32" xml:space="preserve" xmlns="http://www.w3.org/2000/svg" xmlns:xlink="http://www.w3.org/1999/xlink"><style type="text/css">
	.st0{fill:none;stroke:#000000;stroke-width:2;stroke-linecap:round;stroke-linejoin:round;stroke-miterlimit:10;}
</style><circle class="st0" cx="25" cy="7" r="5"/><path class="st0" d="M24.7,2c0.2,1.3-0.1,2.6-1.1,3.6c-1,1-2.3,1.3-3.6,1.1"/><path class="st0" d="M25.3,12c-0.2-1.3,0.1-2.6,1.1-3.6c1-1,2.3-1.3,3.6-1.1"/><path class="st0" d="M28.2,25.9L8.5,3.3C7,1.6,4.5,1.5,2.9,3.1S1.4,7.2,3.1,8.7l22.6,19.7c-0.5,0.5-0.5,1.2,0,1.7  c0.5,0.5,1.2,0.5,1.7,0l2.5-2.5c0.5-0.5,0.5-1.2,0-1.7C29.4,25.4,28.6,25.4,28.2,25.9z"/><line class="st0" x1="25.1" x2="22.1" y1="22.4" y2="25.3"/><line class="st0" x1="11.8" x2="16.1" y1="16.3" y2="12"/></svg>