<svg viewBox="0 0 100 100" xmlns="http://www.w3.org/2000/svg" id="basketball-icon">
  <path d="M50 100c27.614 0 50-22.386 50-50S77.614 0 50 0 0 22.386 0 50s22.386 50 50 50zm3.727-88.354c1.035-1.373.869-4.281.72-6.847-.003-.11-.01-.218-.016-.328a45.662 45.662 0 0 0-20.588 2.735c3.589 1.724 9.145 4.692 15.319 9.075 2.108-1.812 3.697-3.485 4.564-4.635zm23.188 26.102c-2.255.255-4.158.624-5.784 1.143 7.776 13.575 10.81 30.722 11.553 43.144 7.703-7.847 12.597-18.455 13.06-30.205-5.308-6.524-12.342-14.817-18.83-14.082zM30.679 26.032c5.465-1.136 10.6-3.885 14.693-6.787-8.542-5.879-15.665-8.93-17.082-9.511A45.931 45.931 0 0 0 8.216 31.39c5.362-2.135 11.168-3.22 16.872-4.28 1.844-.342 3.751-.695 5.59-1.078zm31.634 1.33c.49.49.974.99 1.457 1.497 1.783 1.87 3.401 3.917 4.883 6.08 2.162-.815 4.704-1.393 7.75-1.737 7.173-.81 13.55 4.868 19.025 11.121a45.548 45.548 0 0 0-11.3-24.823c-3.309.399-6.996 1.074-10.756 2.195-2.466.736-6.393 2.736-11.058 5.668zM56.29 50.986c1.877-6.355 4.052-10.936 8.264-13.91-1.262-1.813-2.623-3.516-4.098-5.063a86.93 86.93 0 0 0-2.063-2.085c-16.905 11.5-40.056 32.62-42.162 50.923 7.029 7.684 16.646 12.954 27.472 14.45 3.943-7.845 7.653-23.792 9.859-33.277 1.058-4.556 1.973-8.489 2.726-11.038zM37.128 40.91a162.924 162.924 0 0 1 17.808-14.207 99.673 99.673 0 0 0-5.67-4.643c-4.728 3.553-10.918 7.05-17.656 8.452-1.887.393-3.82.75-5.688 1.098-7.196 1.336-14.106 2.63-19.917 5.87A45.746 45.746 0 0 0 4.255 50c0 9.717 3.04 18.72 8.209 26.128 3.349-13.25 14.834-26.166 24.664-35.22zm21.75-16.82c5.444-3.468 10.138-5.868 13.184-6.776a67.607 67.607 0 0 1 7.957-1.846 45.594 45.594 0 0 0-20.968-10.32c.176 3.197.252 6.703-1.67 9.253-.915 1.21-2.46 2.87-4.47 4.67a102.231 102.231 0 0 1 5.968 5.018zm1.8 28.192c-.712 2.42-1.616 6.293-2.659 10.779-3.078 13.242-6.024 25.091-9.465 32.649.49.014.979.036 1.47.036 10.666 0 20.472-3.657 28.254-9.77-.309-13-3.426-31.389-11.28-45.039-3.047 2.263-4.686 5.823-6.32 11.346z" fill-rule="evenodd"/>
</svg>
