<svg id="Layer_1" data-name="Layer 1" xmlns="http://www.w3.org/2000/svg" xmlns:xlink="http://www.w3.org/1999/xlink" viewBox="0 0 354.18 325.41"><defs><style>.cls-1{fill:url(#New_Gradient_Swatch_15);}</style><linearGradient id="New_Gradient_Swatch_15" x1="73.85" y1="165.45" x2="280.33" y2="165.45" gradientUnits="userSpaceOnUse"><stop offset="0" stop-color="#950c37"/><stop offset="0.43" stop-color="#ff265a"/><stop offset="1" stop-color="#ff4d7c"/></linearGradient></defs><path class="cls-1" d="M177.09,268.7A103.25,103.25,0,1,0,73.85,165.45,103.36,103.36,0,0,0,177.09,268.7ZM237,238.11A93.92,93.92,0,0,1,225.91,246c-1.29.79-2.61,1.54-3.94,2.27q-4,2.17-8.23,4a94.46,94.46,0,0,1-73.3,0q-4.23-1.78-8.23-4c-1.34-.73-2.65-1.48-4-2.27a93.81,93.81,0,0,1-11.06-7.87L117,238l.7-1.14c12.19-19.83,18.83-43.18,19.44-67.72h36.31v90.18h7.26V169.09H217c.6,24.54,7.24,47.89,19.43,67.72l.71,1.14Zm34.14-67.76c0,.44-.07.88-.1,1.32,0,.25,0,.48-.06.72-.06.93-.12,1.87-.21,2.8-.05.49-.13,1-.19,1.46-.13,1.11-.26,2.22-.43,3.32-.07.45-.16.89-.24,1.34-.19,1.13-.38,2.25-.61,3.36-.09.41-.19.81-.28,1.22,0,.18-.09.36-.13.54-.21,1-.43,1.92-.68,2.87-.09.35-.2.7-.29,1-.33,1.18-.66,2.35-1,3.5-.09.29-.2.57-.29.85s-.25.71-.37,1.07c-.28.84-.56,1.69-.87,2.53-.09.24-.19.46-.28.7-.18.47-.38.93-.56,1.4-.3.76-.59,1.51-.91,2.26l-.24.51c-.55,1.27-1.12,2.51-1.72,3.74l-.19.36c-.48,1-1,1.93-1.51,2.88l-.47.9a2.53,2.53,0,0,1-.13.22c-.71,1.28-1.45,2.55-2.23,3.79-.54.86-1,1.59-1.52,2.32-.34.52-.67,1.05-1,1.57-1.64,2.36-3.38,4.6-5.2,6.77l-.91,1.08c-1.82,2.11-3.71,4.17-5.71,6.11C231.61,215,224.93,193,224.3,169.09h46.85C271.14,169.51,271.14,169.93,271.12,170.35ZM243,98.23a95,95,0,0,1,11.59,13.71c.75,1.08,1.45,2.17,2.15,3.27.11.17.23.34.34.52.85,1.36,1.59,2.62,2.3,3.91a1.59,1.59,0,0,1,.13.22c.69,1.24,1.35,2.51,2,3.79l.17.34c.61,1.23,1.18,2.49,1.73,3.75l.24.51c.32.75.61,1.51.91,2.27.19.47.39.93.57,1.4.08.23.18.46.27.69.44,1.18.85,2.39,1.24,3.59.09.29.2.57.29.86.36,1.15.69,2.32,1,3.49.1.37.21.71.3,1.06.17.63.3,1.27.45,1.9L269,145c.09.41.19.81.28,1.22.23,1.11.42,2.23.61,3.35.08.46.17.9.24,1.35.14.88.24,1.77.35,2.66,0,.22.06.44.08.67.06.49.14,1,.19,1.45,0,.19,0,.38,0,.57.09,1,.17,2,.23,3,0,.44.08.87.1,1.3s0,.85,0,1.27H224.3c.63-23.89,7.31-45.93,18.35-63.9C242.75,98,242.85,98.13,243,98.23ZM117.2,92.8a94.09,94.09,0,0,1,15-10.14q4-2.18,8.23-4A94.26,94.26,0,0,1,237.17,93l-.71,1.14c-12.19,19.83-18.83,43.18-19.43,67.72H180.72V71.64h-7.26v90.18H137.15c-.61-24.54-7.25-47.89-19.44-67.72L117,93ZM83.06,160.61c0-.45.06-.83.09-1.22,0-.57.09-1.13.13-1.7s.08-1.32.15-2c0-.46.12-.91.17-1.37.1-.77.2-1.55.31-2.32,0-.36.08-.73.14-1.09s.15-.85.23-1.28c.15-.89.3-1.72.46-2.54.06-.3.1-.59.16-.89s.18-.77.27-1.16l.25-1.07c.18-.8.36-1.61.57-2.4.08-.33.19-.66.28-1s.14-.45.19-.66c.27-1,.54-1.93.84-2.89l.28-.81c.4-1.24.81-2.45,1.25-3.63.09-.23.18-.44.26-.66.41-1.08.85-2.15,1.29-3.21.07-.16.13-.33.2-.49s.15-.33.22-.49c.57-1.28,1.14-2.54,1.74-3.77l.18-.34c.64-1.28,1.29-2.55,2-3.79l.11-.2c.42-.76.86-1.47,1.29-2.19.32-.54.63-1.09,1-1.63.51-.82,1-1.51,1.44-2.2s.73-1.13,1.11-1.68a94.8,94.8,0,0,1,11.6-13.73c.11-.1.21-.2.31-.31,11,18,17.72,40,18.35,63.9H83C83,161.42,83,161,83.06,160.61ZM99.63,219c-.87-1.26-1.69-2.52-2.49-3.79s-1.59-2.63-2.31-3.91l-.12-.22c-.52-.93-1-1.88-1.49-2.83-.16-.32-.34-.63-.5-1l-.18-.35c-.6-1.23-1.17-2.48-1.73-3.74-.07-.17-.15-.34-.23-.51-.52-1.21-1-2.43-1.47-3.66l-.28-.7c-.44-1.19-.85-2.39-1.24-3.6-.1-.29-.2-.57-.29-.85-.37-1.16-.7-2.33-1-3.5-.1-.37-.2-.7-.29-1-.3-1.14-.56-2.29-.82-3.44-.08-.4-.19-.79-.27-1.18s-.1-.56-.15-.83c-.16-.85-.32-1.69-.46-2.54-.08-.48-.17-.9-.24-1.34-.15-.92-.25-1.85-.36-2.78,0-.21-.06-.41-.08-.61-.06-.47-.13-.92-.18-1.39-.09-.84-.14-1.69-.2-2.53,0-.38-.06-.75-.08-1.12s-.07-.79-.09-1.18,0-.87,0-1.27h46.86c-.63,23.87-7.3,45.9-18.32,63.85-.21-.19-.43-.37-.62-.57-1.18-1.16-2.27-2.39-3.38-3.61s-2-2.17-3-3.31C102.87,223.36,101.19,221.22,99.63,219Z"/></svg>