<svg xmlns="http://www.w3.org/2000/svg" xmlns:xlink="http://www.w3.org/1999/xlink" width="15px" height="15px" viewBox="0 0 15 15" version="1.1">    <!-- Generator: Sketch 49 (51002) - http://www.bohemiancoding.com/sketch -->    <title>icon_basketball</title>    <desc>Created with Sketch.</desc>    <defs/>    <g id="icon_basketball" stroke="none" stroke-width="1" fill="none" fill-rule="evenodd">        <rect id="Bound" x="0" y="0" width="15" height="15"/>        <g fill="#FFFFFF">            <path d="M4.53685936,9.9031875 C3.25785807,8.7508125 1.6420618,8.1823125 0.0292460242,8.1901875 C0.171936817,9.7576875 0.809760938,11.2839375 1.9293062,12.5278125 L4.53685936,9.9031875 Z" id="Fill-1"/>            <path d="M7.44804959,6.9729375 L9.30526527,5.1035625 C8.00651826,3.6594375 7.36720389,1.8305625 7.38210632,0.0065625 C5.61356012,0.0223125 3.8547005,0.6733125 2.45610719,1.9483125 L7.44804959,6.9729375 Z" id="Fill-3"/>            <path d="M6.92117408,7.5032625 L1.92923168,2.4786375 C0.662524902,3.8863875 0.0157593226,5.6567625 0.000111768245,7.4368875 C1.81224759,7.4218875 3.62922669,8.0653875 5.0639584,9.3726375 L6.92117408,7.5032625 Z" id="Fill-5"/>            <path d="M12.4401038,1.9482 C11.203947,0.821325 9.68762443,0.179325 8.13032021,0.036075 C8.12249644,1.65945 8.68729864,3.28545 9.83255059,4.572825 L12.4401038,1.9482 Z" id="Fill-7"/>            <path d="M10.3592398,5.1033375 C11.6382411,6.2557125 13.2540374,6.8242125 14.8664806,6.8163375 C14.7241624,5.2488375 14.0863382,3.7225875 12.966793,2.4787125 L10.3592398,5.1033375 Z" id="Fill-9"/>            <path d="M2.45603268,13.0582875 C3.69218947,14.1847875 5.208512,14.8271625 6.76581622,14.9704125 C6.77326744,13.3470375 6.2088378,11.7210375 5.06358584,10.4336625 L2.45603268,13.0582875 Z" id="Fill-11"/>            <path d="M9.83232705,5.6337 L7.97511138,7.503075 L12.9670538,12.528075 C14.2337606,11.11995 14.8805261,9.349575 14.8961737,7.569825 C13.0840379,7.58445 11.2666862,6.941325 9.83232705,5.6337" id="Fill-13"/>            <path d="M7.44804959,8.0335875 L5.59083391,9.9029625 C6.88958092,11.3470875 7.52852273,13.1759625 7.51399285,14.9999625 C9.2821665,14.9842125 11.0410261,14.3332125 12.439992,13.0582125 L7.44804959,8.0335875 Z" id="Fill-16"/>        </g>    </g></svg>