<?xml version="1.0" encoding="iso-8859-1"?>
<!-- Generator: Adobe Illustrator 19.0.0, SVG Export Plug-In . SVG Version: 6.00 Build 0)  -->
<svg version="1.1" id="Layer_1" xmlns="http://www.w3.org/2000/svg" xmlns:xlink="http://www.w3.org/1999/xlink" x="0px" y="0px"
	 viewBox="0 0 511.976 511.976" style="enable-background:new 0 0 511.976 511.976;" xml:space="preserve">
<path style="fill:#F6BB42;" d="M319.986,106.678c0-20.937-10.062-39.529-25.608-51.201l0,0c0,0-47.357,8.796-38.389,51.201
	c41.186,13.437,25.124,58.856,25.124,58.856h0.016C303.971,155.769,319.986,133.098,319.986,106.678z"/>
<path style="fill:#4A89DC;" d="M315.986,128.926c-20.937-49.154-56.325-50.873-56.356-50.873
	c-4.187,7.203-6.203,16.546-3.641,28.624c41.186,13.437,25.124,58.856,25.124,58.856h0.016
	C297.206,158.659,309.893,145.394,315.986,128.926L315.986,128.926z"/>
<path style="fill:#FFCE54;" d="M223.991,51.259c-18.14,10.468-29.202,28.467-31.545,47.763l0,0c0,0,31.295,36.623,63.543,7.656
	c-8.968-42.404,38.389-51.201,38.389-51.201s0.016,0,0.016-0.016C274.505,40.571,246.864,38.04,223.991,51.259z"/>
<path style="fill:#5D9BEB;" d="M245.24,43.587c-32.092,42.717-15.875,74.215-15.875,74.23c8.343,0.031,17.437-2.891,26.624-11.14
	c-8.968-42.404,38.389-51.201,38.389-51.201s0.016,0,0.016-0.016C280.394,44.978,262.551,40.634,245.24,43.587L245.24,43.587z"/>
<path style="fill:#FFCE54;" d="M223.991,162.097c18.124,10.468,39.248,11.062,57.122,3.437l0,0c0,0,16.062-45.419-25.124-58.856
	c-32.248,28.967-63.543-7.656-63.543-7.656h-0.016C189.477,123.693,201.117,148.894,223.991,162.097z"/>
<path style="fill:#5D9BEB;" d="M206.711,147.519c53.044,6.437,72.215-23.342,72.23-23.374c-4.141-7.219-11.233-13.64-22.952-17.468
	c-32.248,28.967-63.543-7.656-63.543-7.656h-0.016C190.352,116.38,195.508,134.004,206.711,147.519L206.711,147.519z"/>
<g>
	<path style="fill:#E6E9ED;" d="M469.291,415.982H42.672c-5.89,0-10.671-4.765-10.671-10.671V223.999
		c0-5.89,4.781-10.655,10.671-10.655h426.619c5.905,0,10.687,4.766,10.687,10.655v181.312
		C479.977,411.217,475.196,415.982,469.291,415.982z M53.328,394.655h405.308V234.671H53.328V394.655z"/>
	<path style="fill:#E6E9ED;" d="M127.996,362.657c-5.89,0-10.671-4.781-10.671-10.672V223.999c0-5.89,4.781-10.655,10.671-10.655
		c5.891,0,10.656,4.766,10.656,10.655v127.986C138.652,357.876,133.886,362.657,127.996,362.657z"/>
	<path style="fill:#E6E9ED;" d="M213.32,362.657c-5.89,0-10.671-4.781-10.671-10.672V223.999c0-5.89,4.781-10.655,10.671-10.655
		s10.671,4.766,10.671,10.655v127.986C223.991,357.876,219.21,362.657,213.32,362.657z"/>
	<path style="fill:#E6E9ED;" d="M298.643,362.657c-5.891,0-10.656-4.781-10.656-10.672V223.999c0-5.89,4.766-10.655,10.656-10.655
		s10.672,4.766,10.672,10.655v127.986C309.315,357.876,304.534,362.657,298.643,362.657z"/>
	<path style="fill:#E6E9ED;" d="M383.983,362.657c-5.906,0-10.672-4.781-10.672-10.672V223.999c0-5.89,4.766-10.655,10.672-10.655
		c5.874,0,10.655,4.766,10.655,10.655v127.986C394.638,357.876,389.857,362.657,383.983,362.657z"/>
	<path style="fill:#E6E9ED;" d="M469.291,298.66H42.672c-5.89,0-10.671-4.78-10.671-10.671s4.781-10.656,10.671-10.656h426.619
		c5.905,0,10.687,4.766,10.687,10.656S475.196,298.66,469.291,298.66z"/>
</g>
<path style="fill:#5D9BEB;" d="M0.003,330.425v128.228c0,5.89,4.781,10.655,10.671,10.655h490.615
	c5.906,0,10.687-4.766,10.687-10.655V330.425H0.003z"/>
<path style="fill:#4A89DC;" d="M341.313,351.985c-1.641,0-3.266-0.375-4.766-1.125l-16.562-8.28l-16.562,8.28
	c-3.016,1.5-6.547,1.5-9.547,0l-16.562-8.28l-16.562,8.28c-3.016,1.5-6.546,1.5-9.546,0l-16.562-8.28l-16.562,8.28
	c-3,1.5-6.531,1.5-9.531,0l-16.562-8.28l-16.562,8.28c-3,1.5-6.546,1.5-9.546,0l-16.562-8.28l-16.562,8.28c-3,1.5-6.531,1.5-9.531,0
	l-16.562-8.28l-16.578,8.28c-3,1.5-6.531,1.5-9.531,0l-16.562-8.28l-16.562,8.28c-2.531,1.266-5.469,1.469-8.14,0.578L7.299,340.783
	c-5.593-1.875-8.609-7.905-6.75-13.499s7.906-8.609,13.483-6.75l27.812,9.281l17.39-8.703c3-1.5,6.531-1.5,9.531,0l16.562,8.281
	l16.562-8.281c3-1.5,6.546-1.5,9.546,0l16.562,8.281l16.562-8.281c3-1.5,6.531-1.5,9.531,0l16.562,8.281l16.562-8.281
	c3.016-1.5,6.546-1.5,9.546,0l16.562,8.281l16.562-8.281c3-1.5,6.531-1.5,9.546,0l16.562,8.281l16.562-8.281
	c2.999-1.5,6.53-1.5,9.53,0l16.562,8.281l16.562-8.281c3-1.5,6.53-1.5,9.546,0l16.562,8.281l16.562-8.281
	c2.999-1.5,6.53-1.5,9.546,0l16.562,8.281l16.561-8.281c3-1.5,6.531-1.5,9.531,0l16.562,8.281l16.562-8.281c3-1.5,6.531-1.5,9.531,0
	l17.389,8.703l27.812-9.281c5.577-1.859,11.623,1.156,13.482,6.75c1.875,5.594-1.156,11.624-6.749,13.499l-31.999,10.655
	c-2.671,0.891-5.593,0.688-8.124-0.578l-16.562-8.28l-16.562,8.28c-3.016,1.5-6.547,1.5-9.546,0l-16.562-8.28l-16.577,8.28
	c-2.999,1.5-6.53,1.5-9.53,0l-16.562-8.28l-16.561,8.28C344.579,351.61,342.954,351.985,341.313,351.985z"/>
<g>
</g>
<g>
</g>
<g>
</g>
<g>
</g>
<g>
</g>
<g>
</g>
<g>
</g>
<g>
</g>
<g>
</g>
<g>
</g>
<g>
</g>
<g>
</g>
<g>
</g>
<g>
</g>
<g>
</g>
</svg>
