<?xml version="1.0" ?><!DOCTYPE svg  PUBLIC '-//W3C//DTD SVG 1.1//EN'  'http://www.w3.org/Graphics/SVG/1.1/DTD/svg11.dtd'><svg enable-background="new 0 0 633.48 633.48" height="633.48px" id="Layer_1" version="1.1" viewBox="0 0 633.48 633.48" width="633.48px" xml:space="preserve" xmlns="http://www.w3.org/2000/svg" xmlns:xlink="http://www.w3.org/1999/xlink"><g><g><path d="M316.74,633.48c-84.604,0-164.146-32.946-223.97-92.772C32.947,480.885,0,401.344,0,316.74S32.947,152.597,92.771,92.771    C152.595,32.947,232.137,0,316.74,0s164.145,32.947,223.969,92.771c59.824,59.825,92.771,139.365,92.771,223.969    s-32.947,164.145-92.771,223.968C480.885,600.534,401.344,633.48,316.74,633.48z M316.74,20.53    c-163.33,0-296.211,132.88-296.211,296.21c0,163.331,132.881,296.211,296.211,296.211s296.211-132.88,296.211-296.211    C612.951,153.41,480.07,20.53,316.74,20.53z"/></g><g><path d="M337.847,341.939c-25.742,0-46.685-20.943-46.685-46.684s20.942-46.684,46.685-46.684    c25.741,0,46.684,20.943,46.684,46.684S363.588,341.939,337.847,341.939z M337.847,261.77c-18.464,0-33.486,15.021-33.486,33.486    s15.022,33.486,33.486,33.486s33.486-15.021,33.486-33.486S356.311,261.77,337.847,261.77z"/></g><g><path d="M454.854,295.354c-25.741,0-46.684-20.943-46.684-46.685c0-25.74,20.942-46.684,46.684-46.684    c25.742,0,46.685,20.943,46.685,46.684C501.538,274.41,480.596,295.354,454.854,295.354z M454.854,215.183    c-18.464,0-33.486,15.022-33.486,33.486c0,18.465,15.022,33.486,33.486,33.486c18.465,0,33.486-15.021,33.486-33.486    C488.34,230.205,473.318,215.183,454.854,215.183z"/></g><path d="M304.698,317.797c7.216,10.589,19.368,17.544,33.148,17.544c18.796,0,34.567-12.941,38.899-30.398   c-5.658-13.53-19.018-23.037-34.598-23.037C321.979,281.905,305.536,297.832,304.698,317.797z"/><path d="M451.578,238.334c-15.655,0-29.064,9.601-34.676,23.233c5.372,15.81,20.328,27.188,37.951,27.188   c14.205,0,26.675-7.396,33.795-18.539C485.941,252.171,470.376,238.334,451.578,238.334z"/><g><path d="M462.437,494.264c-24.903,0-45.163-20.26-45.163-45.163c0-24.902,20.26-45.163,45.163-45.163s45.163,20.261,45.163,45.163    C507.6,474.004,487.34,494.264,462.437,494.264z M462.437,417.135c-17.625,0-31.966,14.339-31.966,31.966    s14.341,31.966,31.966,31.966c17.626,0,31.966-14.339,31.966-31.966S480.062,417.135,462.437,417.135z"/></g><path d="M423.873,449.101c0,1.313,0.066,2.61,0.195,3.89c4.896,11.426,16.299,19.438,29.584,19.438   c17.753,0,32.146-14.302,32.146-31.944c0-13.624-8.584-25.248-20.666-29.844c-0.892-0.062-1.788-0.104-2.696-0.104   C441.14,410.536,423.873,427.802,423.873,449.101z"/></g></svg>