<?xml version="1.0" encoding="iso-8859-1"?>
<!-- Generator: Adobe Illustrator 18.0.0, SVG Export Plug-In . SVG Version: 6.00 Build 0)  -->
<!DOCTYPE svg PUBLIC "-//W3C//DTD SVG 1.1//EN" "http://www.w3.org/Graphics/SVG/1.1/DTD/svg11.dtd">
<svg version="1.1" id="Capa_1" xmlns="http://www.w3.org/2000/svg" xmlns:xlink="http://www.w3.org/1999/xlink" x="0px" y="0px"
	 viewBox="0 0 477.778 477.778" style="enable-background:new 0 0 477.778 477.778;" xml:space="preserve">
<g>
	<path d="M335.152,147.688c-1.228,9.263-3.297,18.391-6.182,27.311h100.392c-2.876-8.92-4.945-18.049-6.174-27.311H335.152z"/>
	<path d="M336.016,115.836h86.301c0.545-7.308,1.44-14.61,3.034-21.842c3.795-17.233,5.94-21.409,5.94-41.363
		c0-28.788-23.336-52.132-52.132-52.132c-28.788,0-52.126,23.344-52.126,52.132c0,8.724,2.147,24.129,5.942,41.363
		C334.57,101.232,335.471,108.527,336.016,115.836z"/>
	<path d="M443.081,205.98v0.871H316.745c0.857,1.624,1.594,3.297,2.513,4.891c22.854,39.885,38.811,88.914,38.811,119.226
		c0,28.447-3.765,76.714-10.078,112.671h88.09c14.192,0,26.454-9.954,29.332-23.849c6.952-33.548,10.949-84.118,10.949-111.924
		C476.363,282.172,462.069,239.62,443.081,205.98z"/>
	<path d="M191.104,125.417h92.748c0.561-8.274,1.564-16.549,3.367-24.744c4.083-18.554,6.393-23.05,6.393-44.535
		C293.611,25.133,268.478,0,237.474,0c-30.997,0-56.129,25.133-56.129,56.137c0,9.393,2.309,25.981,6.393,44.527
		C189.54,108.868,190.551,117.143,191.104,125.417z"/>
	<path d="M190.217,157.269c-1.352,10.809-3.709,21.47-7.154,31.852h108.838c-3.437-10.374-5.794-21.043-7.146-31.852H190.217z"/>
	<path d="M168.817,220.972c-4.969,8.78-9.659,18.087-13.889,27.606c48.555,17.66,83.385,64.132,83.385,118.714
		c0,47.055-25.894,88.113-64.13,109.871h121.311c17.326,0,32.263-12.263,35.583-29.262c7.038-36.058,11.067-87.965,11.067-116.933
		c0-27.745-15.475-73.727-35.997-109.996H168.817z"/>
	<path d="M222.387,367.292c0-61.02-49.464-110.486-110.486-110.486c-61.02,0-110.486,49.466-110.486,110.486
		s49.466,110.486,110.486,110.486C172.923,477.778,222.387,428.312,222.387,367.292z M45.802,389.431
		c-11.151,0-20.194-9.051-20.194-20.202c0-11.151,9.043-20.196,20.194-20.196c11.159,0,20.204,9.044,20.204,20.196
		C66.006,380.38,56.962,389.431,45.802,389.431z M54.948,334.002c-11.151,0-20.204-9.044-20.204-20.204
		c0-11.151,9.052-20.196,20.204-20.196c11.151,0,20.194,9.044,20.194,20.196C75.143,324.958,66.1,334.002,54.948,334.002z
		 M95.346,369.228c-11.159,0-20.204-9.044-20.204-20.196c0-11.151,9.044-20.202,20.204-20.202c11.151,0,20.196,9.051,20.196,20.202
		C115.542,360.184,106.498,369.228,95.346,369.228z"/>
</g>
<g>
</g>
<g>
</g>
<g>
</g>
<g>
</g>
<g>
</g>
<g>
</g>
<g>
</g>
<g>
</g>
<g>
</g>
<g>
</g>
<g>
</g>
<g>
</g>
<g>
</g>
<g>
</g>
<g>
</g>
</svg>
