<svg xmlns="http://www.w3.org/2000/svg" viewBox="0 0 440.002 440.002" id="fighting-icon">
  <path d="m177.409 321.722-.104.096 4.118 23.45 23.446 4.11c.035-.029.064-.063.099-.103l-4.476-23.077-23.083-4.476z"/>
  <path d="M385.05 141.638c-91.001-90.996-143.231-44.24-151.66-12.499-4.029 15.169-3.643 21.474-3.643 21.474-13.679-6.735-48.593-16.202-78.575 93.825l-64.485 79.39c14.452 24.943 31.029 46.754 50.223 65.952 19.196 19.189 41.013 35.77 65.949 50.222l79.388-64.483c25.762-11.971 67.64-16.711 94.414-43.492 54.89-54.895 90.758-108.022 8.389-190.389zM256.426 336.993c-5.412 5.409-14.182 5.409-19.592 0a13.693 13.693 0 0 1-2.921-4.323l-16.925-3.28 3.277 16.923a13.957 13.957 0 0 1 4.323 2.929c5.412 5.409 5.412 14.18 0 19.592-5.411 5.411-14.18 5.411-19.591 0a13.769 13.769 0 0 1-2.817-4.103l-17.89-3.133 3.138 17.888a13.608 13.608 0 0 1 4.101 2.817c5.41 5.409 5.41 14.181-.001 19.592-5.411 5.411-14.181 5.409-19.591 0-5.411-5.411-5.411-14.183 0-19.592.045-.05.097-.084.143-.132l-4.116-23.445-23.448-4.12c-.043.049-.083.098-.128.146-5.412 5.411-14.181 5.411-19.593-.002-5.41-5.409-5.411-14.181 0-19.59 5.412-5.411 14.181-5.411 19.593 0a13.676 13.676 0 0 1 2.816 4.098l17.895 3.142-3.144-17.891a13.801 13.801 0 0 1-4.098-2.818c-5.409-5.41-5.412-14.181 0-19.592 5.411-5.41 14.181-5.41 19.591 0a13.681 13.681 0 0 1 2.924 4.326l16.926 3.275-3.282-16.921a13.887 13.887 0 0 1-4.324-2.929c-5.409-5.412-5.408-14.182 0-19.592 5.41-5.412 14.181-5.41 19.591 0 5.4 5.401 5.409 14.144.034 19.558l4.473 23.078 23.081 4.477c5.414-5.38 14.158-5.36 19.555.03 5.409 5.41 5.41 14.18 0 19.592zm-141.577-70.062-5.869-7.562-22.614 6.435c-.013.05-.033.09-.046.14l14.067 18.791 14.462-17.804z"/>
  <path d="M62.978 292.715a13.72 13.72 0 0 1 4.368 2.387l17.376-5.287-10.885-14.54a13.728 13.728 0 0 1-4.929-.662c-7.271-2.383-11.234-10.205-8.852-17.478 2.383-7.273 10.207-11.237 17.479-8.852a13.843 13.843 0 0 1 4.561 2.536l16.579-4.723-10.571-13.613a13.738 13.738 0 0 1-5.177-.653c-7.271-2.382-11.233-10.206-8.851-17.479 2.383-7.271 10.207-11.231 17.478-8.852 7.25 2.372 11.211 10.169 8.862 17.427l14.42 18.576 22.61-6.443a13.805 13.805 0 0 1 3.369-5.432c12.748-41.831 26.184-64.664 26.184-64.664s-13.867-37.052-56.108-20.553c50.016-23.697 13.685-61.604 13.685-61.604s43.011 32.745 84.565 50.609a40.893 40.893 0 0 1 8.884-.39 175.957 175.957 0 0 1 1.82-7.485c5.794-21.813 25.602-45.086 56.508-50.058-10.275-23.054-34.829-47.343-86.113-64.145-110.695-36.268-141.886 19.739-166.06 93.5-11.788 35.991 2.898 75.493 3.864 103.884L6.385 308.675c24.16 15.718 48.8 27.687 74.597 36.139.871.289 1.746.557 2.62.835a369.564 369.564 0 0 1-9.041-14.8l-4.843-8.358L82.47 306.79l-10.591 3.22c-.021.058-.029.122-.05.182-2.383 7.273-10.207 11.234-17.48 8.85-7.27-2.382-11.233-10.204-8.85-17.476 2.381-7.274 10.208-11.238 17.479-8.851z"/>
</svg>
