<svg xmlns="http://www.w3.org/2000/svg" xmlns:xlink="http://www.w3.org/1999/xlink" width="15px" height="15px" viewBox="0 0 15 15" version="1.1">    <!-- Generator: Sketch 49 (51002) - http://www.bohemiancoding.com/sketch -->    <title>Boxing-icon</title>    <desc>Created with Sketch.</desc>    <defs/>    <g id="Boxing-icon" stroke="none" stroke-width="1" fill="none" fill-rule="evenodd">        <rect id="Bound" x="0" y="0" width="15" height="15"/>        <path d="M11.2987001,0 L6.27184761,0 C5.12818761,0 4.20083939,0.927765006 4.20083939,2.07142501 L4.20083939,3.33428574 L4.20584081,3.33428574 L4.20584081,9.16928577 L3.37226938,9.16928577 L3.37226938,4.16744038 L3.35893224,4.16744038 C2.44283723,4.16744038 1.70012508,4.91015253 1.70012508,5.82624754 L1.70012508,10.3654608 C1.70012508,11.0860833 2.28404187,11.6695833 3.00466438,11.6695833 L4.20083939,11.6695833 L12.0655859,11.6695833 C12.7857916,11.6695833 13.3701252,11.0860833 13.3701252,10.3654608 L13.3701252,2.07142501 C13.3701252,0.927765006 12.4423602,0 11.2987001,0 Z M4.20083939,12.5031547 L11.7029823,12.5031547 L11.7029823,14.1207001 C11.7029823,14.6087562 11.3074526,15.0042858 10.8193966,15.0042858 L5.08442511,15.0042858 C4.59636903,15.0042858 4.20083939,14.6087562 4.20083939,14.1207001 L4.20083939,12.5031547 Z" id="Fill-1" fill="#FFFFFF"/>    </g></svg>