<svg id="Layer_1" data-name="Layer 1" xmlns="http://www.w3.org/2000/svg" xmlns:xlink="http://www.w3.org/1999/xlink" viewBox="0 0 354.18 325.41"><defs><style>.cls-1{fill:url(#New_Gradient_Swatch_15);}.cls-2{fill:url(#New_Gradient_Swatch_15-2);}.cls-3{fill:url(#New_Gradient_Swatch_15-3);}</style><linearGradient id="New_Gradient_Swatch_15" x1="38.92" y1="170.89" x2="169.49" y2="170.89" gradientUnits="userSpaceOnUse"><stop offset="0" stop-color="#950c37"/><stop offset="0.43" stop-color="#ff265a"/><stop offset="1" stop-color="#ff4d7c"/></linearGradient><linearGradient id="New_Gradient_Swatch_15-2" x1="88.82" y1="229.82" x2="133.54" y2="229.82" xlink:href="#New_Gradient_Swatch_15"/><linearGradient id="New_Gradient_Swatch_15-3" x1="177.09" y1="170.89" x2="307.65" y2="170.89" xlink:href="#New_Gradient_Swatch_15"/></defs><path class="cls-1" d="M70.16,250.65h82V211.6c9.11-10,17.3-27.3,17.3-68V119.27c0-.82,0-1.6-.07-2.34-.77-16.63-9.73-25.79-25.24-25.79H86.59c-13.51,0-22,7-24.54,19.71a20.54,20.54,0,0,0-12.56,4.36c-7,5.67-10.57,16.15-10.57,31.15,0,39.73,20.7,59,31.24,66.25Zm75.94-34.23v28.13H76.26V215.09H146.1ZM45,146.36c0-12.82,2.84-21.92,8.22-26.34a13.65,13.65,0,0,1,8.11-3.08c-.05.76-.07,1.53-.07,2.33v34.51h6.1V119.27c0-.7,0-1.37.06-2.06.61-13.25,7-20,19.15-20h57.59c12.1,0,18.54,6.72,19.15,20,0,.65.06,1.32.06,2v24.34c0,40.94-8.33,56.56-17.14,65.38H75.83C67.73,203.94,45,186.23,45,146.36Z"/><path class="cls-2" d="M133.54,220.54H88.82v18.55h44.72Zm-5.41,13.15H94.22V226h33.91Z"/><path class="cls-3" d="M297.09,115.21a20.25,20.25,0,0,0-12.57-4.36c0-.24-.11-.45-.16-.69l-.06-.28c-2.31-10.24-8.67-16.52-18.5-18.24l-.21,0c-.75-.13-1.53-.22-2.32-.29l-.49,0q-1.36-.12-2.79-.12H202.4c-13.13,0-21.55,6.59-24.29,18.68,0,.13-.07.27-.1.4-.14.65-.25,1.32-.36,2-.07.41-.13.8-.19,1.22s-.09.86-.13,1.29c-.06.65-.12,1.31-.16,2,0,.07,0,.14,0,.2,0,.77-.07,1.55-.07,2.37v24.34c0,40.69,8.19,58,17.29,68v39.05h82v-38c10.54-7.25,31.24-26.52,31.24-66.25C307.65,131.36,304.1,120.88,297.09,115.21ZM186.38,105.08c.31-.52.64-1,1-1.47a15.49,15.49,0,0,1,1.12-1.31l.11-.11c.36-.37.74-.72,1.13-1l.19-.15a14.66,14.66,0,0,1,1.2-.87l.3-.18c.39-.24.79-.48,1.22-.69l.43-.19a13.33,13.33,0,0,1,1.23-.52c.2-.08.41-.13.61-.2.39-.13.78-.26,1.19-.36s.56-.12.84-.18.73-.17,1.12-.23.79-.1,1.19-.14l.9-.11c.73,0,1.48-.08,2.26-.08H260c.77,0,1.52,0,2.25.08l.92.11c.39,0,.8.08,1.18.14s.75.15,1.13.23l.82.17c.42.11.82.25,1.23.38l.57.18c.44.17.86.35,1.27.54l.39.18c.44.22.86.46,1.28.72l.23.14a12.7,12.7,0,0,1,1.26.92l.12.09a14.45,14.45,0,0,1,1.22,1.13c3.55,3.69,5.34,9.35,5.34,17,0,14.74,0,30.83-15.75,39.41-.32.17-.66.33-1,.49-.9.46-1.85.89-2.86,1.3s-1.84.72-2.82,1c-6.48,2.13-14.82,3.36-25.59,3.36-48,0-48-24.23-48-45.6C183.19,113.34,184.27,108.62,186.38,105.08Zm-3,47.37C189.9,163.07,203.4,171,231.19,171c10.31,0,18.64-1.09,25.39-3,.07,11.71,2.44,26.82,11.42,41H200.33C192.18,200.84,184.45,186.86,183.33,152.45Zm73.3,85.93a6.62,6.62,0,0,1-6.51,6.51h-50V214.74h50a6.26,6.26,0,0,1,2,.35,6.52,6.52,0,0,1,4.52,6.17Zm13.69-22.18v28.35H260.27a11.84,11.84,0,0,0,1.77-6.17V221.26a11.84,11.84,0,0,0-1.05-4.84,12.11,12.11,0,0,0-.72-1.33h10.05Zm14.45-19.5a62,62,0,0,1-11.45,10.57c-.41-.62-.81-1.23-1.19-1.85-8.33-13.62-10.18-28.32-10-39.32.87-.36,1.71-.73,2.52-1.12,20.66-9.82,20.68-29.89,20.68-45.71,0-.81,0-1.6-.07-2.32a13.56,13.56,0,0,1,8.11,3.07c5.37,4.42,8.22,13.52,8.22,26.34C301.56,166.55,295.91,183.49,284.77,196.7Z"/></svg>