<svg xmlns="http://www.w3.org/2000/svg" width="64" height="64"><g color="#000" font-family="sans-serif" font-weight="400"><path fill="#2b4255" style="line-height:normal;text-indent:0;text-align:start;text-decoration-line:none;text-decoration-style:solid;text-decoration-color:#000;text-transform:none;block-progression:tb;white-space:normal;isolation:auto;mix-blend-mode:normal;solid-color:#000;solid-opacity:1" d="M15.486 1032.344c-.931 0-1.626.738-1.757 1.638h-.098v2.354h14.145a.5.5 0 1 0 0-1H14.63v-.354h.008l-.006-.505c-.001-.071-.002-.061-.002-.018v-.237c0-.5.377-.879.855-.879h12.29a.5.5 0 1 0 0-1h-12.29zm3.645-17.987c-.822 0-1.5.678-1.5 1.5 0 .823.678 1.5 1.5 1.5h5c.822 0 1.5-.677 1.5-1.5 0-.822-.678-1.5-1.5-1.5h-5zm0 1h5c.286 0 .5.215.5.5 0 .286-.214.5-.5.5h-5a.488.488 0 0 1-.5-.5c0-.285.214-.5.5-.5z" overflow="visible" transform="translate(0 -988.362)"/><path fill="#2b4255" style="line-height:normal;text-indent:0;text-align:start;text-decoration-line:none;text-decoration-style:solid;text-decoration-color:#000;text-transform:none;block-progression:tb;white-space:normal;isolation:auto;mix-blend-mode:normal;solid-color:#000;solid-opacity:1" d="M17.63 1029.342c-1.098 0-2 .9-2 2s.902 2 2 2h8c.198 0 .39-.026.575-.082l-.287-.96a1.01 1.01 0 0 1-.287.042h-8c-.563 0-1-.438-1-1 0-.563.437-1 1-1h8c.083 0 .162.01.238.029l.238-.97a2.024 2.024 0 0 0-.476-.06h-8z" overflow="visible" transform="translate(0 -988.362)"/><path fill="#2b4255" style="line-height:normal;text-indent:0;text-align:start;text-decoration-line:none;text-decoration-style:solid;text-decoration-color:#000;text-transform:none;block-progression:tb;white-space:normal;isolation:auto;mix-blend-mode:normal;solid-color:#000;solid-opacity:1" d="M19.523 1016.357a.5.5 0 0 0-.5.506c.019 1.558.043 2.157-.043 3.559a.5.5 0 1 0 .999.06c.074-1.23.054-1.978.039-3.125h3.263c-.02 4.44.382 8.275 1.291 11.926h-5.88c.44-1.762.802-3.544 1.015-5.436a.5.5 0 1 0-.994-.111 40.315 40.315 0 0 1-1.104 5.918.5.5 0 0 0 .483.629h7.078a.5.5 0 0 0 .482-.63c-1.033-3.878-1.45-7.932-1.392-12.79a.5.5 0 0 0-.5-.506h-4.237zm-.185 5.409a.5.5 0 0 0-.48.468 1.466 1.466 0 0 0-.004.121c0 .01 0-.027-.002.01a.5.5 0 1 0 .996.084 1.63 1.63 0 0 0 .006-.125c0-.013-.003.024 0-.01a.5.5 0 0 0-.516-.546zm2.293-12.428c-1.651 0-3 1.349-3 3 0 1.65 1.349 3 3 3 1.65 0 3-1.35 3-3 0-1.651-1.35-3-3-3zm0 1c1.11 0 2 .89 2 2 0 1.11-.89 2-2 2-1.11 0-2-.89-2-2 0-1.11.89-2 2-2zm13.894 22.006a.5.5 0 1 0 0 1h12.291c.479 0 .854.378.854.879v.236c0-.061-.001-.046-.002.016l-.008.508h.01v.353H35.526a.5.5 0 1 0 0 1H49.67V1033.983h-.098c-.132-.9-.824-1.639-1.756-1.639h-12.29zm3.645-17.987c-.822 0-1.5.678-1.5 1.5 0 .823.678 1.5 1.5 1.5h5c.822 0 1.5-.677 1.5-1.5 0-.822-.678-1.5-1.5-1.5h-5zm0 1h5c.286 0 .5.215.5.5 0 .286-.214.5-.5.5h-5a.488.488 0 0 1-.5-.5c0-.285.214-.5.5-.5z" overflow="visible" transform="translate(0 -988.362)"/><path fill="#2b4255" style="line-height:normal;text-indent:0;text-align:start;text-decoration-line:none;text-decoration-style:solid;text-decoration-color:#000;text-transform:none;block-progression:tb;white-space:normal;isolation:auto;mix-blend-mode:normal;solid-color:#000;solid-opacity:1" d="M37.67 1029.344v1h8c.563 0 1 .437 1 1 0 .562-.437 1-1 1h-8v1h8c1.1 0 2-.9 2-2s-.9-2-2-2h-8z" overflow="visible" transform="translate(0 -988.362)"/><path fill="#2b4255" style="line-height:normal;text-indent:0;text-align:start;text-decoration-line:none;text-decoration-style:solid;text-decoration-color:#000;text-transform:none;block-progression:tb;white-space:normal;isolation:auto;mix-blend-mode:normal;solid-color:#000;solid-opacity:1" d="M39.541 1016.357a.5.5 0 0 0-.5.506c.057 4.858-.359 8.912-1.393 12.791a.5.5 0 0 0 .483.63h7.078a.5.5 0 0 0 .482-.63 40.315 40.315 0 0 1-1.103-5.918.5.5 0 1 0-.994.112c.213 1.891.576 3.674 1.015 5.435h-5.88c.909-3.65 1.311-7.486 1.29-11.926h3.264c-.015 1.147-.036 1.895.04 3.125a.5.5 0 1 0 .997-.06c-.085-1.401-.061-2-.043-3.558a.5.5 0 0 0-.5-.506h-4.236zm4.406 5.409a.5.5 0 0 0-.5.546c.003.032 0-.01 0 .01 0 .013.002.072.006.125a.5.5 0 1 0 .996-.084c-.003-.033-.002 0-.002-.01s0-.067-.004-.12a.5.5 0 0 0-.496-.47zm-2.277-12.428c-1.651 0-3 1.349-3 3 0 1.65 1.349 3 3 3 1.65 0 3-1.35 3-3 0-1.651-1.35-3-3-3zm0 1c1.11 0 2 .89 2 2 0 1.11-.89 2-2 2-1.11 0-2-.89-2-2 0-1.11.89-2 2-2zm-12.654 3.115a.5.5 0 0 0-.498.502 80.152 80.152 0 0 1-.153 4.326.5.5 0 1 0 .998.063c.09-1.416.14-2.87.155-4.379a.5.5 0 0 0-.502-.512zm5.974.01a.5.5 0 0 0-.486.512c.062 5.916.707 11.046 2.045 15.978a.5.5 0 1 0 .965-.261c-1.314-4.842-1.95-9.877-2.01-15.727a.5.5 0 0 0-.514-.502zm-6.244 5.975a.5.5 0 0 0-.49.457c-.03.3-.14 1.315-.174 1.619a.5.5 0 1 0 .992.111c.035-.312.146-1.307.178-1.63a.5.5 0 0 0-.506-.557zm-.424 3.714a.5.5 0 0 0-.511.434 53.133 53.133 0 0 1-1.272 6.106.5.5 0 1 0 .965.261 54.16 54.16 0 0 0 1.297-6.22.5.5 0 0 0-.479-.58zm-3.693 9.205c-1.028 0-1.856.705-2.012 1.64h-.115V1036.35h19v-2.354h-.113c-.156-.934-.984-1.639-2.012-1.639H24.629zm0 1h14.748c.674 0 1.125.431 1.125.88v.236c0-.068 0-.051-.002.016l-.008.508h.01v.353h-17v-.353h.002v-.5c0-.091-.002-.08-.002-.023v-.237c0-.448.453-.879 1.127-.879z" overflow="visible" transform="translate(0 -988.362)"/><path fill="#2b4255" style="line-height:normal;text-indent:0;text-align:start;text-decoration-line:none;text-decoration-style:solid;text-decoration-color:#000;text-transform:none;block-progression:tb;white-space:normal;isolation:auto;mix-blend-mode:normal;solid-color:#000;solid-opacity:1" d="M28.002 1011.357c-.822 0-1.5.678-1.5 1.5 0 .823.678 1.5 1.5 1.5h8c.822 0 1.5-.677 1.5-1.5 0-.822-.678-1.5-1.5-1.5h-8zm0 1h8c.286 0 .5.215.5.5 0 .286-.214.5-.5.5h-8a.488.488 0 0 1-.5-.5c0-.285.214-.5.5-.5zm4.082-8.507a.5.5 0 0 0-.492.507v3.014a.5.5 0 1 0 1 0v-3.014a.5.5 0 0 0-.508-.507z" overflow="visible" transform="translate(0 -988.362)"/><path fill="#2b4255" style="line-height:normal;text-indent:0;text-align:start;text-decoration-line:none;text-decoration-style:solid;text-decoration-color:#000;text-transform:none;block-progression:tb;white-space:normal;isolation:auto;mix-blend-mode:normal;solid-color:#000;solid-opacity:1" d="M30.543 1005.38a.5.5 0 1 0 .049 1h3a.5.5 0 1 0 0-1h-3a.5.5 0 0 0-.049 0zm-3.922 23.977c-1.1 0-2 .901-2 2 0 1.1.9 2 2 2h10.832c1.1 0 2-.9 2-2 0-1.099-.9-2-2-2H35.23a.5.5 0 1 0 0 1h2.224c.563 0 1 .438 1 1 0 .563-.437 1-1 1H26.621c-.563 0-1-.437-1-1 0-.562.437-1 1-1h4.928a.5.5 0 1 0 0-1H26.62zm6.44 0a.5.5 0 1 0 .05 1h.502a.5.5 0 1 0 0-1h-.502a.5.5 0 0 0-.05 0zm-.954-22.316a.5.5 0 0 0-.185.045l-4 1.83a.5.5 0 0 0-.248.66l1.05 2.354a.5.5 0 1 0 .915-.408l-.85-1.903 3.334-1.525 2.762 1.355.324.16-.197.446-.678 1.531a.5.5 0 1 0 .914.404l.678-1.53.31-.704.08-.182a.5.5 0 0 0-.236-.652l-.754-.37-2.976-1.46a.5.5 0 0 0-.243-.051zm-19.66 28.32a.5.5 0 1 0 0 1h39.817a.5.5 0 1 0 0-1H12.447zm-7.94 0a.5.5 0 1 0 0 1h5.704a.5.5 0 1 0 0-1H4.508z" overflow="visible" transform="translate(0 -988.362)"/><path fill="#f05542" fill-rule="evenodd" style="line-height:normal;text-indent:0;text-align:start;text-decoration-line:none;text-decoration-style:solid;text-decoration-color:#000;text-transform:none;block-progression:tb;white-space:normal;isolation:auto;mix-blend-mode:normal;solid-color:#000;solid-opacity:1" d="M21.508 1037.361a.5.5 0 1 0 0 1h19.734a.5.5 0 1 0 0-1H21.508zm2.99 2a.5.5 0 1 0 0 1h5.262a.5.5 0 1 0 0-1h-5.262zm8.01 0a.5.5 0 1 0 0 1h7.06a.5.5 0 1 0 0-1h-7.06zm-5 2a.5.5 0 1 0 0 1h5.115a.5.5 0 1 0 0-1h-5.115z" overflow="visible" transform="translate(0 -988.362)"/><path fill="#f05542" fill-opacity=".988" fill-rule="evenodd" d="M12.964 1015.455a.427.427 0 0 0-.422.436c0 .298-.127.432-.422.432-.58-.01-.58.867 0 .858.284 0 .422.08.422.414-.008.58.866.58.858 0 0-.304.142-.414.424-.414.58.01.58-.866 0-.858-.383 0-.424-.218-.424-.432a.43.43 0 0 0-.436-.436z" overflow="visible" style="line-height:normal;text-indent:0;text-align:start;text-decoration-line:none;text-transform:none;block-progression:tb" transform="translate(0 -988.362)"/><path fill="#2b4255" fill-rule="evenodd" d="M41.167 999.158a.236.236 0 0 0-.232.24c0 .162-.07.237-.232.237-.319 0-.319.475 0 .47.156 0 .232.043.232.228-.005.318.475.318.47 0 0-.167.079-.227.233-.227.319 0 .319-.476 0-.471-.21 0-.232-.12-.232-.238a.236.236 0 0 0-.24-.239z" overflow="visible" style="line-height:normal;text-indent:0;text-align:start;text-decoration-line:none;text-transform:none;block-progression:tb" transform="translate(0 -988.362)"/><path fill="#f05542" fill-opacity=".988" fill-rule="evenodd" d="M38.965 1006.4a.31.31 0 0 0-.308.316c0 .217-.092.315-.307.315-.423-.01-.423.632 0 .626.207 0 .307.057.307.301-.006.423.631.423.625 0 0-.222.104-.301.31-.301.422.01.422-.632 0-.626-.28 0-.31-.159-.31-.314a.313.313 0 0 0-.317-.318zm12.916 4.782c-.13 0-.234.109-.232.24 0 .162-.07.236-.232.236-.318 0-.318.476 0 .471.156 0 .232.043.232.228-.005.318.475.318.47 0 0-.167.08-.228.234-.228.318 0 .318-.475 0-.47-.21 0-.233-.12-.233-.238a.236.236 0 0 0-.24-.24z" overflow="visible" style="line-height:normal;text-indent:0;text-align:start;text-decoration-line:none;text-transform:none;block-progression:tb" transform="translate(0 -988.362)"/><path fill="#f05542" fill-rule="evenodd" d="M47.84 1004.774a.31.31 0 0 0-.308.317c0 .217-.092.315-.307.315-.423-.01-.423.632 0 .626.207 0 .307.057.307.301-.006.423.631.423.625 0 0-.222.104-.301.31-.301.422.01.422-.632 0-.626-.28 0-.31-.159-.31-.314a.313.313 0 0 0-.317-.318z" overflow="visible" style="line-height:normal;text-indent:0;text-align:start;text-decoration-line:none;text-transform:none;block-progression:tb" transform="translate(0 -988.362)"/><path fill="#2b4255" fill-rule="evenodd" d="M27.03 997.606a.242.242 0 0 0-.239.246c0 .167-.071.243-.237.243-.327-.005-.327.488 0 .483.16 0 .237.044.237.233-.004.327.488.327.484 0 0-.171.08-.233.238-.233.327.005.327-.488 0-.483-.215 0-.238-.123-.238-.244a.242.242 0 0 0-.246-.245zm-10.657 3.109c-.167 0-.3.14-.298.307 0 .21-.09.305-.298.305-.409-.01-.409.612 0 .606.201 0 .298.056.298.292-.005.409.612.409.606 0 0-.215.1-.292.3-.292.408.01.408-.612 0-.606-.27 0-.3-.154-.3-.305a.303.303 0 0 0-.308-.307z" overflow="visible" style="line-height:normal;text-indent:0;text-align:start;text-decoration-line:none;text-transform:none;block-progression:tb" transform="translate(0 -988.362)"/></g></svg>