<svg xmlns="http://www.w3.org/2000/svg" data-name="Layer 1" viewBox="0 0 512 512"><rect width="60" height="60" x="436" y="436" fill="#e1e1e2"/><rect width="15" height="60" x="481" y="436" fill="#c8c6cb"/><rect width="60" height="60" x="16" y="436" fill="#19181c"/><rect width="60" height="60" x="76" y="436" fill="#e1e1e2"/><rect width="60" height="60" x="136" y="436" fill="#19181c"/><rect width="60" height="60" x="196" y="436" fill="#e1e1e2"/><rect width="60" height="60" x="256" y="436" fill="#19181c"/><rect width="60" height="60" x="316" y="436" fill="#e1e1e2"/><rect width="60" height="60" x="376" y="436" fill="#19181c"/><rect width="60" height="60" x="436" y="376" fill="#171719"/><rect width="15" height="60" x="481" y="376"/><rect width="60" height="60" x="436" y="316" fill="#e1e1e2"/><rect width="15" height="60" x="481" y="316" fill="#c8c6cb"/><rect width="60" height="60" x="436" y="256" fill="#171719"/><rect width="15" height="60" x="481" y="256"/><rect width="60" height="60" x="436" y="196" fill="#e1e1e2"/><rect width="15" height="60" x="481" y="196" fill="#c8c6cb"/><rect width="60" height="60" x="436" y="136" fill="#171719"/><rect width="15" height="60" x="481" y="136"/><rect width="60" height="60" x="436" y="76" fill="#e1e1e2"/><rect width="15" height="60" x="481" y="76" fill="#c8c6cb"/><rect width="60" height="60" x="436" y="16" fill="#171719"/><rect width="15" height="60" x="481" y="16"/><rect width="60" height="60" x="76" y="376" fill="#19181c"/><rect width="60" height="60" x="196" y="376" fill="#19181c"/><rect width="60" height="60" x="316" y="376" fill="#19181c"/><rect width="60" height="60" x="16" y="316" fill="#19181c"/><rect width="60" height="60" x="136" y="316" fill="#19181c"/><rect width="60" height="60" x="256" y="316" fill="#19181c"/><rect width="60" height="60" x="376" y="316" fill="#19181c"/><rect width="60" height="60" x="76" y="256" fill="#19181c"/><rect width="60" height="60" x="196" y="256" fill="#19181c"/><rect width="60" height="60" x="316" y="256" fill="#19181c"/><rect width="60" height="60" x="16" y="196" fill="#19181c"/><rect width="60" height="60" x="136" y="196" fill="#19181c"/><rect width="60" height="60" x="256" y="196" fill="#19181c"/><rect width="60" height="60" x="376" y="196" fill="#19181c"/><rect width="60" height="60" x="76" y="136" fill="#19181c"/><rect width="60" height="60" x="196" y="136" fill="#19181c"/><rect width="60" height="60" x="316" y="136" fill="#19181c"/><rect width="60" height="60" x="16" y="76" fill="#19181c"/><rect width="60" height="60" x="136" y="76" fill="#19181c"/><rect width="60" height="60" x="256" y="76" fill="#19181c"/><rect width="60" height="60" x="376" y="76" fill="#19181c"/><rect width="60" height="60" x="76" y="16" fill="#19181c"/><rect width="60" height="60" x="196" y="16" fill="#19181c"/><rect width="60" height="60" x="316" y="16" fill="#19181c"/><rect width="60" height="60" x="16" y="376" fill="#e1e1e2"/><rect width="60" height="60" x="136" y="376" fill="#e1e1e2"/><rect width="60" height="60" x="256" y="376" fill="#e1e1e2"/><rect width="60" height="60" x="376" y="376" fill="#e1e1e2"/><rect width="60" height="60" x="76" y="316" fill="#e1e1e2"/><rect width="60" height="60" x="196" y="316" fill="#e1e1e2"/><rect width="60" height="60" x="316" y="316" fill="#e1e1e2"/><rect width="60" height="60" x="16" y="256" fill="#e1e1e2"/><rect width="60" height="60" x="136" y="256" fill="#e1e1e2"/><rect width="60" height="60" x="256" y="256" fill="#e1e1e2"/><rect width="60" height="60" x="376" y="256" fill="#e1e1e2"/><rect width="60" height="60" x="76" y="196" fill="#e1e1e2"/><rect width="60" height="60" x="196" y="196" fill="#e1e1e2"/><rect width="60" height="60" x="316" y="196" fill="#e1e1e2"/><rect width="60" height="60" x="16" y="136" fill="#e1e1e2"/><rect width="60" height="60" x="136" y="136" fill="#e1e1e2"/><rect width="60" height="60" x="256" y="136" fill="#e1e1e2"/><rect width="60" height="60" x="376" y="136" fill="#e1e1e2"/><rect width="60" height="60" x="76" y="76" fill="#e1e1e2"/><rect width="60" height="60" x="196" y="76" fill="#e1e1e2"/><rect width="60" height="60" x="316" y="76" fill="#e1e1e2"/><rect width="60" height="60" x="16" y="16" fill="#e1e1e2"/><rect width="60" height="60" x="136" y="16" fill="#e1e1e2"/><rect width="60" height="60" x="256" y="16" fill="#e1e1e2"/><rect width="60" height="60" x="376" y="16" fill="#e1e1e2"/></svg>