<svg id="Layer_1" data-name="Layer 1" xmlns="http://www.w3.org/2000/svg" xmlns:xlink="http://www.w3.org/1999/xlink" viewBox="0 0 354.18 325.41"><defs><style>.cls-1{fill:url(#linear-gradient);}</style><linearGradient id="linear-gradient" x1="73.86" y1="158.26" x2="286.87" y2="158.26" gradientUnits="userSpaceOnUse"><stop offset="0" stop-color="#2f2063"/><stop offset="0.57" stop-color="#5e3282"/><stop offset="1" stop-color="#6251a2"/></linearGradient></defs><g id="jhctAP"><path class="cls-1" d="M143.34,51.75h67c4.14,1.53,5.88,4.52,5.53,8.88-.13,1.7,0,3.42,0,5.06,5.77,1.62,7.12,3.45,7.11,9.27,0,8,0,15.94,0,23.91,0,.59.07,1.19.12,2.13,3.57-2.66,6.83-1.79,10.06.11.6.35,1.27.57,1.85.94a1.71,1.71,0,0,0,2.51-.38c1.84-2,3.78-3.86,5.68-5.78Q255,83.92,266.87,72c2.72-2.74,6.59-3.49,9.19-1.16,4,3.62,8.29,7.13,10.81,12.14v2.92a32.07,32.07,0,0,1-3.25,4.72c-8.66,8.79-17.42,17.47-26.14,26.19-3.53,3.52-3.53,3.53-1.34,7.93,2.09,4.19,1.66,6.83-1.61,10.09q-15,15-30,30a4.89,4.89,0,0,0-1.61,3.81c0,29.11,0,58.22.08,87.33,0,4.34-1.42,7.36-5.59,8.85H207c-4.24-1.76-5.44-5-5.42-9.45.13-21.6.06-43.21.06-64.82v-2.85c-4.57,4.59-8.64,8.74-12.8,12.79a4.33,4.33,0,0,0-1.41,3.44c0,17.25-.06,34.49.09,51.73,0,4.39-1.31,7.51-5.48,9.16h-10.4c-4.09-1.59-5.58-4.58-5.5-8.93.19-10,.06-20,.06-30v-2.34a3.64,3.64,0,0,0-.81.43c-4.22,4.2-8.47,8.39-12.62,12.66a3.43,3.43,0,0,0-.73,2.22c-.06,5.54-.18,11.09,0,16.63.16,4.35-1.27,7.53-5.38,9.28h-10.4c-2.86-1-4.91-2.82-5.53-5.55L123,264.76h-2.5a47.56,47.56,0,0,1-5.62-4.06c-6.83-6.59-13.54-13.31-20.28-20-3.87-3.83-3.84-7.7,0-11.55Q112,211.83,129.3,194.47a4.84,4.84,0,0,0,1.32-3c.08-15.67,0-31.33,0-47a16.5,16.5,0,0,0-.2-1.78L129.21,144c-16.16,17.27-43,12.77-52.53-8.91-1.29-2.93-1.9-6.17-2.82-9.26V120c.28-1.27.55-2.54.84-3.81,4.64-20.47,29.11-33.41,49-19.49,2.4,1.69,4.49,3.83,7,6v-3c0-8.67,0-17.33,0-26,0-4.34,1.89-6.63,6.11-7.68.31-.08.62-.2,1-.32,0-1.76.1-3.43,0-5.08C137.45,56.26,139.15,53.24,143.34,51.75ZM121.87,258.12a26.2,26.2,0,0,1,1.69-2.21q27.54-27.74,55.11-55.44,35.06-35.22,70.14-70.39a2.29,2.29,0,0,0,.55-3c-1.74-4.2-4.61-7.48-7.85-10.56-3.7-3.53-7-7.49-12-9.35-1.26-.46-2-.59-3.05.46q-63,62.94-126.12,125.83c-.51.51-1,1.06-1.06,1.14Zm30.2-86.25c4.43-4.46,8.44-8.56,12.54-12.56a4.84,4.84,0,0,0,1.62-3.78q-.07-38.25,0-76.49V76.8H152.07Zm-14.21,13.51.53.36c1.75-1.84,3.59-3.61,5.21-5.56a5.17,5.17,0,0,0,1.24-3q.1-50.82,0-101.66V73.19h-7Zm49.66-48.78c4.55-4.6,8.73-8.72,12.77-13a5.2,5.2,0,0,0,1.29-3.23c.08-13.78,0-27.57,0-41.36V76.8H187.52Zm28.14,121V173.35c-2.24,2.34-4.11,4.18-5.8,6.17a4.48,4.48,0,0,0-1.09,2.69q-.08,36.9,0,73.8a14.94,14.94,0,0,0,.16,1.6ZM173.47,73.14v77.68c2.14-2.28,3.79-4.15,5.59-5.88a4.1,4.1,0,0,0,1.33-3.26q-.06-33.17,0-66.32V73.14Zm99.24,4.48-30.26,29.14,7.09,7.22L279.6,84.06Zm-92.52,180V209c-2.1,2.15-4,3.91-5.62,5.85a5.21,5.21,0,0,0-1.24,3c-.08,12.6-.06,25.2-.05,37.81,0,.6.05,1.2.09,1.9Zm.26-192.51c2.17,1.48,3.86,2.69,5.62,3.81a3.66,3.66,0,0,0,1.84.63c4.43.06,8.87,0,13.3,0a3.35,3.35,0,0,0,1.7-.48c1.84-1.21,3.62-2.52,5.7-4V59H180.45ZM145,65.1c2.11,1.44,3.81,2.65,5.56,3.77a3.61,3.61,0,0,0,1.83.64c4.44,0,8.88,0,13.31,0a3.2,3.2,0,0,0,1.71-.48c1.84-1.21,3.62-2.51,5.69-4V58.94H145Zm63.8,50.2c2.16-2.2,4-3.93,5.66-5.85a5.16,5.16,0,0,0,1.29-3c.09-10.45.06-20.9,0-31.34,0-.66-.09-1.31-.13-1.93h-6.87ZM86.06,137.19l34.27-34.25c-.58-.4-1.18-.85-1.81-1.26-2.67-1.7-2.67-1.69-4.94.58L86.24,129.59c-3.51,3.52-3.52,3.51-.33,7.5A.44.44,0,0,0,86.06,137.19Zm5.3,5.51,4.38,2.7c.66-.63,1.22-1.13,1.75-1.66q13.89-13.87,27.77-27.75c3.49-3.49,3.5-3.48.58-7.45-.07-.1-.23-.12-.2-.1ZM81.05,123.84c8.61-8.56,17.31-17.23,25.91-25.79C93.62,96.19,79.35,110.48,81.05,123.84Zm23.15,23.77c8.34.19,15.17-2.69,20.48-8.88a24.43,24.43,0,0,0,6-17.61ZM138.14,257.5h6.63v-13C141.27,248.54,135.82,250.89,138.14,257.5Z"/></g></svg>