<svg xmlns="http://www.w3.org/2000/svg" width="1000" height="1000" viewBox="0 0 100 100"><path d="M14.504 81.752c-.348.689-.706 1.402-.297 2.325.493 1.108 1.252 1.637 2.705 1.88.36.061.706.091 1.041.091.825 0 1.585-.185 2.337-.562 1.073-.535 1.028-1.075.938-2.151l-.028-.347a30.2 30.2 0 0 1-.059-2.405c.662.328 1.318.64 1.901.894 1.152.5 2.469 1.203 3.741 1.883 1.425.764 2.772 1.484 3.897 1.935 1.943.776 4.93 1.347 6.842 1.347.302 0 .578-.014.817-.043 1.844-.23 5.363-1.191 6.964-2.791l.264-.265c1.383-1.373 2.688-2.67 1.522-4.019-.971-1.125-1.391-1.523-3.023-1.758-.929-.133-1.916-.145-2.56-.134.131-.47.247-.933.333-1.348.118-.562.23-1.312.353-2.126.233-1.555.498-3.312.903-4.526.603-1.802 1.277-5.017 1.379-5.504.506-.104 1.02-.214 1.515-.321.877-.188 1.651-.354 2.101-.429l.056-.009c-.062.188-.131.42-.191.699-.332 1.533.001 5.789.38 7.803.358 1.898.883 5.355 1.096 7.062.092.736.259 1.463.421 2.166.217.946.422 1.84.422 2.645 0 1.545-.113 3.568-.211 4.831-.037.487-.115 1.015-.189 1.519-.173 1.157-.269 1.893-.104 2.387.259.772 1.478.899 2.892 1.047.393.041.775.082 1.102.136.369.062.791.123 1.229.188 1.042.15 2.225.322 2.944.539 1.083.323 3.575.609 5.333.609 1.687 0 2.856-.535 3.988-1.055l.242-.109c.914-.416 1.449-.913 1.639-1.52.15-.482.066-.996-.25-1.524-.535-.894-1.229-.86-1.785-.845-.332.013-.646.025-1.016-.109-.873-.316-1.359-.701-2.242-1.396-.209-.164-.438-.342-.695-.541a8.089 8.089 0 0 0-1.523-.92c-.511-.25-.88-.43-1.357-1.012a22.15 22.15 0 0 0-.441-.527c-.273-.318-.424-.496-.508-.683a.482.482 0 0 0-.051-.2c-.004-.008-.012-.013-.017-.021a3.41 3.41 0 0 1-.035-.583c0-1.055 1.027-6.915 1.566-8.639.414-1.326.761-3.881 1.04-5.933.089-.651.171-1.26.247-1.769.14-.928.325-1.771.506-2.586.228-1.02.438-1.98.521-2.952l.062-.673c.125-1.278.214-2.203-.381-3.592a35.743 35.743 0 0 1-.746-1.932c-.283-.775-.551-1.51-.855-2.119-.283-.568-.603-1.498-.83-2.213l7.289 3.408a3.492 3.492 0 0 0 3.262 2.268c.401 0 .783-.082 1.144-.209L89 64.949c.037.018.725.318 1.445.318.216 0 .418-.025.6-.078 1.014-.291 2.029-1.373 2.652-2.826 1.201-2.801 1.066-3.639.816-4.055-.402-.668-1.142-.932-1.225-.959l-33.52-15.018a2.995 2.995 0 0 0-.848-.138c-.287 0-.514.059-.693.178-.271.18-.938.919-1.479 1.608l-.317-.183c1.36-1.076 1.784-2.104 1.239-3.057-.617-1.081-1.993-1.205-2.976-1.205-.601 0-.803-.15-1.106-.377a3.286 3.286 0 0 0-.707-.429.498.498 0 0 0-.104-.032c-.015-.002-.16-.029-.383-.059-.088-1.11-.195-3.036-.043-3.798.272-1.357-.045-4.328-1.166-5.896-.832-1.165-1.41-1.456-2.079-1.794-.243-.123-.512-.257-.827-.457-.972-.611-2.245-2.161-2.417-2.626.011-.042-.002-.085-.002-.128.47-.322.583-.931.679-1.484.059-.337.125-.718.262-1.096.409-1.122.719-1.854 1.142-2.7.458-.915.56-2.772.569-2.981l-.002-.013c.366.009.733.017 1.103.017 1.906 0 1.484-.423 1.166-1.271-.318-.847-1.166-1.694-1.166-1.694s.212-4.235-.589-5.294c-.8-1.059-2.271-2.012-4.176-2.33-1.906-.317-3.601.212-4.924 1.271-1.323 1.059-1.959 2.965-1.854 3.918.027.248.158.518.356.794-.377.363-.7.872-.751 1.581-.041.573-.133 1.069-.222 1.549-.139.747-.269 1.453-.2 2.336.108 1.402-.16 1.777-.764 2.045-.268.119-.334.105-.861-.387-.298-.277-.669-.623-1.215-.958l-.406-.256c-1.192-.757-2.136-1.354-4.43-.755-2.594.68-3.188 1.865-3.815 3.12-.643 1.285-.613 4.36-.476 6.712.101 1.721.055 6.467-.079 8.191-.057.725-.008 1.64.044 2.608.072 1.365.155 2.913-.041 4.241-.12.821-.294 1.662-.461 2.475-.12.584-.23 1.148-.324 1.693 0 .006-.005.011-.005.018l.001.007c-.145.835-.238 1.613-.194 2.268.072 1.08.448 1.833.723 2.383.097.195.229.462.23.548 0 .136-.118.598-.213.97a17.318 17.318 0 0 0-.365 1.686c-.053.355-.085.701-.056.992.11 1.113.963 3.808 1.855 5.48.907 1.699 3.664 4.131 5.086 4.486.147.037.374.072.641.109-.121.816-.34 2.356-.487 3.827-.133 1.334-.143 3.369-.108 5.212-.564-.271-1.607-.688-2.782-.688-.534 0-1.032.013-1.529.023-.962.023-1.958.047-3.208-.021-1.358-.075-2.338-.15-3.326-.227l-1.219-.092c-.499-.035-.863-.122-1.214-.205-.643-.15-1.248-.296-2.253.016-1.394.429-2.683 1.053-2.683 2.701 0 1.307.418 3.348.957 4.021.362.452.888 1.438.562 2.254a8.77 8.77 0 0 1-.334.714zm14.246-8.178c.081 0 .16.011.24.015-1.837 1.606-2.291 4.099-2.4 5.056a233.132 233.132 0 0 0-3.856-1.806l-.103-.048c.111-.71.518-2.086 1.959-3.191.997.035 1.842.019 2.655-.002.489-.012.979-.024 1.505-.024zm17.959-23.529c-.045-.677-.012-1.661.046-2.521.393.399.875.639 1.444.915.187.091.388.188.606.301.374.193.685.379.955.541.608.364 1.09.652 1.684.652.216 0 .429-.038.654-.116.041-.015.08-.037.121-.055a21.821 21.821 0 0 0-.146 2.345c0 .129.014.279.018.414-.022-.013-.041-.03-.065-.039-.051-.02-1.266-.446-3.208-.662-1.698-.188-1.766-.391-2.016-1.143-.015-.043-.023-.109-.035-.166.014-.043.029-.087.029-.132-.001-.135-.004-.241-.087-.334zm2.158-10.795c-.713.514-1.422 1.335-1.846 2.523a7.795 7.795 0 0 1-.327.755l-.539-.455c.047-.4.058-.803.064-1.176.009-.409.017-.794.07-1.09.09-.495.251-1.475.336-2.516.729.685 1.66 1.475 2.242 1.959zm-9.308-8.505c.553.58 1.064 1.029 1.452 1.344a10.501 10.501 0 0 0-.795-.035c-.62 0-1.078.072-1.403.219-.683.311-1.014 1.301-1.206 2.687-.329-.661-.834-1.448-1.622-2.004a8.417 8.417 0 0 1-1.334-1.149c-.1-.102-.199-.2-.301-.299.001-.967.151-3.524.848-4.529.574-.829 1.636-1.063 2.19-1.131l.121.4c.479 1.602 1.022 3.419 2.05 4.497zm6.134 18.961c-.651-.115-1.686-.243-3.334-.426a25.084 25.084 0 0 1-3.367-.577c-1.245-.292-1.762-.412-4.213.154-1.465.338-2.592.422-3.497.49-1.428.106-2.46.183-3.59 1.102a310.93 310.93 0 0 1-1.805 1.456c.016-.063.032-.133.048-.192.157-.61.245-.969.245-1.218 0-.32-.149-.618-.336-.995-.249-.501-.561-1.124-.619-2.004-.03-.461.021-1.017.112-1.627 1.138.114 4.16.468 6.208 1.205 1.412.507 2.575.38 3.807.244 1.192-.131 2.427-.268 4.046.19 2.443.691 4.672 1.102 5.87 1.323l.421.078c-.005.269-.004.539.004.797zm5.688-11.155c-.08-.002-.158-.005-.236-.005-.51 0-.937.057-1.269.167-.019.006-.039.017-.058.023-.63-.519-2.41-2.006-3.139-2.805-.005-.526-.049-1.018-.152-1.419 1.497-2.193 1.013-4.254.99-4.344a.501.501 0 0 0-.971.246c.017.066.34 1.502-.6 3.151-.795-.686-1.76-.987-1.804-1-.071-.017-.78-.17-1.664-.306a.502.502 0 0 0-.215-.478c-.009-.006-.924-.624-1.979-1.729-.862-.904-1.368-2.598-1.814-4.093-.082-.273-.161-.539-.24-.793-.004-.013-.012-.027-.016-.04l-.004-.01c-.573-1.764-2.53-4.147-2.614-4.25a.5.5 0 1 0-.772.638c.018.021 1.529 1.863 2.221 3.382-.759.125-1.95.482-2.67 1.521-.742 1.071-.946 3.187-1.004 4.349-.3-.184-.665-.38-1.148-.601l-.484-.221c-1.847-.836-2.039-.924-2.845-2.803a.501.501 0 0 0-.921.394c.93 2.168 1.338 2.409 3.352 3.321l.482.22c1.307.599 1.652.952 2.129 1.44.338.344.721.735 1.474 1.267.99.699 1.451 1.907 1.672 2.487.082.216.176.444.346.563l-.052.792c-.037.609-.068 1.143-.119 1.5-.199 1.404-.286 3.124.827 3.975.631.481 1.451.636 2.321.8.471.089.957.181 1.435.329.261.08.481.16.678.23.432.157.773.28 1.163.28.461 0 .897-.175 1.461-.585.361-.263.594-.605.752-.985l.348.294c-.329.717-.564 1.5-.289 2.533.021.08.048.145.071.219a.492.492 0 0 0-.192.345c-.014.133-.063.673-.101 1.343-.085-.017-.169-.032-.278-.052-1.181-.218-3.38-.624-5.779-1.301-1.807-.511-3.198-.357-4.428-.222-1.163.128-2.164.24-3.358-.192-2.135-.768-5.146-1.129-6.376-1.251.069-.357.145-.725.221-1.099.17-.827.346-1.681.472-2.53.21-1.428.124-3.029.049-4.441-.05-.934-.097-1.817-.046-2.476.137-1.753.184-6.579.081-8.328-.182-3.108-.047-5.37.372-6.206.591-1.181 1.018-2.035 3.173-2.599 1.872-.49 2.538-.069 3.638.631l.42.264c.46.284.777.579 1.057.839.515.478 1.046.969 1.951.569 1.276-.567 1.464-1.625 1.354-3.038-.058-.753.056-1.367.187-2.077a14.23 14.23 0 0 0 .237-1.66c.028-.394.208-.688.427-.91a10.523 10.523 0 0 0 2.038 1.429c1.377.741 1.907 1.694 3.283 2.012.862.199 1.941.308 3.089.367l-.001.004c-.025.509-.157 1.966-.465 2.582-.442.884-.765 1.645-1.187 2.805-.169.461-.243.89-.309 1.268-.104.607-.165.816-.312.858-.622.179-1.565-.045-2.463-.583-.613-.369-.613-.369-.832-.823-.119-.246-.285-.591-.577-1.111-.384-.682-.735-1.105-.992-1.415-.395-.476-.392-.481-.258-.783a.5.5 0 1 0-.915-.407c-.39.876-.022 1.317.401 1.83.246.295.551.663.891 1.267.277.493.436.821.547 1.054.323.671.415.765 1.221 1.248.86.516 1.734.788 2.5.788.037 0 .068-.013.104-.014.154.831 1.824 2.686 2.88 3.351.349.219.642.368.91.503.618.312 1.025.519 1.715 1.482.981 1.374 1.203 4.093.998 5.117-.185.894-.07 2.861.01 3.908zM67.4 53.73l.002.015-10.381-4.854c-.229-.1-.681-.369-.853-.65.208-.935.572-2.395.771-2.792.287-.572 1.578-2.053 1.842-2.243.002.002.035-.01.139-.01.196 0 .434.054.507.075l33.499 15.012c.049.02.514.184.729.543.003.003.242.533-.877 3.145-.568 1.325-1.418 2.088-2.008 2.258-.481.137-1.348-.187-1.354-.188l-16.307-7.625a3.476 3.476 0 0 0 1.279-2.683 3.493 3.493 0 0 0-3.494-3.495A3.493 3.493 0 0 0 67.4 53.73zm-9.185 30.225c0 .232.012.421.031.591-.395.263-1.062.785-1.73 1.675-.285.381-.485.727-.662 1.032-.43.735-.605 1.042-1.408 1.099-1.327.098-1.329.096-1.809-.461-.416-.486-.361-3.051.109-5.177.244-1.096.541-3.625.828-6.071.215-1.816.416-3.533.552-4.244.332-1.74.753-6.08.644-8.141-.125-2.359-.381-4.223-.858-6.23-.546-2.289-.834-4.336-.834-5.92 0-1.392.223-2.942.29-3.385.223-.312.429-.655.632-.996.229-.383.446-.746.666-1.029a3.46 3.46 0 0 0 .53-1.001l.533.203c-.27.918-.533 2.109-.571 2.291a.479.479 0 0 0 .014.265c.274.823 1.322 1.299 1.44 1.35l2.511 1.175c.147.504.687 2.285 1.158 3.231.278.56.536 1.267.811 2.017.232.635.479 1.309.767 1.982.494 1.15.428 1.844.307 3.1l-.066.683c-.076.904-.283 1.835-.5 2.818a37.236 37.236 0 0 0-.52 2.654c-.077.514-.16 1.125-.25 1.782-.273 2.015-.614 4.521-1.003 5.767-.527 1.689-1.612 7.704-1.612 8.94zm-7.351 6.285c.077-.527.159-1.079.198-1.588.099-1.281.213-3.336.213-4.908 0-.559-.084-1.129-.198-1.715.246.027.502.043.754.043h.021c-.028.158-.057.304-.084.425-.27 1.22-.832 4.946.109 6.044.584.684.891.859 1.658.859.264 0 .58-.021.982-.049 1.33-.096 1.752-.826 2.2-1.598.163-.281.349-.602.599-.934a6.334 6.334 0 0 1 1.291-1.303c.119.17.267.352.457.573.123.144.265.31.429.511.616.752 1.14 1.008 1.694 1.276.396.194.806.394 1.354.813.254.195.479.373.684.535.935.734 1.498 1.178 2.521 1.549.553.205 1.02.188 1.396.172.506-.021.655-.025.887.357.164.277.216.51.152.711-.097.311-.476.623-1.097.905l-.244.11c-1.082.496-2.104.964-3.571.964-1.65 0-4.056-.271-5.045-.569-.789-.236-2.012-.414-3.089-.57a52.98 52.98 0 0 1-1.209-.184 18.556 18.556 0 0 0-1.161-.145c-.652-.067-1.867-.194-2.067-.409-.075-.245.058-1.148.166-1.875zM49.32 71.686c-.133-.701-.259-1.709-.352-2.771 1.298.373 3.538.862 4.487 1.063a33.835 33.835 0 0 1-.312 2.229c-.143.75-.346 2.481-.562 4.315-.061.512-.121 1.037-.184 1.559-.521-.188-1.457-.491-2.141-.523-.256-1.833-.649-4.345-.936-5.872zm-3.54-8.859c-1.578.339-3.543.761-4.464.825-1.234.094-5.896-.104-8.301-.34a.498.498 0 0 0-.224-.104.469.469 0 0 0-.287.05 6.715 6.715 0 0 1-.773-.122c-1.058-.263-3.626-2.445-4.445-3.984-.804-1.506-1.645-4.111-1.744-5.108a2.927 2.927 0 0 1 .026-.604c.375-.297 1.41-1.119 2.756-2.213.886-.72 1.693-.78 3.033-.879.939-.07 2.108-.157 3.646-.513 2.229-.515 2.615-.424 3.76-.154.717.168 1.698.398 3.484.597 2.229.249 3.154.395 3.541.471.019.091.039.177.063.249.401 1.21.825 1.597 2.856 1.821 1.814.201 2.969.604 2.979.609a.497.497 0 0 0 .439-.057c.107 1.425.379 3.086.809 4.891.463 1.944.713 3.754.834 6.051.021.387.021.865.004 1.394-1.141-.24-3.822-.901-4.85-1.358l.011-.063c.088-.402.191-.687.268-.896.11-.297.223-.603-.007-.88-.242-.286-.548-.235-1.157-.136l-.11.02c-.459.071-1.25.241-2.147.433zM41.204 74.01a42.609 42.609 0 0 1-.342 2.07c-.312 1.494-.878 3.188-1.318 3.938-.809 1.385-1.483 2.021-2.248 2.086a14.132 14.132 0 0 1-4.41-.817 81.427 81.427 0 0 1-3.555-1.371c-.05-.663.042-2.571 2.256-4.671.017.466.034.898.052 1.244.019.373.027.693.035.976.036 1.345.054 1.958 1.082 2.886a.506.506 0 0 0 .709-.037.504.504 0 0 0-.037-.709c-.711-.639-.718-.9-.753-2.166-.008-.289-.017-.617-.036-1-.111-2.219-.204-6.258-.002-8.289a82.75 82.75 0 0 1 .488-3.819c2.602.239 7.128.403 8.263.325.491-.034 1.212-.153 2.019-.311-.222 1.034-.775 3.521-1.26 4.973-.434 1.291-.704 3.098-.943 4.692zM17.239 77.4c-.104-.053-.801-.42-.609-1.078.109-.377.109-.375.584-.328.221.021.495.049.797.012.909-.111 1.639.316 2.488.812.369.218.75.438 1.159.627l.656.303c1.388.639 3.289 1.514 4.729 2.232 1.771.886 3.926 1.672 5.498 2.246a15.48 15.48 0 0 0 4.168.85c.003.001.004.003.007.003.159.026.312.039.46.039.043 0 .081-.011.123-.015.603.01 1.208-.021 1.797-.111 1.453-.219 2.815-.963 4.047-2.213.193-.197.216-.537.02-.731-.197-.194-.489-.218-.684-.021-.961.975-1.957 1.568-2.995 1.843.346-.407.65-.875.926-1.347.27-.461.546-1.145.791-1.881.551-.019 1.694-.031 2.728.115 1.345.191 1.569.452 2.406 1.42.506.588-.002 1.193-1.47 2.653l-.268.267c-1.332 1.33-4.594 2.281-6.379 2.504-1.596.194-5.075-.402-7.164-1.238-1.073-.43-2.396-1.137-3.797-1.887-1.29-.689-2.624-1.402-3.813-1.92-2.387-1.036-6.168-3.134-6.205-3.156zM15.4 82.203c.121-.242.251-.502.366-.79.601-1.501-.485-2.974-.709-3.252-.315-.394-.737-2.144-.737-3.394 0-.84.517-1.297 1.976-1.746.746-.229 1.136-.137 1.726.004.373.088.795.188 1.374.229l1.215.091.062.004a4.436 4.436 0 0 0-.847 1.979c-.579-.252-1.206-.408-1.938-.317a2.374 2.374 0 0 1-.572-.015c-.52-.052-1.306-.134-1.648 1.045-.345 1.19.576 1.991 1.111 2.248.083.046 1.631.905 3.37 1.793-.012.521-.031 1.862.054 2.981l.029.354c.078.939.078.939-.389 1.173-.87.435-1.721.554-2.765.378-1.112-.186-1.605-.514-1.954-1.298-.208-.468-.058-.807.276-1.467z"/></svg>