<svg xmlns="http://www.w3.org/2000/svg" data-name="Layer 1" viewBox="0 0 24 24"><path d="M9.56,17.71h0a3.57,3.57,0,0,0-4.65,0,3.49,3.49,0,0,0,0,5.21h0a3.49,3.49,0,0,0,4.66-5.21Zm-4.33,4.1v0l0-.07A2.41,2.41,0,0,1,5,21.39l-.06-.14a2.48,2.48,0,0,1-.1-.32s0-.09,0-.14a2.3,2.3,0,0,1,0-1s0-.09,0-.14a2.46,2.46,0,0,1,.11-.33L5,19.23a2.43,2.43,0,0,1,.21-.35l0-.05v0a2.5,2.5,0,0,1,0,3Zm3.25.65a2.58,2.58,0,0,1-2.5,0,3.45,3.45,0,0,0,0-4.31,2.45,2.45,0,0,1,2.51,0,3.45,3.45,0,0,0,0,4.31Zm1.2-2.63a2.31,2.31,0,0,1,0,1s0,.09,0,.14a2.46,2.46,0,0,1-.11.33l-.06.13a2.43,2.43,0,0,1-.21.35l0,.05v0a2.5,2.5,0,0,1,0-3h0l.05.08a2.42,2.42,0,0,1,.19.32l.06.14a2.47,2.47,0,0,1,.1.32S9.67,19.78,9.67,19.83Zm10.4.44-5-8.66L12.52,7.19A2.19,2.19,0,0,0,10.77,6.1a1.18,1.18,0,0,1-.94-.58L6.77.23A.5.5,0,0,0,6.09,0L4.36,1a.5.5,0,0,0-.18.68L7.23,7a1.17,1.17,0,0,1,0,1.1,2.23,2.23,0,0,0,.06,2.06l2.55,4.42,5,8.66a1.5,1.5,0,0,0,2.05.54l2.59-1.5a1.49,1.49,0,0,0,.55-2ZM5.29,1.66l.86-.5L9,6a2.15,2.15,0,0,0,.42.5,1.23,1.23,0,0,1-1.06.61,2.11,2.11,0,0,0-.23-.61Zm2.9,8A1.16,1.16,0,0,1,8,9.1a1.14,1.14,0,0,1,.12-.53,2.11,2.11,0,0,0,.15-.42h0A2.25,2.25,0,0,0,10.24,7a2.06,2.06,0,0,0,.46.09,1.19,1.19,0,0,1,1,.59L14,11.82l-1.21,1.53a.52.52,0,0,1-.32.19l-1.93.28ZM19.26,21.15a.48.48,0,0,1-.23.3h0l-2.59,1.5a.5.5,0,0,1-.69-.18l-4.63-8,1.55-.22a1.53,1.53,0,0,0,1-.55l1-1.22,4.63,8A.49.49,0,0,1,19.26,21.15Z"/></svg>