<svg xmlns="http://www.w3.org/2000/svg" viewBox="0 0 421.47 421.47" id="cricket-icon">
  <path d="M415.276 61.627 359.829 6.18C355.841 2.195 350.532 0 344.881 0s-10.96 2.194-14.949 6.181L86.029 250.083c-8.234 8.243-8.233 21.655.003 29.899l10.887 10.882-93.08 93.08c-.93.84-3.664 3.645-3.831 7.678-.076 1.867.385 4.646 3.021 7.281l19.448 19.443c2.581 2.582 5.261 3.124 7.055 3.123 4.228 0 7.114-2.85 8.02-3.881l93.044-93.048 10.886 10.885c3.986 3.99 9.294 6.188 14.947 6.188 5.651 0 10.961-2.197 14.948-6.186l243.9-243.9a21.002 21.002 0 0 0 6.194-14.948c-.001-5.639-2.199-10.948-6.195-14.952zM344.752 247.03c-24.937 0-45.224 20.287-45.224 45.224 0 24.936 20.287 45.223 45.224 45.223s45.224-20.287 45.224-45.223c-.001-24.937-20.288-45.224-45.224-45.224z"/>
</svg>
