<svg id="Layer_1" enable-background="new 0 0 512 512" height="512" viewBox="0 0 512 512" width="512" xmlns="http://www.w3.org/2000/svg"><g><path d="m198.284 347.725-50 10-90 90c-11.046 11.046-28.954 11.046-40 0-11.046-11.046-11.046-28.954 0-40l90-90 10-50" fill="#ffcd69"/><path d="m114.437 145.298h299.411v113.137h-299.411z" fill="#ffd4b5" transform="matrix(.707 -.707 .707 .707 -65.376 245.902)"/><path d="m410 136.009h-80v-80" fill="#ffcd69"/><path d="m152.067 236.16h42.426v113.137h-42.426z" fill="#fff" transform="matrix(.707 -.707 .707 .707 -156.238 208.266)"/><circle cx="462" cy="216.009" fill="#b8ecbc" r="40"/><g fill="#ff764e"><path d="m417.071 128.938-80-80c-3.906-3.904-10.236-3.904-14.143 0l-211.715 211.716c-1.396 1.396-2.348 3.174-2.734 5.109l-9.406 47.031-87.859 87.859c-7.232 7.231-11.214 16.845-11.214 27.072 0 10.226 3.982 19.84 11.213 27.071 7.464 7.463 17.268 11.195 27.071 11.195s19.607-3.732 27.071-11.195l87.858-87.859 47.031-9.406c1.937-.387 3.714-1.339 5.11-2.735l211.717-211.716c3.906-3.905 3.906-10.237 0-14.142zm-284.644 138.786 187.573-187.573v55.858c0 5.523 4.478 10 10 10h55.857l-187.572 187.574zm207.573-141.715v-45.858l45.857 45.858zm-193.677 221.91c-1.937.387-3.714 1.339-5.11 2.735l-90 90c-7.128 7.129-18.729 7.128-25.857 0-3.455-3.454-5.356-8.046-5.356-12.929 0-4.884 1.901-9.476 5.355-12.929l90-90c1.396-1.396 2.348-3.174 2.734-5.109l6.335-31.678 53.576 53.574z"/><path d="m462 166.009c-27.57 0-50 22.43-50 50s22.43 50 50 50 50-22.43 50-50-22.43-50-50-50zm0 80c-16.542 0-30-13.458-30-30s13.458-30 30-30 30 13.458 30 30-13.458 30-30 30z"/></g></g></svg>