<svg xmlns="http://www.w3.org/2000/svg" xmlns:xlink="http://www.w3.org/1999/xlink" width="15px" height="15px" viewBox="0 0 15 15" version="1.1">    <!-- Generator: Sketch 49 (51002) - http://www.bohemiancoding.com/sketch -->    <title>icon_cricket</title>    <desc>Created with Sketch.</desc>    <defs>        <polyline id="path-1" points="0 0.105457464 14.303465 0.105457464 14.303465 14.4462279 0 14.4462279"/>    </defs>    <g id="icon_cricket" stroke="none" stroke-width="1" fill="none" fill-rule="evenodd">        <rect id="Bound" x="0" y="0" width="15" height="15"/>        <g>            <mask id="mask-2" fill="white">                <use xlink:href="#path-1"/>            </mask>            <g id="Clip-7"/>            <path d="M14.094209,12.7889205 L12.7709303,11.4569783 L11.1487659,9.82419342 L9.71174556,11.2709831 L11.1161145,12.6845465 L12.6568299,14.2357103 C12.9359814,14.5163283 13.3927421,14.5163283 13.6718936,14.2357103 L14.094209,13.8102689 C14.3733605,13.5296509 14.3733605,13.0698997 14.094209,12.7889205" id="Fill-6" fill="#FFFFFF" mask="url(#mask-2)"/>            <path d="M10.7189515,2.59020867 C10.7189515,3.58627608 9.91665999,4.39382022 8.92707148,4.39382022 C7.93712417,4.39382022 7.13483269,3.58627608 7.13483269,2.59020867 C7.13483269,1.59414125 7.93712417,0.786597111 8.92707148,0.786597111 C9.91665999,0.786597111 10.7189515,1.59414125 10.7189515,2.59020867" id="Fill-1" fill="#FFFFFF" mask="url(#mask-2)"/>            <path d="M3.07978028,0.316227929 C2.80062877,0.0352487961 2.34386801,0.0352487961 2.06507531,0.316227929 L0.209327751,2.1841252 C-0.0698237578,2.46474318 -0.0698237578,2.92449438 0.209327751,3.20547352 L8.04135748,11.0887801 C8.32050898,11.3697592 8.77726974,11.3697592 9.05642125,11.0887801 L10.91181,9.22124398 C11.1909615,8.94026485 11.1909615,8.48051364 10.91181,8.19953451 L3.07978028,0.316227929 Z" id="Fill-3" fill="#FFFFFF" mask="url(#mask-2)"/>        </g>    </g></svg>