<svg xmlns="http://www.w3.org/2000/svg" width="32" height="32"><path style="text-indent:0;text-align:start;line-height:normal;text-transform:none;block-progression:tb;marker:none;-inkscape-font-specification:Sans" d="M16 0C7.17 0 0 7.17 0 16s7.17 16 16 16 16-7.17 16-16S24.83 0 16 0zm0 1c8.29 0 15 6.71 15 15s-6.71 15-15 15S1 24.29 1 16 7.71 1 16 1zm.094 4.188c-4.612-.043-8.92 2.88-10.407 7.5-1.544 4.801.481 9.898 4.563 12.468l.188-.593.03-.063.25-.156.282.125.063.312-.188.625-.406-.125c.535.318 1.119.617 1.719.844l6.624-20.563a10.95 10.95 0 0 0-2.718-.375zm.562.062.625.219-.125.468-.218.125-.344-.125-.094-.218.156-.469zm2.782.5-6.625 20.594c5.648 1.741 11.684-1.39 13.5-7.032 1.813-5.637-1.28-11.679-6.875-13.562zm1.28.781.657.219-.156.469-.157.156-.437-.156-.063-.188.157-.5zm-4.405.438.312.125.031.312-.187.625-.032.063-.28.187-.282-.125-.063-.312.22-.657.03-.062.25-.156zm4.093 1.281.282.125.062.313-.188.624-.062.094-.25.156-.281-.124-.063-.313.219-.656.031-.063.25-.156zm-4.687.625L16 9l.063.313-.22.656-.03.062-.282.156-.281-.124-.063-.313.22-.625.03-.063.282-.187zm4.062 1.313.282.124.062.313-.188.625-.03.094-.282.156-.281-.125-.063-.313.219-.656.031-.062.25-.156zm-4.687.624.281.126.063.312-.22.656-.03.063-.282.156-.281-.125-.063-.313.22-.624.03-.094.282-.156zm4.062 1.282.313.156.031.281-.188.656-.03.063-.282.188-.281-.157-.063-.312.219-.625.031-.063.25-.187zm-4.687.656.281.125.063.313-.22.656-.03.062-.282.156-.281-.124-.063-.313.22-.656.03-.063.282-.156zm4.062 1.281.313.125.031.313-.188.656-.03.063-.282.156-.281-.125-.063-.313.219-.625.031-.094.25-.156zm-4.687.656.281.126.063.312-.22.625-.03.094-.25.156-.313-.125-.031-.313.187-.656.031-.062.282-.156zm4.094 1.282.28.125.032.312-.188.657-.03.062-.282.156-.281-.125-.063-.312.219-.657.031-.062.282-.156zm-4.72.656.282.125.063.313-.22.625-.03.062-.25.188-.313-.125-.031-.313.187-.656.031-.063.282-.156zm4.095 1.281.28.125.063.313-.218.625-.032.093-.281.157-.281-.125-.063-.313.219-.656.031-.063.282-.156zm-4.72.625.282.125.063.313-.22.656-.03.063-.25.187-.313-.156-.031-.313.187-.625.031-.062.282-.188zm4.095 1.313.28.125.063.312-.218.625-.032.094-.281.156-.281-.125-.063-.312.219-.657.031-.062.282-.156zm-4.72.625.282.125.063.312-.22.657-.03.062-.25.156-.282-.125-.062-.312.187-.625.031-.094.282-.156zm4.095 1.281.28.156.063.313-.218.625-.032.062-.281.188-.281-.157-.031-.312.187-.625.031-.063.281-.187zm-4.72.656.282.125.063.313-.22.656-.03.063-.25.156-.282-.125-.062-.313.219-.656.03-.063.25-.156zm4.095 1.282.28.125.063.312-.219.656-.03.063-.25.156-.313-.125-.031-.313.187-.625.031-.093.281-.157zm-.626 1.937.282.125.062.313-.219.656-.624-.219.187-.656.031-.063.281-.156z" color="#000" font-family="Sans" font-weight="400" overflow="visible"/></svg>