<svg xmlns="http://www.w3.org/2000/svg" width="32" height="32"><path d="M16 0C7.17 0 0 7.17 0 16s7.17 16 16 16 16-7.17 16-16S24.83 0 16 0zm0 1.063c8.264 0 14.969 6.673 14.969 14.937S24.264 30.938 16 30.938A14.92 14.92 0 0 1 1.062 16 14.92 14.92 0 0 1 16 1.062zm-.031 4c-6.045 0-10.906 4.924-10.906 10.968a10.88 10.88 0 0 0 10.906 10.907c6.044 0 10.969-4.862 10.969-10.907 0-6.044-4.925-10.968-10.97-10.968zm0 1.406c.636.013 1.27.086 1.906.218L17.406 9a7.243 7.243 0 0 0-1.437-.156c-.494 0-.973.06-1.438.156l-.469-2.344c.637-.133 1.27-.2 1.907-.187zm5.25 1.562c1.113.743 2.028 1.637 2.718 2.75l-2 1.313a7.244 7.244 0 0 0-2.03-2.063l1.312-2zm-10.5.031 1.312 2a7.086 7.086 0 0 0-2 2.032l-2-1.313a8.79 8.79 0 0 1 2.688-2.719zm5.25 1.688c.426 0 .847.044 1.25.125l-1.282 6.094V16h-.03l-5.157-3.438a6.163 6.163 0 0 1 1.75-1.78l3.406 5.124-1.219-6.031c.41-.084.846-.125 1.282-.125zm3.437 1a6.449 6.449 0 0 1 1.813 1.813l-5.25 3.406 6.156-1.25c.089.42.125.866.125 1.312 0 .428-.012.848-.094 1.25L16.063 16l5.187 3.438a6.402 6.402 0 0 1-1.813 1.812l-3.406-5.219 1.219 6.094c-.41.083-.846.156-1.281.156-.423 0-.821-.047-1.219-.125l1.281-6.125-3.5 5.219a6.199 6.199 0 0 1-1.781-1.781l5.188-3.375-6.063 1.187a6.201 6.201 0 0 1-.125-1.25c0-.422.016-.851.094-1.25l6.094 1.281.093-.03V16l-.062-.031 3.437-5.219zm5.938 3.313c.212 1.271.234 2.602-.032 3.874l-2.312-.5c.094-.46.156-.917.156-1.406a.442.442 0 0 0-.031-.187 7.005 7.005 0 0 0-.156-1.281l2.375-.5zm-18.688.062 2.344.5c-.09.457-.156.923-.156 1.406 0 .495.061.972.156 1.438l-2.344.468a9.238 9.238 0 0 1 0-3.812zm15.313 5.813 2 1.343a10.212 10.212 0 0 1-2.75 2.688l-1.313-2a7.217 7.217 0 0 0 2.063-2.032zm-11.938.03a7.048 7.048 0 0 0 2.031 2l-1.343 2a9.25 9.25 0 0 1-2.688-2.687l2-1.312zM14.562 23c.457.091.922.156 1.407.156.493 0 .971-.062 1.437-.156l.469 2.344a9.206 9.206 0 0 1-3.813 0l.5-2.344z" color="#000" font-family="Sans" font-weight="400" overflow="visible" style="text-indent:0;text-align:start;line-height:normal;text-transform:none;block-progression:tb;marker:none;-inkscape-font-specification:Sans"/></svg>