<svg xmlns="http://www.w3.org/2000/svg" enable-background="new 0 0 50 50" viewBox="0 0 50 50" style="&#10;    fill: #fff;&#10;"><path d="M25,23.5c-0.4,0-0.8,0.3-0.8,0.8v1.5c0,0.4,0.3,0.8,0.8,0.8s0.8-0.3,0.8-0.8v-1.5C25.8,23.8,25.4,23.5,25,23.5z"/><path d="M24.5,25c-0.3,0.3-0.3,0.8,0,1.1c0.1,0.1,0.3,0.2,0.5,0.2c0.2,0,0.4-0.1,0.5-0.2L41,10.4l2.9,0.5l3.4-3.4L44.4,7l1.2-1.2   c0.3-0.3,0.3-0.8,0-1.1s-0.8-0.3-1.1,0l-1.2,1.2L42.8,3l-3.4,3.4L40,9.3L24.5,25z"/><path d="M40.2,13.4l-2.6,2.6c4.6,6.2,4.1,15.1-1.5,20.7c-3,3-6.9,4.6-11.1,4.6c-4.2,0-8.2-1.6-11.1-4.6c-6.1-6.2-6.1-16.2,0-22.4   c3-3,6.9-4.6,11.1-4.6c3.4,0,6.7,1.1,9.4,3.2l2.6-2.6C33.6,7.5,29.4,6,25,6c-5.2,0-10,2-13.7,5.7c-7.5,7.6-7.5,20,0,27.6   c3.7,3.7,8.5,5.7,13.7,5.7c5.2,0,10-2,13.7-5.7C45.7,32.3,46.2,21.1,40.2,13.4z"/><path d="M33.3,13.9c-2.4-1.8-5.3-2.7-8.3-2.7c-3.8,0-7.4,1.5-10,4.2C9.4,21,9.4,30.1,15,35.7c2.7,2.7,6.2,4.2,10,4.2   c3.8,0,7.4-1.5,10-4.2c5-5.1,5.5-13,1.5-18.6L35,18.7c3.2,4.7,2.7,11.3-1.4,15.5c-2.3,2.3-5.3,3.6-8.5,3.6c-3.2,0-6.3-1.3-8.5-3.6   c-4.7-4.8-4.7-12.5,0-17.2c2.3-2.3,5.3-3.6,8.5-3.6c2.5,0,4.8,0.7,6.8,2.1L33.3,13.9z"/><path d="M30.7,16.6c-1.7-1.1-3.7-1.7-5.7-1.7c-2.8,0-5.5,1.1-7.5,3.1c-4.1,4.2-4.1,11,0,15.1c2,2,4.6,3.1,7.5,3.1   c2.8,0,5.5-1.1,7.5-3.1c3.6-3.6,4-9.2,1.4-13.3l-1.6,1.6c1.8,3.2,1.4,7.4-1.4,10.2c-1.6,1.6-3.7,2.5-5.9,2.5c-2.3,0-4.4-0.9-6-2.5   c-3.3-3.3-3.3-8.7,0-12c1.6-1.6,3.7-2.5,6-2.5c1.5,0,2.9,0.4,4.1,1.1L30.7,16.6z"/><path d="M28.1,19.3c-0.9-0.5-2-0.7-3-0.7c-1.9,0-3.6,0.7-4.9,2c-2.7,2.7-2.7,7.2,0,9.9c1.3,1.3,3,2,4.9,2c1.8,0,3.6-0.7,4.9-2   c2.1-2.2,2.6-5.4,1.3-8l-1.6,1.7c0.5,1.7,0.1,3.5-1.2,4.8c-0.9,0.9-2.1,1.4-3.4,1.4c-1.3,0-2.5-0.5-3.4-1.4c-1.9-1.9-1.9-4.9,0-6.8   c0.9-0.9,2.1-1.4,3.4-1.4c0.5,0,1,0.1,1.4,0.2L28.1,19.3z"/><path d="M25.1 22.2c0 0-.1 0-.1 0-.9 0-1.7.4-2.3 1-1.3 1.3-1.3 3.4 0 4.7 1.2 1.3 3.4 1.3 4.6 0 .7-.7 1-1.6 1-2.5l-1.7 1.7c-.4.4-1 .7-1.6.7-.6 0-1.2-.2-1.6-.6-.4-.4-.7-1-.7-1.6 0-.6.2-1.2.6-1.6L25.1 22.2zM25 4.9c.4 0 .8-.3.8-.8V2.6c0-.4-.3-.8-.8-.8s-.8.3-.8.8v1.5C24.3 4.6 24.6 4.9 25 4.9zM48 25.1h-1.5c-.4 0-.8.3-.8.8s.3.8.8.8H48c.4 0 .8-.3.8-.8S48.4 25.1 48 25.1zM4.3 25.9c0-.4-.3-.8-.8-.8H2c-.4 0-.8.3-.8.8s.3.8.8.8h1.5C3.9 26.6 4.3 26.3 4.3 25.9zM9.3 40.7l-1.1 1.1c-.3.3-.3.8 0 1.1.1.1.3.2.5.2.2 0 .4-.1.5-.2l1.1-1.1c.3-.3.3-.8 0-1.1C10 40.4 9.6 40.4 9.3 40.7zM40.7 40.7c-.3-.3-.8-.3-1.1 0s-.3.8 0 1.1l1.1 1.1c.1.1.3.2.5.2.2 0 .4-.1.5-.2.3-.3.3-.8 0-1.1L40.7 40.7zM9.3 11.1c.1.1.3.2.5.2.2 0 .4-.1.5-.2.3-.3.3-.8 0-1.1L9.3 8.9C9 8.6 8.5 8.6 8.2 8.9c-.3.3-.3.8 0 1.1L9.3 11.1zM16.1 6.1c.1.3.4.5.7.5.1 0 .2 0 .3-.1.4-.2.6-.6.4-1l-.6-1.4c-.2-.4-.6-.6-1-.4-.4.2-.6.6-.4 1L16.1 6.1zM33.9 45.7c-.2-.4-.6-.6-1-.4-.4.2-.6.6-.4 1l.6 1.4c.1.3.4.5.7.5.1 0 .2 0 .3-.1.4-.2.6-.6.4-1L33.9 45.7zM46 16.3l-1.4.6c-.4.2-.6.6-.4 1 .1.3.4.5.7.5.1 0 .2 0 .3-.1l1.4-.6c.4-.2.6-.6.4-1C46.8 16.3 46.3 16.1 46 16.3zM4.9 33.5l-1.4.6c-.4.2-.6.6-.4 1 .1.3.4.5.7.5.1 0 .2 0 .3-.1l1.4-.6c.4-.2.6-.6.4-1C5.7 33.5 5.2 33.3 4.9 33.5zM32.9 6.5c.1 0 .2.1.3.1.3 0 .6-.2.7-.5l.6-1.4c.2-.4 0-.8-.4-1-.4-.2-.8 0-1 .4l-.6 1.4C32.4 5.9 32.6 6.4 32.9 6.5zM17.1 45.3c-.4-.2-.8 0-1 .4l-.6 1.4c-.2.4 0 .8.4 1 .1 0 .2.1.3.1.3 0 .6-.2.7-.5l.6-1.4C17.6 45.9 17.4 45.4 17.1 45.3zM46.5 34.1l-1.4-.6c-.4-.2-.8 0-1 .4-.2.4 0 .8.4 1l1.4.6c.1 0 .2.1.3.1.3 0 .6-.2.7-.5C47.1 34.7 46.9 34.3 46.5 34.1zM3.5 17.7l1.4.6c.1 0 .2.1.3.1.3 0 .6-.2.7-.5.2-.4 0-.8-.4-1L4 16.3c-.4-.2-.8 0-1 .4C2.9 17.1 3.1 17.5 3.5 17.7z"/></svg>