<svg xmlns="http://www.w3.org/2000/svg" width="26" height="26"><path style="line-height:normal;text-indent:0;text-align:start;text-decoration-line:none;text-transform:none;block-progression:tb" d="M13 0C5.826 0 0 5.826 0 13s5.826 13 13 13 13-5.826 13-13S20.174 0 13 0zm0 1.002c6.633 0 12 5.365 12 11.998 0 6.633-5.367 12-12 12S1 19.633 1 13 6.367 1.002 13 1.002zM18.5 5.5v1.793l-.215.215.707.707.215-.215H21V7h-1.5V5.5h-1zm-5.5 1c-3.872 0-7 3.128-7 7s3.128 7 7 7 7-3.128 7-7a6.969 6.969 0 0 0-1.71-4.582l-.712.71A5.971 5.971 0 0 1 19 13.5c0 3.308-2.692 6-6 6s-6-2.692-6-6 2.692-6 6-6a5.97 5.97 0 0 1 3.871 1.422l.711-.711S14.756 6.5 13 6.5zm0 2c-2.767 0-5 2.233-5 5s2.233 5 5 5 5-2.233 5-5c0-1.202-.44-2.29-1.143-3.15l-.71.71c.526.678.853 1.519.853 2.44 0 2.203-1.797 4-4 4-2.203 0-4-1.797-4-4 0-2.203 1.797-4 4-4 .922 0 1.762.326 2.44.854l.71-.711A4.955 4.955 0 0 0 13 8.5zm0 2c-1.663 0-3 1.337-3 3s1.337 3 3 3 3-1.337 3-3c0-.65-.21-1.247-.557-1.736l-.728.728c.176.297.285.64.285 1.008 0 1.099-.901 2-2 2s-2-.901-2-2 .901-2 2-2c.37 0 .712.106 1.01.283l.726-.726A2.982 2.982 0 0 0 13 10.5zm0 2c-.558 0-1 .442-1 1s.442 1 1 1 1-.442 1-1c0-.087-.029-.164-.049-.244l-.597.598-.708-.708.6-.6c-.08-.02-.159-.046-.246-.046z" color="#000" font-family="sans-serif" font-weight="400" overflow="visible"/></svg>