<svg viewBox="0 0 100 100" xmlns="http://www.w3.org/2000/svg" id="darts-icon">
  <path d="M0 0h4v100H0zm19.777 50.975c.43 1.733 1.952 3.025 3.78 3.025h10.757v-8H23.557c-1.826 0-3.35 1.29-3.78 3.025l-5.02.152L4 49.5v1l10.756.323 5.02.152zm50.733 1.362L77.117 52c1.12 0 2.086.655 2.58 1.603.218.42.354.89.354 1.397 0 1.617-1.26 2.94-2.827 2.998-1.058-.266-3.652-2.02-6.64-4.32-.52-.398-1.046-.81-1.584-1.237.503-.034 1.008-.07 1.51-.103zm.073-6.016c2.988-2.3 5.582-4.053 6.64-4.318 1.567.058 2.827 1.38 2.827 2.998 0 .507-.136.977-.354 1.396-.494.95-1.46 1.604-2.58 1.604l-6.604-.338c-.504-.034-1.01-.068-1.513-.104.537-.427 1.064-.838 1.583-1.237zM39.04 53.948l20.843-1.066.404.033c-.02-.016-.037-.033-.057-.05l4.324-.22.803.666c2.25 1.854 5.1 4.103 7.514 5.69 1.802 1.183 3.363 2 4.244 2h.005c1.732 0 3.286-.776 4.36-2 .19-.216.367-.443.525-.686.615-.95.976-2.087.977-3.31v-.01c0-.994-.24-1.93-.66-2.755A5.956 5.956 0 0 0 80.355 50a5.982 5.982 0 0 0 1.967-2.24c.42-.826.66-1.76.66-2.755v-.009c0-1.224-.362-2.36-.977-3.31A6.07 6.07 0 0 0 81.48 41c-1.075-1.225-2.63-2-4.364-2-.88 0-2.443.816-4.245 2-2.414 1.587-5.263 3.835-7.513 5.69l-.803.667-4.328-.22.056-.05-.4.032-20.842-1.067-.062-.003L38 46v8l.978-.05.062-.003z" fill-rule="evenodd"/>
</svg>
