<svg id="Layer_1" data-name="Layer 1" xmlns="http://www.w3.org/2000/svg" xmlns:xlink="http://www.w3.org/1999/xlink" viewBox="0 0 24 24"><defs><style>.cls-1,.cls-2,.cls-3{fill:none;stroke-miterlimit:10;stroke-width:1.5px;}.cls-1{stroke:url(#linear-gradient);}.cls-2{stroke:url(#linear-gradient-2);}.cls-3{stroke:url(#linear-gradient-3);}</style><linearGradient id="linear-gradient" x1="1.45" y1="10.15" x2="22.65" y2="10.15" gradientTransform="matrix(1, 0, 0, -1, 0, 26)" gradientUnits="userSpaceOnUse"><stop offset="0" stop-color="#950c37"/><stop offset="0.43" stop-color="#ff265a"/><stop offset="1" stop-color="#ff4d7c"/></linearGradient><linearGradient id="linear-gradient-2" x1="6.1" y1="19.05" x2="17.94" y2="19.05" xlink:href="#linear-gradient"/><linearGradient id="linear-gradient-3" x1="1.43" y1="16.6" x2="22.63" y2="16.6" xlink:href="#linear-gradient"/></defs><path class="cls-1" d="M2.2,9.4v7.1c0,3,2,5.4,5,5.4h9.6a5.13,5.13,0,0,0,5.1-5.4V9.4"/><path class="cls-2" d="M7.7,11.1a4,4,0,0,1-.8-2.8A2.77,2.77,0,0,1,7,7.4a5,5,0,0,1,.8-2A5.16,5.16,0,0,1,15,4a4.66,4.66,0,0,1,1.4,1.4,5,5,0,0,1,.8,2,2.77,2.77,0,0,1,.1.9,5.38,5.38,0,0,1-.8,2.8"/><path class="cls-3" d="M17.2,7.6H20a2.09,2.09,0,0,1,1.6.8h0l.3.6h0v.3A1.9,1.9,0,0,1,20,11.2H4.1A1.88,1.88,0,0,1,2.2,9.4h0V9.3h0a1.78,1.78,0,0,1,.4-1h0a1.8,1.8,0,0,1,1.5-.7H6.8"/></svg>