<svg id="Layer_1" data-name="Layer 1" xmlns="http://www.w3.org/2000/svg" viewBox="0 0 24 24"><defs><style>.cls-1{fill:none;stroke:#000;stroke-linecap:round;stroke-linejoin:round;stroke-width:1.5px;}</style></defs><path class="cls-1" d="M2.18,9.42c0,.13,0,.25,0,.38v6.69c0,3,2,5.42,5,5.42h9.65a5,5,0,0,0,3.67-1.63,5.13,5.13,0,0,0,1.36-3.79V9.8c0-.13,0-.27,0-.4"/><path class="cls-1" d="M7.7,11.08a5.07,5.07,0,0,1-.85-2.83,4.53,4.53,0,0,1,.09-.91,5,5,0,0,1,.78-2,5.17,5.17,0,0,1,8.6,0,5,5,0,0,1,.78,2,4.53,4.53,0,0,1,.09.91,5.15,5.15,0,0,1-.84,2.83"/><path class="cls-1" d="M17.22,7.58H20a1.93,1.93,0,0,1,1.58.81v0a1.58,1.58,0,0,1,.28.62s0,0,0,0a1.37,1.37,0,0,1,0,.34A1.87,1.87,0,0,1,20,11.23H4.1A1.87,1.87,0,0,1,2.18,9.4a.53.53,0,0,1,0-.12s0,0,0,0a1.63,1.63,0,0,1,.41-1s0,0,0,0A2,2,0,0,1,4.1,7.58H6.82"/></svg>