<svg viewBox="0 0 100 100" xmlns="http://www.w3.org/2000/svg" id="futsal-icon">
  <g fill-rule="evenodd">
    <path d="M67.866 45.21c-.482 1.635-1.23 4.238-2.042 7.075-.954 3.335-2 6.992-2.834 9.818-.661 2.248-1.203 4.086-1.54 4.815H38.73c-.335-.726-.874-2.558-1.534-4.796-.829-2.814-1.873-6.459-2.827-9.792-.813-2.837-1.56-5.445-2.059-7.136.965-1.227 5.735-4.913 15.506-12.465.937-.723 1.628-1.259 1.944-1.504a.445.445 0 0 1 .269-.096l.092.003a.5.5 0 0 1 .317.105c.29.226.958.742 1.924 1.489 9.782 7.56 14.554 11.25 15.507 12.47l-.004.011zM54.93 29.355l-1.83-1.416a4.698 4.698 0 0 0-2.757-1.022 4.729 4.729 0 0 0-3.243 1.007c-.301.235-.982.763-1.91 1.478C27.26 43.26 27.26 43.26 28.213 46.368c.49 1.661 1.237 4.272 2.051 7.112.957 3.344 2.006 7 2.838 9.823 1.818 6.176 2.306 7.837 5.628 7.837h22.723c3.324 0 3.813-1.664 5.635-7.853.835-2.836 1.886-6.506 2.843-9.851.81-2.823 1.553-5.414 2.027-7.02.97-3.151.97-3.151-17.026-17.06z"/>
    <path d="M93.036 54.543c-.459-.558-1.36-1.625-2.454-2.92l-.163-.193c-4.891-5.785-7.742-9.171-8.184-10.013l.183-17.89c.427.16 1.4.501 2.553.901l.181.064c.224.081 1.75.7 3.542 1.43 4.45 6.977 7.039 15.234 7.039 24.077 0 1.096-.064 2.235-.043 1.721-1.976 2.034-2.473 2.573-2.654 2.822zM91 70.004l-.115-1.253a4.203 4.203 0 0 0-1.929-3.164 4.348 4.348 0 0 0-3.703-.452 425.4 425.4 0 0 1-3.393 1.125c-13.698 4.51-13.698 4.51-14.716 5.98l-9.559 13.91a4.187 4.187 0 0 0-.515 3.73 4.272 4.272 0 0 0 2.7 2.657l2.875.937a45.806 45.806 0 0 1-12.647 1.781 46 46 0 0 1-12.3-1.677c1.066-.346 2.133-.693 3.2-1.045a4.266 4.266 0 0 0 2.696-2.66 4.2 4.2 0 0 0-.523-3.73 3778.205 3778.205 0 0 1-6.72-9.775l-2.907-4.236c-.989-1.35-.989-1.35-13.67-5.542l-.588-.194a425.474 425.474 0 0 1-3.75-1.251 4.342 4.342 0 0 0-3.723.437 4.19 4.19 0 0 0-1.937 3.174l-.213 2.334a44.505 44.505 0 0 1-4.758-14.124l.027.034c.773 1.069 2.026 1.728 3.3 1.76a4.263 4.263 0 0 0 3.49-1.565c.529-.646 1.649-1.977 2.977-3.547 8.771-10.395 8.771-10.395 8.771-12.29l-.18-17.873a4.22 4.22 0 0 0-1.85-3.438 4.352 4.352 0 0 0-3.897-.48c-.336.122-.981.326-1.765.576a45.916 45.916 0 0 1 18.775-12.68c-.163.25-.282.43-.33.508l-1.588 2.496a4.216 4.216 0 0 0-.402 3.696 4.219 4.219 0 0 0 2.696 2.578c2.752.881 11.518 3.757 13.207 4.32l.17.075c.564.242 1.508.65 2.642.693l.158.005.164-.003c1.163-.045 2.129-.47 2.71-.724l.105-.048c2.019-.645 10.742-3.51 13.236-4.331a4.224 4.224 0 0 0 2.667-2.592 4.16 4.16 0 0 0-.42-3.68c-.414-.645-.828-1.292-1.243-1.945a45.874 45.874 0 0 1 15.51 11.017 4.336 4.336 0 0 0-3.729.512 4.215 4.215 0 0 0-1.864 3.446l-.179 17.915c0 1.884 0 1.884 9.179 12.74l.16.192a339.189 339.189 0 0 1 2.417 2.874 4.268 4.268 0 0 0 3.312 1.557c.018 0 .093 0 .112-.002a4.349 4.349 0 0 0 1.788-.448 44.49 44.49 0 0 1-3.935 11.69zM69.15 91.05c-2.165-.654-4.091-1.235-4.408-1.34l-3.63-1.184 9.555-13.906.013-.017c.8-.466 5.115-1.899 12.524-4.338 1.513-.497 2.76-.906 3.431-1.136l.395 4.278c.01.219.021 1.502.032 3.046-4.58 6.27-10.754 11.31-17.912 14.597zm-38.024.142a45.891 45.891 0 0 1-17.5-13.823c.003-2.02.008-3.819.01-3.979.134-1.423.267-2.845.395-4.26.723.25 2.123.714 3.806 1.269l.587.196c6.443 2.128 10.764 3.557 11.557 4l2.843 4.143c2.236 3.264 4.477 6.529 6.728 9.786-1.78.587-3.557 1.166-5.288 1.73l-3.14.937zM11.116 26.23c2.731-.97 5.444-1.93 5.747-2.029l.107-.032c.87-.277 1.582-.504 1.952-.64l.184 17.85v.04c-.43.81-3.232 4.133-7.78 9.521a335.631 335.631 0 0 0-3.019 3.606l-1.013-1.403c-.171-.24-.478-.568-3.026-3.174a44.574 44.574 0 0 1 6.85-23.737zM37.74 10.214c.178-.28 1.528-2.3 3.016-4.523a46.024 46.024 0 0 1 20.904.555l1.622 2.41c.86 1.36 1.721 2.716 2.59 4.065-2.535.835-11.532 3.79-13.303 4.353-.058.019-.118.04-.175.064-.02.01-.113.05-.132.06l-.111.05c-.355.154-.796.348-1.144.362-.318-.014-.747-.198-1.141-.37a6.031 6.031 0 0 0-.39-.157 2361.603 2361.603 0 0 0-13.327-4.365l1.59-2.504zM50.001.528C22.385.528 0 22.674 0 49.999c0 27.326 22.386 49.476 50.001 49.476C77.614 99.475 100 77.323 100 49.999 100 22.675 77.614.525 49.999.525z"/>
  </g>
</svg>
