<svg id="Layer_1" data-name="Layer 1" xmlns="http://www.w3.org/2000/svg" xmlns:xlink="http://www.w3.org/1999/xlink" viewBox="0 0 354.18 325.41"><defs><style>.cls-1{fill:url(#linear-gradient);}.cls-2{fill:url(#linear-gradient-2);}</style><linearGradient id="linear-gradient" x1="78.3" y1="149.6" x2="282.42" y2="149.6" gradientUnits="userSpaceOnUse"><stop offset="0" stop-color="#2f2063"/><stop offset="0.57" stop-color="#5e3282"/><stop offset="1" stop-color="#6251a2"/></linearGradient><linearGradient id="linear-gradient-2" x1="35.05" y1="198.33" x2="318.71" y2="198.33" xlink:href="#linear-gradient"/></defs><path class="cls-1" d="M180.36,87.24A102.1,102.1,0,0,0,80.84,212h7.37a92.25,92.25,0,0,1-2-11.09l6.55-6.39L115,172.76l23.28,10.37L147.67,212h7.52l-9.78-30.1,35-25.39,34.95,25.39L205.53,212H213l9.37-28.84,23.29-10.37L268,194.49l6.56,6.39a92.25,92.25,0,0,1-2,11.09h7.37A102.1,102.1,0,0,0,180.36,87.24ZM87.74,189.37a92.25,92.25,0,0,1,17.16-53.75l5.45,31.72Zm89.05-39.12-36,26.16L117.36,166l-5.42-31.57-1.58-9.2a95,95,0,0,1,29.71-21.85l8.1,4.25,28.62,15Zm-25.3-49a92.7,92.7,0,0,1,57.74,0l-28.87,15.18Zm97.29,33.12L243.36,166l-23.42,10.43-36-26.16V122.66l28.62-15,8.1-4.25a95,95,0,0,1,29.7,21.85Zm1.59,32.93,5.44-31.72A92.13,92.13,0,0,1,273,189.3C272.91,189.3,250.37,167.34,250.37,167.34Z"/><polygon class="cls-2" points="318.71 226.96 35.05 226.96 35.05 169.71 43.05 169.71 43.05 218.96 310.71 218.96 310.71 169.71 318.71 169.71 318.71 226.96"/></svg>