<svg xmlns="http://www.w3.org/2000/svg" xmlns:xlink="http://www.w3.org/1999/xlink" enable-background="new 0 0 48 48" height="48px" version="1.1" viewBox="0 0 48 48" width="48px" xml:space="preserve" style="&#10;    fill: #fff;&#10;"><g id="grid"/><g id="Layer_2"><g><path d="M24,2C11.85,2,2,11.85,2,24s9.85,22,22,22s22-9.85,22-22S36.15,2,24,2z M38.447,21.895l-1.105,0.553l0.553,1.105    c0.247,0.494,0.047,1.095-0.447,1.342C37.304,24.966,37.151,25,37.001,25c-0.367,0-0.72-0.202-0.896-0.553l-0.553-1.105    l-2.211,1.105l0.553,1.105c0.247,0.494,0.047,1.095-0.447,1.342C33.304,26.966,33.151,27,33.001,27    c-0.367,0-0.72-0.202-0.896-0.553l-0.553-1.105l-4.211,2.105l0.553,1.105c0.247,0.494,0.047,1.095-0.447,1.342    C27.304,29.966,27.151,30,27.001,30c-0.367,0-0.72-0.202-0.896-0.553l-0.553-1.105l-2.211,1.105l0.553,1.105    c0.247,0.494,0.047,1.095-0.447,1.342C23.304,31.966,23.151,32,23.001,32c-0.367,0-0.72-0.202-0.896-0.553l-0.553-1.105    l-2.211,1.105l0.553,1.105c0.247,0.494,0.047,1.095-0.447,1.342C19.304,33.966,19.151,34,19.001,34    c-0.367,0-0.72-0.202-0.896-0.553l-0.553-1.105l-2.211,1.105l0.553,1.105c0.247,0.494,0.047,1.095-0.447,1.342    C15.304,35.966,15.151,36,15.001,36c-0.367,0-0.72-0.202-0.896-0.553l-0.553-1.105l-3.105,1.553C10.306,35.965,10.153,36,10,36    c-0.183,0-0.365-0.05-0.526-0.149C9.18,35.668,9,35.347,9,35c0-3.093,1.163-8.876,8.825-13.363    c-0.072-1.708,0.21-6.07,4.607-8.489c0.307-0.169,0.681-0.165,0.983,0.01c0.303,0.176,0.492,0.497,0.499,0.847l0.035,1.886    l0.364-0.604c0.278-0.461,0.873-0.619,1.343-0.357c0.021,0.012,2.151,1.181,4.141,1.181c1.173,0,2.783-0.337,3.214-3.257    C33.083,12.364,33.504,12,34,12c0.145,0,1.45,0.036,2.707,1.292C38.229,14.814,39,17.407,39,21    C39,21.379,38.786,21.725,38.447,21.895z"/><path d="M34.75,14.278c-0.936,3.304-3.446,3.833-4.954,3.833c-1.645,0-3.277-0.586-4.242-1.01l-1.686,2.796    c-0.229,0.382-0.683,0.566-1.116,0.45c-0.43-0.115-0.732-0.502-0.741-0.947l-0.063-3.455c-2.584,2.432-2.11,5.926-2.085,6.096    c0.061,0.412-0.14,0.821-0.504,1.023c-5.968,3.307-7.771,7.386-8.225,10.25l2.418-1.209l4-2l4-2c0,0,0,0,0,0h0l3.999-2    c0,0,0,0,0,0h0l5.999-3l0,0c0,0,0,0,0.001,0l3.998-2c0,0,0,0,0.001,0s0.001,0,0.001,0l1.438-0.719    c-0.095-3.365-0.963-4.943-1.699-5.679C35.104,14.519,34.919,14.38,34.75,14.278z"/></g></g><g id="Layer_3"/><g id="Layer_4"/><g id="Layer_5"/><g id="Layer_6"/><g id="Layer_7"/><g id="Layer_8"/><g id="Layer_9"/><g id="Layer_10"/><g id="Layer_11"/><g id="Layer_12"/><g id="Layer_13"/><g id="Layer_14"/><g id="Layer_15"/><g id="Layer_16"/><g id="Layer_17"/><g id="Layer_18"/><g id="Layer_19"/><g id="Layer_20"/><g id="Layer_21"/><g id="Layer_22"/><g id="Layer_23"/><g id="Layer_24"/><g id="Layer_25"/><g id="Layer_26"/><g id="Layer_27"/><g id="Layer_28"/><g id="Layer_29"/><g id="Layer_30"/><g id="Layer_31"/><g id="Layer_32"/><g id="Layer_33"/><g id="Layer_34"/><g id="Layer_35"/><g id="Layer_36"/><g id="Layer_37"/></svg>