<?xml version="1.0" encoding="UTF-8" standalone="no"?>
<!-- Created with Inkscape (http://www.inkscape.org/) -->
<svg xmlns:svg="http://www.w3.org/2000/svg" xmlns="http://www.w3.org/2000/svg" version="1.0" width="300" height="300" viewBox="0 0 300 300" id="svg2372">
  <defs id="defs2374">
    <clipPath id="clip0">
      <rect width="300" height="300" x="0" y="0" id="rect2377"/>
    </clipPath>
  </defs>
  <path d="M 77.369112 248.83089 A 23.210733 23.210733 0 1 1  30.947645,248.83089 A 23.210733 23.210733 0 1 1  77.369112 248.83089 z" transform="matrix(0.9886364,0,0,0.9886364,0.8791944,3.091382)" style="fill:#000000;fill-opacity:1;stroke:none;stroke-width:1.20000005;stroke-linejoin:round;stroke-miterlimit:4;stroke-dasharray:none;stroke-opacity:1" id="path2459"/>
  <path d="M 240.89927 49.253746 A 20.748989 20.748989 0 1 1  199.40129,49.253746 A 20.748989 20.748989 0 1 1  240.89927 49.253746 z" transform="matrix(1.0466102,0,0,1.0466102,-9.294128,-1.3286115)" style="fill:#000000;fill-opacity:1;stroke:none;stroke-width:1.20000005;stroke-linejoin:round;stroke-miterlimit:4;stroke-dasharray:none;stroke-opacity:1" id="path2457"/>
  <path d="M 71.952591,69.535355 C 99.630188,66.899155 127.34358,64.624847 155.05722,62.400864 C 161.83772,62.475113 168.80875,61.657944 175.43105,63.489883 C 179.66367,64.623398 183.96471,68.195526 183.78311,72.930222 C 183.35135,77.957443 178.23712,80.947937 173.73119,81.809174 C 154.46222,84.241852 135.13634,81.240433 115.94821,79.477707 C 98.954834,77.66011 81.965225,75.809906 64.97316,73.982254 C 61.766266,73.659637 58.546356,73.343369 55.41394,72.552383 C 60.567856,70.242233 66.423233,70.262054 71.952591,69.535355 z " style="fill:#000000;fill-rule:nonzero;stroke:none" id="path2390"/>
  <path d="M 231.05954,90.930222 C 230.20383,85.379623 235.91161,81.136398 240.9521,81.046143 C 248.09685,82.227966 253.43378,88.23941 256.58455,94.417664 C 260.10561,102.63289 263.4706,111.04109 264.80069,119.9313 C 265.60713,125.86606 264.26967,132.52286 259.66193,136.66923 C 251.36734,143.72247 240.48303,146.44234 230.01038,148.34204 C 221.36356,149.51332 212.68144,150.80186 203.94083,150.81776 C 204.23169,148.35075 206.94917,147.71063 208.83801,146.80713 C 222.00443,141.70161 235.33566,136.32971 246.55597,127.55562 C 247.51784,126.68266 249.18536,125.60098 248.47118,124.05971 C 246.97475,119.75147 243.9971,116.16022 241.80676,112.19615 C 237.88011,105.31168 232.65566,98.866821 231.05954,90.930222 z " style="fill:#000000;fill-rule:nonzero;stroke:none" id="path2394"/>
  <path d="M 152.45915,127.58325 C 156.84114,125.70528 162.27583,125.95561 166.11514,128.93398 C 168.40436,130.84198 168.30702,134.1861 167.58397,136.81462 C 164.72502,146.15944 158.66083,154.06639 152.32101,161.3331 C 146.32086,167.98451 140.12845,174.47362 133.54091,180.54753 C 130.13646,183.5439 126.57048,186.80013 121.95865,187.67256 C 117.78662,188.80638 113.17424,186.48781 111.41374,182.58562 C 110.78455,178.29491 112.41612,174.07857 114.28481,170.29965 C 117.91534,163.21736 122.6695,156.77574 127.60144,150.55573 C 134.79048,141.90382 142.23418,132.73241 152.45915,127.58325 z " style="fill:#000000;fill-rule:nonzero;stroke:none" id="path2402"/>
  <path d="M 176.13171,147.07903 C 181.22269,144.58766 188.23219,144.22145 192.53368,148.41737 C 195.4485,152.10414 194.50763,157.18581 193.14378,161.30208 C 190.29915,169.07929 185.75909,176.14986 180.6203,182.60054 C 152.58479,215.15742 120.36044,243.70268 89.390884,273.37237 C 88.586594,274.00583 87.75354,274.60155 86.891724,275.15953 C 88.747345,269.69728 92.182846,264.9946 94.990341,260.00951 C 114.42679,228.68663 134.08737,197.47058 155.35873,167.35233 C 161.46979,159.87856 167.2795,151.53224 176.13171,147.07903 z " style="fill:#000000;fill-rule:nonzero;stroke:none" id="path2406"/>
  <path d="M 47.901276,83.858322 C 51.061188,81.480164 55.807449,84.318573 55.566101,88.199799 C 55.910934,110.66391 55.352142,133.15332 55.835098,155.61658 C 72.91246,155.66289 89.991882,155.57292 107.0683,155.645 C 110.62476,155.15201 114.02151,158.98338 112.50214,162.37373 C 111.69434,164.69293 109.19101,165.58063 106.93201,165.59338 C 89.387711,165.80364 71.827835,165.36003 54.289154,165.79954 C 36.205872,197.13809 18.152664,228.49524 0,259.79387 L 0,239.73441 C 14.198166,215.31651 28.224152,190.79835 42.410538,166.37366 C 43.83403,163.74991 45.986786,161.20003 45.672913,158.02245 C 45.629227,135.32912 45.679459,112.63509 45.638611,89.941956 C 45.555405,87.706024 45.859818,85.193848 47.901276,83.858322 z " style="fill:#000000;fill-rule:nonzero;stroke:none" id="path2398"/>
  <path d="M 199.06381,160.96114 C 198.65028,157.73242 201.9463,155.44167 204.93013,155.66037 C 236.61762,155.56914 268.31018,155.65312 300,155.62203 L 300,165.62441 C 268.32221,165.62219 236.64348,165.64218 204.9669,165.61751 C 202.18245,165.91339 199.16081,163.90146 199.06381,160.96114 z " style="fill:#000000;fill-rule:nonzero;stroke:none" id="path2410"/>
  <path d="M 176.13171,147.07903 C 181.22269,144.58766 188.23219,144.22145 192.53368,148.41737 C 195.4485,152.10414 194.50763,157.18581 193.14378,161.30208 C 190.29915,169.07929 185.75909,176.14986 180.6203,182.60054 C 152.58479,215.15742 120.36044,243.70268 89.390884,273.37237 C 88.586594,274.00583 87.75354,274.60155 86.891724,275.15953 C 88.747345,269.69728 92.182846,264.9946 94.990341,260.00951 C 114.42679,228.68663 134.08737,197.47058 155.35873,167.35233 C 161.46979,159.87856 167.2795,151.53224 176.13171,147.07903 z " style="fill:none;stroke:#000000;stroke-width:0.1;stroke-linecap:butt;stroke-linejoin:miter;stroke-miterlimit:10" id="path2404"/>
</svg>