<?xml version="1.0" ?><!DOCTYPE svg  PUBLIC '-//W3C//DTD SVG 1.1//EN'  'http://www.w3.org/Graphics/SVG/1.1/DTD/svg11.dtd'><svg enable-background="new 0 0 633.48 633.48" height="633.48px" id="Layer_1" version="1.1" viewBox="0 0 633.48 633.48" width="633.48px" xml:space="preserve" xmlns="http://www.w3.org/2000/svg" xmlns:xlink="http://www.w3.org/1999/xlink"><g><g><path d="M317.48,19h-0.071c4.238,0,8.559,0.023,12.848,0.186c47.432,2.739,93.256,16.333,136.22,40.472    c62.841,36.933,107.911,91.172,130.37,156.921c7.137,24.287,13.646,48.002,15.131,71.219l0.02,0.297l0.027,0.299    c1.07,11.359,1.49,22.945,1.25,34.437l-0.006,0.287l0.003,0.288c0.284,37.211-7.385,74.045-22.789,109.477    c-14.866,34.188-36.122,65.349-63.184,92.616c-27.121,27.327-59.679,49.817-94.161,65.036    c-36.167,15.966-73.793,24.062-111.834,24.062c-8.451,0-16.993-0.413-25.393-1.229c-5.441-0.608-11.042-1.519-16.967-2.482    c-7.165-1.163-14.568-2.366-22.611-3.2c-22.121-3.996-41.946-11.927-62.926-20.316c-12.164-4.867-23.791-11.106-36.586-19.637    c-38.144-25.43-64.422-51.264-87.84-86.364c-15.361-23.753-25.732-44.872-33.609-68.425    c-11.312-37.238-16.056-67.488-14.899-95.181l0.008-0.419v-0.419c0-3.848-0.086-7.632-0.178-11.292    c-0.248-9.942-0.479-19.33,1.239-27.915l0.036-0.174l0.035-0.173c0.756-4.174,1.415-8.309,2.053-12.306    c1.786-11.226,3.472-21.83,7.128-31.885l0.095-0.256l0.085-0.257c4.281-12.842,8.323-24.972,13.657-36.971    c17.863-39.848,42.411-73.236,75.039-102.054c3.95-3.081,7.749-6.142,11.428-9.104c8.235-6.633,16.016-12.898,24.173-18.346    c22.882-14.793,45.526-25.469,71.248-33.592l0.036-0.011l0.038,0.168c28.395-9.086,58.786-13.635,90.655-13.635 M317.409-1.256    c-32.779,0-65.42,4.561-96.957,14.652c-27.331,8.631-51.785,20.139-76.24,35.963c-12.947,8.632-24.455,18.701-37.401,28.771    c-35.964,31.647-61.856,67.61-80.558,109.328c-5.754,12.947-10.069,25.893-14.385,38.84c-5.754,15.824-7.192,31.648-10.07,47.472    c-2.876,14.384-1.438,28.77-1.438,43.155c-1.438,34.525,5.754,69.049,15.823,102.135c8.631,25.894,20.14,48.909,35.964,73.364    c25.893,38.84,54.663,66.172,93.502,92.065c12.947,8.631,25.895,15.824,40.28,21.578c21.577,8.632,43.155,17.263,67.61,21.577    c14.385,1.439,27.331,4.316,40.277,5.755c9.215,0.898,18.367,1.337,27.486,1.337c166.059,0,313.374-145.665,312.105-311.484    c0.26-12.399-0.195-24.662-1.334-36.748c-1.644-25.682-8.835-51.576-16.028-76.031c-24.454-71.926-73.364-129.467-139.536-168.307    C430.478,16.273,381.567,1.888,331.22-0.989C326.614-1.166,322.012-1.256,317.409-1.256L317.409-1.256z"/></g><g><path d="M554.19,119.847c2.877,11.508,12.947,20.139,24.455,20.139c0.829-0.138,1.588-0.361,2.314-0.626    c-2.521-3.765-5.125-7.469-7.812-11.112C566.306,130.597,558.003,127.472,554.19,119.847z"/><path d="M587.276,204.72c8.633-2.877,11.51-11.508,10.203-20.53c-1.193-10.648-8.054-20.333-16.175-23.917    c8.849,8.484,11.726,22.87,3.095,31.5c-6.607,3.965-16.838,0.633-19.574-6.627C568.154,195.943,576.438,206.074,587.276,204.72z"/><path d="M564.825,185.146c-0.207-0.667-0.398-1.336-0.564-2.004C564.377,183.843,564.581,184.504,564.825,185.146z"/><path d="M630.346,270.306c-0.236-1.622-0.488-3.244-0.756-4.864c-0.94-0.612-1.921-1.123-2.937-1.496    C628.181,265.799,629.418,267.969,630.346,270.306z"/><path d="M623.24,298.224c-5.754,2.877-12.947-1.438-15.824-7.192c0,5.754,4.316,11.508,7.192,15.824    c5.872,5.872,13.66,4.069,18.672-1.488c-0.219-6.33-0.617-12.621-1.205-18.863c-0.025-0.415-0.066-0.831-0.094-1.244    C631.03,290.824,628.215,295.735,623.24,298.224z"/><path d="M604.539,223.42c0,4.315,2.877,5.754,4.315,10.069c2.643,6.167,9.597,9.626,15.916,8.748    c-0.903-3.696-1.855-7.376-2.84-11.037c-2.073,0.839-3.48,0.85-5.884,0.85C610.293,230.613,607.416,227.736,604.539,223.42z"/><path d="M588.79,226.96c3.768,4.109,6.43,10.234,6.826,16.912c0.678,11.332-5.268,20.21-13.249,19.711    c-4.701-0.292-9.11-3.914-12.097-9.299c2.334,11.252,9.419,19.881,17.325,20.225c9.212,0.4,16.198-10.013,15.527-23.129    C602.546,240.131,596.413,230.231,588.79,226.96z"/><path d="M591.815,297.492c3.406,3.839,5.566,9.865,5.436,16.642c-0.22,11.509-6.902,21.179-14.884,21.677    c-4.701,0.293-8.81-2.785-11.319-7.844c1.324,11.053,7.705,18.748,15.66,18.127c9.27-0.725,17.113-11.936,17.438-25.177    C604.422,309.557,599.093,300.024,591.815,297.492z"/><path d="M626.786,331.299c2.207,2.888,3.646,5.765,5.084,10.08c1.439,12.947-4.315,28.771-20.138,25.894    c-2.878-1.438-4.316-4.315-5.755-7.192c0,5.754,2.877,10.069,7.192,14.385c4.906,4.906,10.854,2.488,16.069-1.004    c2.162-12.473,3.496-25.143,3.963-37.954C631.38,333.469,629.202,331.995,626.786,331.299z"/><path d="M589.131,368.156c3.181,3.34,4.944,8.934,4.341,15.439c-1.023,11.048-8.555,20.865-16.825,22.147    c-4.872,0.757-8.892-1.677-11.106-6.126c0.582,10.149,6.67,16.633,14.954,15.304c9.653-1.546,18.447-12.835,19.63-25.544    C601.137,378.473,596.364,369.798,589.131,368.156z"/><path d="M623.733,398.484c0.068-0.253,0.139-0.507,0.205-0.762c-0.324-0.095-0.651-0.193-0.986-0.262    C623.24,397.785,623.476,398.144,623.733,398.484z"/><path d="M600.224,426.252c0,4.315,1.438,8.631,2.877,11.508c1.824,1.825,3.715,3.002,5.627,3.646    c1.285-2.939,2.523-5.9,3.715-8.882C607.892,433.281,601.448,432.383,600.224,426.252z"/><path d="M581.849,435.146c3.182,2.85,4.812,7.898,3.973,13.943c-1.425,10.26-9.595,19.658-18.315,21.242    c-5.137,0.933-9.281-1.041-11.47-4.908c0.35,9.079,6.609,14.641,15.373,13.098c10.213-1.795,19.709-12.586,21.283-24.46    C594.042,443.877,589.35,436.131,581.849,435.146z"/><path d="M545.844,525.157c0.21,2.856,1.148,5.345,2.646,7.354c0.99-1.058,1.967-2.127,2.941-3.197    C549.081,528.531,547.152,527.108,545.844,525.157z"/><path d="M575.293,499.896c0.444-0.617,0.891-1.232,1.329-1.852c-1.199-0.508-2.498-0.854-3.889-0.993    C573.742,497.818,574.591,498.789,575.293,499.896z"/><path d="M469.073,54.69c-6.073-0.995-12.025-4.312-16.207-8.61c3.81,8.458,13.782,16.023,24.021,17.778    c9.878,1.692,16.885-2.729,17.939-10.164c-3.391-2.284-6.842-4.505-10.336-6.682C483.073,52.715,477.155,56.014,469.073,54.69z"/><path d="M398.831,14.834c8.631,12.947,27.332,21.578,41.717,11.508c0.446-0.447,0.803-0.896,1.121-1.35    c-4.453-1.896-8.932-3.66-13.428-5.352c-2.295,1.494-5.062,2.386-7.832,2.386C411.776,22.027,404.585,19.15,398.831,14.834z"/><path d="M552.751,158.687c2.877-4.315,1.439-8.631,1.411-13.508c-1.689-10.43-9.398-20.155-18.317-24.031    c5.399,5.892,9.715,11.646,9.715,20.277c0,7.193-5.755,12.947-14.386,11.508c-7.192-1.438-10.069-5.754-14.384-10.07    C521.104,155.81,539.805,173.072,552.751,158.687z"/><path d="M441.986,104.023c10.069,7.193,15.823,25.894,1.438,31.647c-7.191,1.438-12.946-1.438-20.138-2.877    c-2.877-1.438-5.756-4.315-7.193-7.193c5.754,15.824,24.455,25.894,40.278,20.139c2.877-1.438,5.754-4.315,7.192-8.631    c0-2.877,0-5.754,0.137-8.982c-1.748-10.026-10.033-19.285-20.104-23.574C443.424,104.023,441.986,104.023,441.986,104.023z"/><path d="M525.42,91.077c-7.192,0-15.823-2.877-20.138-10.07c4.314,12.947,17.261,23.016,30.208,20.139    c4.163-0.833,6.392-4.08,7.454-7.964c-3.02-3.011-6.104-5.965-9.256-8.863C532.354,87.707,529.556,90.387,525.42,91.077z"/><path d="M488.358,122.699c12.04,2.257,19.59-5.568,17.354-17.055c-1.919-9.856-10.405-19.15-20.239-22.943    c5.041,3.922,8.864,9.425,9.996,15.157c1.918,9.729-4.728,16.266-15.174,14.336c-6.159-1.139-12.311-4.966-16.712-9.921    C467.711,112.033,478.032,120.763,488.358,122.699z"/><path d="M441.986,83.884c5.754-1.438,14.385-8.631,10.547-15.797c-1.583-8.364-9.448-16.303-19.063-19.969    c-0.115-0.197-1.553-0.197-1.553-0.197c4.315,4.315,8.631,7.192,10.069,12.947c2.877,8.63-5.754,14.385-12.946,14.385    c-8.631,0-15.824-2.878-23.018-8.631C413.216,78.13,427.601,85.322,441.986,83.884z"/><path d="M507.135,161.853c1.79,11.32-4.998,19.417-15.472,17.741c-6.174-0.988-12.33-5.249-16.717-11    c3.988,11.562,14.192,21.413,24.485,22.984c11.999,1.833,19.743-7.847,17.731-21.112c-1.727-11.381-10.105-21.876-19.924-26.01    C502.283,148.89,506.082,155.185,507.135,161.853z"/><path d="M548.437,299.662c-7.192,2.877-12.946-4.315-17.263-8.631c2.877,10.069,11.509,23.016,23.017,18.701    c10.07-2.877,14.385-14.385,13.574-24.569c-0.205-12.127-6.424-22.607-14.525-25.824    C564.261,269.453,562.821,292.47,548.437,299.662z"/><path d="M461.996,253.594c-1.31,0.036-1.31-1.403-2.748-1.403c15.823,11.508,12.946,35.963-2.877,46.033    c-4.315,2.877-8.631,1.438-12.947,1.438c-7.191-1.438-11.507-5.754-14.384-11.509c1.438,15.824,15.823,27.333,31.646,24.456    c7.193-1.438,13.396-6.15,16.4-13.292c2.547-6.062,2.957-10.251,2.808-16.527C479.626,269.575,472.165,258.072,461.996,253.594z"/><path d="M546.396,186.613c7.794,9.475,14.985,31.053-2.275,36.807c-7.193,1.438-12.947-4.315-17.262-10.07    c2.877,14.385,21.577,30.209,33.085,15.824c4.316-5.754,2.877-11.508,3.398-16.856    C562.081,200.887,554.935,190.458,546.396,186.613z"/><path d="M499.313,257.957c-6.127-0.411-12.002-4.632-16-10.852c3.117,12.968,12.572,23.002,22.766,23.494    c11.885,0.574,20.439-11.21,19.42-26.058c-0.873-12.737-8.557-24.035-18.118-27.951c4.787,4.716,8.191,11.668,8.774,19.226    C517.145,248.645,509.708,258.653,499.313,257.957z"/><path d="M424.724,200.404c4.316,18.701,27.332,33.085,43.156,20.139c5.754-5.754,8.631-12.947,6.417-20.882    c-1.427-11.813-9.663-22.595-19.981-27.336c-0.821-0.691-0.821-0.691-2.26-0.691c10.069,7.192,14.385,18.701,10.069,30.209    C454.933,217.666,433.354,213.351,424.724,200.404z"/><path d="M499.313,341.438c-6.127,0.41-11.605-3.085-14.984-8.908c1.797,12.737,10.278,21.467,20.496,20.589    c11.91-1.023,21.738-13.96,22.23-29.109c0.422-12.997-6.146-23.936-15.349-26.861c4.335,4.432,7.048,11.37,6.854,19.167    C518.235,329.549,509.708,340.742,499.313,341.438z"/><path d="M528.297,368.711c1.439,5.754,2.877,11.509,8.631,15.824c12.946,7.192,21.579-5.754,27.333-15.824    c1.438-2.877,1.438-7.193,1.564-9.643c0.781-11.9-4.514-21.541-12.361-23.68c9.357,11.744,6.48,29.007-5.027,37.638    c-2.877,1.438-7.192,4.315-11.509,2.877C534.051,374.465,529.736,373.026,528.297,368.711z"/><path d="M477.345,413.471c0.865,10.992,8.73,17.779,19.049,16.026c12.027-2.045,22.888-14.598,24.629-28.522    c1.494-11.944-4.15-21.377-13.163-22.964c3.955,3.626,6.06,9.779,5.2,16.958c-1.46,12.184-10.923,23.154-21.396,24.832    C485.489,420.79,480.278,418.263,477.345,413.471z"/><path d="M447.74,387.412c-2.877,1.438-7.192,0-10.069,0c-5.754-1.438-8.631-4.315-11.508-8.631    c0,21.578,25.893,25.893,38.839,14.385c7.192-7.192,11.509-14.385,12.374-24.887c0.934-12.732-5.402-23.217-15.183-26.5    c-0.068-0.4-1.507-0.4-1.507-0.4c11.508,11.508,8.631,28.771-1.438,38.841C456.371,383.097,452.056,385.974,447.74,387.412z"/><path d="M536.538,474.423c3.395,2.547,5.025,7.282,3.976,13.075c-1.782,9.838-10.759,19.09-20.251,20.906    c-5.593,1.072-10.128-0.635-12.531-4.186c0.354,7.959,6.383,12.857,15.001,11.963c0.574-0.059,1.157-0.143,1.744-0.252    c10.944-2.03,21.276-12.658,23.28-24.055C549.477,482.098,544.663,474.943,536.538,474.423z"/><path d="M444.095,491.998c-0.671,0.426-2.108,0.426-2.108,0.426c2.877,1.439,4.314,2.877,5.754,4.316    c2.877,12.946-7.192,23.016-18.7,27.332c-2.877,1.438-7.193,1.438-10.07,1.438c-4.314-1.438-7.193-2.877-10.07-5.754    c2.877,14.385,18.701,15.824,30.21,10.07c5.754-2.877,11.508-7.193,14.385-12.947c1.438-2.877,1.438-5.754,3.3-7.944    C458.493,499.994,453.178,493.243,444.095,491.998z"/><path d="M546.966,408.477c11.541,12.021,0.032,29.283-11.476,36.477c-5.754,2.877-12.947,2.877-15.823-4.316    c-1.439,7.193,2.876,11.509,7.192,14.386c7.191,2.877,15.823-1.438,21.577-7.192c4.314-5.754,8.631-11.508,9.677-18.998    C559.644,417.885,554.853,409.576,546.966,408.477z"/><path d="M497.954,450.791c3.799,2.797,5.635,7.918,4.502,14.113c-1.923,10.52-11.713,20.367-22.16,22.299    c-6.159,1.139-11.242-0.717-14.008-4.547c0.604,9.071,8.242,14.395,18.553,12.468c12.021-2.246,23.234-13.524,25.471-25.619    C512.228,459.127,506.951,451.424,497.954,450.791z"/><path d="M417.53,457.899c4.316,17.263,27.333,18.7,37.402,8.631c2.877-4.315,8.631-5.754,10.069-11.508    c1.438-2.877,1.438-7.192,3.12-10.08c1.66-10.903-3.93-19.359-13.35-21.34c0.16-0.228-1.278-0.228-1.278-0.228    c11.508,11.508,2.877,31.647-10.07,37.401c-4.314,1.438-8.63,4.315-14.384,2.877C424.724,462.215,420.409,462.215,417.53,457.899z    "/><path d="M486.183,513.135c3.803,2.293,5.665,6.657,4.602,12.055c-1.808,9.162-11.406,17.828-21.711,19.516    c-6.073,0.994-11.1-0.604-13.875-3.888c0.771,7.818,8.402,12.499,18.605,10.866c11.898-1.907,22.906-11.909,24.977-22.561    C500.558,519.982,495.202,513.436,486.183,513.135z"/><path d="M525.694,533.354c5.676,5.421,4.84,13.795,1.015,20.414c3.8-3.387,7.525-6.857,11.167-10.414    C536.581,537.577,532.034,533.736,525.694,533.354z"/><path d="M496.649,560.035c0.998,5.985,4.42,9.545,8.821,11.168c3.333-2.512,6.607-5.099,9.844-7.732    c-2.99,0.857-6.187,0.879-10.032,0.879C502.403,564.35,499.526,561.473,496.649,560.035z"/><path d="M475.722,567.924c13.736,9.373-2.088,29.513-15.035,29.513c-5.754,0-10.069,1.438-14.386-4.316    c1.702,4.685,4.799,7.719,8.567,9.423c11.894-5.936,23.411-12.611,34.486-19.961C490.131,574.305,484.495,568.408,475.722,567.924    z"/><path d="M433.893,548.848c-0.538-0.321-1.976-0.321-1.976-0.321c5.754,1.438,5.754,5.754,5.754,11.509    c-1.438,11.508-11.508,15.824-21.578,17.262c-5.754,0-11.508,0-15.824-4.316c4.316,14.386,21.578,12.947,31.648,8.632    c7.192-4.315,11.507-10.069,14.648-17.854C447.979,555.793,442.665,549.922,433.893,548.848z"/><path d="M425.935,599.637c-0.377-0.28-0.771-0.543-1.211-0.762C424.724,598.875,426.12,600.27,425.935,599.637z"/><path d="M396.016,624.861c0.563-0.152,1.133-0.293,1.698-0.445c-1.129-0.707-2.205-1.531-3.199-2.525    C394.956,622.951,395.458,623.939,396.016,624.861z"/><path d="M425.934,599.621c0.003,0.008-0.001,0.008,0.001,0.016c2.096,1.562,3.324,3.992,4.543,6.431    c0.352,2.806-0.079,5.437-1.057,7.836c3.158-1.241,6.291-2.553,9.406-3.896C437.516,604.578,432.679,600.679,425.934,599.621z"/><path d="M374.722,50.632c13.854,1.091,23.734-5.829,22.427-15.438c-1.122-8.242-9.749-15.669-20.423-18.219    c5.188,2.996,8.84,7.438,9.419,12.227c0.983,8.126-7.621,14.038-19.424,13.211c-6.955-0.486-13.36-3.148-17.532-6.892    C352.317,43.305,362.839,49.695,374.722,50.632z"/><path d="M392.979,82.246c1.249,9.439-7.929,16.4-20.785,15.38c-7.577-0.603-14.617-3.801-19.229-8.271    c3.513,9.305,15.103,17.038,28.021,18.165c15.061,1.312,25.554-6.956,23.922-18.173c-1.399-9.621-10.831-18.197-22.359-21.234    C388.202,71.572,392.243,76.686,392.979,82.246z"/><path d="M395.952,160.125c-11.508,10.07-28.77,7.193-38.839-4.315c7.191,23.017,40.278,33.086,54.663,11.509    c2.879-4.315,1.439-8.632,1.959-12.379c-1.424-11.968-11.568-22.43-24.039-26.058    C400.269,137.109,406.022,152.933,395.952,160.125z"/><path d="M368.621,247.875c-2.877-1.438-4.316-4.315-7.192-7.192c4.315,18.701,25.893,31.648,44.594,23.016    c6.395-3.195,9.309-7.174,12.947-12.947c2.357-3.536,3.4-9.428,2.094-14.703c-0.855-14.438-11.162-26.874-24.36-30.84    c10.759,9.58,15.073,25.404,6.442,38.351C394.515,255.068,380.129,253.63,368.621,247.875z"/><path d="M400.103,296.751c6.261,5.13,10.212,13.181,10.047,22.202c-0.141,7.654-3.199,14.65-8.064,19.795    c-4.867,5.145-11.553,8.443-18.953,8.686c-8.721,0.287-16.576-3.849-21.531-10.527c3.041,14.402,15.383,24.564,29.944,23.924    c8.487-0.374,16.126-4.23,21.692-10.162c5.567-5.932,9.096-13.954,9.316-22.737C422.932,312.86,413.4,300.134,400.103,296.751z"/><path d="M358.375,425.393c2.475,11.738,13.745,19.603,27.466,18.508c8-0.639,15.407-4.174,21.004-9.418    c5.596-5.244,9.416-12.23,10.164-19.82c1.285-13.022-7.166-23.654-19.945-25.767c5.787,4.187,9.128,11.075,8.443,18.878    c-1.161,13.242-13.18,24.508-27.162,25.523C370.107,433.896,362.847,430.757,358.375,425.393z"/><path d="M379.006,510c14.686-1.265,27.628-11.822,29.321-23.92c1.453-10.381-6.236-18.562-18.167-19.788    c5.312,3.14,8.278,8.509,7.497,14.724c-1.326,10.547-12.606,19.734-25.463,20.756c-7.577,0.602-14.186-1.771-18.231-5.917    C356.158,505.017,366.409,511.086,379.006,510z"/><path d="M382.96,527.876c4.918,2.49,7.693,6.833,7.023,11.944c-1.134,8.682-11.46,16.335-23.263,17.162    c-6.955,0.486-13.015-1.499-16.73-4.936c2.067,7.615,11.511,12.756,23.122,11.893c13.535-1.002,25.421-9.897,26.864-19.95    C401.212,535.365,394.007,528.761,382.96,527.876z"/><path d="M377.038,579.412c4.629,2.256,7.319,6.16,6.831,10.803c-0.832,7.883-10.296,14.821-21.286,15.396    c-6.475,0.34-12.135-1.595-15.627-4.818c2.036,7.117,10.922,12.137,21.785,11.553c12.666-0.682,23.594-8.855,24.639-18.09    C394.276,586.331,387.348,580.323,377.038,579.412z"/><path d="M375.624,629.539c0.919-0.176,1.831-0.377,2.746-0.562c-1.691-0.637-3.528-1.102-5.49-1.35    C373.896,628.18,374.805,628.824,375.624,629.539z"/><path d="M306.765,16.273c-4.316-1.438-8.631-1.438-11.508-5.754c7.191,14.385,31.646,17.262,43.156,7.192    c1.438-2.877,5.754-5.754,4.162-10.408c-0.135-2.763-1.26-5.384-3.11-7.703c-2.447-0.201-4.899-0.379-7.354-0.525    c0.346,0.815,0.549,1.738,0.549,2.812C331.22,14.834,316.835,17.711,306.765,16.273z"/><path d="M263.134,49.627c14.043-0.828,25.877-9.082,26.248-18.457c0.318-8.042-7.458-14.378-18.069-15.659    c4.83,2.377,7.845,6.368,7.575,11.075c-0.458,7.989-10.544,15.066-22.393,15.827c-6.979,0.45-12.846-1.406-16.262-4.683    C241.849,45.266,251.087,50.338,263.134,49.627z"/><path d="M317.7,137.6c0.871,0.06,1.756,0.1,2.645,0.117c16.6,0.323,29.346-9.888,28.613-22.303    c-0.627-10.651-10.346-19.43-22.813-21.9c5.894,3.388,9.858,8.736,10.104,14.885c0.421,10.435-10.588,19.04-24.643,18.99    c-8.283-0.028-15.557-3.037-20.02-7.688C294.155,129.266,304.615,136.678,317.7,137.6z"/><path d="M334.097,72.375c4.316-1.438,7.193-5.753,10.07-8.63c1.438-1.438,1.438-4.315,1.208-6.885    c-0.516-8.502-9.296-15.759-20.595-17.806c15.071,8.867,7.879,27.568-7.945,27.568c-8.631,0-17.264,1.438-23.018-5.754    C301.011,75.253,321.149,78.13,334.097,72.375z"/><path d="M258.202,106.306c15.381-1.005,28.471-10.992,28.945-22.054c0.411-9.488-8.033-16.724-19.58-18.091    c5.226,2.658,8.463,7.214,8.115,12.718c-0.593,9.339-11.729,17.804-24.66,18.747c-7.619,0.556-13.947-1.633-17.576-5.496    C235.056,101.071,245.007,107.168,258.202,106.306z"/><path d="M262.906,126.654c12.211,9.016,10.772,23.401,0.703,32.032c-8.631,7.193-17.263,10.07-27.333,7.193    c-2.875-1.439-7.191-2.877-10.068-7.193c4.314,23.017,34.524,23.017,48.909,10.07c4.315-5.754,8.631-11.509,9.384-19.224    C284.942,137.542,275.621,128.415,262.906,126.654z"/><path d="M305.325,299.662c-7.191-1.438-12.945-5.754-17.262-11.509c4.316,20.14,28.771,33.087,48.91,23.017    c4.316-2.877,8.632-5.754,11.509-10.07c4.315-5.754,7.2-13.216,7.391-20.969c0-7.192-1.637-14.995-8.313-20.525    c-4.647-5.745-11.131-9.945-18.538-11.72c10.83,7.182,15.146,23.004,9.392,34.513    C332.659,295.347,319.712,302.539,305.325,299.662z"/><path d="M289.856,195.74c-0.113-0.365-0.253-0.718-0.354-1.09C289.601,195.041,289.722,195.4,289.856,195.74z"/><path d="M326.903,217.666c10.07-2.877,18.702-7.192,23.018-15.823c1.438-4.316,4.315-8.631,2.836-12.862    c-0.584-13.327-11.247-24.461-25.034-27.54c10.69,7.316,15.005,20.263,7.813,31.771c-7.193,11.508-23.018,15.824-34.525,10.07    c-4.023-2.682-9.292-2.869-11.154-7.541C294.595,210.923,310.048,220.476,326.903,217.666z"/><path d="M240.081,251.962c-8.793,0.273-16.211-3.687-20.648-9.978c2.539,13.868,14.404,24.137,29.547,23.822    c8.824-0.183,17.043-4.026,23.098-10.056c6.052-6.031,9.898-14.207,10.066-22.974c0.291-15.04-10.021-26.829-23.922-29.369    c6.316,4.406,10.299,11.775,10.037,20.512c-0.225,7.417-3.527,14.311-8.653,19.413    C254.48,248.433,247.546,251.729,240.081,251.962z"/><path d="M265.048,358.641c5.755-2.877,10.069-8.631,12.946-14.385c1.438-4.315,4.315-10.069,4.315-14.385    c-1.438-7.193-2.877-15.824-8.162-21.436c-4.607-5.79-11.011-10.019-18.283-11.754c16.376,13.051,13.499,40.382-5.201,49.014    c-5.754,2.877-10.07,1.438-15.824,1.438c-7.193-1.438-12.947-5.754-15.824-11.508    C223.331,355.764,246.347,368.711,265.048,358.641z"/><path d="M331.22,406.113c7.193-2.877,14.386-7.193,18.701-15.824c2.877-5.754,4.315-11.508,4.315-18.701    c0-5.754-4.315-10.07-7.007-14.955c-4.437-5.437-10.78-9.412-18.158-11.027c12.219,10.158,15.096,25.982,6.465,37.491    c-4.316,5.754-11.508,10.069-18.701,11.508c-5.756,0-11.51,1.438-15.824-1.438c-4.316-2.877-8.631-4.315-11.509-8.631    C295.257,401.797,313.958,411.867,331.22,406.113z"/><path d="M270.803,442.076c2.876-1.439,7.191-4.316,8.63-7.193c2.266-3.533,3.897-9.103,4.043-15.343    c-0.409-13.274-11.326-25.286-25.5-28.911c11.388,6.854,15.703,21.238,8.511,32.746c-10.069,15.824-31.647,11.508-43.155,0    C231.962,440.637,252.101,450.707,270.803,442.076z"/><path d="M316.937,540.699c0.764,0.045,1.535,0.064,2.316,0.05c14.54-0.269,26.787-9.001,27.455-19.771    c0.573-9.24-8.122-17.008-20.469-18.833c5.702,3.134,9.221,8.116,8.99,13.638c-0.393,9.373-10.948,16.91-23.62,16.953    c-7.47,0.025-14.163-2.58-18.495-6.603C295.952,534.041,305.475,540.008,316.937,540.699z"/><path d="M336.974,478.039c7.193-4.315,12.947-11.509,13.501-20.515c0.632-11.935-8.99-21.935-22.656-24.36    c17.787,10.35,9.155,33.366-6.669,37.683c-4.409,1.385-10.07,2.877-14.385,1.438c-5.754-1.438-11.508-2.877-15.824-8.632    C296.694,482.354,321.149,485.23,336.974,478.039z"/><path d="M286.142,491.427c-0.432-10.303-10.486-19.815-23.539-22.907c6.245,4.016,10.467,9.938,10.844,16.127    c0.639,10.504-9.492,18.066-22.424,17.123c-7.619-0.556-14.613-3.965-19.353-8.779c3.905,9.637,15.261,17.348,28.097,18.176    C274.726,512.131,286.646,503.436,286.142,491.427z"/><path d="M288.575,548.477c-0.354-8.439-9.433-16.103-21.273-18.625c5.666,3.24,9.479,8.015,9.791,13.059    c0.533,8.555-8.749,14.832-20.598,14.07c-6.979-0.448-13.388-3.285-17.713-7.292c3.492,8.052,13.863,14.524,25.615,15.177    C278.091,565.625,288.989,558.312,288.575,548.477z"/><path d="M324.854,557.23c3.488,1.365,6.365,4.242,7.805,7.119c2.877,14.386-14.387,21.578-25.895,18.701    c-4.316-1.438-8.631-1.438-11.508-5.754c7.191,17.263,28.771,17.263,43.156,7.192c2.877-2.877,4.314-7.192,5.152-11.18    C344.019,565.293,336.062,558.76,324.854,557.23z"/><path d="M271.11,580.907c5.166,2.812,8.609,7.013,8.837,11.571c0.387,7.736-8.303,13.664-19.313,13.133    c-6.487-0.312-12.407-2.852-16.347-6.5c3.044,7.467,12.591,13.418,23.53,13.861c12.748,0.516,22.928-6.498,22.633-15.478    C290.196,589.791,281.945,583.047,271.11,580.907z"/><path d="M341.315,620.905c0.303-7.749-7.147-13.998-17.502-15.488c3.09,2.089,5.969,3.526,7.406,6.403    c2.877,8.633-5.754,17.264-14.385,18.702c-7.193,1.438-15.824,0-21.578-5.755c2.37,3.951,5.611,7.135,9.299,9.448    c9.367,0.555,18.69,0.639,27.945,0.274c1.062-0.74,2.08-1.574,3.035-2.529C336.974,629.084,342.728,626.207,341.315,620.905z"/><path d="M277.152,630.997c1.823,0.296,3.634,0.585,5.438,0.864c-2.573-1.52-5.562-2.658-8.811-3.297    C275.024,629.279,276.151,630.098,277.152,630.997z"/><path d="M231.962,20.588c2.877-2.877,5.754-7.192,6.664-10.938c0.051-0.484,0.072-0.962,0.064-1.433    c-3.926,0.985-7.842,2.036-11.736,3.185c-4.895,7.957-16.969,11.7-26.641,10.625c-0.92,0-1.836-0.165-2.71-0.459    c-0.739,0.297-1.483,0.588-2.22,0.891C202.912,32.763,223.056,29.494,231.962,20.588z"/><path d="M159.028,61.74c12.242-1.998,23.941-11.765,25.658-21.645c0.811-4.658-0.712-8.564-3.811-11.231    c-1.731,0.818-3.454,1.658-5.171,2.51c0.401,1.472,0.493,3.095,0.183,4.851c-1.494,8.479-11.363,16.791-21.738,18.467    c-5.679,0.916-10.244-0.42-12.967-3.247c-0.161,0.113-0.326,0.222-0.484,0.335C141.841,59.079,148.978,63.38,159.028,61.74z"/><path d="M172.982,131.355c2.877,15.824,21.578,17.262,33.085,11.508c5.754-2.877,8.631-7.192,12.947-10.069    c4.316-4.315,4.316-8.631,5.672-13.668c1.338-10.65-6.2-18.172-17.272-18.965c1.53,0.986,4.407,2.424,5.847,5.301    c5.754,11.508-4.316,23.017-14.386,27.332c-5.754,2.877-11.508,2.877-17.262,2.877    C178.736,135.67,174.421,134.232,172.982,131.355z"/><path d="M214.698,79.568c5.754-2.877,10.07-7.193,14.387-11.509c2.877-2.876,4.316-5.753,3.356-7.998    c1.134-8.632-5.985-14.927-16.374-15.624c2.947,2.044,4.385,3.482,5.824,6.359c2.877,10.07-4.314,17.262-12.947,21.578    c-8.631,2.878-17.261,4.316-24.454-1.438C187.367,83.884,204.629,83.884,214.698,79.568z"/><path d="M147.745,120.349c12.498-2.231,24.785-13.619,26.869-24.971c1.787-9.741-4.395-16.347-14.07-16.699    c4.077,2.285,6.186,6.684,5.108,12.357c-1.829,9.63-12.167,19.232-22.727,21.157c-6.221,1.133-11.052-0.686-13.568-4.393    C129.757,116.753,137.022,122.262,147.745,120.349z"/><path d="M117.812,173.617c0.626,10.595,8.09,17.616,18.876,16.033c6.285-0.922,12.51-4.676,17.419-9.925    c4.911-5.25,8.495-11.977,9.5-18.835c1.724-11.767-4.657-19.903-14.568-20.568c4.161,2.833,6.327,8.166,5.276,14.974    c-1.783,11.556-12.135,22.619-22.756,24.298C125.302,180.585,120.411,178.138,117.812,173.617z"/><path d="M195.999,309.732c4.314-2.877,7.191-5.754,10.068-8.631c4.316-5.754,5.754-12.947,6.137-19.789    c0.261-15.308-8.928-27.514-21.306-30.106c16.608,12.493,9.415,42.702-10.723,48.456c-5.755,1.438-11.509,0-15.823-2.877    c-2.879-1.438-2.879-5.754-5.756-7.193C158.597,308.293,180.176,318.363,195.999,309.732z"/><path d="M177.298,211.912c-5.754-1.438-11.508-2.877-14.385-7.192c1.439,17.262,20.139,23.016,34.524,15.824    c5.753-2.877,8.63-7.193,12.946-10.07c2.877-5.754,7.193-11.508,6.386-18.181c1.188-13.131-7.01-22.855-18.802-24.238    C216.138,184.581,197.438,213.351,177.298,211.912z"/><path d="M135.581,253.63c-4.316,2.877-10.07,5.754-15.824,4.315c-5.755-1.438-7.192-4.315-10.069-8.632    c1.438,12.947,11.507,24.456,24.454,20.139c12.947-4.315,20.141-17.262,20.866-29.998c0.96-13.778-6.033-24.104-16.163-25.731    C149.966,224.859,147.089,243.56,135.581,253.63z"/><path d="M131.253,354.202c12.565,1.044,22.641-11.3,22.105-27.874c-0.46-14.217-8.568-26.228-18.966-29.276    c4.802,4.631,8.003,12.03,8.21,20.316c0.345,14.062-8.131,24.771-18.693,24.07c-6.223-0.415-11.713-4.504-15.259-10.469    C111.404,343.444,120.474,353.308,131.253,354.202z"/><path d="M207.507,394.604c4.314-5.754,8.631-11.508,6.8-20.767c-0.815-14.545-10.995-27.401-23.659-31.208    c13.981,10.257,15.42,33.273,1.036,43.344c-4.316,2.877-10.07,1.438-14.386,1.438c-7.191-1.438-12.945-5.754-15.824-11.509    C165.79,394.604,190.244,410.428,207.507,394.604z"/><path d="M139.753,431.641c12.587,2.049,21.744-7.689,19.957-22.374c-1.531-12.599-10.664-24.476-21.354-28.523    c5.236,4.874,9.098,12.044,9.979,19.502c1.493,12.658-6.154,21.235-16.775,19.556c-6.259-0.992-12.088-5.207-16.125-10.951    C119.159,420.303,128.955,429.885,139.753,431.641z"/><path d="M216.138,534.141c5.754-1.438,10.07-4.314,12.947-8.631c1.438-2.877,0-5.754,0.448-8.006    c-1.247-9.344-10.968-18.496-22.702-22.057c3.553,2.73,4.99,4.169,7.867,7.046c7.193,10.07,1.439,21.579-11.508,23.017    c-4.315,1.439-8.63-2.877-12.946-2.877c-4.314-1.438-5.754-4.315-8.631-7.192C187.367,528.387,201.753,537.018,216.138,534.141z"/><path d="M203.19,475.162c10.07-1.438,20.141-10.07,18.286-21.41c-1.321-11.879-11.641-23.089-24.062-27.117    c10.092,8.248,17.283,22.633,7.214,32.703c-10.068,8.631-25.893,4.315-34.522-7.192    C175.859,465.092,188.807,475.162,203.19,475.162z"/><path d="M170.282,479.863c-1.824-10.416-11.228-20.828-21.951-24.971c5.394,4.465,9.488,10.698,10.592,16.926    c1.872,10.569-5.438,17.307-15.997,15.384c-6.221-1.134-12.146-5.005-16.354-10.104c4.025,9.918,13.979,18.465,24.646,20.358    C163.65,499.666,172.408,492.006,170.282,479.863z"/><path d="M159.856,517.192c5.27,3.856,9.229,9.163,10.232,14.445c1.702,8.967-5.564,14.742-15.941,13.067    c-6.115-0.987-11.93-4.385-16.039-8.863c3.816,8.713,13.504,16.217,23.936,17.812c12.157,1.858,20.822-4.798,18.939-15.086    C179.37,529.741,170.319,520.89,159.856,517.192z"/><path d="M215.584,551.755c3.431,2.525,7.747,5.402,9.185,9.718c2.877,11.508-10.07,18.701-20.14,15.824    c-4.315-1.438-10.068-2.877-12.945-7.193c7.191,15.824,31.647,23.017,43.155,7.193c1.438-2.877,1.438-4.316,1.592-6.685    C235.429,562.453,226.521,554.736,215.584,551.755z"/><path d="M189.648,590.3c-1.179-8.196-9.624-16.04-19.709-19.173c5.013,3.387,8.669,8.129,9.414,13.006    c1.102,7.209-4.399,12.527-12.586,13.018c4.671,2.477,9.435,4.785,14.354,6.91C187.028,601.658,190.551,596.584,189.648,590.3z"/><path d="M222.339,601.569c2.43,1.621,6.746,4.498,8.184,7.374c1.237,4.946,0.073,9.35-2.443,12.547    c3.997,1.207,8.051,2.332,12.178,3.345c0.514-1.666,0.727-3.497,1.159-5.697C240.747,611.229,232.597,604.1,222.339,601.569z"/><path d="M116.88,145.74c1.438-2.877,1.438-7.192,3.161-10.474c1.913-10.609-3.378-17.813-12.06-18.215    c11.775,11.427,0.267,28.688-11.241,34.443c-4.315,1.438-7.191,1.438-11.507,1.438c-2.877,0-4.316-2.877-5.754-4.315    c1.438,2.877,1.438,5.754,1.438,7.192C92.425,170.195,109.688,157.248,116.88,145.74z"/><path d="M98.18,98.269c15.822,2.877,30.208-8.631,33.544-23.495c1.128-5.733-0.619-10.361-4.258-13.104    c-1.162,0.915-2.326,1.833-3.486,2.761c0.045,0.244,0.092,0.485,0.092,0.752c1.439,11.508-7.191,20.139-15.823,24.455    c-4.314,1.439-7.191,1.439-11.508,1.439c-1.114,0-2.222-0.222-3.169-0.654c-0.801,0.783-1.57,1.58-2.357,2.367    C92.265,95.46,94.688,97.396,98.18,98.269z"/><path d="M82.034,112.599c0.661-3.675,0.393-6.931-0.619-9.604c-2.327,2.541-4.586,5.117-6.809,7.712    c-1.66,6.361-6.504,12.348-12.438,15.513c-2.539,3.382-5.017,6.799-7.404,10.271C67.917,139.489,78.284,124.802,82.034,112.599z"/><path d="M50.545,202.997c9.716-1.452,19.171-13.453,20.985-26.352c1.559-11.063-3.195-18.913-10.977-19.704    c3.246,2.805,4.854,7.945,3.943,14.367c-1.544,10.901-9.6,21.035-17.922,22.343c-4.903,0.771-8.846-1.646-11.008-5.951    C36.198,197.575,42.208,204.245,50.545,202.997z"/><path d="M82.356,299.662c-2.877,1.438-7.193,0-10.07-1.438s-4.316-4.315-5.754-7.192c0,12.946,12.947,25.893,25.893,18.701    c8.632-5.754,12.946-15.824,11.67-25.896c0.251-13.233-5.974-23.758-14.584-25.927C101.057,270.891,96.74,292.47,82.356,299.662z"/><path d="M3.237,308.293c7.192,4.315,14.384,0,18.7-5.754c4.315-7.192,2.877-15.824,3.07-22.853    c-1.32-8.534-5.757-14.952-11.551-16.617c9.918,10.7,5.604,33.716-8.781,36.593c-1.577,0-3.151-0.579-4.657-1.45    c0.027,2.445,0.086,4.891,0.146,7.336C1.093,306.508,2.093,307.437,3.237,308.293z"/><path d="M72.286,226.297c5.754,8.631,15.824,10.07,23.017,4.315c8.631-7.192,12.945-15.824,14.12-25.5    c1.492-12.116-3.99-20.919-12.57-21.934c11.396,14.348,1.327,40.242-15.936,40.242c-2.877-1.438-10.07,0-10.07-7.193    C70.847,219.105,70.847,223.42,72.286,226.297z"/><path d="M45.42,274.072c9.43-0.433,17.792-12.347,18.685-26.407c0.766-12.065-4.306-21.271-11.889-22.838    c3.288,3.394,5.134,9.25,4.654,16.237c-0.816,11.861-7.982,22.012-16.016,22.52c-4.734,0.301-8.729-2.696-11.096-7.524    C30.999,266.687,37.331,274.441,45.42,274.072z"/><path d="M53.585,345.695c7.191-4.316,10.07-14.386,9.159-23.102c-0.368-12.248-6.255-22.549-13.916-25.171    c7.634,10.871,9.073,26.694-0.997,36.764c-5.754,4.315-15.824,0-18.701-7.192C29.13,338.502,42.077,351.449,53.585,345.695z"/><path d="M96.74,385.974c7.193-2.877,10.07-12.947,9.712-21.703c-0.945-12.864-8.294-24.221-17.186-27.611    c10.351,10.474,10.351,26.298,3.158,36.367c-7.191,7.193-18.699,1.438-23.016-7.192C72.286,378.781,83.794,391.728,96.74,385.974z    "/><path d="M60.776,416.183c7.193-2.878,8.633-12.946,7.289-20.46c-1.333-11.486-8.207-22.057-16.228-25.542    c7.501,10.039,11.817,30.179-1.13,35.933c-7.193,2.877-12.947-5.754-17.263-10.07C36.323,408.99,47.831,419.06,60.776,416.183z"/><path d="M127.218,501.89c-1.908-9.661-10.445-19.375-19.959-23.374c2.429,2.4,5.306,3.838,6.743,6.715    c4.316,7.193,5.755,18.701-2.876,23.018c-8.632,2.877-17.263-2.877-23.016-10.07c4.314,12.947,17.261,23.017,31.646,20.14    c2.877,0,4.314-2.877,5.754-4.315C128.388,509.687,126.95,506.81,127.218,501.89z"/><path d="M112.564,453.584c4.315-4.316,2.877-10.07,2.974-15.455c-1.771-11.383-10.012-22.266-19.289-26.304    c9.122,10.111,14.877,27.374,1.931,34.565c-2.877,1.439-5.755,0-8.631,0c-4.315-2.877-10.069-5.754-12.948-10.068    C82.356,450.707,98.18,466.53,112.564,453.584z"/><path d="M59.948,438.439c4.309,4.207,7.637,10.189,8.637,16.295c1.697,10.363-4.111,17.213-12.869,15.598    c-5.16-0.951-10.121-4.592-13.613-9.499c3.268,9.752,11.635,17.989,20.512,19.64c10.35,1.927,17.227-5.875,15.169-17.879    C76.017,452.297,68.428,442.268,59.948,438.439z"/><path d="M88.48,522.643c-1.652-9.352-9.503-18.523-18.372-22.186c4.504,3.906,7.953,9.386,8.909,14.953    c0.688,4.01-0.059,7.453-1.846,9.994c2.804,3.232,5.673,6.368,8.583,9.446C88.253,531.877,89.364,527.646,88.48,522.643z"/><path d="M135.581,568.666c1.438-2.877,2.877-5.754,2.515-10.682c-1.614-8.777-9.956-17.398-19.521-20.959    c4.06,4.309,8.376,8.624,9.813,14.378c2.152,7.531-3.742,11.843-10.462,12.937c3.683,2.938,7.479,5.824,11.364,8.682    c0.178-0.016,0.359-0.021,0.535-0.041C132.704,572.98,134.142,570.104,135.581,568.666z"/><path d="M26.253,227.736c1.438-4.315,4.315-7.192,2.906-11.301c0.189-2.075,0.179-4.056-0.004-5.901    c-1.154-4.583-2.309-10.9-6.966-13.376c-0.499,1.257-0.978,2.515-1.458,3.773c4.752,10.604-0.33,24.764-10.271,29.532    c-1.219,3.827-2.221,7.652-3.074,11.479C14.397,243.824,22.913,236.646,26.253,227.736z"/><path d="M21.938,374.465c4.315-4.315,5.754-11.508,5.169-18.34c-0.129-2.121-0.443-4.199-0.907-6.189    c-2.824-7.118-5.7-14.311-12.893-17.188c8.631,8.631,10.068,30.209-2.877,34.524c-2.426,0.486-4.685,0.304-6.728-0.355    c0.421,2.584,0.865,5.166,1.349,7.741C10.083,378.422,16.189,379.494,21.938,374.465z"/><path d="M33.505,423.424c-0.243-1.99-0.678-3.957-1.27-5.866c-3.105-7.13-7.421-14.321-14.614-18.638    c7.193,7.193,11.509,23.017,2.878,31.647c-0.06,0.03-0.118,0.051-0.177,0.079c1.501,3.953,3.07,7.857,4.731,11.719    c1.896-0.599,3.756-1.629,5.515-3.166C33.445,434.883,34.884,429.129,33.505,423.424z"/></g></g></svg>