<svg viewBox="0 0 100 100" xmlns="http://www.w3.org/2000/svg" id="handball-icon">
  <path d="M50 100c27.614 0 50-22.386 50-50S77.614 0 50 0 0 22.386 0 50s22.386 50 50 50zm16.699-7.594c1.132-1.095 2.045-2.21 2.69-3.585 1.784-.06 3.563-.335 5.33-.774.414-.103.843-.266 1.257-.383a41.28 41.28 0 0 1-9.617 5.06c.117-.105.23-.211.34-.318zm8.117-6.797c-1.775.478-3.553.804-5.343.927-1.544-.979-2.94-1.991-4.144-3.053-1.109-.973-2.05-1.983-2.79-3.034a50.793 50.793 0 0 0 3.612-7.676 51.788 51.788 0 0 0 2.232-7.904 42.727 42.727 0 0 0 7.314-3.506 44.486 44.486 0 0 0 6.418-4.7 26.314 26.314 0 0 1 3.787 2.67 33.438 33.438 0 0 1 3.708 3.677 37.076 37.076 0 0 1-.33 5.436c-.26 1.973-.386 4.252-.95 6.432a43.945 43.945 0 0 1-7.794 9.02c-1.8.765-3.897 1.218-5.718 1.71zM91.39 68.3c.245-1.996.409-3.762.383-5.568 1.254-1.372 2.366-2.906 3.207-4.588L95 58.1c-.702 4.287-2.191 8.394-3.947 12.165.096-.61.266-1.375.337-1.968zm2.111-11.29a18.624 18.624 0 0 1-2.702 3.883 34.979 34.979 0 0 0-3.487-3.493 27.814 27.814 0 0 0-3.951-2.868c.696-3.023 1.099-6.053 1.165-9.09a39.276 39.276 0 0 0-.83-8.978 40.29 40.29 0 0 0 3.402-1.251 32.267 32.267 0 0 0 2.897-1.392c1.032 1.152 1.921 2.488 2.706 3.958.883 1.649 1.879 3.503 2.553 5.41.322 2.19.468 4.338.468 6.622 0 .6-.012 1.202-.037 1.798-.454 1.922-1.325 3.765-2.18 5.4zm-2.724-24.748c.117-.788.27-1.639.276-2.442 1.009 1.802 1.634 3.798 2.364 5.728-.835-1.174-1.6-2.325-2.64-3.287zm-1.65-3.077c.022.877-.03 1.755-.14 2.634-.906.493-1.887.965-2.957 1.41a39.51 39.51 0 0 1-3.54 1.273c-2.403-2.404-4.844-4.441-7.327-6.096-2.472-1.649-4.984-2.915-7.539-3.78-.572-2.467-1.319-4.795-2.255-6.964-.915-2.11-2.01-4.07-3.308-5.862.646-.71 1.452-1.344 2.436-1.894 1.132-.632 2.694-1.244 4.313-1.638 5.103 2.249 9.319 5.529 13.319 9.133 4 3.604 6.127 7.404 6.86 8.636.733 1.234.118 2.194.14 3.15zM66.65 26.92c2.482.809 4.928 2.009 7.34 3.583 2.461 1.601 4.888 3.596 7.284 5.96.69 2.974.98 5.942.915 8.905-.068 2.964-.49 5.932-1.223 8.907a43.69 43.69 0 0 1-6.47 4.727 41.74 41.74 0 0 1-7.158 3.392l-16.2-8.905V34.846c6.376-4.745 12.4-6.782 15.513-7.928zM37.13 8.404c1.176.694 2.141 1.505 2.917 2.422 6.302-1.997 13.497-1.997 19.798 0 .776-.917 1.74-1.728 2.917-2.422.768-.449 1.96-1.095 2.92-1.442-9.857-3.889-21.378-3.889-31.237 0 .96.345 1.918.993 2.686 1.442zm-.447 9.83c-.894 1.977-1.612 4.096-2.17 6.343 2.447 1.044 13.375 6.174 15.404 8.006 2.029-1.832 12.96-6.962 15.404-8.006-.556-2.245-1.273-4.366-2.17-6.343-.94-2.08-2.083-4.004-3.45-5.751-6.238-1.83-13.33-1.83-19.568 0a28.035 28.035 0 0 0-3.451 5.751zm-2.613 46.44a52.182 52.182 0 0 0 2.175 7.8 50.847 50.847 0 0 0 3.61 7.79c6.261 1.6 13.912 1.6 20.174 0a50.992 50.992 0 0 0 3.61-7.79 52.305 52.305 0 0 0 2.173-7.8l-15.87-9.35-15.873 9.35zm2.75 20.896c-1.18 1.01-2.532 1.979-4.021 2.913.506 1 1.249 1.913 2.163 2.76 1.085 1.007 2.369 2.254 3.84 3.122a45.224 45.224 0 0 0 22.277 0c1.47-.868 3.01-2.115 4.095-3.12.915-.847 1.658-1.759 2.165-2.76-1.49-.936-2.84-1.904-4.021-2.913-1.191-1.019-2.208-2.085-3.027-3.212-6.347 1.516-14.097 1.516-20.446 0-.816 1.127-1.837 2.193-3.026 3.212zm-3.468 6.806c-1.133-1.096-2.128-2.216-2.772-3.589-1.785-.061-3.562-.385-5.33-.823a36.855 36.855 0 0 1-1.24-.335c2.987 2.123 6.276 3.804 9.68 5.064-.117-.107-.228-.213-.34-.317zm-8.155-6.509c1.774.48 3.555.806 5.343.929 1.545-.977 2.94-1.992 4.145-3.051 1.106-.975 2.049-1.984 2.787-3.035a51.06 51.06 0 0 1-3.611-7.677 51.91 51.91 0 0 1-2.232-7.904 42.707 42.707 0 0 1-7.312-3.507 44.73 44.73 0 0 1-6.42-4.702 26.457 26.457 0 0 0-3.786 2.67 33.351 33.351 0 0 0-3.707 3.678c-.032 1.716.08 3.527.33 5.436.26 1.974.443 4.15 1.005 6.327a43.93 43.93 0 0 0 7.795 9.021c1.801.766 3.84 1.322 5.662 1.814zM8.806 68.695c-.245-1.996-.572-3.834-.543-5.64C7.007 61.681 5.034 58.4 5.034 58.4c.704 4.287 2.268 8.328 4.025 12.099a53.11 53.11 0 0 1-.254-1.803zM6.47 56.923a18.725 18.725 0 0 0 2.702 3.887 34.673 34.673 0 0 1 3.49-3.494 27.745 27.745 0 0 1 3.95-2.867c-.698-3.023-1.1-6.053-1.166-9.09-.064-2.996.199-5.99.827-8.98a39.17 39.17 0 0 1-3.399-1.25 32.713 32.713 0 0 1-2.896-1.392c-1.032 1.152-1.92 2.487-2.707 3.956-.883 1.652-1.826 3.478-2.5 5.385a46.623 46.623 0 0 0-.453 8.519c.455 1.922 1.295 3.691 2.151 5.327zm2.684-24.66c-.115-.786-.115-1.754-.12-2.557-1.01 1.803-1.721 4.006-2.452 5.934.834-1.173 1.532-2.414 2.572-3.377zm1.493-3.11c-.02.877.196 1.777.306 2.658.904.491 1.885.963 2.956 1.41 1.085.45 2.261.876 3.542 1.273 2.402-2.405 4.843-4.443 7.326-6.098 2.473-1.65 4.985-2.913 7.539-3.779.574-2.466 1.32-4.794 2.257-6.964.913-2.11 2.009-4.07 3.307-5.862-.65-.71-1.453-1.343-2.436-1.893a16.33 16.33 0 0 0-4.114-1.626 44.518 44.518 0 0 0-13.651 9.381c-2.535 2.564-5.003 5.577-6.862 8.702-.196.974-.149 1.843-.17 2.798zm22.662-2.621c-2.485.83-4.937 2.064-7.355 3.678-2.463 1.643-4.893 3.689-7.298 6.117a37.615 37.615 0 0 0-.912 9.14c.063 3.04.487 6.085 1.223 9.138a43.59 43.59 0 0 0 6.483 4.854 41.281 41.281 0 0 0 7.17 3.48l16.056-9.452-.003-18.649c-5.77-4.108-10.73-6.411-15.364-8.308z" fill-rule="evenodd"/>
</svg>
