<svg id="Layer_1" data-name="Layer 1" xmlns="http://www.w3.org/2000/svg" viewBox="0 0 27.27 24"><g id="C6vygt.tif"><path d="M14.38,22.34h-1l-.1,0a6.49,6.49,0,0,1-2.55-.75,6.61,6.61,0,0,1-3.64-5.71c-.09-1.64,0-3.29,0-4.93A1.79,1.79,0,0,1,8.83,9.16c.24,0,.48.05.74.07V9c0-1.17,0-2.33,0-3.49a1.79,1.79,0,0,1,1.36-1.69,2,2,0,0,1,1.19.09,1.86,1.86,0,0,1,3.28-.56A1.93,1.93,0,0,1,17,3.17a1.81,1.81,0,0,1,1.28,1.7c0,.33,0,.67,0,1,.19,0,.36-.08.53-.09a2,2,0,0,1,.54,0,1.81,1.81,0,0,1,1.4,1.83q0,3.91,0,7.84a7.09,7.09,0,0,1,0,.79,6.81,6.81,0,0,1-5.17,5.85C15.12,22.23,14.75,22.27,14.38,22.34ZM10.73,13.5l.17.05a2.9,2.9,0,0,1,2.18,2.27,7.68,7.68,0,0,1,.09,1.59.58.58,0,0,1-.58.6.59.59,0,0,1-.58-.59c0-.28,0-.57,0-.85a1.87,1.87,0,0,0-1.81-2c-.45,0-.63-.23-.63-.69,0-.95,0-1.9,0-2.85a1,1,0,0,0-.13-.47.62.62,0,0,0-.72-.26.64.64,0,0,0-.48.66c0,1.41,0,2.83,0,4.24a8,8,0,0,0,0,.85,5.65,5.65,0,0,0,11.28-.59c0-2.61,0-5.23,0-7.84V7.54A.65.65,0,0,0,19,7a.65.65,0,0,0-.8.67c0,1.3,0,2.61,0,3.91a.62.62,0,0,1-.58.7c-.35,0-.58-.27-.58-.71v-.15c0-1.55,0-3.1,0-4.65,0-.59,0-1.19,0-1.79a.67.67,0,1,0-1.34,0c0,1.94,0,3.89,0,5.83a1.05,1.05,0,0,1,0,.31.57.57,0,0,1-.72.42.59.59,0,0,1-.41-.66c0-1.8,0-3.6,0-5.4v-1a.66.66,0,0,0-.45-.65.67.67,0,0,0-.9.67v6.34a1.32,1.32,0,0,1,0,.28.59.59,0,0,1-.53.44.57.57,0,0,1-.57-.38,1.22,1.22,0,0,1,0-.34V5.76a1.37,1.37,0,0,0,0-.29A.64.64,0,0,0,11.47,5a.66.66,0,0,0-.74.71c0,2.56,0,5.12,0,7.68Z"/></g></svg>