<svg id="Layer_1" data-name="Layer 1" xmlns="http://www.w3.org/2000/svg" viewBox="0 0 24 24"><defs><style>.cls-1{fill:#040045;}.cls-2{fill:#fff;}</style></defs><rect class="cls-1" x="-0.52" y="-0.62" width="25.25" height="25.25"/><g id="C6vygt.tif"><path class="cls-2" d="M12.47,23h-1.1a6.71,6.71,0,0,1-2.55-.75,6.63,6.63,0,0,1-3.64-5.71c-.09-1.64,0-3.29,0-4.93A1.79,1.79,0,0,1,6.92,9.82c.24,0,.48,0,.74.07V6.17A1.79,1.79,0,0,1,9,4.48a1.86,1.86,0,0,1,1.19.09,1.86,1.86,0,0,1,2.32-1.24,1.75,1.75,0,0,1,1,.68,1.92,1.92,0,0,1,1.6-.18,1.79,1.79,0,0,1,1.28,1.7v1c.19,0,.36-.08.53-.09a1.63,1.63,0,0,1,.54,0,1.79,1.79,0,0,1,1.4,1.83v7.84a5.21,5.21,0,0,1,0,.79,6.81,6.81,0,0,1-5.17,5.85A10,10,0,0,1,12.47,23ZM8.82,14.16l.17.05a2.89,2.89,0,0,1,2.18,2.27,7,7,0,0,1,.09,1.59.57.57,0,0,1-.56.59s0,0,0,0a.6.6,0,0,1-.58-.59v-.85a1.86,1.86,0,0,0-1.73-2H8.29c-.45,0-.63-.23-.63-.69V11.69a.85.85,0,0,0-.13-.47A.6.6,0,0,0,6.81,11a.65.65,0,0,0-.48.66v4.24c0,.28,0,.56,0,.85a5.65,5.65,0,0,0,11.28-.59V8.2a.67.67,0,0,0-1.3-.06,1.11,1.11,0,0,0,0,.19v3.91a.61.61,0,0,1-.53.69h0c-.35,0-.58-.27-.58-.71V5.64a.67.67,0,0,0-1.34,0v5.83a.81.81,0,0,1,0,.31.58.58,0,0,1-.68.43h0a.6.6,0,0,1-.41-.66V5.14a.64.64,0,0,0-.45-.65.67.67,0,0,0-.86.39.86.86,0,0,0,0,.28V11.5a1.31,1.31,0,0,1,0,.28.59.59,0,0,1-.53.44.6.6,0,0,1-.57-.38,1.93,1.93,0,0,1,0-.34V6.42a1.4,1.4,0,0,0,0-.29.63.63,0,0,0-.65-.47.65.65,0,0,0-.73.57.61.61,0,0,0,0,.14v7.79Z"/></g></svg>