<?xml version="1.0" ?><!DOCTYPE svg  PUBLIC '-//W3C//DTD SVG 1.1//EN'  'http://www.w3.org/Graphics/SVG/1.1/DTD/svg11.dtd'><svg height="512px" style="enable-background:new 0 0 512 512;" version="1.1" viewBox="0 0 512 512" width="512px" xml:space="preserve" xmlns="http://www.w3.org/2000/svg" xmlns:xlink="http://www.w3.org/1999/xlink"><g id="_x31_22_x2C__Canada_x2C__Game_x2C__Hockey_x2C__Ice_x2C__Olympics"><g><path d="M81,308c-2.761,0-5,2.238-5,5s2.239,5,5,5h70c2.761,0,5-2.238,5-5s-2.239-5-5-5H81z"/><path d="M139.188,468h-5.752c-2.761,0-5,2.238-5,5s2.239,5,5,5h5.752c2.761,0,5-2.238,5-5S141.95,468,139.188,468z"/><path d="M348,308c-2.762,0-5,2.238-5,5s2.238,5,5,5h70c2.762,0,5-2.238,5-5s-2.238-5-5-5H348z"/><path d="M406.188,468h-5.752c-2.761,0-5,2.238-5,5s2.239,5,5,5h5.752c2.761,0,5-2.238,5-5S408.949,468,406.188,468z"/><path d="M46,386c0,18.318,14.903,33,33.222,33H112v-66H79.222C60.903,353,46,367.682,46,386z"/><path d="M278.494,285.932L446.759,53.842c2.002-2.762,2.772-6.132,2.17-9.489c-0.604-3.357-2.498-6.25-5.337-8.142    c-2.049-1.365-4.428-2.087-6.88-2.087c-3.909,0-7.511,1.777-9.882,4.877L188.305,350.978c-0.946,1.238-2.414,2.022-3.972,2.022    H122v66h59.783l79.943-110.103l16.766-22.931C278.492,285.965,278.493,285.932,278.494,285.932z"/><path d="M286,108.667C286,102.776,281.225,98,275.334,98h-38.667C230.775,98,226,102.776,226,108.667v18.666    c0,5.891,4.775,10.667,10.667,10.667h38.667c5.891,0,10.666-4.776,10.666-10.667V108.667z"/><path d="M323.695,350.921l-41.049-53.761l-20.471,28.169L330.218,419H390v-66h-62.333    C326.109,353,324.642,352.159,323.695,350.921z"/><path d="M229.567,280.498l20.138-26.333L85.17,39.002c-2.371-3.101-5.973-4.878-9.882-4.878c-2.452,0-4.831,0.722-6.88,2.087    c-2.838,1.893-4.733,4.784-5.336,8.142c-0.604,3.357,0.167,6.728,2.17,9.49L229.567,280.498z"/><path d="M432.777,353H400v66h32.777C451.097,419,466,404.318,466,386S451.097,353,432.777,353z"/></g></g><g id="Layer_1"/></svg>