<svg id="Layer_1" data-name="Layer 1" xmlns="http://www.w3.org/2000/svg" xmlns:xlink="http://www.w3.org/1999/xlink" viewBox="0 0 354.18 325.41"><defs><style>.cls-1{fill:url(#linear-gradient);}.cls-2{fill:url(#linear-gradient-2);}.cls-3{fill:url(#linear-gradient-3);}.cls-4{fill:url(#linear-gradient-4);}.cls-5{fill:url(#linear-gradient-5);}.cls-6{fill:url(#linear-gradient-6);}.cls-7{fill:url(#linear-gradient-7);}.cls-8{fill:url(#linear-gradient-8);}.cls-9{fill:url(#linear-gradient-9);}.cls-10{fill:url(#linear-gradient-10);}.cls-11{fill:url(#linear-gradient-11);}.cls-12{fill:url(#linear-gradient-12);}</style><linearGradient id="linear-gradient" x1="80.83" y1="-52.16" x2="237.79" y2="195.25" gradientUnits="userSpaceOnUse"><stop offset="0" stop-color="#2f2063"/><stop offset="0.57" stop-color="#5e3282"/><stop offset="1" stop-color="#6251a2"/></linearGradient><linearGradient id="linear-gradient-2" x1="92.13" y1="-59.32" x2="249.09" y2="188.09" xlink:href="#linear-gradient"/><linearGradient id="linear-gradient-3" x1="69.53" y1="-44.99" x2="226.49" y2="202.42" xlink:href="#linear-gradient"/><linearGradient id="linear-gradient-4" x1="70.83" y1="-45.82" x2="227.79" y2="201.6" xlink:href="#linear-gradient"/><linearGradient id="linear-gradient-5" x1="82.13" y1="-52.98" x2="239.09" y2="194.43" xlink:href="#linear-gradient"/><linearGradient id="linear-gradient-6" x1="59.53" y1="-38.65" x2="216.49" y2="208.76" xlink:href="#linear-gradient"/><linearGradient id="linear-gradient-7" x1="60.84" y1="-39.48" x2="217.8" y2="207.94" xlink:href="#linear-gradient"/><linearGradient id="linear-gradient-8" x1="72.14" y1="-46.64" x2="229.1" y2="200.77" xlink:href="#linear-gradient"/><linearGradient id="linear-gradient-9" x1="49.54" y1="-32.31" x2="206.5" y2="215.1" xlink:href="#linear-gradient"/><linearGradient id="linear-gradient-10" x1="70.15" y1="-45.38" x2="227.11" y2="202.03" xlink:href="#linear-gradient"/><linearGradient id="linear-gradient-11" x1="129.13" y1="-82.8" x2="286.09" y2="164.61" xlink:href="#linear-gradient"/><linearGradient id="linear-gradient-12" x1="39.11" y1="-25.69" x2="196.07" y2="221.72" xlink:href="#linear-gradient"/></defs><rect class="cls-1" x="174.76" y="98.18" width="7.92" height="7.92"/><rect class="cls-2" x="190.6" y="98.18" width="7.92" height="7.92"/><rect class="cls-3" x="158.91" y="98.18" width="7.92" height="7.92"/><rect class="cls-4" x="170.79" y="114.03" width="7.92" height="7.92"/><rect class="cls-5" x="186.64" y="114.03" width="7.92" height="7.92"/><rect class="cls-6" x="154.94" y="114.03" width="7.92" height="7.92"/><rect class="cls-7" x="166.83" y="129.88" width="7.92" height="7.92"/><rect class="cls-8" x="182.68" y="129.88" width="7.92" height="7.92"/><rect class="cls-9" x="150.98" y="129.88" width="7.92" height="7.92"/><path class="cls-10" d="M212.63,86.18l-72-6.29-6,69.45,72,6.3Zm-13.18,60.87-56.22-4.92,4.61-53.66,56.22,4.92Z"/><path class="cls-11" d="M293.62,141.46c0-15.91-12.12-35.35-26.25-35.35a12.36,12.36,0,0,0-6.95,2h0l-11.84,8c-4.1,2.74-6.46,8-6.46,14.33,0,15.8,12.08,35.1,26.17,35.1a12.41,12.41,0,0,0,7-2.11l11.45-7.56C291,153.32,293.62,148.15,293.62,141.46Zm-7.93,0c0,1.93-.39,8.23-5.53,8.23-7.79,0-18.24-13.43-18.24-27.17,0-2,.39-8.49,5.45-8.49C275.93,114,285.69,128.64,285.69,141.46Zm-17.41,16.15c-7.8,0-18.25-13.43-18.25-27.17,0-3.62,1.1-6.51,2.95-7.75l1-.69c0,.17,0,.34,0,.52,0,12.85,8,28,18.56,33.23l-1.64,1.08A4.5,4.5,0,0,1,268.28,157.61Z"/><path class="cls-12" d="M264.6,178.92l-15.19-7.72a13.5,13.5,0,0,0-6.75-1.7c-4.18,0-8.84,1.68-13.75,4.9l9.18-106.77q.06-.7.06-1.38a15.78,15.78,0,0,0-14.47-15.8l-87.77-7.68a15.72,15.72,0,0,0-17.19,14.41l-4.93,57.32a14,14,0,0,0-9.78,9.62L88.74,179.78a190.12,190.12,0,0,1-17.16,42.07l-8.89,16.07,6.93,3.84,8.89-16.06a198,198,0,0,0,17.88-43.82l15.25-55.61a5.88,5.88,0,0,1,5.67-4.32,5.89,5.89,0,0,1,5.82,7.07l-7.23,38.22,1.12,1.42c4,5,6.23,12.37,6.23,20.29,0,10.75-2.88,18.24-9,23.56l5.17,6a31.78,31.78,0,0,0,8.93-12.6l27.7,2.42L147.56,221a35.57,35.57,0,0,1-29.67,15.87H103.44v7.93h8.45l-9.3,25.38,7.44,2.72,10.33-28.18a43.45,43.45,0,0,0,33.79-19.32L165,209.12l44.63,3.9c.5,0,1,.06,1.5.06a15.9,15.9,0,0,0,15.69-14.47L228,185.09c5.6-5,10.77-7.67,14.67-7.67,6.66,0,7.37,10,7.37,14.25,0,27.42-27.89,65-43.72,65-4.95,0-7.78-4.91-7.78-13.46,0-5.91,1.46-12.94,4.24-20.33l-7.42-2.78c-3.15,8.38-4.75,16.16-4.75,23.11,0,11.47,4.3,17.56,9.56,20L215.75,271a14.22,14.22,0,0,0,6.41,1.52c21.72,0,51.65-42.25,51.65-72.92C273.81,189.24,270.53,181.89,264.6,178.92ZM152.83,52.21,208.09,57l-.68,7.84L152.15,60Zm-31.11,62.55,4.89-56.89a8,8,0,0,1,8.06-7.23l.53,0,9.73.85-1.35,15.73,71,6.21L216,57.73l7,.61a7.9,7.9,0,0,1,7.23,7.91q0,.33,0,.69L220.06,184.83l-90.22-7.05a37.87,37.87,0,0,0-5.5-12.56l6.58-34.74a13.81,13.81,0,0,0-9.2-15.72Zm88.63,90.37-79.91-7a54.43,54.43,0,0,0,.73-9.19c0-1,0-2.09-.1-3.12l88.31,6.89-.45,5.2A7.84,7.84,0,0,1,210.35,205.13Zm11.81,59.46a6.32,6.32,0,0,1-2.87-.69l-3.4-1.69c20-9.32,42.07-44.2,42.07-70.54a41.11,41.11,0,0,0-.67-7.58L261,186c3,1.5,4.84,6.71,4.84,13.6C265.88,227,238,264.59,222.16,264.59Z"/></svg>