<svg id="Layer_1" data-name="Layer 1" xmlns="http://www.w3.org/2000/svg" xmlns:xlink="http://www.w3.org/1999/xlink" viewBox="0 0 354.18 325.41"><defs><style>.cls-1{fill:url(#linear-gradient);}.cls-2{fill:url(#linear-gradient-2);}.cls-3{fill:url(#linear-gradient-3);}.cls-4{fill:url(#linear-gradient-4);}.cls-5{fill:url(#linear-gradient-5);}.cls-6{fill:url(#linear-gradient-6);}.cls-7{fill:url(#linear-gradient-7);}.cls-8{fill:url(#linear-gradient-8);}.cls-9{fill:url(#linear-gradient-9);}.cls-10{fill:url(#linear-gradient-10);}.cls-11{fill:url(#linear-gradient-11);}.cls-12{fill:url(#linear-gradient-12);}.cls-13{fill:url(#linear-gradient-13);}.cls-14{fill:url(#linear-gradient-14);}.cls-15{fill:url(#linear-gradient-15);}.cls-16{fill:url(#linear-gradient-16);}.cls-17{fill:url(#linear-gradient-17);}.cls-18{fill:url(#linear-gradient-18);}.cls-19{fill:url(#linear-gradient-19);}.cls-20{fill:url(#linear-gradient-20);}.cls-21{fill:url(#linear-gradient-21);}.cls-22{fill:url(#linear-gradient-22);}</style><linearGradient id="linear-gradient" x1="97.17" y1="50.02" x2="337.93" y2="382.56" gradientUnits="userSpaceOnUse"><stop offset="0" stop-color="#005781"/><stop offset="0.57" stop-color="#00a9b3"/><stop offset="1" stop-color="#03cddd"/></linearGradient><linearGradient id="linear-gradient-2" x1="122.27" y1="31.85" x2="363.03" y2="364.39" xlink:href="#linear-gradient"/><linearGradient id="linear-gradient-3" x1="112.42" y1="38.98" x2="353.18" y2="371.52" xlink:href="#linear-gradient"/><linearGradient id="linear-gradient-4" x1="129.82" y1="26.38" x2="370.58" y2="358.92" xlink:href="#linear-gradient"/><linearGradient id="linear-gradient-5" x1="95.46" y1="51.25" x2="336.22" y2="383.79" xlink:href="#linear-gradient"/><linearGradient id="linear-gradient-6" x1="95.83" y1="50.99" x2="336.59" y2="383.53" xlink:href="#linear-gradient"/><linearGradient id="linear-gradient-7" x1="96.28" y1="50.66" x2="337.04" y2="383.2" xlink:href="#linear-gradient"/><linearGradient id="linear-gradient-8" x1="96.61" y1="50.42" x2="337.37" y2="382.96" xlink:href="#linear-gradient"/><linearGradient id="linear-gradient-9" x1="89.5" y1="55.57" x2="330.26" y2="388.11" xlink:href="#linear-gradient"/><linearGradient id="linear-gradient-10" x1="26.36" y1="101.28" x2="267.12" y2="433.82" xlink:href="#linear-gradient"/><linearGradient id="linear-gradient-11" x1="8.8" y1="114" x2="249.56" y2="446.54" xlink:href="#linear-gradient"/><linearGradient id="linear-gradient-12" x1="164.65" y1="1.16" x2="405.41" y2="333.7" xlink:href="#linear-gradient"/><linearGradient id="linear-gradient-13" x1="154.61" y1="8.43" x2="395.37" y2="340.97" xlink:href="#linear-gradient"/><linearGradient id="linear-gradient-14" x1="144.13" y1="16.02" x2="384.89" y2="348.56" xlink:href="#linear-gradient"/><linearGradient id="linear-gradient-15" x1="134.34" y1="23.1" x2="375.1" y2="355.65" xlink:href="#linear-gradient"/><linearGradient id="linear-gradient-16" x1="54.74" y1="80.73" x2="295.5" y2="413.28" xlink:href="#linear-gradient"/><linearGradient id="linear-gradient-17" x1="45.21" y1="87.64" x2="285.97" y2="420.18" xlink:href="#linear-gradient"/><linearGradient id="linear-gradient-18" x1="25.64" y1="101.81" x2="266.4" y2="434.35" xlink:href="#linear-gradient"/><linearGradient id="linear-gradient-19" x1="74.84" y1="66.19" x2="315.6" y2="398.73" xlink:href="#linear-gradient"/><linearGradient id="linear-gradient-20" x1="24" y1="102.99" x2="264.76" y2="435.53" xlink:href="#linear-gradient"/><linearGradient id="linear-gradient-21" x1="27.49" y1="100.47" x2="268.25" y2="433.01" xlink:href="#linear-gradient"/><linearGradient id="linear-gradient-22" x1="32.2" y1="97.06" x2="272.96" y2="429.6" xlink:href="#linear-gradient"/></defs><path class="cls-1" d="M167,159.66a2.63,2.63,0,0,1-2.11-1l-65.27-87a2.63,2.63,0,0,1,.31-3.5l7-6.59a2.64,2.64,0,0,1,3.84.24l67.59,82.16a2.64,2.64,0,0,1-4.08,3.35l-65.8-80-3.25,3,63.85,85.11a2.63,2.63,0,0,1-.53,3.69A2.59,2.59,0,0,1,167,159.66Z"/><path class="cls-2" d="M284,233.06H228.36a15.51,15.51,0,0,1-11-4.57,2.37,2.37,0,0,1-.25-.29l-41.36-55.13a2.64,2.64,0,0,1,4.22-3.17l41.24,55a10.27,10.27,0,0,0,7.19,2.91H284a6.15,6.15,0,0,0,4.36-1.81l7.93-7.94a3,3,0,0,0,0-4.21l-3.19-3.18a2.93,2.93,0,0,0-2.1-.88H232.39a14.49,14.49,0,0,1-9.7-3.71,1.94,1.94,0,0,1-.28-.29l-37.25-45.28a2.64,2.64,0,1,1,4.07-3.36l37.12,45.13a9.23,9.23,0,0,0,6,2.24H291a8.19,8.19,0,0,1,5.83,2.42l3.19,3.19a8.24,8.24,0,0,1,0,11.66l-7.93,7.94A11.38,11.38,0,0,1,284,233.06Z"/><path class="cls-3" d="M231.14,233.06a2.64,2.64,0,0,1-1.87-4.5l23.07-23.07a2.64,2.64,0,0,1,3.73,3.73L233,232.29A2.64,2.64,0,0,1,231.14,233.06Z"/><path class="cls-4" d="M258,233.06a2.64,2.64,0,0,1-1.87-4.5l22.74-22.74a2.64,2.64,0,0,1,3.73,3.73l-22.74,22.74A2.64,2.64,0,0,1,258,233.06Z"/><path class="cls-5" d="M120.48,97.69a2.64,2.64,0,0,1-1.87-4.5l7.77-7.77a2.64,2.64,0,1,1,3.73,3.73l-7.77,7.77A2.64,2.64,0,0,1,120.48,97.69Z"/><path class="cls-6" d="M128.25,108.05a2.65,2.65,0,0,1-1.87-4.51l8.1-8.09a2.64,2.64,0,1,1,3.73,3.73l-8.1,8.09A2.61,2.61,0,0,1,128.25,108.05Z"/><path class="cls-7" d="M136.34,118.84a2.64,2.64,0,0,1-1.86-4.5l8.57-8.57a2.63,2.63,0,1,1,3.72,3.73l-8.56,8.57A2.66,2.66,0,0,1,136.34,118.84Z"/><path class="cls-8" d="M144.91,127.93a2.64,2.64,0,0,1-1.86-4.5l6.85-6.86a2.64,2.64,0,0,1,3.73,3.73l-6.86,6.86A2.64,2.64,0,0,1,144.91,127.93Z"/><path class="cls-9" d="M125.83,233.06H70.21a11.39,11.39,0,0,1-8.09-3.35l-7.93-7.94a8.23,8.23,0,0,1,0-11.66l3.19-3.19a8.19,8.19,0,0,1,5.83-2.42h58.58a9.23,9.23,0,0,0,6-2.24L243.41,61.75a2.64,2.64,0,0,1,3.84-.24l7,6.59a2.63,2.63,0,0,1,.3,3.5L137.11,228.2a2.37,2.37,0,0,1-.25.29A15.5,15.5,0,0,1,125.83,233.06ZM63.21,209.77a2.93,2.93,0,0,0-2.1.88l-3.19,3.18a3,3,0,0,0,0,4.21L65.85,226a6.17,6.17,0,0,0,4.36,1.81h55.62a10.25,10.25,0,0,0,7.18-2.91L249,70.33l-3.26-3L131.77,205.77a1.54,1.54,0,0,1-.28.29,14.49,14.49,0,0,1-9.7,3.71Z"/><path class="cls-10" d="M123,233.06a2.64,2.64,0,0,1-1.86-.77L98.11,209.22a2.64,2.64,0,0,1,3.73-3.73l23.07,23.07a2.64,2.64,0,0,1-1.87,4.5Z"/><path class="cls-11" d="M96.23,233.06a2.64,2.64,0,0,1-1.86-.77L71.63,209.55a2.64,2.64,0,0,1,3.73-3.73L98.1,228.56a2.64,2.64,0,0,1-1.87,4.5Z"/><path class="cls-12" d="M233.7,97.69a2.64,2.64,0,0,1-1.86-.77l-7.77-7.77a2.64,2.64,0,1,1,3.73-3.73l7.77,7.77a2.64,2.64,0,0,1-1.87,4.5Z"/><path class="cls-13" d="M225.93,108.05a2.62,2.62,0,0,1-1.86-.78L216,99.18a2.64,2.64,0,1,1,3.73-3.73l8.1,8.09a2.65,2.65,0,0,1-1.87,4.51Z"/><path class="cls-14" d="M217.84,118.84a2.66,2.66,0,0,1-1.87-.77l-8.56-8.57a2.64,2.64,0,1,1,3.73-3.73l8.56,8.57a2.64,2.64,0,0,1-1.86,4.5Z"/><path class="cls-15" d="M209.27,127.93a2.64,2.64,0,0,1-1.86-.77l-6.86-6.86a2.64,2.64,0,0,1,3.73-3.73l6.86,6.86a2.64,2.64,0,0,1-1.87,4.5Z"/><path class="cls-16" d="M177.82,268.7c-22.88,0-40.13-7.73-40.13-18s17.25-18,40.13-18,40.13,7.72,40.13,18S200.7,268.7,177.82,268.7Zm0-30.67c-20.54,0-34.86,6.69-34.86,12.7s14.32,12.69,34.86,12.69,34.86-6.69,34.86-12.69S198.36,238,177.82,238Z"/><path class="cls-17" d="M177.82,287.65c-22.88,0-40.13-7.72-40.13-18a2.64,2.64,0,0,1,5.27,0c0,6,14.32,12.68,34.86,12.68s34.86-6.68,34.86-12.68a2.64,2.64,0,0,1,5.27,0C218,279.93,200.7,287.65,177.82,287.65Z"/><path class="cls-18" d="M140.33,272.33a2.64,2.64,0,0,1-2.64-2.64v-19a2.64,2.64,0,1,1,5.27,0v19A2.64,2.64,0,0,1,140.33,272.33Z"/><path class="cls-19" d="M215.31,272.33a2.64,2.64,0,0,1-2.63-2.64v-19a2.64,2.64,0,1,1,5.27,0v19A2.64,2.64,0,0,1,215.31,272.33Z"/><path class="cls-20" d="M148.06,281.64a2.64,2.64,0,0,1-2.63-2.64v-9.31a2.64,2.64,0,0,1,5.27,0V279A2.64,2.64,0,0,1,148.06,281.64Z"/><path class="cls-21" d="M156.6,285a2.64,2.64,0,0,1-2.63-2.64v-7a2.64,2.64,0,0,1,5.27,0v7A2.64,2.64,0,0,1,156.6,285Z"/><path class="cls-22" d="M166.12,286.89a2.64,2.64,0,0,1-2.63-2.64v-4.41a2.64,2.64,0,1,1,5.27,0v4.41A2.64,2.64,0,0,1,166.12,286.89Z"/></svg>