<svg xmlns="http://www.w3.org/2000/svg" xmlns:xlink="http://www.w3.org/1999/xlink" width="15px" height="15px" viewBox="0 0 15 15" version="1.1">    <!-- Generator: Sketch 49 (51002) - http://www.bohemiancoding.com/sketch -->    <title>Ice-hockey-icon</title>    <desc>Created with Sketch.</desc>    <defs>        <polygon id="path-1" points="0 0 15 0 15 15 0 15"/>    </defs>    <g id="Ice-hockey-icon" stroke="none" stroke-width="1" fill="none" fill-rule="evenodd">        <g>            <mask id="mask-2" fill="white">                <use xlink:href="#path-1"/>            </mask>            <g id="Bound"/>            <path d="M14.0088486,0.504086606 C13.8332271,0.36987608 13.636403,0.282244501 13.4551808,0.25737608 C13.2651576,0.230533974 13.1111387,0.277507659 13.0243281,0.389218185 L5.44619977,10.2923761 C5.3321858,10.4411919 5.16616547,10.541455 4.98014268,10.5746129 C1.71574281,11.1548761 1.65213502,11.1667182 1.65453531,11.1667182 C1.26928812,11.2290866 0.965250878,11.5267182 0.90004289,11.8973761 C0.898442694,11.9021129 0.898042645,11.9036919 0.568402266,13.4526392 C0.556400796,13.5102708 0.550000012,13.5690866 0.550000012,13.6259287 C0.550000012,14.0885603 0.931646762,14.4647445 1.40010415,14.4647445 C1.55372296,14.4647445 1.70374134,14.4232971 1.83615756,14.3447445 L6.26670028,11.8772445 C6.35071057,11.8227708 6.41831885,11.7623761 6.47232547,11.6940866 C6.47512581,11.6901392 13.0507313,3.13066555 14.3684927,1.41553397 C14.5441142,1.19250766 14.3856948,0.792244501 14.0088486,0.504086606 M11.456536,12.836455 L11.456536,13.8232971 C11.456536,14.3944813 10.5368233,14.8594813 9.40628486,14.8594813 C8.27574637,14.8594813 7.35603371,14.3944813 7.35603371,13.8232971 L7.35603371,12.836455 C7.35603371,12.2652708 8.27574637,11.8002708 9.40628486,11.8002708 C10.5368233,11.8002708 11.456536,12.2652708 11.456536,12.836455" id="Fill-1" fill="#FFFFFF" mask="url(#mask-2)"/>        </g>    </g></svg>