<svg viewBox="0 0 100 100" xmlns="http://www.w3.org/2000/svg" id="ice-hockey-icon">
  <g fill-rule="evenodd">
    <path d="M68.04 92.307c-.095.087-.223.19-.415.316-.736.477-1.9.98-3.38 1.43-3.524 1.071-8.305 1.712-13.667 1.712-5.362.002-10.14-.64-13.663-1.711-1.306-.397-2.368-.835-3.105-1.261a6.43 6.43 0 0 1-.28-.17 3.007 3.007 0 0 1-.415-.316V86.99a19.823 19.823 0 0 0 .647.234c.242.083.488.164.735.242 3.993 1.44 9.723 2.288 16.08 2.286 6.355 0 12.083-.848 16.076-2.285a20.323 20.323 0 0 0 1.01-.338c.124-.045.249-.096.376-.144v5.325zM36.914 81.056c3.522-1.07 8.302-1.712 13.664-1.712 5.364 0 10.142.641 13.664 1.712 1.425.433 2.544.913 3.285 1.375-.51.318-1.205.643-2.054.959-.121.038-.247.082-.37.12-3.84 1.185-9.016 1.85-14.524 1.85-5.507 0-10.68-.665-14.529-1.851-.122-.039-.244-.083-.366-.123-.749-.275-1.375-.56-1.862-.843a3.747 3.747 0 0 1-.191-.114c.74-.46 1.86-.94 3.284-1.374zM72.36 82.43c0-1.433-1.073-2.72-2.942-3.8-3.786-2.185-10.832-3.52-18.84-3.52-11.966 0-21.78 2.983-21.78 7.322 0 .193.04.384.082.574-.052.18-.083.371-.083.573v9.103c0 4.335 9.816 7.318 21.781 7.318 11.966.002 21.781-2.983 21.781-7.32v-9.107c0-.2-.031-.39-.083-.57.041-.187.083-.379.083-.574z"/>
    <path d="M12.852 80.641h-6.05l4.847-16.595h6.05l-4.847 16.595zm4.322 0 4.845-16.595H63.5l-2.259 7.727c1.44.239 2.8.527 4.071.86l2.51-8.587s.034.311 1.486-.816c1.452-1.129 1.84-3.333 1.84-3.333L89.575 0h-4.34L66.809 59.897H10.095c-.923 0-1.732.608-1.992 1.494L2.046 82.135a2.073 2.073 0 0 0 1.99 2.655H24.65v-1.203c0-.197.01-.395.028-.592a5.319 5.319 0 0 1-.027-.564c0-.633.077-1.228.22-1.79h-7.696zM93.696 0 75.27 59.897l-3.778 12.29c-.232.8-.599 1.567-1.037 2.303.359.177.708.358 1.035.547.985.568 1.78 1.168 2.425 1.779a14.165 14.165 0 0 0 1.56-3.464L98.039 0h-4.343z"/>
  </g>
</svg>
