<svg id="Layer_1" data-name="Layer 1" xmlns="http://www.w3.org/2000/svg" xmlns:xlink="http://www.w3.org/1999/xlink" viewBox="0 0 354.18 325.41"><defs><style>.cls-1{fill:url(#linear-gradient);}</style><linearGradient id="linear-gradient" x1="54.46" y1="169.34" x2="299.72" y2="169.34" gradientUnits="userSpaceOnUse"><stop offset="0" stop-color="#2f2063"/><stop offset="0.57" stop-color="#5e3282"/><stop offset="1" stop-color="#6251a2"/></linearGradient></defs><path class="cls-1" d="M231.14,160.92a90.09,90.09,0,0,0,.92-12.73A88.86,88.86,0,1,0,156,236.08v5.14c0,21.35,31.57,38.06,71.88,38.06s71.89-16.71,71.89-38.06V198.94C299.72,178.18,269.86,161.81,231.14,160.92Zm60.12,38c0,16-29,29.6-63.43,29.6S164.4,215,164.4,198.94s29-29.6,63.43-29.6S291.26,182.89,291.26,198.94Zm-82.38-97a80,80,0,0,1,14.27,37.74L203,125.28Zm-6.66-8.23-7.67,30.64-17.2,10.33-29.86-22.4V87L169.58,72.3A80.54,80.54,0,0,1,202.22,93.68ZM158.74,69.36,143.26,79.68,127.78,69.36a80.1,80.1,0,0,1,31,0Zm-41.8,2.94L139,87v25.22l-29.86,22.4L92,124.32,84.3,93.68A80.54,80.54,0,0,1,116.94,72.3ZM107.5,194.47l-32.26-3.59A79.78,79.78,0,0,1,63,150.33L88.49,132.1l17.36,10.42,11.6,38.68Zm-24-69.19L63.37,139.65a79.86,79.86,0,0,1,14.27-37.74Zm-1.43,74.87,24.62,2.73,10.68,21.35A80.6,80.6,0,0,1,82.05,200.15Zm61.21,28.39a80.85,80.85,0,0,1-15-1.43l-13.86-27.73,9.85-13.13h27.49v-8.46H125.26l-10.93-36.44,28.93-21.7,28.93,21.7-5.37,17.9,8.1,2.43,5.75-19.16L198,132.1l25.52,18.23a80.75,80.75,0,0,1-1,10.66C184.82,162.37,156,178.53,156,198.94v28.59A81.45,81.45,0,0,1,143.26,228.54Zm148-8.46c0,11.51-15.52,22.44-38.62,27.17l1.7,8.29c16.25-3.33,29.1-9.54,36.92-17.32v3c0,16-29,29.61-63.43,29.61s-63.43-13.56-63.43-29.61v-3c12,11.93,35.64,19.88,63.43,19.88,4.26,0,8.53-.19,12.71-.58l-.77-8.42c-3.92.36-7.94.54-11.94.54-34.38,0-63.43-13.56-63.43-29.6v-3C176.41,229.05,200,237,227.83,237s51.43-7.95,63.43-19.88Z"/></svg>