<svg id="Layer_1" data-name="Layer 1" xmlns="http://www.w3.org/2000/svg" viewBox="0 0 27.27 24"><defs><style>.cls-1{fill:none;stroke:#000;stroke-linecap:round;stroke-linejoin:round;stroke-width:1.5px;}.cls-2{font-size:7.92px;font-family:ArialRoundedMTBold, Arial Rounded MT Bold;}</style></defs><path class="cls-1" d="M4.15,8.38A4.86,4.86,0,0,1,9,3.91H18.4A5,5,0,0,1,22,5.5a5,5,0,0,1,1.33,3.71v1.42"/><path class="cls-1" d="M23.31,15.72h0A5,5,0,0,1,22,19.44,5,5,0,0,1,18.4,21H9c-2.92,0-4.89-2.38-4.89-5.3V13.26"/><text class="cls-2" transform="translate(6.26 14.79)">Abc</text><polyline class="cls-1" points="21.89 14.43 23.3 13.08 24.7 14.43"/><polyline class="cls-1" points="5.56 9.62 4.15 10.97 2.74 9.62"/></svg>