<svg viewBox="0 0 100 100" xml:space="preserve" xmlns="http://www.w3.org/2000/svg" id="lol-icon">
  <path d="M94.5 86.8c-.8.9-1.6 1.8-2.5 2.7-3 3.1-6 6.1-9 9.1-.7.7-1.4 1-2.4 1H17c-1.5 0-2.2-.4-2.6-1.5s.1-2 .9-2.7c2.4-2.4 4.9-4.8 7.3-7.3.3-.3.6-.9.6-1.4V13.2c0-.5-.2-1.1-.5-1.6-1.7-2.4-3.5-4.8-5.3-7.2-.6-.9-1.1-1.7-.6-2.8S18.3.3 19.4.3h23.3c2.2 0 3 .8 3 3.1v80.4h45.9c1.4 0 2.5.4 3.1 1.7-.2.4-.2.9-.2 1.3z"/>
  <path d="M94.5 57.5c-.3 2-.5 3.9-.9 5.9-1.1 5.5-3.1 10.6-6.1 15.3-.2.3-.6.7-.9.7-1.6.1-3.2 0-5 0C91 65.8 93 51.5 85.8 36.7c-7.1-14.8-19.5-22-35.8-22.9V9.3c2 .1 4 .1 5.9.4 14.7 2.3 25.8 10 33.1 23 3.1 5.5 4.9 11.5 5.4 17.8 0 .3.1.6.2 1-.1 2-.1 4-.1 6z"/>
  <path d="M50 18.4c7.2 0 13.8 2 19.7 6.1 9 6.1 14.3 14.7 15.6 25.5s-1.8 20.4-8.9 28.6c-.3.4-.9.7-1.3.7H50V18.4zM18.8 86.6c-18-17.2-17.7-47.5 0-64.2v6.3c0 .3-.3.6-.5.9-6.1 8.1-8.9 17.2-8.3 27.3.5 8.2 3.3 15.6 8.2 22.2.4.5.6 1.2.6 1.8.1 1.9 0 3.7 0 5.7z"/>
  <path d="M18.7 71.7c-5.7-9.8-6-23.9 0-34.4v34.4z"/>
</svg>
