<svg id="Layer_1" data-name="Layer 1" xmlns="http://www.w3.org/2000/svg" viewBox="0 0 27.27 24"><defs><style>.cls-1{fill:none;stroke:#fff;stroke-linecap:round;stroke-linejoin:round;stroke-width:1.5px;}</style></defs><path class="cls-1" d="M16.15,9v1.58h-4a2,2,0,1,0,0,4h4v1.59a.7.7,0,0,0,1.2.48L20.78,13a.72.72,0,0,0,0-1L17.35,8.48A.7.7,0,0,0,16.15,9Z"/><path class="cls-1" d="M22.61,16.26a5,5,0,0,1-1.33,3.25A4.92,4.92,0,0,1,17.7,21.1H8.28c-2.92,0-4.89-2.37-4.89-5.29V9.28C3.39,6.36,5.36,4,8.28,4H17.7a4.92,4.92,0,0,1,3.58,1.59,5,5,0,0,1,1.33,3.25"/></svg>
