<svg xmlns="http://www.w3.org/2000/svg" xmlns:xlink="http://www.w3.org/1999/xlink" width="15px" height="15px" viewBox="0 0 15 15" version="1.1">    <!-- Generator: Sketch 49 (51002) - http://www.bohemiancoding.com/sketch -->    <title>MMA-icon</title>    <desc>Created with Sketch.</desc>    <defs>        <polygon id="path-1" points="4.05405405e-05 0.000202702703 11.3513514 0.000202702703 11.3513514 14.5945946 4.05405405e-05 14.5945946"/>    </defs>    <g id="MMA-icon" stroke="none" stroke-width="1" fill="none" fill-rule="evenodd">        <rect id="Bound" x="0" y="0" width="15" height="15"/>        <g transform="translate(1.800000, 0.000000)">            <mask id="mask-2" fill="white">                <use xlink:href="#path-1"/>            </mask>            <g id="Clip-2"/>            <path d="M9.71193243,7.05587838 C9.71193243,6.83168919 9.53071622,6.65047297 9.30652703,6.65047297 L2.82733784,6.65047297 C2.60314865,6.65047297 2.42193243,6.83168919 2.42193243,7.05587838 L2.42193243,10.1564189 C2.42193243,10.3806081 2.60314865,10.5618243 2.82733784,10.5618243 L9.30652703,10.5618243 C9.53071622,10.5618243 9.71193243,10.3806081 9.71193243,10.1564189 L9.71193243,7.05587838 Z M11.3513919,0.928986486 L11.3513919,2.00168919 L11.3513919,2.41885135 L11.3513919,10.0137162 C11.3513919,10.7523649 10.7522027,11.3515541 10.0135541,11.3515541 L2.43247297,11.3515541 L1.61639189,11.3515541 L1.33787838,11.3515541 C0.598824324,11.3515541 4.05405405e-05,10.7523649 4.05405405e-05,10.0137162 L4.05405405e-05,5.67587838 C4.05405405e-05,5.64952703 0.00287837838,5.62966216 0.00409459459,5.60655405 C0.00328378378,5.59358108 4.05405405e-05,5.58101351 4.05405405e-05,5.56804054 C4.05405405e-05,5.05560811 0.415175676,4.64047297 0.927608108,4.64047297 C1.20287838,4.64047297 1.44733784,4.76209459 1.61639189,4.95304054 L1.61639189,1.61290541 C1.61639189,1.59709459 1.61841892,1.58695946 1.61882432,1.57236486 C1.62044595,1.40777027 1.62166216,1.28371622 1.62166216,0.928986486 C1.62166216,0.415743243 2.0372027,0.000202702703 2.55004054,0.000202702703 C3.06287838,0.000202702703 3.47841892,0.415743243 3.47841892,0.928986486 L3.48409459,0.928986486 C3.49909459,1.12682432 3.66004054,1.28452703 3.86193243,1.28452703 C4.06422973,1.28452703 4.22517568,1.12682432 4.24017568,0.928986486 L4.24625676,0.928986486 C4.24625676,0.415743243 4.66139189,0.000202702703 5.17463514,0.000202702703 C5.68706757,0.000202702703 6.10301351,0.415743243 6.10301351,0.928986486 L6.1095,0.928986486 C6.1245,1.12682432 6.28585135,1.28452703 6.48774324,1.28452703 C6.68963514,1.28452703 6.85058108,1.12682432 6.86558108,0.928986486 L6.87004054,0.928986486 C6.87004054,0.415743243 7.28598649,0.000202702703 7.79841892,0.000202702703 C8.31125676,0.000202702703 8.7267973,0.415743243 8.7267973,0.928986486 L8.73125676,0.928986486 C8.74625676,1.12682432 8.90760811,1.28452703 9.1095,1.28452703 C9.31139189,1.28452703 9.47233784,1.12682432 9.48733784,0.928986486 L9.49463514,0.928986486 C9.49463514,0.415743243 9.91017568,0.000202702703 10.4230135,0.000202702703 C10.9358514,0.000202702703 11.3513919,0.415743243 11.3513919,0.928986486 Z M3.43544595,9.75101351 L8.69841892,9.75101351 C8.81031081,9.75101351 8.90112162,9.66060811 8.90112162,9.54831081 L8.90112162,7.66398649 C8.90112162,7.55209459 8.81031081,7.46128378 8.69841892,7.46128378 L3.43544595,7.46128378 C3.32314865,7.46128378 3.23274324,7.55209459 3.23274324,7.66398649 L3.23274324,9.54831081 C3.23274324,9.66060811 3.32314865,9.75101351 3.43544595,9.75101351 Z M2.43247297,12.1623649 L9.72977027,12.1623649 L9.72977027,13.7353378 C9.72977027,14.2096622 9.34504054,14.5947973 8.87031081,14.5947973 L3.29193243,14.5947973 C2.8172027,14.5947973 2.43247297,14.2096622 2.43247297,13.7353378 L2.43247297,12.1623649 Z" id="Fill-1" fill="#FFFFFF" mask="url(#mask-2)"/>        </g>    </g></svg>