<svg id="Layer_1" data-name="Layer 1" xmlns="http://www.w3.org/2000/svg" xmlns:xlink="http://www.w3.org/1999/xlink" viewBox="0 0 354.18 325.41"><defs><style>.cls-1{fill:url(#New_Gradient_Swatch_15);}.cls-2{fill:url(#New_Gradient_Swatch_15-2);}.cls-3{fill:url(#New_Gradient_Swatch_15-3);}.cls-4{fill:url(#New_Gradient_Swatch_15-4);}.cls-5{fill:url(#New_Gradient_Swatch_15-5);}.cls-6{fill:url(#New_Gradient_Swatch_15-6);}</style><linearGradient id="New_Gradient_Swatch_15" x1="94.5" y1="109.37" x2="226.18" y2="199.16" gradientUnits="userSpaceOnUse"><stop offset="0" stop-color="#950c37"/><stop offset="0.43" stop-color="#ff265a"/><stop offset="1" stop-color="#ff4d7c"/></linearGradient><linearGradient id="New_Gradient_Swatch_15-2" x1="88.08" y1="118.78" x2="219.77" y2="208.57" xlink:href="#New_Gradient_Swatch_15"/><linearGradient id="New_Gradient_Swatch_15-3" x1="99.04" y1="102.72" x2="230.72" y2="192.5" xlink:href="#New_Gradient_Swatch_15"/><linearGradient id="New_Gradient_Swatch_15-4" x1="107.94" y1="89.66" x2="239.62" y2="179.45" xlink:href="#New_Gradient_Swatch_15"/><linearGradient id="New_Gradient_Swatch_15-5" x1="122.36" y1="68.51" x2="254.04" y2="158.3" xlink:href="#New_Gradient_Swatch_15"/><linearGradient id="New_Gradient_Swatch_15-6" x1="78.11" y1="133.4" x2="209.8" y2="223.19" xlink:href="#New_Gradient_Swatch_15"/></defs><g id="z4XQ63.tif"><path class="cls-1" d="M173,65.81a14.86,14.86,0,0,1,9.27,6.2c6.66-3.83,13.83-2.46,20.74-2.07,4.88.28,8.28,3.63,10.26,8.18.18.41.35.82.59,1.38,4.52-2,9.1-1.8,13.67-.52A22.57,22.57,0,0,1,244,100.32c.12,10.88,0,21.76,0,32.64,0,2.82-1.58,4.61-3.92,4.57s-3.82-1.81-3.83-4.67c0-5.18,0-10.35,0-16-7-1.87-13.87-4-20.92-5.56a156.3,156.3,0,0,0-82.12,4.19,3.71,3.71,0,0,0-2,1.93c-2,5.44-4,10.94-5.88,16.43a9.08,9.08,0,0,0-.47,2.83c0,5,0,10,0,15a12.8,12.8,0,0,1-.06,1.75A3.9,3.9,0,0,1,121,157a3.74,3.74,0,0,1-3.87-3.6c-.11-6.4-.19-12.82.06-19.22.08-2,1.24-4,1.92-6.08.26-.78.55-1.56.92-2.62-.8.19-1.34.27-1.87.43-4,1.23-8.1,2.28-12,3.74-7.53,2.82-11.24,9.79-10.21,17.79A68.59,68.59,0,0,0,109.47,181a118.59,118.59,0,0,0,9.17,10,3.46,3.46,0,0,0,2.28.64c10.67,0,21.35,0,32,0,3.14,0,4.86,1.76,4.5,4.47-.29,2.06-1.89,3.28-4.55,3.29-7.12,0-14.24,0-21.35,0h-2.34c.75.66,1.14,1,1.56,1.38,2.08,1.64,4.3,3.14,6.23,4.95,2.63,2.47,5.33,4,9,2.52a9.33,9.33,0,0,1,3.27-.24q30,0,60,0c4.62,0,9.23.32,14.28.51,3.72-8.45,9.71-16.61,11.56-26.5.85-4.54.79-9.25,1.1-13.89.08-1.23-.06-2.47.06-3.69a4,4,0,0,1,3.93-3.79,3.9,3.9,0,0,1,3.76,3.95c.22,8.44.18,16.87-2.81,24.92-1.32,3.57-3,7-4.65,10.44-2,4.25-4.28,8.42-6.32,12.67a2.56,2.56,0,0,0,.16,2.18,17.58,17.58,0,0,1,3.09,10.24c0,7.51.06,15,0,22.54-.09,10.12-7.06,17.08-17.14,17.09q-33.87,0-67.75,0c-10.2,0-17.13-7-17.16-17.25,0-6.8.07-13.6,0-20.4-.07-4.65.53-9,3.69-12.9-.61-.52-1.13-1-1.66-1.41-7-5.63-14.35-10.91-21-17-13.77-12.6-21.72-28.41-24.17-46.95a6,6,0,0,0-.35-1.06v-6.22c.1-.16.27-.3.3-.47,1.84-10.46,8.12-16.82,18.14-19.77,3.56-1,7.11-2.18,10.68-3.28v-2.33c0-8.8,0-17.59,0-26.39s5.25-16.1,13.71-17.86c5.84-1.22,11.92-1.58,17.74,1.46,2.11-4,5.6-6,9.69-7.13ZM216.51,256.9c5.66,0,9.14-3.61,9.18-9.11.05-7.25,0-14.51,0-21.76,0-6.92-3.3-10.21-10.24-10.21H149.27a17.14,17.14,0,0,0-3.28.25,8.17,8.17,0,0,0-6.75,7.73c-.13,8.41-.2,16.84,0,25.25.13,5.26,5.3,8.86,10.46,7.61,0-1.91,0-3.84,0-5.78.15-8.89,6.11-15.47,14.69-15.61q18.83-.3,37.66,0c7.89.13,13.74,5.89,14.41,13.75C216.69,251.6,216.51,254.19,216.51,256.9Zm-7.6,0c0-1.71,0-3.26,0-4.8a24.58,24.58,0,0,0-.13-2.71,6.94,6.94,0,0,0-6.9-6.35q-18.72-.09-37.43,0a6.68,6.68,0,0,0-6.7,5.87,66.17,66.17,0,0,0-.06,8ZM124.83,111.12a43,43,0,0,1,6.06-3c4.79-1.53,9.68-2.76,14.54-4.07.87-.24,1.49-.42,1.48-1.58-.07-6,0-12-.07-18a5.73,5.73,0,0,0-6-5.81c-2.07,0-4.14-.06-6.2,0a9.87,9.87,0,0,0-9.77,9.62C124.71,96,124.83,103.79,124.83,111.12ZM176.5,99.86c0-7.18.13-14.36-.07-21.53-.07-2.79-2.67-4.68-5.72-4.73s-6.34,0-9.51,0c-4.32,0-6.54,2.24-6.55,6.6q0,10.09,0,20.2c0,.57.06,1.13.09,1.63Zm29.72,1.69a2.19,2.19,0,0,0,.18-.6c0-6,.07-12,0-18a5.47,5.47,0,0,0-5.64-5.47c-3.36-.07-6.72,0-10.08,0-3.87,0-6.11,2.24-6.21,6.15-.06,2.58,0,5.17,0,7.76v8.44Zm30,7.16c0-2.92.16-5.83,0-8.73a15.07,15.07,0,0,0-15.91-14.15c-3.63.15-5.93,2.35-6,6-.1,3.36-.07,6.72,0,10.08a1.88,1.88,0,0,0,1.07,1.42C222.22,105.15,229.15,106.9,236.2,108.71Z"/><path class="cls-2" d="M146.25,152.37c2.6-3.1,5-6,7.4-8.86,1.3-1.6,2.85-2.53,4.9-1.82s2.59,2.51,2.59,4.54c0,8.15,0,16.31,0,24.46a6.34,6.34,0,0,1-.5,2.64,3.49,3.49,0,0,1-4,2,3.4,3.4,0,0,1-3.12-3.42c-.12-4.33-.09-8.67-.12-13a5.32,5.32,0,0,0-.41-2.41c-1,1.21-2,2.43-3,3.63-2.48,2.89-4.83,2.89-7.28,0L139.16,156v2.74c0,4.21.06,8.42,0,12.62a3.85,3.85,0,1,1-7.7,0c-.06-8.67,0-17.35,0-26a3.63,3.63,0,0,1,2.59-3.71,3.8,3.8,0,0,1,4.37,1.28C141,146,143.52,149.09,146.25,152.37Z"/><path class="cls-3" d="M187.7,156.22l-3.08,3.68c-2.69,3.21-5,3.22-7.66,0l-3.07-3.67a15.56,15.56,0,0,0-.18,1.67c0,4.08,0,8.16,0,12.24a10.37,10.37,0,0,1-.11,1.93,3.74,3.74,0,0,1-4.11,3.28,3.68,3.68,0,0,1-3.49-3.74c-.1-3.23,0-6.47,0-9.71,0-5.37,0-10.75,0-16.12,0-2,.7-3.48,2.57-4.13a4,4,0,0,1,4.64,1.51c2.47,3,5,5.95,7.63,9.15l5.28-6.28c.84-1,1.67-2,2.49-3a3.9,3.9,0,0,1,4.51-1.42,3.77,3.77,0,0,1,2.55,3.94q0,8.65,0,17.29c0,2.72,0,5.44,0,8.16s-1.45,4.27-3.7,4.35-4-1.52-4-4.25c-.1-4.27,0-8.55,0-12.82C187.83,157.8,187.76,157.24,187.7,156.22Z"/><path class="cls-4" d="M229.09,171.47a3.84,3.84,0,0,1-2.55,3.73,3.69,3.69,0,0,1-4.09-1,1.81,1.81,0,0,1-.55-.79c-.64-3.33-3-3.36-5.67-3.17a47.13,47.13,0,0,1-6.4,0,2.15,2.15,0,0,0-2.51,1.73c-.65,2-1.75,3.5-4.12,3.44a3.78,3.78,0,0,1-3.61-4.66,7.14,7.14,0,0,1,.4-1.29q5.25-12.61,10.52-25.23a3.88,3.88,0,0,1,3.42-2.74,3.72,3.72,0,0,1,4,2.48q5.42,12.87,10.75,25.77A10.78,10.78,0,0,1,229.09,171.47Zm-17.7-9.13h5.77l-2.91-6.93Z"/><path class="cls-5" d="M244,148.81a3.86,3.86,0,1,1-3.86-3.8A3.86,3.86,0,0,1,244,148.81Z"/><path class="cls-6" d="M173.05,195.56a3.8,3.8,0,1,1-7.6,0,3.8,3.8,0,1,1,7.6,0Z"/></g></svg>