<svg xmlns="http://www.w3.org/2000/svg" viewBox="0 0 48 48"><g data-name="30. Motor Sport"><path d="M43.26,25.7a8.19,8.19,0,0,0,4.32-10C45.75,10.18,37.47,7,31.66,7h-2a1,1,0,0,0-.78,1.62c3.38,4.23,3.69,4.44,4.06,5.65-1.15-.36-1.15-.27-8-.27a5,5,0,0,0-4.9,4H14c-3.36-2.92-3.32-3-3.82-3H1a1,1,0,0,0-1,1c0,3.68-.19,4.2.61,4.54L15,26.66v.65l-1,.38A8,8,0,0,0,0,33c0,8.24,11.06,11.08,15,3.84C15,38,15.9,38,16,38c18.65,0,17.19.09,17.6-.22A8,8,0,0,0,40,41C48.55,41,51.15,29.23,43.26,25.7Zm2.6-8.7a6.05,6.05,0,0,1-.31,3.57c-.21.52-.14.43-.55.43a2,2,0,0,1,0-4ZM25,16c6.72,0,7-.17,8.12.5A4.8,4.8,0,0,1,30.54,20l-6.09,3L22,18.77A3,3,0,0,1,25,16Zm-4.58,4L21,21c-3.82,0-4.93.33-5.71-1ZM2,17H9.83a38.91,38.91,0,0,0,3.25,2.81A4,4,0,0,0,17,23h5.14l.51.91L20.46,25H16.2L2,19ZM15,34H8a1,1,0,0,1,0-2c.26,0-.24.16,7-2.56ZM2,33a6,6,0,0,1,9.92-4.54L7.75,30A3,3,0,0,0,5,33a3,3,0,0,0,3,3h5.18A6,6,0,0,1,2,33Zm30,3H17V27c5,0,3,.46,7.54-1.8.56-.32-2.34,1.17,6.9-3.45a6.78,6.78,0,0,0,3.76-6.09c0-2.86-1.49-4.24-3.42-6.66C38,9,43.5,12.4,45.07,15A4,4,0,0,0,44,22.85c-.92.85-1.43,1-4.13,2.16A8,8,0,0,0,32,33Zm8,3a6,6,0,0,1-2.82-11.29l1,2.94a3,3,0,1,0,1.9-.64l-1-2.93A6,6,0,1,1,40,39Zm0-7a1,1,0,0,1,0,2A1,1,0,0,1,40,32Z"/><path d="M22,32H20a1,1,0,0,0,0,2h2A1,1,0,0,0,22,32Z"/></g></svg>