<svg xmlns="http://www.w3.org/2000/svg" viewBox="0 0 48 48"><g data-name="30.Motor Sport"><path d="M41,33a1,1,0,0,1-2,0A1,1,0,0,1,41,33Z"/><path d="M46 33a6 6 0 1 1-8.82-5.29l1 2.94a3 3 0 1 0 1.9-.64l-1-2.93A6 6 0 0 1 46 33zM45.71 20.1c-.36 1.09-.31.9-.71.9a2 2 0 0 1-1.41-3.41c.65-.65 1.23-.59 2.27-.59A5.9 5.9 0 0 1 45.71 20.1zM33.12 16.5A4.8 4.8 0 0 1 30.54 20l-6.09 3L22 18.77A3 3 0 0 1 25 16C31.59 16 32 15.83 33.12 16.5z"/><path d="M45.07 15c-1.57-2.58-7-6-13.29-6l1.93 2.42a6.8 6.8 0 0 1-2.27 10.33C31.17 21.88 21 27 20.7 27H17v9H32V33a8 8 0 0 1 7.85-8C42.18 24 43 23.76 44 22.85A4 4 0 0 1 45.07 15zM22 34H20a1 1 0 0 1 0-2h2A1 1 0 0 1 22 34zM15 29.44V34H8a1 1 0 0 1 0-2C8.3 32 7.85 32.13 15 29.44zM21 21c-3.84 0-4.92.33-5.71-1h5.14z"/><path d="M22.65 23.91L20.46 25H16.2L2 19V17H9.83c3.66 3.18 3.11 2.72 3.25 2.81A4 4 0 0 0 17 23h5.14zM13.18 36a6 6 0 1 1-1.26-7.54L7.75 30A3 3 0 0 0 5 33a3 3 0 0 0 3 3z"/></g></svg>