<svg id="Layer_1" data-name="Layer 1" xmlns="http://www.w3.org/2000/svg" viewBox="0 0 24 24"><defs><style>.cls-1{fill:none;stroke:#000;stroke-linecap:round;stroke-linejoin:round;stroke-width:1.5px;}</style></defs><path class="cls-1" d="M7.1,3.91h9.43A5,5,0,0,1,20.11,5.5a5,5,0,0,1,1.32,3.71v6.52a5,5,0,0,1-1.32,3.71A5,5,0,0,1,16.53,21H7.1c-2.92,0-4.89-2.38-4.89-5.3V9.21C2.21,6.29,4.18,3.91,7.1,3.91Z"/><line class="cls-1" x1="6.23" y1="8.36" x2="14.83" y2="8.36"/><line class="cls-1" x1="6.23" y1="11.1" x2="17.42" y2="11.1"/><line class="cls-1" x1="8.63" y1="13.84" x2="17.42" y2="13.84"/><line class="cls-1" x1="6.23" y1="16.58" x2="17.42" y2="16.58"/></svg>