<svg xmlns="http://www.w3.org/2000/svg" viewBox="0 0 100 100" style="enable-background:new 0 0 100 100" xml:space="preserve" id="overwatch-icon">
  <path d="M.3 49.3C.7 22.2 22.9 0 50.5.3c27.2.3 49.1 22.5 49.2 49.5.1 27.9-22.7 50.5-50.7 49.9C21.8 99.2-.1 76.7.3 49.3zM78 66.2C85.3 54 84 36 70.4 24.9c-13.1-10.7-32.5-9.4-44 2.9S16 56.8 22 66.2c.6-.6 1.2-1.1 1.8-1.7 5.1-4.9 10.2-9.7 15.3-14.6.2-.2.4-.5.6-.8 2.4-5.6 4.8-11.2 7.2-16.9.3-.6.6-1.3.8-1.9h.1v32.1c0 .2-.1.5-.2.6-4.9 4.5-9.8 9.1-14.7 13.6-.7.6-1.4 1.3-2.1 1.9 5.5 3.8 13.3 6.5 22.1 5.8 5.9-.5 11.4-2.4 16.3-5.7-2.6-2.4-5.1-4.7-7.6-7-3-2.8-6.1-5.6-9.1-8.4-.2-.2-.3-.4-.3-.7V30.4c.7 1.3 1.3 2.7 1.8 4 2.1 4.9 4.2 9.8 6.2 14.6.1.2.2.5.4.7 1.1 1.1 2.3 2.2 3.5 3.3 3.6 3.4 7.2 6.9 10.8 10.3 1 1 2.1 1.9 3.1 2.9zM21.4 14.9c1.9 2.2 3.7 4.3 5.6 6.5 6.8-5.4 14.5-8.2 23.1-8.2 8.6 0 16.3 2.8 23.1 8.1 1.9-2.2 3.7-4.4 5.6-6.5C62 .9 37 1.5 21.4 14.9z"/>
</svg>
