<svg id="Layer_1" data-name="Layer 1" xmlns="http://www.w3.org/2000/svg" viewBox="0 0 27.27 24"><defs><style>.cls-1{fill:none;stroke:#000;stroke-linecap:round;stroke-linejoin:round;stroke-width:1.5px;}</style></defs><path class="cls-1" d="M10,13.3a3.58,3.58,0,1,1,7.16,0"/><rect class="cls-1" x="7.99" y="13.29" width="11.25" height="8.07" rx="1.56"/><path class="cls-1" d="M16.22,10.84H20a1.75,1.75,0,0,0,1.75-1.75V6.75A1.74,1.74,0,0,0,20,5H7.27A1.75,1.75,0,0,0,5.52,6.75V9.09a1.75,1.75,0,0,0,1.75,1.75H11"/><circle cx="8.58" cy="7.74" r="0.91"/><circle cx="11.94" cy="7.74" r="0.91"/><circle cx="15.29" cy="7.74" r="0.91"/><circle cx="18.65" cy="7.74" r="0.91"/></svg>