<?xml version="1.0" encoding="utf-8"?>

<!DOCTYPE svg PUBLIC "-//W3C//DTD SVG 1.1//EN" "http://www.w3.org/Graphics/SVG/1.1/DTD/svg11.dtd">
<svg version="1.1" id="Layer_1" xmlns="http://www.w3.org/2000/svg" xmlns:xlink="http://www.w3.org/1999/xlink" x="0px" y="0px"
	 viewBox="0 0 1742.283 1665.005" enable-background="new 0 0 1742.283 1665.005" xml:space="preserve">
<g>
	<path d="M1198.479,36.188c157.639-16.421,131.461,67.013,152.655,75.288c1.683,4.656,4.966,28.495,4.885,31.691
		c-1.077,3.562-5.235,4.885-8.183,6.586c-0.586,2.816-1.077,5.773-2.863,8.117c-1.295,2.211-3.704,4.271-2.958,7.096
		c5.267,29.978-35.18,25.338-23.121,46.545c2.863-3.506,5.357-7.946,10.053-9.222c13.611-2.626,39.63,3.707,40.734,4.035
		c27.796,10.705,30.792,23.924,43.295,36.907c4.29,4.375,2.712,11.461,6.699,15.987c15.471,20.088,8.076,9.935,11.811,22.28
		c2.006,12.167,7.682,11.211,5.424,23.877c-0.554,2.419,0.517,24.786,1.115,27.194c5.301,29.373-2.607,66.825,4.753,85.002
		c1.616,7.861-2.854,15.071-3.458,22.762c2.211,0.992,4.035,2.561,5.178,4.734c-0.595,0.198-1.786,0.614-2.381,0.822
		c0.038,0.567,0.104,1.701,0.142,2.258c8.937,6.075,4.82,23.597,6.661,30.387c4.957,25.069,0.991-3.895-0.614,45.194
		c1.017,32.631-4.404,31.889-3.524,49.569c0.497,28.13-8.572,44.187-28.006,84.34c-4.442,9.065,1.613,9.485-10.365,20.976
		c-1.2,3.874,0.954,7.88,0.557,11.849c-4.353,34.744,7.944,9.621-38.485,75.184c-4.921,0.089-2.876-0.394-16.252,8.447
		c6.151,11.919,9.646,13.122,12.756,17.282c-2.277,0.935-4.62,1.748-7.049,2.117c-2.05-1.474-3.061-3.997-4.498-6.009
		c-2.126-3.638-6.047-5.698-8.173-9.326c-9.931,4.961-20.041,9.647-29.414,15.619c24.005,10.049,160.993,26.833,169.852,41.433
		c2.057,7.901-11.062,6.182-14.551,13.824c-2.394,4.764-43.011,4.611-52.517,5.159c4.351,3.449,62.985,3.483,63.987,3.449
		c5.802-0.161,11.055-2.976,16.073-5.641c2.712-1.285,2.976-6.161,6.548-5.641c1,0.231,82.079,19.893,98.23,27.411
		c3.175,1.342,6.68,1.191,10.072,1.238c0.227,0.52,0.69,1.568,0.917,2.088c6.625-0.277,50.873,15.154,51.874,15.194
		c0.265,0.472,0.803,1.417,1.068,1.89c1.956-0.009,3.931,0,5.906-0.085c0.142,0.472,0.425,1.408,0.567,1.871
		c9.164,1.013,18.647,7.513,22.139,8.032c4.998,1.257,10.885,3.883,12.255,9.354c-8.203,30.329-161.672,1.245-190.602,0.935
		c0.661,2.183,1.276,4.403,1.947,6.614c-1.209,1.474-2.617,2.891-3.005,4.828c-2.777,10.387-11.191,14.362-14.391,21.515
		c5.802,0.491,11.565-0.68,17.14-2.192c3.893,0.728,6.028,4.432,6.652,8.069c4.585,0.812,7.72,7.843,8.315,12.803
		c4.743-0.529,9.666-1.994,14.211,0.35c-1.663,1.833-3.439,3.553-4.98,5.48c1.436-0.236,2.891-0.501,4.365-0.756
		c3.43,6.917,4.715,14.91,3.439,22.564c-2.677,7.701-5.045,7.277-11.896,7.956c-4.195,4.961-3.222,12.69-8.504,16.942
		c-7.37,4.841-273.55,27.363-275.358,27.95c-90.484,22.129-69.953-18.669-74.447,54.822c8.886,0.645,5.631,0.38,11.754,4.809
		c17.551,4.405,4.155,3.337,17.452,5.792c2.513,0.132,3.808,2.712,6,3.657c1.172,0.095,2.372,0.142,3.581,0.142
		c-0.26-5.208-3.756-7.465,5.461-14.428c14.856-11.451,18.649-6.29,21.997-4.309c2.192-1.115,4.347-2.334,6.321-3.817
		c-0.491-2.731-1.559-5.962,0.454-8.343c4.68-5.642,16.056-9.339,19.455-8.684c1.701,0.869,3.052,2.353,4.885,3.043
		c3.893-1.351,8.835-2.485,10.8-6.539c2.807-6.877,21.026-12.036,29.546-3.921c1.644,1.861,4.016,1.767,6.265,1.257
		c3.477-11.018,13.154-13.5,23.811-11.405c1.531,1.181,2.117,3.165,3.052,4.809c22.491,0.366,15.595-9.542,37.493-3.6
		c1.862,0.491,2.551,2.542,3.695,3.921c2.116-0.076,4.233-0.161,6.378-0.151c-1.38,1.531-2.768,3.052-4.016,4.696
		c2.608,0.832,6.161,2.4,8.428,0.019c7.354-7.195,17.615-6.591,23.169-1.88c3.534,3.118,9.184,2.806,12.094,6.803
		c1.039,1.956,1.294,4.365,3.137,5.868c2.901-3.09,7.115-6.038,11.556-4.573c15.157,6.406,13.142,6.443,14.957,12.463
		c2.627,2.768,5.358,5.471,8.117,8.135c8.19-6.904,15.497-4.221,23.339,3.099c0.359,3.383-2.957,6.595-0.576,9.817
		c13.941,1.749,7.519,0.545,15.184,6.784c2.4,0.028,4.734-0.822,7.162-0.813c4.715,1.294,8.183,5.055,11.244,8.674
		c3.43,3.256-2.026,7.425-1.408,9.704c2.211,2.116,5.216,2.787,8.126,3.42c3.874,0.605,5.121,5.452,8.976,6.095
		c1.937,0.331,3.95,0.293,5.896,0.784c2.053,1.229,11.87,11.519,12.718,18.359c-0.605,2.485-2.542,4.403-3.468,6.775
		c0.104,2.258,2.135,3.902,3.657,5.414c5.6,3.441,13.506-4.061,18.973,11.14c0.728,1.786-1.313,3.062-2.079,4.46
		c1.361,9.859-2.169,11.809,3.638,14.986c2.891,1.03,6.236-0.539,8.986,1.228c0.801,1.002,7.757,12.656,8.079,14.835
		c0.057,3.156-3.345,6.349-0.964,9.354c1.918,2.787,3.203,5.906,3.798,9.25c-2.022,2.428-2.816,5.461-3.062,8.561
		c3.402,1.587,7.219,1.266,10.791,1.805c2.22,2.948,2.494,7.134,3.515,10.696c1.285,3.931-3.298,5.754-5.65,7.871
		c1.455,1.304,3.052,2.457,4.507,3.798c2.315,4.517,3.525,10.469,0.227,14.854c7.519,3.728,9.994,1.142,10.233,23.093
		c-3.052,1.049-7.616,1.408-7.795,5.556c-1.162,3.137,2.598,4.167,4.063,6.208c1.276,2.173,2.239,4.573,4.072,6.406
		c2.737,2.471,2.381,13.722,0.359,16.696c-3.806,3.895-9.105,2.314-9.439,10.621c2.343,3.213,8.419,3.666,8.003,8.646
		c-1.597,32.162-8.01,24.86-15.609,35.962c2.702,2.939,5.339,6.019,7.068,9.666c-0.257,20.181-15.014,16.32-19.899,30.189
		c-0.482,4.129,4.441,6.302,4.781,10.195c-1.494,14.764-14.486,14.514-17.537,15.279c-0.718,2.608-2.343,4.828-3.222,7.379
		c0.548,2.457,2.343,4.734,1.739,7.389c-1.167,6.21-7.269,18.307-19.795,17.017c-6.599,35.161-29.814,27.915-33.609,28.696
		c-1.71,4.356,0.822,9.836-2.778,13.427c-6.027,7.454-18.778,13.484-26.75,7.672c-2.069,1.247-4.781,1.767-6.293,3.732
		c-0.248,5.231,3.65,8.506-6.775,13.947c-4.072,1.833-8.428,3.808-13.011,3.241c-1.682-0.728-2.844-2.192-4.365-3.099
		c-12.613-0.028-8.882,11.575-20.608,13.824c-19.838,3.462-17.346-4.534-26.334-3.921c-1.484,2.428-2.296,5.282-4.139,7.493
		c-6.28,5.758-19.837,5.16-21.988,2.419c-1.049-2.183-0.737-5.121-2.598-6.803c-2.967-0.501-5.972-0.189-8.939-0.019
		c-7.828,12.642-24.164,8.286-28.781,5.792c-2.324-2.334-3.827-5.414-5.14-8.4c-2.447-0.302-5.008-1.691-7.408-0.898
		c-8.278,8.562-7.333,7.567-19.304,6.179c-3.175-0.378-5.584-2.731-7.106-5.367c-15.612-0.518-6.78-10.54-11.906-11.726
		c-6.744,6.208-8.022,11.744-25.767-0.501c-2.797-1.729-1.351-5.301-1.058-7.909c-3.411-1.351-5.707-4.186-8.372-6.501
		c-4.892-0.855-9.506,12.194-25.994-4.044c0.917-2.74,3.798-5.698,2.032-8.617c-1.143-2.731-4.63-1.956-6.954-2.476
		c-3.26-0.161-5.339-3.024-7.691-4.885c-3.395,0.566-10.695,4.821-20.561-10.451c-0.491-3.061,2.088-5.527,2.778-8.353
		c-0.959-5.826-5.567,0.519-14.514-9.326c-2.882,0.217-5.962,0.794-8.646-0.548c-4.825-4.979-11.555-16.395-11.972-17.395
		c1.247-2.806,3.477-4.979,5.159-7.512c-1.946-1.994-2.901-5.452-5.962-5.915c-3.865-1.455-8.306,1.531-11.726-1.465
		c-10.049-11.242-5.596-13.239-3.562-16.29c-0.671-1.276-1.342-2.542-1.965-3.798c0.728-1.36,1.474-2.693,2.249-4.006
		c-1.323-1.928-2.627-3.855-4.035-5.698c-2.589,0.151-5.49,1.786-7.899,0.699c-4.942-5.234-9.506-11.594-10.091-19.002
		c1.691-1.191,3.354-2.447,4.753-3.987c-3.71-2.764-8.972-10.195-2.532-18.255c-3.118-0.813-6.34-0.813-9.515-1.011
		c-3.513,0.107-6.156-11.125-5.821-16.63c2.315-1.663,4.639-3.364,6.586-5.48c-10.16-5.611-5.241-15.82-4.479-18.368
		c-2.457-0.425-4.961-0.567-7.37-1.2c-2.107-1.398-5.111-10.572-1.436-20.646c1.635-2.069,5.121-1.729,6.709-4.006
		c2.45-6.564-2.065-4.75-3.647-10.176c-1.094-5.343-11.165-3.086-5.499-20.287c3.113-5.285,8.251-2.482,10.365-11.452
		c-2.693-1.068-5.868-1.748-7.531-4.356c-1.228-2.259-2.405-16.955,0.992-24.019c1.346-2.55,13.349-9.75,14.173-18.113
		c-13.03-4.056-6.293-13.171-3.978-19.729c-8.287-6.699-17.405-12.312-25.776-18.926c-1.087-1.077-2.617-0.293-3.883-0.246
		c2.024,7.81,11.755,23.909-23.528,30.945c-17.225-1.803-15.124-14.004-18.312-18.917c-0.675-1.007-26.566-31.521-34.554-33.279
		c-2.41,0.539-4.346,2.22-6.463,3.402c-1.606-0.879-3.184-1.776-4.724-2.731c-7.472,2.832-24.276-1.462-35.972-0.567
		c-3.439,0.331-6.321-1.928-9.487-2.816c-13.88,1.091-7.956-3.221-16.025,2.277c-5.628,4.984-13.926,11.238-36.888,7.729
		c-18.538-0.856-21.475-8.907-22.082-15.808c-4.356-4.347-9.156-8.655-15.269-10.29c-3.458-0.557-3.468-4.677-5.764-6.444
		c-4.04-1.565-31.525-15.863-39.118-16.413c-2.891,0.406-5.962,1.937-8.693,0.104c-22.261-13.172-56.784-14.888-78.331-67.361
		c-10.524-28.832-10.811-94.391,5.849-103.427c-0.18-14.277,0.236-28.564-0.17-42.832c-18.324-11.214-24.14-31.91-17.291-49.805
		c1.597-5.433,5.159-9.931,7.672-14.91c-3.895-27.626-1.365-43.05-1.436-50.882c-47.096-0.562-16.019-27.688-61.824-100.838
		c-0.679-1.003-13.787-21.128-15.033-24.057c-2.031,1.068-4.148,2.013-6.047,3.317c-1.124,1.436-1.843,3.146-2.929,4.611
		c-1.313,0.86-3.005,0.784-4.479,1.2c-0.274,1.294-0.482,2.617-0.832,3.921c-1.247,1.38-3.109,1.918-4.715,2.769
		c-2.13,6.779-3.627,2.507-8.542,11.452c-1.238,0.274-2.457,0.567-3.676,0.86c-0.529,1.654-0.907,3.411-1.805,4.942
		c-1.332,1.011-2.995,1.436-4.498,2.117c-3.02,5.705-18.668,16.99-19.994,17.868c-1.001,0.988-10.177,10.505-12.52,12.019
		c-2.57,3.128-6.189,5.178-8.513,8.513c-2.227,1.827-25.957,25.412-31.682,30.274c3.987,2.428,6.709,6.605,8.211,10.961
		c1.162,2.617-1.644,4.375-2.646,6.491c-0.321,2.031,0.917,3.836,1.663,5.641c6.366,13.01,4.345,11.087,14.183,13.068
		c9.963,21.464-8.221,9.037,6.265,30.765c1.72,2.92,6.18,2.391,7.701,5.556c2.05,4.016,3.685,9.619-0.076,13.191
		c3.657,3.506,5.121,8.598,4.243,13.569c-1.002,1.455-2.58,2.362-3.912,3.487c1.748,2.504,5.055,2.797,7.209,4.734
		c2.003,4.233,4.261,10.28,0.17,14.031c6.976,15.659-1.667,14.412-1.493,18.274c2.324,2.041,6.255,2.882,6.898,6.35
		c3.192,17.213-8.044,6.839-7.172,28.847c1.635,3.581,6.359,5.254,6.794,9.553c0.521,20.955-10.447,4.514-10.857,26.976
		c1.731,5.839,11.731,7.096-1.03,22.45c-1.436,3.137-1.852,6.661-3.411,9.77c-1.474,1.54-3.685,2.145-5.452,3.317
		c6.018,11.985,8.869,4.092-7.54,30.076c-1.446,1.077-3.222,1.578-4.857,2.287c-0.52,4.347,4.016,7.795,2.305,12.17
		c-4.457,12.273-11.673,10.27-14.476,11.943c-2.287,2.58-4.12,5.584-5.65,8.665c-0.063,6.263,5.81,8.459-5.613,19.748
		c-2.353,2.239-5.669,1.455-8.495,0.926c-3.449,2.646-6.151,6.057-8.816,9.449c0.958,3.073,6.87,8.261-8.693,17.584
		c-3.833,1.195-4.332-1.491-16.724,7.039c0.293,2.958,0.841,6.019-0.066,8.939c-18.612,18.233-10.919,0.809-27.005,12.917
		c-3.495,2.453,0.602,8.099-8.013,12.718c-2.882,1.493-5.745,3.383-9.052,3.685c-2.135-0.397-3.78-2.013-5.849-2.57
		c-16.349,2.885-9.963,10.229-14.58,13.795c-3.931,2.608-8.608,5.206-13.502,4.129c-1.861-1.011-3.345-2.551-5.159-3.609
		c-21.27,1.491-6.509,13.861-28.876,14.674c-3.609,0.028-4.809-4.054-7.71-5.348c-2.324,1.124-4.025,3.42-6.633,3.95
		c-10.263,2.748-6.393,3.678-11.811,6.123c-15.598,5.3-12.319-3.334-16.687-5.216c-1.984,0.614-3.515,2.126-5.395,2.958
		c-2.854,1.446-6.208,0.236-9.147,1.219c-3.131,2.096-8.695,7.625-19.03,2.06c-1.039-1.465-1.285-3.288-1.805-4.932
		c-4.762-0.737-9.487-1.729-14.258-2.391c-1.89,2.069-3.439,4.45-5.452,6.406c-15.656,3.914-15.118-7.391-18.85-9.751
		c-4.261-0.576-8.447-1.606-12.699-2.164c-2.598,1.105-4.517,3.345-7.03,4.63c-4.545,0.482-9.175-1.332-12.803-3.969
		c-0.964-2.391-1.209-4.97-1.833-7.436c-1.71,0.822-3.345,1.88-5.187,2.372c-4.337-0.784-8.835-2.05-12.094-5.187
		c-7.734,3.754-13.926-0.479-15.666-3.099c-0.482-2.683-0.359-5.433-1.03-8.079c-1.616,0.85-3.146,2.041-4.998,2.334
		c-4.715-0.321-8.872-3.26-11.499-7.068c-1.899,0.463-3.628,1.455-5.546,1.861c-3.959-0.794-7.295-3.307-10.365-5.792
		c-0.019-2.693,0.293-5.414-0.236-8.05c-18.096-14.845-14.457-5.789-21.099-6.435c-3.364-1.399-6.51-3.6-8.693-6.539
		c-2.771-10.212,6.474-5.167-12.652-19.587c-3.005,0.047-6.094,2.929-8.901,0.718c-2.863-2.183-6.416-4.432-7.115-8.23
		c0.321-2.277,1.493-4.299,2.22-6.435c-7.447-0.198-4.878,1.591-13.115-6.898c0.444-1.89,0.879-3.78,1.332-5.65
		c-2.712,0-5.433,0.085-8.145,0.142c-2.476-2.939-5.669-5.679-6.784-9.43c0.85-2.561,2.343-4.857,3.231-7.389
		c-1.871,0.198-3.761,0.917-5.65,0.539c-2.438-2.031-4.46-4.705-5.556-7.691c-0.132-2.381,0.406-4.743,0.444-7.106
		c-2.343,0.123-4.838,1.294-7.124,0.472c-2.797-2.731-4.98-6.283-6.066-10.035c0.435-2.721,2.872-4.687,3.222-7.417
		c-0.2-1.292-5.356-12.017-6.217-13.247c-2.598-3.458-8.702-1.219-10.498-5.594c-8.673-16.033,5.992-3.892-4.072-30.813
		c-2.901-0.586-6.283-0.605-8.324-3.08c-4.748-8.333-1.147-12.205-0.86-14.428c-1.551-6.768-6.121-9.336,0.198-16.498
		c-0.142-0.444-0.444-1.342-0.586-1.786c-2.277-0.69-4.8-1.143-6.52-2.929c-6.049-11.014,1.708-12.788-0.198-17.641
		c-0.567-3.742-2.721-8.476,0.529-11.546c0.756-1.276,2.891-2.391,1.748-4.035c-1.956-1.087-4.054-1.861-6.142-2.646
		c-4.189-14.404,3.216-16.539,5.083-19.058c1.474-4.299,1.531-8.986,1.294-13.465c-1.71-2.986-5.82-4.224-6.397-7.946
		c0.613-15.242,4.735-11.54,9.232-16.271c1.115-4.148,1.285-8.476,1.417-12.746c-12.856-12.146,2.046-18.536,2.929-22.8
		c3.565-10.652,2.24-4.395,7.096-11.915c-8.789-10.919-5.635-10.099,13.039-32.003c1.049-2.485-2.268-3.997-2.683-6.274
		c-1.521-4.432,2.58-7.852,4.885-11.112c3.766-6.126,9.002,0.235,14.721-13.776c1.521-3.09-1.436-5.868-1.625-8.929
		c8.201-13.971,15.257-10.423,17.594-10.828c6.656-7.842,8.564-6.093,4.961-15.817c7.699-12.657,16.426-11.552,19.143-11.66
		c1.508,0.055,0.674-0.37,8.986-8.277c-0.274-2.013-0.888-4.082-0.378-6.085c1.126-2.378,10.26-8.614,13.304-9.241
		c2.4,0.038,4.734,0.746,7.096,1.124c1.417-2.353,3.298-4.356,5.641-5.792c3.468-2.031,2.23-7.247,5.575-9.411
		c18.104-9.713,12.58-2.793,21.033-2.901c10.807-2.348,7.708-4.069,8.551-11.32c3.619-3.808,8.854-6.18,13.965-7.115
		c4.384,4.384,11.121,3.628,16.639,5.575c0.746-2.797,3.118-4.507,5.206-6.274c-0.926-0.794-1.842-1.587-2.75-2.372
		c2.695-3.177,6.759-8.09,16.724-7.295c1.861,1.03,3.307,2.646,5.15,3.713c2.052-0.259,19.337-10.285,28.195-10.394
		c3.572-0.066,4.781,4.791,8.372,4.573c2.825,0.265,4.639-2.485,6.992-3.572c2.589-0.444,5.254-0.198,7.852-0.633
		c3.165-1.323,5.83-4.564,9.572-3.865c16.262,2.796,6.106,11.428,25.068,8.306c3.822-2.737,2.334-8.88,17.698-3.77
		c6.729,2.379-2.979,7.749,18.983,10.224c3.364-0.444,4.791-5.121,8.504-4.847c21.033,1.384,3.478,13.6,19.002,7.701
		c4.214,0.302,7.965,2.409,11.405,4.715c4.275-0.038,6.066-2.8,13.559,2.391c2.154,2.183,2.296,5.376,2.75,8.23
		c2.139-0.094,10.588-5.621,17.48,6.321c4.082-3.808,10.176-0.652,13.578,2.589c2.4,1.739,1.342,4.942,2.069,7.436
		c10.612,14.817,18.495,8.276,20.967,8.362c3.751,1.531,6.784,4.441,9.222,7.635c-0.595,0.028-1.767,0.094-2.362,0.132
		c1.465,2.476,1.843,5.339,2.731,8.031c2.23,2.494,5.263,4.139,7.767,6.359c4.572-2.062,99.929-107.214,102.076-111.921
		c-2.181-1.284-42.589-36.324-42.964-36.813c-24.279-17.461-51.571-42.176-96.766-47.008
		c-33.851-14.911-129.246-13.568-143.603-21.647c-27.688-21.604-35.921-36.292,39.421-44.135c8.444-1.905,0.652-3.847,16.942-3.175
		c45.666-17.013,148.712,11.413,185.386,33.288c91.185,42.535,82.891,58.356,95.405,48.321c1.786-1.398,3.09-4.054,5.537-4.176
		c3.09,1.285,6.047,2.882,9.213,4.006c3.931-5.178,9.572-8.986,12.472-14.929c-1.313-2.835-3.128-5.499-3.789-8.57
		c0.188-2.178,6.74-8.69,10.233-9.014c3.194-0.841,5.792,1.748,8.731,2.476c1.001-0.417,120.367-121.371,136.649-122.315
		c3.08-5.121,9.987-4.63,13.795-8.929c10.757-13.386,18.271-8.758,16.857-4.063c-2.287,8.372-8.768,14.778-11.565,22.961
		c1.015-0.125,39.355-6.188,44.362-7.956c2.258-0.718,3.581-2.835,5.131-4.488c1.729-2.532,5.272-2.655,7.068-5.131
		c1.361-1.833,3.213-3.146,5.15-4.309c2.334-1.351,2.476-4.356,4.035-6.331c1.219-1.313,2.797-2.23,4.025-3.543
		c1.824-4.233,0.926-9.865,5.102-12.869c3.742-3.421,8.74,0.104,13.096-1.011c6.945-2.164,13.493-5.934,20.873-6.548
		c9.25-1.285,16.809-7.663,26.041-8.986c4.649-2.391,7.814-6.888,12.482-9.288c5.036-2.466,11.121,0.104,16.054-2.74
		c4.955-2.617,16.627-1.172,20.769,1.569c5.906,3.638,12.86,4.687,19.124,7.521c0.954-3.08,1.455-6.482,3.884-8.835
		c2.542-3.543,7.918-4.375,11.546-2.145c4.006,4.167,1.559,10.479,3.638,15.354c3.798,1.965,8.372,1.597,12.076,3.874
		c4.828,1.332,9.94,3.704,14.939,1.578c6.369-2.617,12.983,1.795,19.484-0.321c0.302-1.276,0.605-2.561,0.935-3.827
		c5.906-1.597,11.348,1.691,16.8,3.392c4.267,0.059,5.141-2.889,20.391,1.049c-0.491-1.361-1.909-2.74-0.964-4.205
		c2.287-4.422,4.781-8.806,8.079-12.567c19.652-26.271,9.411-36.243,38.258-51.572c5.754-2.362,13.238-0.68,17.527-6.094
		c-42.437-5.158-18.54,2.33-37.162-10.611c-11.261,3.759-31.463,17.403-43.323,19.71c-12.006-10.457-4.286,0.779-20.154-15.695
		c-4.752-4.764-16.868-23.83-19.124-29.962c-3.25-10.146-7.462,0.226-3.364-24.095c0.302-2.117,1.682-3.987,3.401-5.206
		c7.923-2.34,30.754-5.062,34.243-9.269c-4.999-20.251-2.206-20.06-2.051-32.05c-0.86-0.397-1.72-0.813-2.542-1.228
		c0.737-0.17,2.22-0.501,2.958-0.671c-0.633-1.049-1.266-2.079-1.89-3.118c0.917,0.161,1.852,0.312,2.806,0.472
		c-0.047-0.661-0.142-1.984-0.189-2.655c-0.964-0.472-1.899-0.926-2.835-1.389c0.387-4.866-3.024-8.74-4.876-12.945
		c-1.191-3.42-5.395-3.893-7.068-6.888c-0.51-2.665-0.142-5.386-0.151-8.069c-38.852-14.67-61.655-6.723-67.588-14.835
		c-1.096-6.813-3.194-13.843-0.832-20.646c2.277-2.192,4.791-4.157,7.455-5.868c21.692-0.712,55.394-23.906,73.644-29.282
		c0.586-1.578,1.115-3.184,1.89-4.696c1.721-1.518,16.542-10.222,30.406-15.487c-0.227,0.614-0.68,1.852-0.917,2.476
		c20.646-4.398,16.079-5.584,19.228-2.466C1189.682,38.833,1194.132,37.52,1198.479,36.188 M949.861,376.979
		c-0.756,2.759-0.983,5.66,0.151,8.353c4.356-0.454,8.202-3.676,8.268-8.258C955.464,376.96,952.658,376.951,949.861,376.979
		 M1075.162,391.511c-19.187,1.123-5.875-2.898-20.409,4.271c-14.756,7.29-20.497,4.107-32.117,10.413
		c-11.056,6.937-8.04,9.889-20.05,14.06c-12.105,5.2-10.036-6.164-21.42-6c-4.064-2.915-3.917-4.219-17.093-2.627
		c-3.789,2.627-6.359,7.096-11.102,8.202c-3.874,1.786-8.088-1.616-11.915,0.274c-9.241,4.142-21.309,16.975-22.545,19.71
		c7.991,2.533,8.588-3.749,11.584-5.471c3.146-0.775,6.406-0.076,9.581-0.595c1.54-0.917,2.844-2.192,4.46-3.014
		c2.078,0.387,8.419,4.542,17.244,0.983c5.31-2.268,11.131-0.132,16.668-1.021c0,0,20.065-5.132,26.523-5.717
		c2.958-0.076,4.913-2.759,7.71-3.307c7.266-0.548,14.381-2.258,21.524-3.619c2.712-0.17,5.443,0.302,8.164-0.076
		c10.828-5.607-1.757-3.259,21.676-3.6c0.132-1.162,0.284-2.315,0.444-3.468c1.965-0.208,4.025-0.113,5.943-0.737
		c1.162-0.992,2.211-2.117,3.269-3.222c6.309,3.998,7.521,0.335,11.962-2.409c4.29-4.054,10.583-4.809,14.778-9.033
		c-0.58-4.392-13.909-6.79-18.973-6.907C1078.922,389.196,1077.486,391.417,1075.162,391.511 M889.162,404.22
		c-11.669,1.042-29.875,6.631-30.879,6.869c-10.13,2.548-9.341,3.957-13.002,16.035c-2.646,8.457-5.102,17.225-4.611,26.173
		c10.253-7.093,8.466-16.412,28.639-29.414c19.597-8.156,20.906-2.148,30.935,0.935c5.565-6.435,11.197-12.954,18.104-18
		c1.153-0.718,1.767-1.899,2.098-3.184c-4.498-1.483-9.345-1.285-13.852,0.028c-3.014,0.935-5.887-0.917-8.854-1.03
		C894.878,403.162,892.062,403.946,889.162,404.22 M837.354,405.165c0,0-4.62,2.031-33.146,25.578c0.094,0.69,0.283,2.06,0.378,2.74
		c4.195-2.372,8.958-2.702,13.654-2.003c-0.085-0.85-0.161-1.701-0.227-2.542c31.029-27.03,22.842-15.916,25.994-25.862
		C841.662,403.322,839.168,403.483,837.354,405.165 M825.864,430.535c-1.2,1.37-3.146,1.087-4.743,1.398
		c8.718,4.206,5.46,9.845,1.502,11.556c-8.808,5.149,1.535,10.806,7.294,18.548c3.553-6.091,1.023,0.218,2.75-17.329
		c1.03-7.672,3.477-15.08,4.63-22.724C832.62,423.486,829.388,427.351,825.864,430.535 M1175.594,453.392
		c-20.28,19.17-22.405,25.5-34.639,28.639c-6.304,1.489-47.943,6.879-47.943,6.879c-25.174,10.998-66.741,14.063-77.197,21.978
		c-3.874,3.959-7.559,8.523-12.576,11.036c-6.312,0.607-12.516-8.802-16.677-8.069c-7.124,0.461-6.295,6.586-21.458,5.924
		c-2.721,3.581,1.436,7.795-0.586,11.547c-3.345,6.614-5.896,13.776-10.762,19.484c-1.153,1.606-2.551,3.288-2.504,5.386
		c5.388,5.729,17.098,7.946,16.705,34.999c-1.351,1.011-2.882,1.861-3.921,3.213c-1.305,5.244,13.934,11.821,19.351,23.169
		c15.077-4.5,18.178,10.216,22.979,9.883c4.602-2.107,8.891-5.112,11.754-9.364c122.838-56.665,152.698-3.967,204.804-25.153
		c-0.281-20.397,21.713-33.57,14.296-36.813c-26.387-15.87-29.246-66.49-30.898-100.658c-2.655-3.496-1.143-8.504-4.195-11.735
		c-2.665-1.313-5.594-2.23-8.551-2.457C1186.403,443.215,1181.083,448.714,1175.594,453.392 M907.615,491.452
		c-3.071,1.871,0.047,5.405-0.35,8.145c-0.784,6.312-1.427,12.643-2.343,18.935c-1.537,6.524,8.911,8.392-2.995,17.386
		c-4.803,2.759,1.99,8.878-24.888,9.969c-5.008,1.124-10.11-0.35-15.109,0.822c-8.239-1.805-13.521-9.014-19.578-14.268
		c1.521-3.402,0.718-7.446-2.287-9.751c-1.937,0.463-3.411,1.946-5.093,2.92c0.435,4.195-1.37,7.928-2.683,11.773
		c-0.568,13.417,16.546,38.11,21.572,36.548c23.181-19.593,25.463-18.567,51.855-15.005c5.806-12.216,28.344-14.496,34.639-5.386
		c5.528-0.302,7.021-6.132,8.627-10.413c2.4-6.586,6.85-12.321,8.381-19.228c-11.258-2.723-6.917-2.553-11.802-8.816
		c-2.948-1.304-6.387-1.427-9.024-3.354c-1.285-3.855-0.416-8.022-0.926-11.991c-1.03-2.126-2.145-4.233-3.543-6.132
		C925.147,489.964,909.763,490.13,907.615,491.452 M610.26,626.901c-1.01,0.731-96.855,104.66-95.651,106.545
		c2.249,3.203,5.716,5.811,5.754,10.11c4.278-0.76,31.823-27.796,33.449-31.389c1.408-0.52,2.835-1.011,4.261-1.493
		c0.671-1.474,1.191-3.033,2.173-4.328c1.361-0.935,2.92-1.502,4.422-2.173c0.643-3.005,2.835-5.121,5.82-5.792
		c0.529-1.285,0.945-2.617,1.691-3.789c24.991-21.384,17.811-18.282,23.169-20.268c0.756-3.137,3.156-5.168,6.123-6.189
		c0.841-3.128,3.496-4.809,6.425-5.717c2.462-5.308,8.219-10.397,12.236-12.369c0.718-3.534,3.6-5.471,6.898-6.35
		c0.557-2.164,1.115-4.328,1.465-6.529C620.14,633.88,613.293,623.91,610.26,626.901 M726.84,633.912
		c-1.436,1.361-0.756,3.421-0.624,5.131c3.118-0.028,7.304,0.34,9.317-2.523c-0.699-2.419-1.994-4.602-3.175-6.794
		C730.468,631.049,728.446,632.239,726.84,633.912 M299.998,732.321c-2.825,0.614-2.92,3.883-2.939,6.198
		c0.198,3.061-2.173,5.565-2.022,8.627c-0.792,10.625,1.756,53.448,0.557,63.345c-0.74,3.877,6.422,20.131,9.836,21.685
		c0.252-1,23.063-94.892,17.802-101.084C315.513,731.858,307.491,729.893,299.998,732.321 M264.149,737.254
		c-2.334,5.844,23.378,58.926,26.117,64.573c0.68,0.019,2.05,0.057,2.731,0.076c2.304-15.043-2.25-68.021-2.239-69.024
		C281.913,734.428,272.578,733.767,264.149,737.254 M332.946,733.115c-11.876,26.72-7.888,26.378-12.123,37.824
		c0.142,6.225-13.254,61.632-13.569,62.948c1.001,0.006,25.609-1.472,35.821,0.331c6.302,0.624,12.132,3.723,18.539,3.657
		c0.095-3.279,0.85-88.989,0.907-99.014C356.563,733.67,335.542,732.602,332.946,733.115 M240.612,743.839
		c-3.269,1.427-7.172,1.918-9.751,4.602c-0.224,5.369,24.696,36.077,33.335,47.386c28.192,36.642,23.851,35.236,30.652,34.904
		c0.378,2.06,0.86,4.101,1.342,6.151c1.654-0.217,3.307-0.416,4.97-0.595c0.775-3.572-1.446-6.652-3.194-9.524
		c-1.398,0.227-2.778,0.454-4.167,0.699c-0.331-4.271,0.18-8.58-0.34-12.822c-20.72-49.785-36.444-74.23-36.444-74.23
		C251.45,740.958,245.781,741.543,240.612,743.839 M369.164,741.827c-5.248,67.228-5.1,95.302-5.017,96.303
		c2.939-1.209,5.433-3.194,7.965-5.055c-2.334,2.343-4.564,5.017-4.696,8.495c2.4,1.105,4.942,1.946,7.616,2.013
		c1.587-3.789,2.589-7.795,3.061-11.868c-1.502-0.501-2.995-1.002-4.469-1.531c10.535-22.775-1.335,22.717,21.666-62.759
		c0.699-3.789,0.198-7.691,0.917-11.471c0.814-6.464,1.802-7.327-15.061-13.606C377.195,741.704,373.019,739.89,369.164,741.827
		 M216.641,754.885c-4.945,2.351-17.224,8.69-18.576,14.145c3.553,15.395,23.549,53.511,26.211,58.073
		c31.996,70.111,18.896,35.976,59.594,15.865c3.118-1.757,6.86-2.712,9.137-5.65c0,0-34.559-46.383-36.832-49.559
		c-1.422-1.078-18.947-21.59-22.743-27.383c-3.118-1.871-5.471-4.602-8.003-7.134C222.414,752.769,219.381,753.704,216.641,754.885
		 M403.803,754.895c-7.902,13.464-17.317,50.884-15.978,56.825c5.014-2.671,37.196-38.178,39.931-45.591
		C426.566,764.948,406.747,749.805,403.803,754.895 M181.066,779.783c-3.402,3.005-7.786,5.906-8.428,10.781
		c3.881,9.473,52.244,67.376,53.244,68.126c4.148,1.238,8.202,2.844,12.435,3.798c-0.124-3.873-38.875-79.407-39.439-80.844
		c-2.825-3.194-4.479-7.257-7.748-10.054C187.585,774.085,184.269,776.863,181.066,779.783 M432.282,772.073
		c-15.713,9.941-32.064,32.344-47.792,48.643c-2.967,8.221-5.65,16.611-7.039,25.285c4.684,5.757,33.965-23.573,46.98-31.578
		c12.241-7.419,9.472-9.216,22.176-25.219c1.739-2.107,2.608-4.97,2.079-7.672C447.006,779.486,437.622,770.345,432.282,772.073
		 M789.25,772.819c-1.767,4.205-1.909,8.806-2.702,13.247c-0.945,0.671-2.079,1.162-2.768,2.126
		c-0.839,4.318-0.158,47.173,0.274,49.899c3.052-0.576,6.113-1.162,9.146-1.899c-2.117-1.578-5.15-1.361-6.992-3.269
		c-0.189-1.153-0.217-2.296-0.104-3.43c2.103-3.458,4.018-1.623,20.258-5.518c0.529-1.332,1.143-2.627,1.531-3.997
		c-0.472-1.38-1.228-2.627-1.71-3.969c0.905-9.096,9.535-3.783,7.758-20.551c0.586-1.682,1.663-3.128,2.277-4.781
		c-0.926-2.551-1.795-5.112-2.589-7.701C808.903,778.69,803.437,779.598,789.25,772.819 M450.839,799.153
		c-8.76,7.062-12.347,25.089-10.422,36.076c6.549-3.713,28.003-25.767,29.329-27.883c1.682-3.26-1.483-6.265-3.685-8.287
		c-2.778-0.86-5.509-1.89-7.814-3.713C455.781,796.621,453.202,797.688,450.839,799.153 M164.852,796.517
		c-5.102,4.998-8.835,11.216-13.332,16.753c0.378,1.446,0.718,2.91,1.039,4.384c1.001,0.55,51.461,31.69,62.24,32.495
		C214.339,849.147,174.797,793.12,164.852,796.517 M753.769,803.547c-3.649,13.27-3.618,38.438-0.831,50.428
		c3.705-3.475,3.883,1.38,2.891-21.798c0.595-9.78,0.463-19.597-0.047-29.376C755.281,802.98,754.27,803.358,753.769,803.547
		 M415.954,823.795c-2.781,2.698-31.315,24.768-32.324,25.493c1.332,2.372,3.326,4.28,5.632,5.726
		c5.546,3.515,9.269,9.071,14.164,13.342c4.023,4.526,8.742-6.122,20.787-15.591c7.53-6.49,4.623-6.704,3.959-19.569
		c-0.35-5.112,0.009-10.309-1.247-15.317C422.994,819.203,418.865,820.687,415.954,823.795 M144.338,825.298
		c-1.315,1.851-10.012,16.015-10.526,21.95c5.986,1.228,18.756,6.834,19.228,7.427c-1.011,0.652-2.145,1.285-3.373,0.794
		c-5.877-1.682-12.038-1.124-18.066-1.54c-4.641,6.758-13.8,28.815-6.057,31.455c1,0.454,14.497,11.466,89.783,43.465
		c2.887,1.459,16.111-2.69,17.112-3.232c0,0-0.032-15.781,10.158-42.397c-3.104-4.656,3.2-5.947-34.337-13.323
		c-0.728-0.907-1.313-1.89-1.767-2.948c17.456,2.104,15.988,6.287,29.622,5.802c-3.883-4.611-9.08-8.287-11.537-13.965
		C208.697,854.038,150.824,815.241,144.338,825.298 M328.477,837.203c-4.842,5.82,0.769,7.025,2.372,7.758
		c4.658,0.765,4.658-6.444,1.559-8.06C331.208,836.561,329.337,835.975,328.477,837.203 M481.662,850.791
		c-3.754,2.916-18.686,20.027-25.172,24.935c-2.296,1.568-1.342,4.346-0.803,6.557c4.594,0.138,45.218-28.785,44.816-35.036
		c0.265-3.978-2.674-7.077-4.535-10.299C490.893,841.248,486.877,846.652,481.662,850.791 M308.153,838.611
		c-0.283,2.882,0.935,5.717,3.534,7.143C312.197,842.75,311.601,839.339,308.153,838.611 M350.899,847.049
		c2.138,3.603,9.794,2.319,5.027-6.302C348.457,841.447,349.643,845.81,350.899,847.049 M316.052,845.018
		c-0.17,1.484,0.047,2.976,0.151,4.469c2.495,0.917,5.14,1.55,7.729,0.548c0.028-1.852,0.047-3.695,0.057-5.518
		C321.438,843.818,318.112,842.665,316.052,845.018 M339.145,844.385c-2.268,1.531-0.652,4.403-0.51,6.548
		c2.315,0.302,4.658,0.236,6.964-0.18c-0.132-1.805,0.198-3.723-0.51-5.414C343.529,843.846,341.035,843.043,339.145,844.385
		 M284.058,847.644c-2.391,1.55-0.765,4.63,0.161,6.567c1.928,0.728,3.959,0.302,5.849-0.321c-0.066-1.72,0.028-3.439-0.331-5.102
		C288.376,847.408,285.683,845.925,284.058,847.644 M296.011,848.079c0.076,2.192,0.151,4.403,0.189,6.614
		c1.105,0,2.22,0.009,3.335,0.028c0.822-2.391,1.493-4.866,1.247-7.408C299.186,847.55,297.598,847.805,296.011,848.079
		 M358.477,852.01c0.019,1.474,0.038,2.967,0.057,4.469c0.652,0.057,1.965,0.189,2.617,0.246c0.18-1.361,0.321-2.712,0.463-4.063
		C360.565,852.425,359.517,852.208,358.477,852.01 M364.109,852.029c-0.085,1.228-0.17,2.466-0.246,3.713
		c0.718-0.066,2.164-0.208,2.891-0.274c-0.161-0.983-0.312-1.956-0.454-2.91C365.753,852.425,364.657,852.161,364.109,852.029
		 M375.693,855.496c-0.151,0.973-0.293,1.946-0.435,2.939c0.633-0.028,1.899-0.104,2.532-0.132c0.038-1.058,0.076-2.107,0.113-3.146
		C377.356,855.241,376.241,855.411,375.693,855.496 M502.307,856.224c-1,0.752-42.96,25.401-43.077,29.726
		c1.002,0.353,60.137-0.057,56.069-7.776C508.204,857.706,505.927,853.49,502.307,856.224 M277.189,857.868
		c-0.085,2.192-0.614,4.573,0.454,6.643c2.627,1.984,8.391-0.406,6.34-4.214C283.302,857.112,279.693,856.895,277.189,857.868
		 M322.94,856.507c0.454,5.178-2.75,9.855-2.079,14.967c5.102,0.917,6.595-5.31,7.54-9.061
		C329.006,858.992,325.387,857.698,322.94,856.507 M335.176,860.07c-1.654,3.751-4.554,7.049-5.083,11.225
		c1.682,0.094,3.364,0.18,5.055,0.255C346.449,856.017,336.119,858.393,335.176,860.07 M783.996,862.139
		c-0.705,9.193-0.418,46.393-0.038,48.624c17.774-12.107,21.115-5.458,30.954-7.729c-1.068-1.729-2.428-3.222-3.751-4.715
		c1.049-1.332,2.135-2.636,3.231-3.921c-1.228-1.143-2.674-2.135-3.458-3.638c0.605-1.871,2.183-3.458,2.306-5.433
		c-0.737-1.436-1.71-2.712-2.58-4.035c0.567-0.888,1.172-1.739,1.767-2.589c-4.318-1.238-4.564-6.699-8.768-8.05
		c-3.496-0.529-7.087-0.057-10.545-0.831c-2.419-1.465-2.315-5.65,0.501-6.614c2.343-1.389,6.378-0.907,6.983-4.214
		C794.881,858.633,789.268,860.041,783.996,862.139 M264.461,861.487c0.397,1.767-0.132,4.082,1.493,5.367
		c1.332,1.38,3.78,1.209,5.178,0.038c0.387-2.476,0.066-4.998-1.096-7.219C268.071,859.9,266.19,860.523,264.461,861.487
		 M347.828,862.422c-2.428,2.939-5.48,5.906-5.83,9.912c1.03,0.472,2.06,0.954,3.09,1.455c2.854-2.929,7.805-5.471,7.266-10.195
		C352.439,861.355,348.915,860.618,347.828,862.422 M301.897,862.337c-1.833,4.479-1.635,9.317-1.087,14.032
		c1.219,0.085,2.447,0.189,3.666,0.302c1.465-3.506,1.644-7.37,1.361-11.102C305.668,863.556,303.296,863.225,301.897,862.337
		 M377.242,863.518c0.123,1.937,0.246,3.884,0.406,5.839c2.551,0.416,5.15,0.586,7.729,0.302c-0.255-2.353,0.454-5.603-2.287-6.709
		C381.22,861.326,379.113,862.744,377.242,863.518 M231.267,863.367c0.238,6.948,1.496,3.908,8.183,12.123
		c1.493-0.047,2.995-0.104,4.498-0.142C242.213,868.039,240.945,867.543,231.267,863.367 M391.283,866.003
		c-0.879,2.485-0.973,5.121-0.728,7.739c1.928,0.009,4.072,0.633,5.802-0.52C399.788,865.318,393.343,866.453,391.283,866.003
		 M289.264,869.282c0.52,3.08,0.86,6.576,3.524,8.646c0.605-3.213,0.803-6.501,0.246-9.732
		C291.768,868.526,290.512,868.895,289.264,869.282 M357.239,869.981c-2.466,1.814-6.321,3.468-5.32,7.219
		c4.403-0.123,9.543-3.6,9.024-8.457C359.668,869.008,358.307,869.15,357.239,869.981 M263.233,872.287
		c-0.917,0.945-1.587,2.098-2.306,3.203c2.277,1.379,4.734,2.438,7.332,3.052c0.009-2.098-0.104-4.176-0.312-6.246
		C266.398,872.259,264.697,871.559,263.233,872.287 M369.561,879.6c8.365-3.1,2.82-5.54,1.71-6.831
		C369.91,874.791,369.598,877.21,369.561,879.6 M280.997,874.763c-0.51,4.176,0.86,8.23,1.115,12.387
		c1.625-0.888,3.269-1.739,4.876-2.655c0.794-2.967-1.002-5.735-2.088-8.372C283.841,875.169,282.291,875.159,280.997,874.763
		 M252.745,881.613c-0.038,1.106-0.076,2.22-0.104,3.345c1.361,0.009,2.721,0.038,4.091,0.057c-0.057-1.002-0.094-1.994-0.151-2.976
		C255.296,881.887,254.02,881.755,252.745,881.613 M369.882,884.665c-0.085,1.691-0.151,3.392-0.208,5.112
		c4.8,0.217,9.156-1.918,13.313-4.025C381.064,878.175,377.426,882.099,369.882,884.665 M461.97,889.333
		c0,0,4.88,11.82,9.534,25.143c9.605,0.909,20.44,2.354,52.073,1.408c1.016-5.305-2.528-19.523-6.406-28.28
		C491.047,886.194,528.421,885.182,461.97,889.333 M272.993,886.933c0.491,4.025,3.222,7.294,6.066,9.987
		c0.945-0.123,1.89-0.265,2.825-0.453c-0.624-2.901-1.087-6.161-3.298-8.334C276.83,887.32,274.864,887.207,272.993,886.933
		 M119.894,890.013c-11.8,40.701,6.889,23.82,16.299,35.131c-6.917-0.709-13.843-1.049-20.806-1.304
		c-1.644,9.326-0.68,18.85,0.227,28.205c10.216,0.238,62.808-11.34,68.211-15.156c-1.23-0.099-29.526-6.324-31.569-6.246
		c-3.77,0.18-7.465-2.324-8.173-6.132c16.412-1.841,43.855,15.081,65.188,6.387c0.104-0.293,0.302-0.888,0.406-1.181
		C199.568,924.726,132.994,891.117,119.894,890.013 M439.784,891.837c-0.057,0.652-0.17,1.937-0.227,2.589
		c0.652-0.038,1.956-0.104,2.608-0.142c0.387-1.153,0.765-2.296,1.143-3.42C442.128,891.156,440.956,891.487,439.784,891.837
		 M442.421,897.714c-0.884,6.137,5.184,3.956-0.822,15.307c6.35,1.843,13.115,0.718,19.654,1.002
		c-0.093-8.482-9.65-19.691-10.649-22.479C447.778,893.452,444.858,895.314,442.421,897.714 M266.02,897.449
		c1.975,2.929,4.696,5.272,6.661,8.22c1.446-0.019,2.891-0.057,4.337-0.076C275.245,896.969,265.913,888.805,266.02,897.449
		 M243.438,898.867c-3.742,0.728-2.145,5.32-1.332,7.824c1.786-0.321,3.846,0.019,5.443-0.964
		C251.195,903.449,247.264,896.873,243.438,898.867 M246.471,911.207c-2.296,0.973-1.191,4.044-1.691,6.009
		c1.654,0.879,3.411,1.55,5.282,1.843c0.794-1.625,2.787-3.222,1.89-5.178C251.186,911.821,248.587,910.139,246.471,911.207
		 M260.417,916.611c-0.076,0.624-0.217,1.861-0.293,2.485c0.992-0.189,1.984-0.368,2.986-0.539c0.123-0.548,0.369-1.663,0.501-2.211
		C262.543,916.422,261.475,916.507,260.417,916.611 M447.702,916.706c1.975,4.035,4.318,8.117,3.987,12.803
		c3.515-1.049,7.191-1.049,10.762-0.265c0.057-3.846,0.123-7.691,0.265-11.528C457.784,916.696,452.729,916.347,447.702,916.706
		 M472.364,917.745c-1.179,27.255-10.901,31.159-15.94,38.948c27.043,0.48,19.873-0.876,23.934,2.457
		c11.183-3.953,17.606,0.493,43.153-5.169c2.995-2.409,2.4-8.249-1.332-9.751c-3.723-1.294-7.776-0.557-11.499-1.805
		c-2.57-1.096-4.035-5.357-1.191-7.03c3.713-2.476,8.636-0.576,12.539-2.665c3.676-1.153,4.054-6.454,1.483-8.901
		C520.173,917.845,479.117,918.204,472.364,917.745 M237.901,924.095c2.211,0.104,4.375-0.359,6.369-1.323
		C242.124,920.759,239.214,921.61,237.901,924.095 M239.403,926.996c-0.794,2.759,3.099,2.116,4.8,2.145
		c0.217-1.068,0.435-2.126,0.652-3.175C243.031,926.278,241.198,926.542,239.403,926.996 M260.464,929.027
		c-3.134,1.871-1.458,7.709,11.783,7.899c-1.53-6.016,1.203-3.585-8.249-7.786C262.902,928.791,261.409,927.912,260.464,929.027
		 M223.841,931.068c1.153,3.827,5.679,4.422,8.967,5.433c0.161-2.513,0.132-5.036-0.009-7.531
		C229.746,929.32,226.76,930.133,223.841,931.068 M204.678,936.832c26.379,4.657,16.709,4.96,24.68,3.685
		c0.019-0.472,0.047-1.398,0.066-1.871c-4.734-1.455-8.891-4.828-13.89-5.273C211.916,934.234,207.352,933.912,204.678,936.832
		 M243.834,936.388c1.226,9.419,13.403,2.484,5.849-3.402C247.708,934.054,245.743,935.169,243.834,936.388 M451.756,940.243
		c2.239,0.699,3.137-1.37,3.061-3.269C452.852,936.936,452.408,938.788,451.756,940.243 M788.125,939.893
		c1.209,1.852,2.362,4.233,4.743,4.772c3.005-0.369,3.458-4.054,2.995-6.473C793.133,937.938,790.223,937.824,788.125,939.893
		 M173.63,942.492c-14.005,4.837-54.217,10.793-56.485,18.057c-1.155,5.417,4.144,20.581,3.383,26.476
		c21.043-0.743,63.577-27.739,96.69-41.622c-0.047-0.283-0.142-0.85-0.189-1.143c-2.825-1.37-5.811-2.532-9.014-2.315
		C196.118,942.723,205.884,934.591,173.63,942.492 M813.514,940.139c1.519,3.55,1.995,8.837,16.658,2.797
		C824.824,941.084,819.089,940.867,813.514,940.139 M447.627,944.174c-0.888,0.917-0.066,2.891,1.285,2.495
		c2.674,0.264,3.222-2.844,3.836-4.772C450.858,942.18,448.118,941.698,447.627,944.174 M198.385,956.712
		c-77.484,37.066-72.199,35.594-72.199,35.594c-0.992,3.08-1.351,6.331-0.463,9.496c2.296-0.595,4.639-1.446,7.03-0.813
		c4.564,1.02,8.372-2.58,12.775-2.976c2.797,0.104,4.422,4.356,1.654,5.811c-1.513,0.643-6.89,2.257-17.31,10.016
		c0.86,4.006,2.91,7.691,5.868,10.535c4.942,0.094,10.016-3.439,14.816-0.68c-3.647,3.156-8.258,4.573-12.586,6.501
		c1.578,4.677,4.394,8.825,6.009,13.502c6.618,9.585,10.463,10.975,15.411,8.117c2.277-1.295,5.008-0.302,7.427-1.021
		c8.952-3.637,48.197-23.136,50.58-25.88c4.271-7.663,10.422-14.202,13.814-22.375c-11.517,1.717-74.658,21.535-79.484,20.797
		c-0.374-5.812,11.687-3.544,12.775-4.148c0.62-0.287,45.638-13.932,46.29-14.136c19.206-6.211,25.322-2.349,36.68-26.372
		c-2.891-6.198-7.134-11.82-8.74-18.557c-1.276-4.006-2.324-8.107-4.025-11.953c-3.345-3.071-8.183-2.57-12.359-2.23
		C214.222,949.182,206.455,953.301,198.385,956.712 M240.792,949.597c0.737,1.087,1.294,2.381,2.353,3.232
		c2.164,0.189,4.016-0.926,4.819-2.939C245.573,949.682,243.182,949.55,240.792,949.597 M252.518,953.216
		c-1.219,1.862-3.789,3.628-2.683,6.161c0.312,2.022,2.353,3.279,4.328,2.91c2.409,0.284,3.298-2.504,3.43-4.403
		C256.978,955.389,254.625,954.208,252.518,953.216 M483.948,960.265c-11.764,1.861-23.877-0.879-35.518,1.795
		c-0.765,1.729-1.644,3.43-2.287,5.225c1.455,2.343,4.375,3.449,5.887,5.83c0.227,2.192-1.03,4.233-1.276,6.406
		c3.657,3.364,7.606,6.472,11.877,9.024c26.178,0.839,53.844,5.809,57.751,1.068c3.547-3.109,5.413-22.781,4.696-27.647
		C524.245,957.239,485.282,960.189,483.948,960.265 M269.913,966.038c0.652,0.406,1.946,1.219,2.598,1.625
		c0.52-1.455,1.021-2.92,1.493-4.375C272.19,963.459,270.905,964.593,269.913,966.038 M783.713,965.471
		c-1.106,5.471,2.627,10.044,4.62,14.816c2.192,4.101,2.495,8.91,4.535,13.058c2.561,0.109,8.712-6.83,3.052-21.628
		C794.39,966.539,788.012,966.671,783.713,965.471 M249.664,968.665c-1.502,1.701-0.151,3.931,0.746,5.575
		c2.202-2.079,3.912-4.611,4.97-7.446C253.387,966.936,250.902,966.709,249.664,968.665 M278.342,974.476
		c-1.74,3.815,6.587,8.25,5.15-2.636C281.686,972.331,278.776,972.104,278.342,974.476 M261.211,974.249
		c-1.55,1.672-0.671,4.167-0.85,6.227c3.005,0.863,7.951,2.661,7.37-4.507C266.445,973.862,263.318,972.482,261.211,974.249
		 M441.825,981.241c-2.249,0.113-1.814,3.005-2.343,4.564c4.63,0.746,9.307,1.2,14.013,1.153c-0.028-1.153-0.038-2.296-0.047-3.43
		C450.178,980.92,445.756,981.289,441.825,981.241 M247.85,984.388c-2.532,3.647-5.31,7.228-6.888,11.433
		c5.008-0.558,9.865-2.079,14.476-4.054C253.484,987.915,249.998,980.506,247.85,984.388 M357.164,983.5
		c0.51,2.4,0.472,5.424,2.854,6.879c-0.047-2.135-0.255-4.243-0.491-6.35C358.931,983.897,357.75,983.632,357.164,983.5
		 M365.035,983.367c0.189,2.154,0.189,4.328,0.482,6.491c1.002,1.88,3.203,1.134,4.923,1.191c-0.019-2.523-0.406-5.017-1.058-7.446
		C367.926,983.509,366.48,983.434,365.035,983.367 M433.756,991.758c-1.814-0.539-3.628-1.087-5.433-1.606
		c-0.189,0.416-0.557,1.247-0.746,1.654c1.559,2.315,2.164,5.131,3.666,7.436c51.781,47.702,60.672,56.389,67.106,53.461
		c17.665-27.901,7.18-25.395,1.521-33.487c-16.04-14.902-39.484-32.077-61.285-30.359
		C436.865,989.623,435.343,990.756,433.756,991.758 M276.074,990.189c-0.35,1.503-0.652,3.014-0.898,4.554
		c2.268-1.096,4.157-2.778,5.622-4.81C279.22,989.982,277.642,990.076,276.074,990.189 M266.956,992.212
		c-1.257,2.135,3.014,2.306,3.08,0.302C269.913,990.964,267.655,991.276,266.956,992.212 M470.351,991.399
		c0.944,3.557-1.469,3.906,14.901,14.23c6.567,4.015,22.194,16.079,26.778,16.422c1.978-2.763,6.635-15.233,7.228-24.624
		C501.564,993.032,471.353,991.401,470.351,991.399 M391.331,999.156c-0.047-1.956-0.151-3.893-0.331-5.811
		C387.731,994.139,388.364,998.41,391.331,999.156 M250.43,996.511c-4.356,1.351-8.948,2.041-13.134,3.893
		c-0.855,1-12.032,16.837-13.502,21.364c35.25-13.875,31.069-17.755,35.443-26.589C256.241,995.094,253.274,995.594,250.43,996.511
		 M332.956,996.823c-0.34,1.077-0.68,2.154-1.02,3.25c0.397,0.35,1.181,1.039,1.578,1.389c0.737-1.606,1.455-3.203,2.135-4.809
		C334.978,996.69,333.636,996.785,332.956,996.823 M376.402,997.125c0.321,2.041,1.153,3.94,2.617,5.433
		c0.907-1.965,0.397-4.054-0.019-6.057C378.348,996.662,377.054,996.974,376.402,997.125 M1099.124,1006.583
		c4.781,0.454,7.672,4.545,11.962,6.132c-0.246-3.638-0.189-7.285-0.293-10.904c-1.739-3.619-6.047-5.499-9.865-5.679
		C1098.841,999.147,1099.389,1003.097,1099.124,1006.583 M260.965,999.818c-1.332,0.85-0.132,3.562,1.342,2.315
		C263.62,1001.245,262.439,998.571,260.965,999.818 M795.514,999.327c-0.009,1.663,0.038,3.345,0.142,5.036
		c2.4,0.085,4.091-1.408,4.035-3.846C798.292,1000.092,796.903,999.686,795.514,999.327 M423.929,1003.73
		c-3.156,1.427-6.605,0.567-9.883,0.264c-2.825,4.488-7.805,7.313-13.087,7.484c-2.854-0.576-4.809-2.872-6.917-4.668
		c-2.523,1.814-6.132,2.91-7.351,6c0.17,2.324,0.699,4.63,1.37,6.879c2.396,2.412,58.158,45.977,59.159,46.658
		c2.145,0.255,4.318,0.142,6.491,0.161c-0.822,0.992-2.787,1.824-1.72,3.354c35.191,25.431,20.213,10.204,37.295-2.684
		c2.863-2.022,2.164-5.839,1.739-8.806c-5.62-8.569-57.969-54.546-61.276-56.712C427.671,1001.651,425.904,1003.201,423.929,1003.73
		 M264.405,1003.938c-2.636,1.332-5.414,2.57-7.701,4.479c-5.952,11.826-44.091,89.184-45.817,102.992
		c9.101,0.383,8.598,8.834,24.501,13.701c3.09-0.113,5.528-2.608,7.228-4.999c2.428-3.893,7.54-5.433,9.222-9.865
		c8.972-25.043,48.661-65.716,38.391-82.517c-8.457-6.161-17.216-13.238-21.128-23.273
		C268.467,1002.265,265.879,1003.342,264.405,1003.938 M361.69,1005.024c-0.539,2.617-0.236,5.499,1.899,7.37
		c1.172-2.126,1.71-4.469,1.049-6.831C363.901,1005.43,362.427,1005.166,361.69,1005.024 M373.265,1005.232
		c0.076,0.576,0.236,1.739,0.321,2.324c0.86,0.378,1.72,0.775,2.589,1.181c-0.038-0.633-0.113-1.899-0.151-2.542
		C375.098,1005.865,374.181,1005.534,373.265,1005.232 M316.77,1008.86c-2.154,1.446-1.748,4.224-0.624,6.198
		c2.381,1.842,5.187,0.293,7.03-1.493C322.08,1010.958,319.699,1008.823,316.77,1008.86 M239.299,1016.448
		c-25.539,12.163-14.325,3.371-49.087,53.121c-0.757,1.022-9.685,16.696-6.586,20.372c5.575,5.216,11.424,10.224,18.095,14.013
		c1.606,0.369,3.269,0.265,4.904,0.312c23.072-42.441,44.65-89.979,44.995-93.581
		C247.198,1011.875,243.277,1014.256,239.299,1016.448 M336.783,1012.045c0.784,1.776,1.436,5.584,4.139,4.885
		C342.82,1014.539,338.682,1012.63,336.783,1012.045 M350.068,1013.717c-3.581,3.137,1.408,9.317,5.386,6.624
		C358.109,1017.062,353.913,1010.92,350.068,1013.717 M1120.819,1015.569c0.038,1.342,0.113,2.702,0.227,4.073
		c1.398-0.831,2.05-2.258,2.513-3.742C1122.869,1015.815,1121.499,1015.654,1120.819,1015.569 M329.97,1023.771
		c3.591-0.992,3.798-5.112,1.909-7.748C330.367,1017.979,326.946,1021.975,329.97,1023.771 M375.91,1018.215
		c-3.713,1.71-7.512,3.222-11.216,4.961c2.163,17.185,1.584,9.374,26.684,35.707c1.474,1.597,3.506,2.476,5.546,3.137
		c-1.522-9.705-9.814-40.336-13.191-42.784C381.702,1017.166,378.414,1016.986,375.91,1018.215 M294.612,1028.089
		c-0.699,2.447,0.17,4.999,0.51,7.446c3.383-3.345,5.272-7.814,7.55-11.915C299.346,1023.119,296.946,1026.199,294.612,1028.089
		 M357.939,1025.84c1.134,1.276,1.984,3.411,3.874,3.647c1.635-1.389-0.236-3.836-0.746-5.433
		C360.017,1024.631,358.968,1025.226,357.939,1025.84 M306.31,1024.659c-1.634,2.045-10.418,14.549-10.091,18.076
		c0.073,1,3.099,29.351,4.545,34.299c3.627-4.96,14.153-29.947,17.074-38.939C316.012,1022.967,312.903,1026.875,306.31,1024.659
		 M351.816,1026.539c-17.007,1.996-25.38,1.644-25.38,1.644c-2.485,2.485-3.78,5.981-4.904,9.26
		c-0.094,5.257,21.505,93.195,21.789,94.196c5.262,15.65,8.785,15.561,15.25,12.728c4.989-0.359,9.411-3.676,14.542-2.107
		c12.86,4.504,4.959-37.881-6.718-93.298c-3.301-16.292-0.86-11.03-10.904-20.419
		C354.376,1027.739,353.337,1026.303,351.816,1026.539 M390.348,1025.66c2.117,13.578,7.03,26.513,10.309,39.846
		c0.694,3.729,33.753,38.402,45.373,42.312c5.518-1.748,10.809-4.375,15.146-8.239c2.476-4.044,7.2-6.378,8.769-10.989
		c-3.553-2.287-6.784-5.055-8.75-8.854c-3.014-2.409-5.991-5.433-9.969-6.019c-0.416-3.383-3.402-5.263-6.529-5.707
		C441.774,1063.075,394.874,1026.29,390.348,1025.66 M319.227,1027.465c0.18,1.474,0.387,2.958,0.624,4.45
		c1.247-1.153,2.022-2.664,2.693-4.176C321.712,1027.673,320.058,1027.531,319.227,1027.465 M198.376,1036.971
		c-4.631,2.75-23.795,11.917-25.663,13.105c-4.261,1.824-6.964,5.943-11.358,7.54c-9.865,2.445,7.617,15.902,9.893,20.117
		c6.925,14.58,28.662-26.893,29.499-27.893c2.211-3.09,6.038-4.828,7.531-8.438c1.295-3.288,2.731-6.548,3.506-9.997
		C206.946,1032.19,202.751,1034.92,198.376,1036.971 M1073.886,1042.3c0.945,2.589,1.635,5.272,1.956,8.031
		c3.817,1.956,7.247-2.079,10.753-3.241c-0.18-2.967-1.38-6.085-4.346-7.228C1079.206,1037.897,1076.353,1040.769,1073.886,1042.3
		 M368.03,1040.552c0.229,6.454,8.312,63.53,13.833,86.23c5.923,13.684-2.318,16.51,28.517,4.45c0.586-1.918,1.266-3.808,2.353-5.49
		c-1.776-4.923-0.539-10.271-2.126-15.222c-9.777-31.292-5.921-37.686-24.765-53.707
		C379.737,1051.578,374.965,1044.775,368.03,1040.552 M318.726,1044.898c-20.115,41.795-17.119,37.49-16.422,46.148
		c0.961,6.946,4.268,38.004,8.759,51.685c4.823,4.904,26.269,3.808,30.983,3.118c0.77-17.429-14.275-64.538-21.94-100.715
		C319.765,1045.078,319.066,1044.964,318.726,1044.898 M286.194,1056.842c-9.015,14.369-40.519,62.75-41.565,71.736
		c36.768,15.884,24.618,11.272,46.932-28.64c11.757-25.173,5.707-19.044,2.258-52.677
		C289.888,1049.065,288.405,1053.44,286.194,1056.842 M1078.28,1053.572c-1.332,0.935,0.236,3.335,1.616,2.315
		C1081.162,1054.886,1079.669,1052.514,1078.28,1053.572 M1130.107,1068.369c-1.718,1.787-2.544,9.524,2.589,13.559
		c2.154,1.861,5.187,0.973,7.776,1.417c2.05,0.898,3.893,2.211,5.896,3.241c0.713-15.079,0.925-15.032-3.25-19.994
		C1138.762,1066.933,1134.378,1067.5,1130.107,1068.369 M404.531,1075.645c0.687,7.317,7.158,35.3,13.672,49.276
		c3.619,0.491,6.35-1.862,9.364-3.335c4.564-0.624,7.54-4.403,11.282-6.69c1.071-2.321,3.615-3.987-5.669-13.757
		C432.157,1099.937,408.262,1076.974,404.531,1075.645 M292.987,1101.525c-1.128,2.59-14.404,26.768-14.041,38.362
		c4.808,1.212,19.724,4.941,26.447,4.176c-0.35-3.808-0.189-7.625,0.312-11.405c0.202-1.833-5.141-41.063-5.329-42.898
		C295.992,1092.18,295.34,1097.547,292.987,1101.525 M1123.719,1094.911c3.435,4.432,16.986,13.171,21.137,14.23
		c0.321-2.561,0.756-5.112,0.879-7.682c-0.945-2.098-2.74-3.846-4.677-5.036c-14.032-2.83-6.787-2.346-12.86-5.395
		C1125.77,1090.536,1125.005,1093.475,1123.719,1094.911 M1179.297,1114.366c-5.641,14.073-7.996,16.203,9.392,23.367
		c1.843-1.049,2.939-2.995,2.74-5.131c-0.425-5.745,6.312-7.786,8.069-12.661c-2.315-0.047-4.62-0.085-6.907-0.161
		c-1.105-1.285-2.107-2.665-3.411-3.713C1185.94,1115.198,1182.557,1115.103,1179.297,1114.366 M919.171,1145.925
		c7.37,3.959,15.799,6.17,24.189,5.424C940.425,1146.584,924.597,1145.546,919.171,1145.925 M1366.668,1148.098
		c-0.262,5.426,4.208,38.735,14.939,41.669c0.418-1.713,4.605-26.673,4.214-41.452
		C1379.584,1146.719,1372.857,1145.906,1366.668,1148.098 M1339.786,1150.413c5.448,10.187,0.831,13.412,15.43,26.504
		c2.532,2.693,6.983,0.917,9.515,3.732c1.72,1.823,3.713,3.326,6.397,3.137c-2.804-17.604-8.909-26.868-9.685-30.784
		c-2.039-4.506,2.175-5.812-16.715-4.951C1342.762,1148.051,1341.099,1149.072,1339.786,1150.413 M1395.137,1150.139
		c-6.308,0.57-10.574,35.801-10.677,39.978c1.474,0.605,2.92,1.465,4.583,1.568c2.965-1.172,22.865-29.332,24.803-36.926
		C1407.733,1152.813,1401.685,1149.799,1395.137,1150.139 M1325.981,1156.98c0.123,4.469,3.742,7.446,7.134,9.78
		c4.082,0.624,8.022,1.767,11.679,3.742c-2.081-6.354-8.505-19.272-15.175-19.323
		C1327.295,1152.105,1325.074,1154.25,1325.981,1156.98 M1420.177,1159.068c-8.411,6.762-27.069,32.911-28.554,36.775
		c13.731,2.497,0.915,1.359,17.858,6.189c2.088,0.888,3.232,3.194,5.32,4.091c11.546,1.933,1.548-1.254,10.8,4.186
		c14.154,3.831,1.674-0.982,12.954,5.707c8.121-27.574,6.875-38.02,7.682-43.049
		C1447.29,1167.439,1425.123,1155.646,1420.177,1159.068 M1287.95,1167.62c-8.974,5.682,3.152,20.941,8.835,32.769
		c1.531,2.816,3.213,6.34,6.775,6.841c0.501-13.852-0.501-27.647-2.353-41.358c-1.88-0.709-3.676-1.757-5.669-1.956
		C1292.844,1164.785,1290.34,1166.146,1287.95,1167.62 M1306.63,1170.143c-1.754,4.578-0.596,38.51,0.86,45.175
		c2.655,3.572,7.455,4.479,10.706,7.181c2.132,5.525,18.1,10.461,20.466,9.411c0.453-2.74-0.794-6.359,1.54-8.381
		c2.816,0.85,5.433,2.495,8.504,2.353c0.501-2.75,0.01-5.962,1.843-8.268c3.288-0.51,5.31,3.742,8.901,2.958
		c0.652-2.362,1.096-4.772,1.909-7.068c1.729-0.614,3.553-0.095,5.339,0.009c-3.203-9.581-7.984-19.077-15.912-25.616
		c-7.23-2.781-4.768,1.49-10.989-6.113c-9.551-1.166-4.461,0.036-11.339-4.62c-2.173-0.973-4.687-0.652-6.822-1.616
		c-2.409-1.71-4.054-4.762-7.276-4.98C1311.817,1170.341,1309.058,1168.876,1306.63,1170.143 M1040.305,1173.072
		c1.663,2.655,3.676,5.32,6.879,6.161c0.057-1.956,0.17-3.902,0.009-5.839C1045.048,1172.221,1042.573,1172.732,1040.305,1173.072
		 M1453.569,1172.93c-8.364,16.583-3.127,5.099-12.359,43.389c7.509,3.257,7.569,10.065,13.587,6.935
		c5.922-9.65,12.871-34.916,13.03-36.68c-0.898-2.419-1.483-5.452-4.072-6.595
		C1459.975,1178.174,1457.273,1174.839,1453.569,1172.93 M1262.362,1187.226c3.156,3.007,31.75,20.6,36.094,21.128
		c-1.142-4.606-17.91-32.944-21.704-33.184C1271.537,1178.571,1265.887,1181.935,1262.362,1187.226 M1474.46,1190.089
		c-0.473,1.002-16.449,27.448-15.836,36.35c8.239-2.947,3.397-2.564,21.732-14.797c2.353-2.721,5.008-5.15,7.54-7.701
		C1489.26,1200.388,1478.988,1190.364,1474.46,1190.089 M1362.482,1196.836c5.844,14.457,6.816,15.328,8.627,15.203
		c2.268-0.983,4.224-2.551,6.425-3.676c-0.784-3.156-1.427-6.397-3.052-9.232c-2.05-1.257-4.734-0.34-6.803-1.587
		C1366.035,1196.637,1364.268,1195.73,1362.482,1196.836 M1380.841,1209.837c0.236,0.51,0.718,1.531,0.954,2.041
		c0.501-0.047,1.502-0.132,2.003-0.179c0.898-1.701,1.984-3.288,3.279-4.715c-0.123-0.558-0.359-1.682-0.482-2.249
		C1383.827,1205.273,1382.211,1207.588,1380.841,1209.837 M1389.808,1209.081c1.691,6.217,1.215,4.497,6.227,4.441
		c0.123-1.096,0.274-2.173,0.435-3.241C1394.277,1209.686,1392.047,1209.27,1389.808,1209.081 M1481.906,1214.184
		c-6.553,5.442-19.185,12.045-22.403,16.564c2.636,1.55,6.293,2.022,7.729,5.093c0.964,1.228,1.455,3.288,3.307,3.506
		c1.007,0.063,26.803-5.334,37.795-12.473c-1.176-3.974-11.122-18.406-15.288-17.65
		C1488.955,1209.695,1485.298,1211.991,1481.906,1214.184 M1403.66,1227.478c-9.72,3.656,3.478,28.711,11.736,26.183
		c12.629-3.277,17.032-4.975,18.472-17.906C1429.279,1230.385,1408.877,1225.451,1403.66,1227.478 M1363.342,1233.506
		c-3.099,4.101-6.123,8.324-8.428,12.936c5.688,2.079,9.298,7.814,15.496,8.816c0.251-1,3.542-17.71,3.269-26.06
		C1369.578,1226.94,1365.865,1230.596,1363.342,1233.506 M1345.219,1239.639c1.843,1.776,3.902,3.326,6.161,4.602
		c4.035-3.751,6.803-8.617,9.543-13.332C1355.112,1232.439,1349.707,1235.661,1345.219,1239.639 M1497.837,1235.207
		c-7.672,1.833-15.269,4.016-22.819,6.312c5.139,15.378,5.839,9.251,8.91,14.57c0.954,2.343,1.191,4.942,2.287,7.257
		c7.752,9.17,0.955-2.676,8.882,15.014c3.979-0.299,26.935-14.938,30.284-21.099
		C1513.791,1226.828,1514.245,1233.924,1497.837,1235.207 M1437.355,1238.599c0.189,1.125,0.406,2.258,0.643,3.402
		c0.917-0.907,1.852-1.805,2.797-2.702C1439.632,1239.043,1438.479,1238.817,1437.355,1238.599 M1436.93,1247.869
		c2.57-0.302,5.102-0.917,7.653-1.399c0.038-1.153,0.085-2.296,0.151-3.42C1441.493,1243.078,1437.865,1244.439,1436.93,1247.869
		 M1447.89,1251.818c-1.304,3.647-4.365,7.181-3.25,11.263c2.655-1.106,5.414-2.135,7.757-3.846c1.701-2.92,0.142-6.416-0.435-9.449
		C1450.375,1249.976,1448.4,1249.938,1447.89,1251.818 M1434.548,1252.829c-2.249,2.74-3.146,6.359-2.721,9.855
		c1.285,1.805,3.921,2.003,5.972,1.843c3.94-3.014,4.668-8.419,6.208-12.851C1440.926,1250.184,1437.251,1250.958,1434.548,1252.829
		 M1422.936,1257.866c1.928,0.841,3.884,1.635,5.877,2.362c0.539-2.164,0.756-4.394,0.765-6.605
		C1426.961,1254.086,1423.54,1254.795,1422.936,1257.866 M1498.659,1280.949c-2.154,1.446-1.928,4.356-2.22,6.642
		c0.529,3.052,3.95,5.093,3.515,8.476c0.34,2.646-1.077,5.981,1.058,8.136c4.063,5.705,25.63-13.327,32.022-17.131
		c1.89-0.879,1.219-3.411,1.342-5.065c-1.209-6.255-3.581-12.18-5.792-18.123C1517.708,1267.9,1508.419,1274.911,1498.659,1280.949
		 M1466.108,1279.589c-3.862,2.104-14.344,14.514-9.515,15.959c4.337,1.228,9.496,3.298,13.616,0.397
		c2.107-1.295,5.008-2.778,5.159-5.547C1474.44,1284.85,1470.784,1277.502,1466.108,1279.589 M1526.731,1296.7
		c-5.367,2.655-11.017,5.131-15.09,9.685c12.183,5.897,27.46,4.473,28.46,4.507c-0.51-5.858-1.975-11.584-2.495-17.424
		C1533.761,1293.629,1530.331,1295.576,1526.731,1296.7 M1209.685,1302.833c-0.17,5.301-0.425,10.649,0.132,15.95
		c3.364-0.501,6.586-2.683,10.063-1.795c2.702,0.671,5.565-0.265,7.899-1.635c1.946-2.561,2.22-5.915,3.307-8.863
		c-1.862-2.154-3.392-4.583-5.395-6.586C1216.533,1294.618,1210.432,1292.46,1209.685,1302.833 M1474.063,1296.955
		c0.17,0.605,0.51,1.795,0.68,2.4c1.304,0.085,2.617,0.179,3.959,0.312c0.038-1.361,0.094-2.693,0.151-4.016
		C1477.2,1295.897,1475.604,1296.351,1474.063,1296.955 M1456.394,1298.231c-2.542,1.351-1.635,6.198,1.493,5.972
		c1.55-0.917,4.016-1.88,3.798-4.035C1460.07,1299.157,1458.265,1298.448,1456.394,1298.231 M1457.604,1307.661
		c1.888,3.03,0.279,2.104,21.751,10.573c0.935,0.453,1.805,0.302,2.598-0.444c0.25-14.983-1.786-15.829-14.268-15.799
		C1464.123,1303.447,1460.958,1305.781,1457.604,1307.661 M1505.188,1310.014c-6.825,0.217-2.712,8.089-3.647,17.178
		c1.157,1.088,24.594,12.566,39.836,14.891c0.323-18.363,1.681-25.907-13.247-28.432
		C1520.542,1312.196,1513.012,1309.229,1505.188,1310.014 M1458.964,1312.14c-1.62,2.798-5.149,14.09,3.836,18.161
		c4.583-2.693,9.08-5.537,13.795-8.022c0-0.472,0-1.408,0.009-1.871C1470.907,1317.242,1464.671,1315.267,1458.964,1312.14
		 M1216.904,1322.316c-10.717,1.706-4.077,24.634-2.277,29.197c1.42,3.335,24.474,8.22,31.257,8.088
		c-10.162-12.254-19.995-11.645-21.137-22.828c0.473-5.735,1.909-11.329,2.608-17.027
		C1223.698,1319.812,1220.353,1321.305,1216.904,1322.316 M1466.542,1332.256c-0.009,5.046,6.066,10.451,10.828,6.813
		c2.825-4.375,3.487-9.808,3.184-14.92C1475.66,1326.407,1470.992,1329.223,1466.542,1332.256 M1502.467,1330.99
		c-8.22,26.455,0.169,9.695-7.313,22.97c-0.378,2.343-0.18,4.772-0.661,7.125c-0.841,1.871-1.965,3.609-2.674,5.546
		c1.002,0.373,34.13,9.94,43.37,7.663c2.457-3.094,6.418-19.609,3.496-26.315C1525.356,1343.457,1537.794,1343.265,1502.467,1330.99
		 M1441.729,1358.363c0.918,5.011,10.177,20.56,12.718,23.887C1472.528,1365.06,1461.277,1361.038,1441.729,1358.363
		 M1218.179,1359.771c-1.658,3.141,1.963,19.289,8.617,21.213c7.244-0.241,34.197-2.484,33.638-11.821
		C1257.351,1363.427,1224.897,1359.422,1218.179,1359.771 M1428.029,1369.976c-3.407,2.342-8.524,0.364-5.565,21.043
		c20.71,2.697,18.591,3.07,25.446-2.05c5.517-5.312,3.319-5.053,1.209-9.298c-3.373-5.887-6.274-12.104-9.987-17.773
		C1435.238,1364.26,1432.177,1367.916,1428.029,1369.976 M1484.637,1376.628c-2.439,1.367-3.866,8.498-2.117,10.318
		c3.742,4.195,6.217,9.373,10.186,13.398c47.351,7.375,31.408-0.925,41.575-18.416c-14.84-7.295-38.347-11.933-43.937-12.671
		C1489.021,1372.111,1487.32,1374.861,1484.637,1376.628 M1260.274,1378.953c-7.465,6.344-19.406,29.075-20.098,30.076
		c-1.98,6.311,11.964,20.679,14.239,22.488c0,0,26.434-28.696,35.764-41.736c-5.603-2.797-10.072-7.304-15.401-10.526
		C1270.932,1375.145,1264.687,1376.789,1260.274,1378.953 M1302.85,1382.798c-9.053,6.763-37.045,40.1-41.376,48.435
		c-6.713,7.986,12.361,21.826,13.502,22.564c4.431,1.588,7.512-3.269,11.613-4.11c40.216-28.817,31.374-11.43,24.378-71.358
		C1307.83,1378.896,1305.373,1381.031,1302.85,1382.798 M1235.15,1385.019c-2.721,1.181-5.953,1.313-8.05,3.647
		c2.381,5.036,4.299,10.347,7.342,15.052c3.663,2.397,17.097-17.809,18.841-23.641
		C1247.102,1381.088,1240.838,1382.316,1235.15,1385.019 M1315.531,1381.806c-0.415,5.259,3.343,40.537,5.424,43.115
		c4.148-3.269,20.324-15.959,24.208-19.143c-0.227-0.633-0.661-1.909-0.879-2.542c-12.174-2.398-3.617-1.216-17.565-10.772
		C1322.166,1387.787,1327.368,1388.297,1315.531,1381.806 M1418.221,1390.867c1.021-2.268,1.219-4.743,1.143-7.172
		C1416.633,1384.764,1415.849,1388.959,1418.221,1390.867 M1475.046,1389.582c-1.578,2.759-3.515,5.291-5.669,7.635
		c5.972,1.323,12.132,1.937,18.255,1.691c-1.625-4.583-6.076-7.427-7.71-12.038
		C1478.183,1387.504,1475.944,1387.74,1475.046,1389.582 M1388.315,1394.609c-3.761,1.899-8.069,2.306-11.811,4.243
		c4.876,1.134,10.375,2.003,15.156,0.057c2.683-1.096,1.965-4.309,1.946-6.567
		C1391.783,1392.965,1390.016,1393.73,1388.315,1394.609 M1422.359,1394.562c-0.066,1.238-0.113,2.494-0.132,3.761
		c2.901,0.038,5.811-0.246,8.703-0.643c0.151-0.605,0.453-1.805,0.605-2.409C1428.501,1394.675,1425.421,1394.524,1422.359,1394.562
		 M1465.626,1400.363c0.127,3.762,20.936,43.629,28.073,49.21c12.475-12.414,23.414-17.412-2.362-45.921
		C1488.503,1402.662,1472.397,1400.034,1465.626,1400.363 M1456.545,1406.023c-1.833,1.332-3.184,3.203-4.97,4.583
		c-2.797,1.446-6.189,1.55-8.693,3.572c-2.532,2.013-5.509,3.288-8.513,4.422c3.266,8.954,25.741,37.672,28.384,42.047
		c3.146,2.457,5.537,7.644,10.054,7.181c12.532-8.177,13.887-10.687,14.466-15.846c-1.844-10.993-16.236-31.608-24.841-48.076
		C1460.438,1404.54,1458.426,1405.126,1456.545,1406.023 M1497.629,1404.03c0.089,7.958,12.953,18.672,15.591,21.902
		c3.24-3.584,9.058-12.083,9.213-16.876C1513.078,1408.062,1516.691,1405.89,1497.629,1404.03 M1343.367,1411.986
		c-5.055,2.74-8.079,8.098-13.54,10.148c-9.81,6.934-10.526,4.77-6.614,25.389c3.206-2.833,26.635-31.568,29.348-36.945
		C1349.462,1410.606,1345.994,1409.907,1343.367,1411.986 M1348.044,1422.332c-0.863,1.002-24.077,27.944-23.754,33.43
		c0.893,23.892,5.966,37.853,29.896,37.389c0.331-3.25,0.879-6.454,2.145-9.468c0.76-7.651,4.469-64.322,0.879-71.121
		C1354.29,1415.964,1350.52,1418.534,1348.044,1422.332 M1362.699,1417.211c-0.701,2.881-3.801,53.034-1.776,75.307
		c1.228,0.746,2.466,1.502,3.732,2.277c1.209-2.825,3.241-5.509,2.939-8.731c0.265-2.532-0.794-5.99,1.909-7.512
		c7.995-1.743,2.461,6.664,5.811,11.764c1.153,1.89,1.427,4.101,1.88,6.246c2.967,0.246,6.132-0.548,8.126-2.901
		c3-7.853,9.164-46.189,8.967-53.452c-5.448-8.681-26.24-24.093-27.241-24.964
		C1365.355,1414.905,1363.096,1415.198,1362.699,1417.211 M1428.265,1420.49c-6.222,2.449-6.438,1.801-6.813,11.669
		c0.486,32.508-2.647,28.1,2.844,33.77c1.002,0.929,15.802,16.772,21.468,16.347c3.952,0.197,21.312-7.09,18.331-11.736
		c-2.759-4.101-3.685-9.137-6.832-13.002c-0.606-1.007-23.025-33.464-26.986-37.313
		C1429.777,1420.291,1428.766,1420.423,1428.265,1420.49 M1383.09,1423.173c3.401,4.469,6.746,9.657,12.038,12.057
		c0.954-3.619,2.088-7.294,2.013-11.064C1393.748,1419.696,1387.654,1423.466,1383.09,1423.173 M1399.54,1428.483
		c-0.406,3.609-1.918,7.228-1.568,10.857c0.815,1,15.839,16.892,20.041,18.567c0.888-11.877-0.161-23.792,0.567-35.66
		C1408.975,1423.305,1399.664,1420.542,1399.54,1428.483 M1299.695,1443.913c-6.312,5.017-13.88,9.109-17.924,16.375
		c9.637,5.223,14.798,12.987,21.751,10.11c24.012-22.828,15.593-19.733,14.495-39.128
		C1311.279,1434.549,1305.846,1439.746,1299.695,1443.913 M1397.925,1443.431c-1.809,5.389-6.506,30.98-6.265,52.706
		c19.961,0.344,21.446-3.425,24.642-5.613C1418.779,1469.022,1423.746,1463.351,1397.925,1443.431 M1317.137,1460.468
		c-4.167,4.054-5.31,10.101-9.591,14.107c1.99,3.111,7.322,7.184,15.94,8.665c-0.544-9.844,2.252,0.886-1.682-24.803
		C1320.142,1458.833,1318.347,1459.173,1317.137,1460.468 M1421.991,1467.639c-2.523,7.946,0.161,16.063,0.17,24.123
		c5.017-1.247,10.299-2.315,14.665-5.235C1437.066,1485.516,1433.38,1476.95,1421.991,1467.639z"/>
	<path d="M154.165,854.948l0.51-0.595c3.815,0.592,25.533,6.772,33.317,8.315c0.246,0.51,0.746,1.512,0.992,2.013
		c-11.858-1.994-23.197-6.454-35.102-8.117C153.948,856.158,154.089,855.355,154.165,854.948z"/>
	<path d="M189.107,864.057c4.98-0.293,10.054,1.087,14.202,3.883C198.584,866.646,193.378,866.599,189.107,864.057z"/>
	<path d="M136.562,924.898c1.295-0.661,4.101-0.765,4.781,0.624C140.048,926.183,137.242,926.268,136.562,924.898z"/>
	<path d="M64.429,1632.502c1.191-2.154,3.987-1.776,5.329,0H64.429z"/>
</g>
</svg>
