<?xml version="1.0" ?><svg data-name="Layer 1" id="Layer_1" viewBox="0 0 512 512" xmlns="http://www.w3.org/2000/svg"><title/><path d="M129.17,418.45a8,8,0,0,1-5.26,10,7.86,7.86,0,0,1-2.38.36,8,8,0,0,1-7.63-5.62l-4.53-14.54a8,8,0,1,1,15.28-4.76Zm67.39-20.83a8,8,0,1,0-15.27,4.75l4.52,14.54a8,8,0,0,0,7.64,5.63,7.87,7.87,0,0,0,2.38-.37,8,8,0,0,0,5.26-10Zm-35.95,3.14a8,8,0,0,0-15.28,4.75l4.52,14.54a8,8,0,0,0,7.64,5.63,8.18,8.18,0,0,0,2.38-.36,8,8,0,0,0,5.26-10ZM433.33,298c-25.41,44.26-54.84,78.43-87.46,101.56-16.81,11.92-59.44,24.56-84.91,32.12-5.32,1.57-9.92,2.94-13.11,4a370.71,370.71,0,0,1-112,17.74c-33.48,0-54.39-5-56-5.36a8,8,0,0,1-5.73-5.39L57.56,389.21v0a8.33,8.33,0,0,1-.22-.86s0-.08,0-.12c0-.24-.08-.49-.1-.73a2.62,2.62,0,0,0,0-.28c0-.19,0-.39,0-.58s0-.2,0-.3a5.42,5.42,0,0,1,.06-.58,2.51,2.51,0,0,1,0-.27c0-.24.09-.47.15-.7a.65.65,0,0,1,0-.13,7.67,7.67,0,0,1,.67-1.63l.1-.18a6.65,6.65,0,0,1,.36-.56l.06-.1.11-.13.36-.45.23-.26.14-.14,45-45A266.27,266.27,0,0,1,103,307.46c0-36.46,7-69.85,19.13-93-32.1,1.69-56,3.35-56.34,3.38a8,8,0,0,1-8.48-9.06c7-51.51,61.36-89.1,93.12-106.92,47.46-26.62,103.43-43.16,146.08-43.16,1.29,0,2.59,0,3.87,0C356.3,60,406.22,90,433.87,139,462,189,461.83,248.39,433.33,298ZM119,307.46a251.73,251.73,0,0,0,1.55,28,8,8,0,0,1,.59,4.8,196,196,0,0,0,7.16,33c24.81-3.44,53.26-9,78.26-17.87a183.14,183.14,0,0,0,28.72-12.84,56.36,56.36,0,0,0,25.1-29.89C283,250,289,222.42,289.07,214.33c-5.77-1.78-28.59-5.45-116.87-2.17-10.5.39-20.92.84-30.91,1.32C127.46,233.5,119,269,119,307.46ZM107.44,355.9,85.59,377.75c7.42-.53,16.47-1.31,26.56-2.44C110.32,369.16,108.74,362.66,107.44,355.9Zm312.5-209c-24.86-44.06-69.7-71-120-72.18q-1.74,0-3.51,0c-39.46,0-93.73,16.14-138.25,41.11-44.7,25.09-74.3,55.71-83,85.36,12.65-.81,35.41-2.2,61.57-3.47h.1c13.26-.64,27.39-1.25,41.53-1.74,33.33-1.15,60.17-1.4,79.77-.74,35.5,1.19,43.28,4.95,45.8,11.92,1.58,4.37,5.78,15.95-28.6,111a72.37,72.37,0,0,1-32.25,38.36,200,200,0,0,1-31.25,14c-50.19,17.85-111.61,22.66-136,23.91l12.12,39c16.47,3,78.12,11.44,155-13,3.34-1.06,8-2.44,13.4-4,22.91-6.8,65.56-19.44,80.2-29.83,30.73-21.78,58.6-54.24,82.85-96.48A143.53,143.53,0,0,0,419.94,146.89Zm-66.66,92.18a15.91,15.91,0,0,1,1.8,12.09L338.7,316.71a16,16,0,0,1-7.66,10l-16.79,9.47a16,16,0,0,1-23.34-17.79L310.5,240a16,16,0,0,1,19.37-11.62l13.58,3.39A15.91,15.91,0,0,1,353.28,239.07Zm-13.72,8.2L326,243.92l-19.54,78.32,16.74-9.43,16.37-65.53h0Z"/></svg>