<svg xmlns="http://www.w3.org/2000/svg" xmlns:xlink="http://www.w3.org/1999/xlink" width="15px" height="15px" viewBox="0 0 15 15" version="1.1">    <!-- Generator: Sketch 49 (51002) - http://www.bohemiancoding.com/sketch -->    <title>icon_rugby</title>    <desc>Created with Sketch.</desc>    <defs/>    <g id="icon_rugby" stroke="none" stroke-width="1" fill="none" fill-rule="evenodd">        <rect id="Bound" x="0" y="0" width="15" height="15"/>        <g fill="#FFFFFF">            <path d="M7.52319511,3.9323625 L8.43783191,3.0117375 L8.96463291,3.5419875 L8.09693877,4.4153625 C8.43559655,4.7086125 8.76568543,5.0112375 9.0864603,5.3236125 L10.1680044,4.2349875 L10.6948053,4.7652375 L9.61326129,5.8538625 C9.9440953,6.1977375 10.2637525,6.5517375 10.5726054,6.9158625 L11.394102,6.0889875 L11.9212756,6.6192375 L11.0494832,7.4967375 C12.5542564,9.3919875 13.7643339,11.5328625 14.6152628,13.8477375 C14.8007981,13.0343625 14.9025072,12.1887375 14.9025072,11.3187375 C14.9025072,5.0674875 9.86772033,0.0001125 3.65750406,0.0001125 C2.79353552,0.0001125 1.954156,0.1024875 1.14644415,0.2888625 C3.47345902,1.1554875 5.62388006,2.3926125 7.52319511,3.9323625" id="Fill-1"/>            <path d="M10.5191802,8.0304 L8.87097112,9.6894 L8.34417012,9.15915 L10.0449103,7.447275 C9.73680246,7.0824 9.41714528,6.728025 9.08668383,6.38415 L7.64487347,7.835025 L7.11807247,7.304775 L8.55988284,5.8539 C8.23873541,5.541525 7.90827397,5.239275 7.56924362,4.946775 L5.91470103,6.61215 L5.38790003,6.0819 L6.99289204,4.466025 C5.03210445,2.8884 2.79711211,1.643775 0.375094231,0.81015 C0.135537626,1.727775 -7.45121633e-05,2.68815 -7.45121633e-05,3.681525 C-7.45121633e-05,9.9324 5.03471238,15.00015 11.2449287,15.00015 C12.2318423,15.00015 13.1859705,14.863275 14.0976268,14.622525 C13.2787382,12.212775 12.0608368,9.987525 10.5191802,8.0304" id="Fill-4"/>        </g>    </g></svg>