<svg viewBox="0 0 100 100" xmlns="http://www.w3.org/2000/svg" id="rugby-league-icon">
  <g fill-rule="evenodd">
    <path d="M11.503 88.498c12.645 12.646 40.622 6.625 62.121-14.873 21.499-21.5 27.519-49.477 14.873-62.122-12.646-12.646-40.622-6.625-62.12 14.873-21.5 21.5-27.519 49.477-14.873 62.122Zm-3.498 3.498C-6.977 77.02-.318 46.073 22.878 22.878 46.072-.316 77.018-6.976 91.996 8.005c14.98 14.978 8.321 45.924-14.873 69.118-23.194 23.194-54.14 29.854-69.118 14.873Z"/>
    <path d="M18.887 81.113c7.7 7.7 28.574 1.124 45.962-16.264 17.387-17.39 23.964-38.262 16.263-45.963-7.7-7.7-28.574-1.124-45.962 16.264-17.387 17.39-23.964 38.262-16.263 45.963ZM16.06 83.94c-9.765-9.76-2.484-32.872 16.26-51.617C51.067 13.577 74.178 6.296 83.942 16.06c9.762 9.762 2.48 32.873-16.264 51.618-18.745 18.745-41.856 26.026-51.62 16.263Z" style="opacity:.2" transform="translate(-11.867 -11.867) scale(1.23735)"/>
  </g>
</svg>
