<svg id="Layer_1" data-name="Layer 1" xmlns="http://www.w3.org/2000/svg" xmlns:xlink="http://www.w3.org/1999/xlink" viewBox="0 0 354.18 325.41"><defs><style>.cls-1{fill:url(#linear-gradient);}.cls-2{fill:url(#linear-gradient-2);}</style><linearGradient id="linear-gradient" x1="73.71" y1="173.03" x2="292.3" y2="173.03" gradientUnits="userSpaceOnUse"><stop offset="0" stop-color="#2f2063"/><stop offset="0.57" stop-color="#5e3282"/><stop offset="1" stop-color="#6251a2"/></linearGradient><linearGradient id="linear-gradient-2" x1="135.37" y1="173.03" x2="230.63" y2="173.03" xlink:href="#linear-gradient"/></defs><path class="cls-1" d="M227,235.9c43.85-30.7,68.71-80.14,64.89-129a16.28,16.28,0,0,0-9.5-13.56C237.79,73,182.84,79.46,139,110.16s-68.71,80.13-64.89,129a16.28,16.28,0,0,0,9.5,13.56C128.21,273.05,183.17,266.6,227,235.9Zm47-73.35L224,91.06c1.88,0,3.77-.11,5.65-.08a123.32,123.32,0,0,1,48.91,10.8,6.61,6.61,0,0,1,1.58,1,6.72,6.72,0,0,1,1.25,1.36,6.91,6.91,0,0,1,1.25,3.47c.22,2.75.33,5.5.35,8.27a121.91,121.91,0,0,1-2.45,24.94,130.41,130.41,0,0,1-4.48,16.44C275.45,159,274.74,160.79,274.05,162.55ZM95.4,175.47c.42-.89.79-1.81,1.23-2.7,1.3-2.62,2.68-5.21,4.16-7.77a140.11,140.11,0,0,1,9.89-14.92q2.73-3.62,5.72-7.1a150.31,150.31,0,0,1,20.2-19.44q3.74-3,7.72-5.77a153.82,153.82,0,0,1,16.31-10,148.12,148.12,0,0,1,25.55-10.58A142.54,142.54,0,0,1,203.59,93c3.9-.68,7.79-1.13,11.68-1.48l55.33,79c-1.66,3.54-3.41,7-5.39,10.47A141.25,141.25,0,0,1,255.32,196a148.42,148.42,0,0,1-18.69,20.39,153,153,0,0,1-14.94,11.91q-4,2.79-8.07,5.28a150.11,150.11,0,0,1-25.17,12.32q-4.29,1.62-8.63,3A142.49,142.49,0,0,1,162.41,253q-4.36.76-8.72,1.25c-1,.11-2,.14-3,.23Zm-11.64,64.8a6.65,6.65,0,0,1-.4-1.83,120.06,120.06,0,0,1,2.11-33.21A127.12,127.12,0,0,1,90,188.79c.6-1.77,1.32-3.52,2-5.28L142,255c-1.89,0-3.77.12-5.65.08a129,129,0,0,1-17-1.41,121.88,121.88,0,0,1-24.28-6.23q-3.89-1.44-7.65-3.16a7,7,0,0,1-2.83-2.36A6.55,6.55,0,0,1,83.76,240.27Z"/><polygon class="cls-2" points="165.98 208.78 172.07 204.51 163.01 191.56 182.09 178.21 191.15 191.15 197.24 186.89 188.18 173.94 207.26 160.59 216.32 173.53 222.41 169.27 213.35 156.32 230.63 144.22 226.37 138.13 209.08 150.23 200.02 137.28 193.93 141.54 202.99 154.49 183.91 167.85 174.85 154.9 168.76 159.16 177.82 172.11 158.75 185.47 149.68 172.52 143.59 176.79 152.65 189.74 135.37 201.84 139.63 207.93 156.92 195.83 165.98 208.78"/></svg>