<svg viewBox="0 0 100 100" xmlns="http://www.w3.org/2000/svg" id="snooker-icon">
  <g fill-rule="evenodd">
    <path d="M100 50c0-27.614-22.386-50-50-50S0 22.386 0 50s22.386 50 50 50 50-22.386 50-50ZM6.977 50C6.977 26.238 26.238 6.977 50 6.977c23.762 0 43.023 19.261 43.023 43.023 0 23.762-19.261 43.023-43.023 43.023C26.238 93.023 6.977 73.762 6.977 50Z"/>
    <path d="M48.763 12.81a2.326 2.326 0 1 0 .152 4.65c.36-.012.721-.018 1.085-.018a2.325 2.325 0 1 0 0-4.651c-.413 0-.826.007-1.237.02zM17.344 32.151a2.325 2.325 0 1 0 4.078 2.234 32.672 32.672 0 0 1 16.89-14.782 2.326 2.326 0 0 0-1.672-4.343 37.335 37.335 0 0 0-19.298 16.891z"/>
  </g>
</svg>
