<?xml version="1.0" standalone="no"?>
<!DOCTYPE svg PUBLIC "-//W3C//DTD SVG 20010904//EN"
 "http://www.w3.org/TR/2001/REC-SVG-20010904/DTD/svg10.dtd">
<svg version="1.0" xmlns="http://www.w3.org/2000/svg"
 width="900.000000pt" height="956.000000pt" viewBox="0 0 900.000000 956.000000"
 preserveAspectRatio="xMidYMid meet">
<metadata>
Created by potrace 1.16, written by Peter Selinger 2001-2019
</metadata>
<g transform="translate(0.000000,956.000000) scale(0.100000,-0.100000)"
fill="#000000" stroke="none">
<path d="M4840 9379 c-170 -20 -379 -73 -547 -140 l-72 -28 -73 25 c-108 37
-296 72 -444 83 -396 30 -865 -73 -1284 -284 -96 -48 -105 -51 -94 -33 4 7 3
8 -5 4 -6 -4 -8 -12 -5 -18 5 -8 1 -9 -10 -5 -11 5 -15 3 -10 -5 5 -8 2 -9
-10 -5 -9 4 -15 3 -12 -2 3 -5 -1 -12 -10 -15 -9 -4 -13 -2 -8 5 4 8 0 7 -15
0 -11 -7 -21 -14 -21 -17 0 -3 5 -2 12 2 7 5 8 3 4 -5 -5 -7 -14 -10 -22 -7
-8 3 -23 -3 -33 -13 -11 -11 -23 -16 -27 -13 -4 4 -4 1 0 -5 6 -11 1 -15 -20
-12 -3 0 -12 -8 -21 -18 -8 -11 -12 -12 -8 -3 4 8 -3 4 -15 -10 -12 -14 -19
-18 -15 -10 4 10 2 9 -8 -2 -8 -10 -18 -14 -22 -10 -5 4 -5 1 -1 -5 7 -12 -5
-18 -27 -14 -5 1 -6 -3 -2 -9 3 -5 1 -11 -4 -11 -6 -1 -15 -2 -21 -3 -5 0 -16
-10 -25 -21 -9 -11 -14 -13 -10 -5 4 8 -3 4 -15 -10 -12 -14 -18 -18 -14 -10
15 29 -220 -151 -386 -294 -192 -167 -424 -410 -579 -609 -30 -37 -52 -69 -50
-71 2 -2 90 29 194 69 105 40 192 72 193 70 2 -2 -5 -57 -17 -122 -34 -195
-44 -332 -38 -526 5 -170 27 -340 46 -360 5 -4 -7 -37 -25 -71 -78 -146 -207
-476 -269 -685 -69 -233 -147 -622 -186 -924 l-12 -97 -66 -36 c-199 -109
-426 -347 -522 -546 -13 -27 -26 -48 -30 -48 -4 0 -36 48 -71 108 -88 145 -91
151 -99 197 -11 59 -1 -106 17 -270 16 -147 50 -346 87 -504 l21 -94 27 268
c15 148 26 272 23 276 -2 4 0 9 4 11 4 1 24 32 44 68 64 116 159 239 254 329
86 82 221 182 288 212 26 12 30 11 50 -12 161 -193 342 -379 526 -540 117
-102 332 -263 506 -380 l131 -87 6 -161 c24 -560 180 -1148 410 -1534 26 -43
47 -82 46 -85 -1 -7 -578 -538 -604 -557 -34 -23 -288 87 -563 243 -150 85
-155 89 -234 185 -44 53 -83 97 -86 97 -3 0 -3 -3 1 -6 3 -4 -69 -44 -161 -89
-232 -115 -362 -204 -499 -341 -62 -62 -113 -120 -113 -128 0 -9 -4 -16 -10
-16 -5 0 -12 -11 -16 -25 -3 -14 -10 -25 -14 -25 -5 0 -12 -10 -15 -22 -4 -13
-13 -37 -20 -53 -8 -17 -17 -44 -21 -60 -9 -38 -9 -212 -1 -242 4 -13 9 -31
11 -42 8 -35 48 -121 57 -121 5 0 9 -6 9 -12 0 -21 95 -133 178 -212 96 -90
337 -245 488 -312 32 -14 87 -39 122 -55 34 -16 67 -29 72 -29 6 0 18 -4 28
-9 69 -37 253 -100 483 -166 466 -134 994 -224 1650 -282 300 -26 1458 -26
1758 0 581 51 1005 119 1461 232 255 63 592 172 672 215 10 6 22 10 28 10 11
0 146 62 273 126 239 121 430 268 554 430 21 27 86 149 89 167 1 4 2 8 4 10 1
1 3 9 5 17 2 8 7 26 11 40 13 50 8 196 -10 255 -16 54 -59 145 -68 145 -4 0
-8 7 -8 15 0 8 -4 15 -10 15 -5 0 -10 7 -10 15 0 8 -44 60 -97 114 l-98 99 64
69 c35 37 97 107 138 155 l74 87 -38 -13 c-21 -8 -95 -37 -166 -65 -70 -28
-129 -51 -131 -51 -1 0 -6 46 -9 102 -13 231 -88 488 -232 792 l-52 111 99
198 c267 535 384 902 448 1405 28 215 29 205 -41 292 -177 220 -358 400 -545
540 -124 94 -372 247 -494 307 l-99 48 -1 160 c-1 504 -163 1105 -428 1592
l-50 93 76 53 c43 30 216 150 386 267 l309 213 66 -34 c455 -235 899 -639
1198 -1089 166 -250 278 -470 403 -795 7 -16 13 -48 15 -70 1 -22 8 -114 15
-205 7 -101 9 -230 5 -335 l-6 -170 -46 -70 c-189 -289 -411 -479 -652 -556
-47 -15 -76 -28 -63 -28 66 -2 245 82 367 174 124 94 301 294 381 433 10 17
21 32 25 32 15 0 146 -283 205 -445 l33 -90 1 168 c0 316 -50 664 -151 1049
l-31 116 -35 -15 c-30 -12 -37 -12 -44 -1 -5 7 -9 17 -9 21 0 4 -22 63 -49
131 -296 739 -844 1370 -1504 1730 -59 32 -107 63 -107 70 0 21 -155 219 -251
320 -217 230 -488 410 -863 576 -314 139 -795 216 -1116 179z m-1026 -84 c115
-15 315 -62 379 -89 27 -11 36 -21 41 -47 6 -33 178 -713 191 -755 6 -18 -1
-24 -47 -43 -166 -67 -458 -252 -678 -428 -172 -137 -501 -461 -661 -649
l-124 -146 -50 6 c-275 31 -598 31 -816 0 -207 -28 -453 -104 -654 -200 -49
-23 -91 -41 -93 -40 -10 10 -34 163 -44 283 -14 165 -2 382 32 578 12 66 22
129 23 140 1 11 4 22 7 25 3 3 28 41 55 85 86 142 185 286 312 457 109 147
134 174 211 231 425 317 970 543 1432 596 124 14 361 12 484 -4z m967 -950
c378 -62 616 -134 919 -278 122 -57 347 -184 440 -247 30 -20 58 -38 63 -38 4
-1 20 -8 36 -16 22 -12 47 -53 114 -183 218 -432 350 -878 387 -1308 11 -140
13 -335 2 -351 -4 -6 -68 -52 -142 -102 -174 -116 -383 -271 -540 -402 -220
-182 -656 -627 -688 -701 -11 -26 8 -112 193 -886 113 -471 208 -860 211 -865
6 -10 -91 -143 -215 -293 -365 -442 -737 -763 -1080 -933 l-114 -57 -101 3
c-195 5 -479 48 -712 107 -303 78 -650 242 -973 461 -51 35 -99 64 -107 64
-18 0 -38 32 -118 190 -206 403 -323 879 -351 1436 -7 124 -6 130 13 140 19 8
212 190 1051 989 l283 270 -6 50 c-7 51 -397 1698 -410 1725 -10 23 219 284
445 505 317 311 608 528 912 681 l152 76 91 -6 c50 -3 160 -18 245 -31z m2664
-5377 c137 -289 211 -552 216 -770 2 -110 13 -87 -193 -397 -166 -249 -160
-242 -228 -281 -643 -375 -1350 -617 -1960 -671 -152 -13 -481 -7 -575 11
l-60 11 -94 242 c-51 133 -120 309 -152 391 -33 81 -59 151 -59 155 0 4 17 13
38 20 129 46 381 200 552 338 263 212 568 537 807 860 l53 70 42 -7 c111 -21
340 -32 564 -28 199 5 264 10 389 32 160 28 406 90 520 130 39 13 71 25 73 25
2 1 32 -59 67 -131z m-5955 -1108 c161 -81 260 -121 315 -128 35 -4 45 -11 79
-59 101 -144 338 -426 450 -537 l49 -48 -51 26 c-193 98 -531 333 -761 529
-118 102 -343 318 -372 359 -17 23 -9 21 68 -24 49 -28 149 -81 223 -118z
m5760 -364 c-14 -14 -76 -61 -138 -105 -662 -472 -1432 -751 -2257 -821 -153
-13 -546 -13 -695 0 -173 15 -380 42 -375 50 2 4 32 10 66 13 178 19 454 92
667 177 113 45 127 49 166 40 81 -18 321 -32 441 -26 480 26 917 129 1415 333
168 69 480 221 620 301 58 33 107 61 110 61 2 1 -7 -10 -20 -23z"/>
</g>
</svg>
