<svg viewBox="0 0 100 100" xmlns="http://www.w3.org/2000/svg" id="football-icon">
  <g fill-rule="evenodd">
    <path d="m88.61 74.516-.109-1.184c-.133-1.46-.266-2.918-.397-4.372a2.132 2.132 0 0 0-.96-1.596 2.134 2.134 0 0 0-1.848-.228c-.665.228-1.901.638-3.401 1.138-12.979 4.32-13.025 4.383-13.588 5.203L58.773 87.5a2.126 2.126 0 0 0 1.09 3.216l3.624 1.196c.892.293 1.78.59 2.67.883A45.33 45.33 0 0 1 50 95.745a45.513 45.513 0 0 1-16.347-3.03l.721-.238c1.78-.586 3.556-1.17 5.332-1.762a2.13 2.13 0 0 0 1.084-3.22c-2.244-3.279-4.476-6.57-6.706-9.857l-2.864-4.212c-.553-.764-.585-.809-12.585-4.82a410.874 410.874 0 0 1-4.351-1.466 2.128 2.128 0 0 0-2.823 1.819c-.128 1.45-.263 2.904-.397 4.36l-.053.601a45.703 45.703 0 0 1-3.156-6.124C5.884 63.163 4.728 58.27 4.38 53.22c.252.351.506.702.757 1.053l1.007 1.41c.386.54 1.004.87 1.67.888.702 0 1.311-.287 1.716-.79.53-.656 1.656-2.008 2.99-3.602 8.252-9.883 8.252-9.923 8.252-11l-.18-18.01a2.126 2.126 0 0 0-2.864-1.977c-.368.138-1.093.369-1.97.65-.735.237-1.572.506-2.411.786a46.05 46.05 0 0 1 4.308-4.976 45.63 45.63 0 0 1 19.35-11.518l-1.58 2.508-1.585 2.52a2.13 2.13 0 0 0-.202 1.863 2.136 2.136 0 0 0 1.347 1.297c2.66.862 11.432 3.77 13.266 4.389.074.027.166.069.263.111.482.21 1.141.5 1.861.528.924-.028 1.6-.33 2.094-.548 1.95-.653 10.904-3.624 13.486-4.484a2.13 2.13 0 0 0 1.123-3.162 763.38 763.38 0 0 1-2.575-4.083l-.365-.58a45.86 45.86 0 0 1 3.666 1.361 45.614 45.614 0 0 1 14.543 9.796 46.789 46.789 0 0 1 4.336 5.021l-1.454-.51c-1.21-.426-2.251-.79-2.692-.958a2.128 2.128 0 0 0-2.888 1.966l-.18 18.032c0 1.043 0 1.128 8.658 11.476 1.156 1.383 2.114 2.528 2.591 3.113.404.498 1.01.785 1.649.785.72-.017 1.333-.34 1.721-.875.506-.695 1.003-1.394 1.503-2.092a45.529 45.529 0 0 1-3.446 14.194 45.942 45.942 0 0 1-3.534 6.715zm-3.256-59.87A49.81 49.81 0 0 0 69.464 3.94C63.32 1.326 56.772 0 50 0c-6.772 0-13.322 1.326-19.46 3.938a49.84 49.84 0 0 0-15.893 10.708 49.798 49.798 0 0 0-10.708 15.89C1.326 36.678 0 43.228 0 50c0 6.772 1.326 13.321 3.938 19.46a49.84 49.84 0 0 0 10.708 15.893 49.822 49.822 0 0 0 15.897 10.71A49.77 49.77 0 0 0 50 100c6.772 0 13.321-1.326 19.46-3.94 5.93-2.507 11.276-6.109 15.893-10.706a49.81 49.81 0 0 0 10.71-15.897A49.785 49.785 0 0 0 100 50c0-6.773-1.326-13.322-3.938-19.46-2.51-5.93-6.11-11.276-10.708-15.893Z"/>
    <path d="M53.117 30.787a375.96 375.96 0 0 1-1.904-1.491 2.622 2.622 0 0 0-1.564-.566c-.06-.003-.12-.007-.168-.007a2.58 2.58 0 0 0-1.6.566c-.302.24-.986.774-1.915 1.5-16.732 13.066-16.732 13.066-16.2 14.824.49 1.678 1.238 4.315 2.053 7.186.951 3.364 1.995 7.042 2.822 9.883 1.75 6.005 1.856 6.366 3.572 6.366h22.66c1.716 0 1.822-.362 3.576-6.386a1341.36 1341.36 0 0 0 2.83-9.91 1257.56 1257.56 0 0 1 2.032-7.114c.542-1.778.542-1.778-16.194-14.85"/>
  </g>
</svg>
