<svg xmlns="http://www.w3.org/2000/svg" xmlns:xlink="http://www.w3.org/1999/xlink" width="15px" height="15px" viewBox="0 0 15 15" version="1.1">    <!-- Generator: Sketch 49 (51002) - http://www.bohemiancoding.com/sketch -->    <title>icon_soccer</title>    <desc>Created with Sketch.</desc>    <defs/>    <g id="icon_soccer" stroke="none" stroke-width="1" fill="none" fill-rule="evenodd">        <rect id="Bound" x="0" y="0" width="15" height="15"/>        <g id="Group" fill="#FFFFFF">            <path d="M12.3631728,11.9526465 L12.3049702,10.4966358 L9.63357907,10.6048477 L8.70567289,13.1284255 L10.0680601,13.6224691 C9.25396424,13.9791955 8.35756906,14.1795742 7.41446345,14.1795742 C6.47766005,14.1795742 5.58682563,13.9825538 4.77717837,13.6306783 L6.12399545,13.1287987 L5.19608927,10.6052209 L2.52469816,10.4970089 L2.47872918,11.9671991 C1.40327739,10.7742554 0.741175735,9.19697269 0.741175735,7.46296915 C0.741175735,7.24318691 0.753409416,7.02601668 0.774169602,6.81183161 L1.72654315,8.02529825 L3.82443411,6.35734133 L3.10116405,3.7665975 L1.57973897,4.21138601 C2.51357663,2.52066726 4.14955345,1.27511017 6.08988943,0.879949902 L5.19015779,2.23894299 L7.41446345,3.7315219 L9.63876912,2.23894299 L8.71938944,0.876964744 C10.6612083,1.26652784 12.2994094,2.50648776 13.2380664,4.19310192 L11.7277629,3.76622436 L11.0048635,6.35659504 L13.1023838,8.02492511 L14.0536452,6.7909355 C14.0755175,7.01221032 14.0873805,7.23609716 14.0873805,7.46296915 C14.0873805,9.18988294 13.4308396,10.7615685 12.3631728,11.9526465 M14.6808993,5.97710686 C14.5748741,5.45059965 14.4113876,4.94573483 14.2019322,4.46549757 C13.1487235,2.05349006 10.867698,0.307919038 8.15293293,0.0377622561 C7.90974218,0.013507849 7.66358569,7.46388443e-05 7.41446345,7.46388443e-05 C7.15496112,7.46388443e-05 6.89879526,0.0138809937 6.64633656,0.0400011245 C3.93342508,0.321352248 1.65721895,2.0755056 0.613278159,4.49385657 C0.406047014,4.97446698 0.246638441,5.48082437 0.143208228,6.00807787 C0.0505288251,6.47861337 0.000111230036,6.96482094 0.000111230036,7.46296915 C0.000111230036,9.65817957 0.947665444,11.6261449 2.44647675,12.9914814 C2.86464621,13.3724622 3.32211174,13.709785 3.81887334,13.9874047 C4.88431576,14.58369 6.10879603,14.9258637 7.41446345,14.9258637 C8.72976954,14.9258637 9.96314703,14.5773465 11.0341502,13.9724789 C11.5297997,13.6926203 11.9868945,13.3541781 12.4039518,12.9713316 C13.8901587,11.6067413 14.828445,9.64773152 14.828445,7.46296915 C14.828445,6.95399975 14.7772859,6.45734412 14.6808993,5.97710686" id="Fill-1"/>            <polygon id="Fill-4" points="4.89456648 6.70969623 5.85744782 9.69226445 8.97300112 9.69226445 9.93588246 6.70969623 7.41540985 4.86611677"/>        </g>    </g></svg>