<svg id="Layer_1" data-name="Layer 1" xmlns="http://www.w3.org/2000/svg" xmlns:xlink="http://www.w3.org/1999/xlink" viewBox="0 0 354.18 325.41"><defs><style>.cls-1{fill:url(#linear-gradient);}</style><linearGradient id="linear-gradient" x1="75.03" y1="164.58" x2="279.15" y2="164.58" gradientUnits="userSpaceOnUse"><stop offset="0" stop-color="#2f2063"/><stop offset="0.57" stop-color="#5e3282"/><stop offset="1" stop-color="#6251a2"/></linearGradient></defs><path class="cls-1" d="M177.09,266.64A102.06,102.06,0,1,0,75,164.58,102.18,102.18,0,0,0,177.09,266.64Zm19.21-9.09a95.6,95.6,0,0,1-38.42,0l-4.16-8.43-13.33-27,14.16-16.73h45.08l14.15,16.73-13.33,27Zm-54.16-100.4,35-25.39L212,157.15l-13.35,41.09h-43.2Zm64.72,95.13,13.5-27.36,30.57-4.44A92.74,92.74,0,0,1,206.86,252.28Zm52.41-40.22-9.37,1.36-30.38,4.41L205.3,201l13.84-42.63L242.43,148l22.29,21.73,6.56,6.38A94.46,94.46,0,0,1,259.27,212.06ZM252.54,110.9a92.11,92.11,0,0,1,17.17,53.68c0,.07-22.61-22-22.61-22ZM217.38,78.64a95.15,95.15,0,0,1,29.7,21.84l-1.57,9.21-5.42,31.57-23.42,10.43-36-26.16V97.94l28.62-15ZM177.09,72A92.51,92.51,0,0,1,206,76.57L177.09,91.75,148.22,76.57A92.46,92.46,0,0,1,177.09,72ZM136.8,78.64l8.09,4.25,28.63,15v27.59l-36,26.16-23.42-10.43-5.42-31.57-1.58-9.21A95.07,95.07,0,0,1,136.8,78.64ZM101.63,110.9l5.44,31.72-22.6,22A92.23,92.23,0,0,1,101.63,110.9ZM82.9,176.15l6.55-6.38L111.75,148,135,158.4,148.88,201l-14.22,16.8-30.38-4.41-9.37-1.36A94.46,94.46,0,0,1,82.9,176.15Zm50.92,48.77,13.5,27.36a92.74,92.74,0,0,1-44.07-31.8Z"/></svg>