<svg xmlns="http://www.w3.org/2000/svg" viewBox="0 0 100 100" xml:space="preserve" id="starcraft-2-icon">
  <path d="M8.9 39.8h17.9c.3 0 .8.3 1 .6 5.4 7.1 10.8 14.2 16.1 21.4 3.9 5.3 1.8 12.6-4.1 14.5-1 .3-2.2.5-3.2.5h-31c-.2 0-.4 0-.9-.1 4.1-5.2 8.2-10.2 12.4-15.5.8.9 1.5 1.8 2.3 2.5.4.3 1 .6 1.5.6 2.1.1 4.2 0 6.5 0-6.2-8.2-12.3-16.2-18.5-24.5zm58.4 0c-.3 3.6-.7 7.1-.7 10.5 0 2.7.4 5.5 1.1 8.2 2 7.7 7.6 11.1 15.8 10.3 2.1-.2 4.3-.4 6.7-.7-6.4 5-12.8 9.2-21.1 8.5-5.9-.5-10.3-3.5-14-8-4.9-6-6.1-13-4.9-20.4.4-2.6 1.3-5.2 2.1-7.8.1-.3.5-.7.8-.7 4.9.1 9.6.1 14.2.1zM52 21.3c0-4.2-.1-8.2.1-12.2 0-.8.7-1.8 1.4-2.2 3.5-2 7.1-3.8 10.6-5.6C65.5.6 67 .5 68.4 1c4.9 1.7 9.8 3.3 14.7 5 1.2.4 1.8 1.3 1.8 2.5s-.6 2.1-1.7 2.5c-4.4 1.7-7.1 4.9-8.2 9.4-.1.3-.5.7-.7.7-7.4.2-14.8.2-22.3.2zm-4.2-.1c-.2 0-.4.1-.7.1h-17c-1.3 0-2.6 0-4 .1-.7 0-1-.1-1.2-.9-1.1-4.3-3.7-7.4-7.8-9.1-1.5-.6-2.1-1.5-2.1-2.8.1-1.4.9-2.2 2.2-2.6 4.5-1.5 8.9-3.1 13.4-4.6 2.1-.7 4.1-.6 6.1.4l9.6 5.1c1 .5 1.5 1.4 1.5 2.5v11.5c.1 0 .1.1 0 .3zM9 37.7c0-1.9-.2-3.7 0-5.4.5-3.9 3.6-6.7 7.6-6.9 1.5-.1 3 0 4.5 0h31C48 30.6 44 35.6 39.8 40.8c-.8-.8-1.5-1.7-2.3-2.3-.5-.4-1.2-.7-1.7-.7H10.3c-.4-.1-.9-.1-1.3-.1zm86.3-12.3c-4.2 5.3-8.3 10.3-12.4 15.5-.8-.9-1.5-1.7-2.3-2.4-.5-.4-1.2-.7-1.7-.7H53.3c-.1-.1-.1-.2-.1-.3 1.3-3.4 2.8-6.7 5.2-9.5 1.6-1.8 3.4-2.7 5.9-2.6 9.8.1 19.6 0 29.4 0h1.6zM52.1 99.3V71.4c5.9 7.2 13.3 10.4 22.8 9.2-.2 1.1-.3 2-.7 2.8-1.7 3.3-4.5 5.7-7.4 7.9-4.4 3.3-9.1 5.8-14.2 7.8-.1.1-.3.1-.5.2zm-4.2 0c-7.2-3-13.9-6.6-19.3-12.2-1.1-1.1-1.9-2.4-2.7-3.7-.4-.7-.5-1.5-.7-2.5h11.3c4.6 0 8.3-1.6 11.1-5.4.1-.1.1-.2.2-.2h.2c-.1 7.9-.1 15.9-.1 24z"/>
</svg>
