<?xml version="1.0" encoding="iso-8859-1"?>
<!-- Generator: Adobe Illustrator 19.0.0, SVG Export Plug-In . SVG Version: 6.00 Build 0)  -->
<svg version="1.1" id="Layer_1" xmlns="http://www.w3.org/2000/svg" xmlns:xlink="http://www.w3.org/1999/xlink" x="0px" y="0px"
	 viewBox="0 0 512 512" style="enable-background:new 0 0 512 512;" xml:space="preserve">
<g>
	<g>
		<path d="M371.2,230.4c-35.285,0-64,28.706-64,64c0,35.285,28.715,64,64,64s64-28.715,64-64
			C435.2,259.106,406.485,230.4,371.2,230.4z M371.2,332.8c-21.205,0-38.4-17.195-38.4-38.4s17.195-38.4,38.4-38.4
			s38.4,17.195,38.4,38.4S392.405,332.8,371.2,332.8z"/>
	</g>
</g>
<g>
	<g>
		<path d="M281.6,0C154.556,0,51.2,103.356,51.2,230.4c0,43.878,12.194,85.811,35.456,122.539l-71.654,71.654
			C5.325,434.261,0,447.121,0,460.8c0,13.679,5.325,26.53,14.993,36.207C24.67,506.675,37.521,512,51.2,512
			s26.53-5.325,36.207-14.993l71.654-71.654c36.727,23.253,78.66,35.448,122.539,35.448c127.044,0,230.4-103.356,230.4-230.4
			S408.644,0,281.6,0z M281.6,435.2c-47.317,0-90.761-16.205-125.44-43.153l-86.861,86.852C64.307,483.9,57.754,486.4,51.2,486.4
			s-13.107-2.5-18.099-7.501c-10.001-10.001-10.001-26.206,0-36.207l86.852-86.852C93.005,321.161,76.8,277.717,76.8,230.4
			c0-2.406,0.282-4.745,0.358-7.134l211.576,211.576C286.345,434.918,284.006,435.2,281.6,435.2z M321.374,431.266l-240.64-240.64
			C99.251,96.563,182.11,25.6,281.6,25.6c113.109,0,204.8,91.691,204.8,204.8C486.4,329.89,415.437,412.749,321.374,431.266z"/>
	</g>
</g>
<g>
</g>
<g>
</g>
<g>
</g>
<g>
</g>
<g>
</g>
<g>
</g>
<g>
</g>
<g>
</g>
<g>
</g>
<g>
</g>
<g>
</g>
<g>
</g>
<g>
</g>
<g>
</g>
<g>
</g>
</svg>
