<svg viewBox="0 0 100 100" xmlns="http://www.w3.org/2000/svg" id="table-tennis-icon">
  <g fill-rule="evenodd">
    <path d="M84.372 63.403c-7.129 7.126-16.428 11.052-26.183 11.052-1.307 0-2.613-.076-3.905-.222-2.377-5.511-6.539-11.386-11.838-16.687-5.298-5.3-11.174-9.46-16.686-11.839-1.232-10.858 2.764-22.02 10.83-30.088C43.722 8.487 53.023 4.561 62.777 4.561c8.884 0 17.129 3.352 23.216 9.438 13.169 13.178 12.44 35.34-1.62 49.405m4.846-52.628C82.269 3.826 72.879 0 62.778 0c-10.975 0-21.42 4.402-29.415 12.395-9.404 9.404-13.871 22.59-11.948 35.268l.198 1.313 1.238.476c5.287 2.037 11.1 6.06 16.367 11.325 5.268 5.268 9.29 11.08 11.325 16.37l.475 1.237 1.312.198c1.924.291 3.895.44 5.859.44 10.974 0 21.42-4.402 29.408-12.391 15.845-15.846 16.573-40.902 1.62-55.855"/>
    <path d="M22.555 81.92c-4.759 4.444-10.838 12.126-11.848 13.415a.574.574 0 0 1-.128.072l-5.994-5.995a.628.628 0 0 1 .082-.141c1.672-1.363 11.206-9.175 13.494-11.935 5.129-6.188 7.338-14.02 8.091-17.36l13.708 13.71c-3.517.673-11.509 2.727-17.406 8.234zm5.98-26.118c-.81-.808-1.815-1.252-2.835-1.252-1.584 0-2.935 1.027-3.526 2.682l-.103.402c-.015.096-1.647 9.816-7.425 16.79-1.763 2.127-9.985 8.967-13.006 11.423l-.205.19c-1.803 1.878-1.924 4.755-.266 6.413l6.368 6.37c.761.761 1.803 1.18 2.933 1.18 1.258 0 2.527-.527 3.484-1.446l.22-.245c.065-.086 6.66-8.543 11.494-13.055 6.493-6.063 16.492-7.31 16.589-7.323l.26-.031.244-.087c1.366-.487 2.312-1.491 2.595-2.756.286-1.264-.14-2.579-1.166-3.601L28.533 55.799z"/>
  </g>
</svg>
