<svg id="Layer_1" data-name="Layer 1" xmlns="http://www.w3.org/2000/svg" xmlns:xlink="http://www.w3.org/1999/xlink" viewBox="0 0 354.18 325.41"><defs><style>.cls-1{fill:url(#linear-gradient);}.cls-2{fill:url(#linear-gradient-2);}.cls-3{fill:url(#linear-gradient-3);}.cls-4{fill:url(#linear-gradient-4);}.cls-5{fill:url(#linear-gradient-5);}</style><linearGradient id="linear-gradient" x1="131.73" y1="116.66" x2="243.46" y2="312.2" gradientUnits="userSpaceOnUse"><stop offset="0" stop-color="#ff9d00"/><stop offset="0.61" stop-color="#ffd300"/><stop offset="1" stop-color="#ffd071"/></linearGradient><linearGradient id="linear-gradient-2" x1="161.61" y1="99.58" x2="273.35" y2="295.12" xlink:href="#linear-gradient"/><linearGradient id="linear-gradient-3" x1="72.78" y1="150.34" x2="184.51" y2="345.88" xlink:href="#linear-gradient"/><linearGradient id="linear-gradient-4" x1="61.18" y1="156.98" x2="172.91" y2="352.51" xlink:href="#linear-gradient"/><linearGradient id="linear-gradient-5" x1="50.02" y1="163.35" x2="161.75" y2="358.89" xlink:href="#linear-gradient"/></defs><g id="ZKP99z"><path class="cls-1" d="M101.57,274a79.6,79.6,0,0,1-29.7-29.18c-.67-1.14-.13-1.62.55-2.29l24.44-24.46,24.34-24.31c5.12-5.14,6.56-11.14,4-18a77.12,77.12,0,0,1-4.85-26.06,75.73,75.73,0,1,1,129.07,53.06c-17.24,17-38.12,23.95-62.14,21.58a66.74,66.74,0,0,1-17.16-4.11c-7.39-2.81-13.62-1.25-19.14,4.31Q126.9,248.86,102.64,273C102.32,273.34,102,273.64,101.57,274ZM265.43,149.49l.45-.06c-.75-5.32-1.1-10.74-2.32-16-10.08-42.95-56.57-65.91-96.47-47-25.5,12.06-38.79,33-40.22,61.31A3.47,3.47,0,0,0,128,150.6q15.06,15,30.05,30,18.3,18.31,36.59,36.62a3.29,3.29,0,0,0,2.88,1.13c3.47-.34,7-.35,10.42-1A69.33,69.33,0,0,0,265.43,149.49ZM100.49,265.64q33.33-33.34,66.39-66.4l-20.7-20.69L79.7,245C83.27,251.5,94.12,262.31,100.49,265.64Zm40.4-92.22L127.49,160c2,7.31,3.9,14.44,5.71,21.14Zm44.55,44.43-13.39-13.4-7.69,7.67Z"/><path class="cls-2" d="M271.85,247.39A25.77,25.77,0,1,1,246,221.68,25.78,25.78,0,0,1,271.85,247.39Zm-25.48-19.22a19.29,19.29,0,1,0,19.06,19.27A19.32,19.32,0,0,0,246.37,228.17Z"/><path class="cls-3" d="M122.35,227.3l-6.11,6.07-4.07-4.3,6.07-6.06Z"/><path class="cls-4" d="M106.29,242.88l-3.9-3.92,6.31-6.3,3.69,4.08Z"/><path class="cls-5" d="M99.06,242.24l4,4-6.31,6.29-3.85-4.27Z"/></g></svg>