<svg id="Capa_1" enable-background="new 0 0 511.972 511.972" height="512" viewBox="0 0 511.972 511.972" width="512" xmlns="http://www.w3.org/2000/svg" xmlns:xlink="http://www.w3.org/1999/xlink"><linearGradient id="SVGID_1_" gradientUnits="userSpaceOnUse" x1="67.806" x2="508.103" y1="544.635" y2="104.337"><stop offset="0" stop-color="#fd3a84"/><stop offset="1" stop-color="#ffa68d"/></linearGradient><g><g><g><path d="m457.843 54.076c-76.03-76.03-204.499-71.272-286.378 10.607-52.71 52.709-75.198 127.123-59.3 196.309 6.308 27.449-.858 54.768-19.167 73.077l-75.453 75.453c-23.394 23.394-23.394 61.458 0 84.853 23.393 23.393 61.458 23.394 84.853 0l75.453-75.453c18.309-18.31 45.628-25.474 73.076-19.167 69.091 15.877 143.529-6.519 196.309-59.3 81.879-81.879 86.638-210.348 10.607-286.379zm-200.197 316.441c-37.584-8.637-75.346 1.528-101.008 27.192l-75.453 75.453c-11.697 11.697-30.729 11.697-42.427 0-11.697-11.697-11.697-30.73 0-42.427l75.453-75.452c25.664-25.663 35.829-63.423 27.192-101.009-.714-3.105-1.314-6.229-1.843-9.363l127.472 127.472c-3.142-.531-6.273-1.151-9.386-1.866zm53.373 3.426-173.034-173.033c3.911-42.088 23.011-83.332 54.693-115.013 69.455-69.455 178.979-75.58 243.952-10.607 64.333 64.334 59.575 173.77-10.606 243.952-31.681 31.68-72.919 50.79-115.005 54.701zm140.953 18.005c-33.084 0-60 26.916-60 60s26.916 60 60 60 60-26.916 60-60-26.916-60-60-60zm0 90c-16.542 0-30-13.458-30-30s13.458-30 30-30 30 13.458 30 30-13.458 30-30 30z" fill="url(#SVGID_1_)"/></g></g></g></svg>