<svg id="Layer_1" data-name="Layer 1" xmlns="http://www.w3.org/2000/svg" xmlns:xlink="http://www.w3.org/1999/xlink" viewBox="0 0 354.18 325.41"><defs><style>.cls-1{fill:url(#linear-gradient);}.cls-2{fill:url(#linear-gradient-2);}.cls-3{fill:url(#linear-gradient-3);}.cls-4{fill:url(#linear-gradient-4);}</style><linearGradient id="linear-gradient" x1="73.77" y1="43.44" x2="217.52" y2="206.05" gradientUnits="userSpaceOnUse"><stop offset="0" stop-color="#2f2063"/><stop offset="0.57" stop-color="#5e3282"/><stop offset="1" stop-color="#6251a2"/></linearGradient><linearGradient id="linear-gradient-2" x1="73.77" y1="43.44" x2="217.52" y2="206.05" xlink:href="#linear-gradient"/><linearGradient id="linear-gradient-3" x1="77.4" y1="40.22" x2="221.16" y2="202.83" xlink:href="#linear-gradient"/><linearGradient id="linear-gradient-4" x1="3.65" y1="105.42" x2="147.4" y2="268.03" xlink:href="#linear-gradient"/></defs><path class="cls-1" d="M262.35,222.19,258.12,218C237.3,197.14,235,171.67,233,149.19l-.27-3c-.12-2.2-.34-4.46-.64-6.6l0-.23,0-.27c-3-20.72-13.56-41.11-29.87-57.42C185.32,64.83,164.29,54.13,143,51.56,121.36,49,102,55,88.54,68.46c-27.69,27.69-21.75,78.67,13.22,113.65,16.35,16.34,36.78,26.95,57.54,29.88,2.35.33,4.69.56,6.89.68l3.07.28c22.48,2,48,4.27,68.78,25.1l4.22,4.22,43.38,43.38a4.24,4.24,0,0,0,6,0l14.09-14.09a4.26,4.26,0,0,0,0-6ZM237,229.59c-21.31-18-46.6-20.32-67.23-22.16l-3.17-.29c-2.14-.11-4.32-.33-6.48-.63-19.61-2.77-38.93-12.82-54.43-28.32C72.87,145.37,66.93,97.91,92.46,72.38c12.27-12.27,30-17.72,49.83-15.32,20.11,2.43,40,12.56,56,28.55,15.5,15.5,25.56,34.82,28.32,54.39.31,2.22.52,4.4.64,6.61l.28,3.07c1.84,20.63,4.13,45.93,22.16,67.23Zm4.13,3.7,12.25-12.24,3.1,3.1-12.25,12.24Zm47.51,47.52-40.49-40.5,12.25-12.24,40.49,40.49Z"/><path class="cls-2" d="M194.28,89.59c-29.43-29.42-72.35-34.38-95.67-11.06-11.4,11.4-16.46,27.69-14.27,45.88C86.5,142.35,95.5,160,109.67,174.2s31.85,23.16,49.79,25.33a69.17,69.17,0,0,0,8.18.5c14.87,0,28-5.11,37.69-14.77C228.66,161.94,223.7,119,194.28,89.59Zm17.86,73.8L196.45,147.7l11.41-11.41,6.42,6.42A54.52,54.52,0,0,1,212.14,163.39Zm-69.42-38.78,10.85,10.84-11.41,11.41L131.32,136Zm-13.36,9.45-10.85-10.85,11.41-11.4,10.84,10.84Zm15.32-11.41,11.41-11.41,10.84,10.85-11.4,11.41Zm10.85,14.76,10.84,10.85L155,159.66l-10.85-10.84Zm1.95-2,11.41-11.4,10.84,10.84-11.4,11.41Zm13.37-13.36,11.4-11.41,10.85,10.85-11.41,11.4Zm-2-2L158,109.29l11.41-11.41,10.85,10.85Zm-12.8-12.8L145.24,96.48l11.41-11.4,10.84,10.84Zm-2,2-11.41,11.4-10.84-10.84,11.4-11.41Zm-24.21-1.4L119.08,97l11.4-11.4,10.85,10.84Zm-2,2-11.4,11.4-10.85-10.84L117.12,99ZM114.6,123.21l-11.41,11.41L92.35,123.77l11.4-11.4Zm2,2L127.4,136,116,147.42l-10.85-10.85Zm12.8,12.8,10.84,10.85-11.4,11.4L118,149.38Zm12.8,12.81L153,161.62,141.6,173l-10.84-10.85ZM155,163.58l10.84,10.84L154.4,185.83,143.56,175Zm1.95-2,11.41-11.41,10.84,10.85-11.4,11.41Zm13.37-13.36,11.4-11.41,10.85,10.85-11.41,11.4Zm13.36-13.37,11.41-11.4,10.84,10.84-11.4,11.41Zm30.16,3.43-4-4,2.65-2.65Q213.31,135,213.81,138.32Zm-2.16-9.74-3.79,3.79L197,121.53l8.19-8.2A78.33,78.33,0,0,1,211.65,128.58ZM194.71,98.22a86.66,86.66,0,0,1,9.1,12.6l-8.75,8.75-10.85-10.84Zm-4.35-4.71c.87.87,1.65,1.79,2.47,2.68l-10.58,10.58L171.41,95.92l10.13-10.13A89.42,89.42,0,0,1,190.36,93.51Zm-11.07-9.38L169.45,94,158.61,83.12l7-7A84.11,84.11,0,0,1,179.29,84.13ZM146,70.1a73.19,73.19,0,0,1,16.87,4.82l-6.24,6.24L145.8,70.32Zm8.67,13L143.28,94.53,132.44,83.68l11.4-11.4Zm-18.3-13.79c1.56,0,3.13.08,4.71.2l.79.79-11.41,11.4-10-10A52.86,52.86,0,0,1,136.39,69.33Zm-18.83,3.39,11,11-11.4,11.41L103.56,81.53A43.38,43.38,0,0,1,117.56,72.72Zm-16,10.77L115.16,97l-11.41,11.41L92.82,97.52A43.37,43.37,0,0,1,101.61,83.49Zm-9.85,16.89,10,10-11.4,11.4-.74-.74A54.37,54.37,0,0,1,91.76,100.38Zm-1.55,25.53.18-.18,10.84,10.85L95,142.83A72.27,72.27,0,0,1,90.21,125.91Zm6,19.61,7-7L114,149.38l-9.85,9.84A82.38,82.38,0,0,1,96.21,145.52Zm17.37,24.76a90,90,0,0,1-7.69-8.84L116,151.34l10.84,10.84-10.58,10.58C115.37,171.94,114.45,171.15,113.58,170.28Zm4.71,4.37,10.51-10.51L139.64,175l-8.76,8.77A87.85,87.85,0,0,1,118.29,174.65Zm15.1,10.51,8.21-8.22,10.85,10.85-3.81,3.8A77.74,77.74,0,0,1,133.39,185.16Zm18.35,7.25,2.66-2.66,4,4A67.38,67.38,0,0,1,151.74,192.41Zm11,1.81-6.43-6.43,11.41-11.41,15.72,15.72A54.62,54.62,0,0,1,162.79,194.22ZM186.34,191l-16.61-16.62,11.4-11.4,19.25,19.24A43.49,43.49,0,0,1,186.34,191Zm-3.25-30,11.41-11.41,16.61,16.62a43.32,43.32,0,0,1-8.78,14Z"/><path class="cls-3" d="M239.39,215.5c-7.34-11.86-12-25.29-14.68-42.27a2.77,2.77,0,0,0-5.29-.64,49.24,49.24,0,0,1-26.75,26.76,2.77,2.77,0,0,0,.64,5.29c17,2.68,30.41,7.34,42.27,14.68a2.77,2.77,0,0,0,3.41-.4A2.77,2.77,0,0,0,239.39,215.5Zm-37.08-14.85a54.43,54.43,0,0,0,18.42-18.41A115.72,115.72,0,0,0,230,209.89,116.7,116.7,0,0,0,202.31,200.65Z"/><path class="cls-4" d="M138.42,216.37a33.78,33.78,0,1,0,21.06,15A33.72,33.72,0,0,0,138.42,216.37ZM109.64,268.8A28.59,28.59,0,0,1,103,256.49a29.72,29.72,0,0,1-.81-4.71c0-.13,0-.26,0-.38a29,29,0,0,1,.41-7.18c6.31,3.29,13.57-1.47,16.87-4.87a15.14,15.14,0,0,1,24.43,2.05,16.49,16.49,0,0,1,2,5.43c0,.18.06.36.09.54A15.16,15.16,0,0,1,126.33,264C121.87,262.91,113.26,262.74,109.64,268.8Zm50-18.83c0,1-.1,1.92-.22,2.89a27.19,27.19,0,0,1-.52,2.9,26.14,26.14,0,0,1-.75,2.66c-.09.28-.21.55-.31.83-.21.58-.43,1.15-.68,1.7-.14.32-.29.62-.44.93-.24.5-.49,1-.76,1.48l-.53.91q-.44.71-.9,1.38c-.19.28-.38.55-.58.82-.35.47-.72.92-1.1,1.37-.18.22-.36.45-.56.67-.52.58-1.07,1.14-1.64,1.68l-.17.18c-.64.59-1.3,1.14-2,1.67-.21.17-.44.31-.65.47-.49.36-1,.7-1.48,1l-.83.5c-.47.28-.94.54-1.42.8l-.91.45c-.49.23-1,.45-1.48.65-.31.13-.62.26-.93.37-.54.2-1.09.38-1.63.54l-.86.26c-.71.19-1.42.35-2.14.49l-.42.09c-.86.15-1.73.25-2.61.32l-.77,0c-.51,0-1,.06-1.52.06l-.32,0c-.68,0-1.37-.06-2-.11-.34,0-.68,0-1-.08a28.12,28.12,0,0,1-3.09-.53,27.16,27.16,0,0,1-2.84-.81,28.36,28.36,0,0,1-5.22-2.37c-.81-.48-1.6-1-2.36-1.54l-.47-.38c2.12-5.62,11.52-3.47,11.54-3.47a20.06,20.06,0,0,0,26-19.51,14.22,14.22,0,0,0-.07-2l0-.24c0-.47-.13-.93-.21-1.38s-.14-.74-.23-1.1l-.12-.46a21.07,21.07,0,0,0-1-2.76A20.09,20.09,0,0,0,115.71,236c-.07.08-7,7.1-11.83,3.22.19-.53.4-1,.62-1.57.14-.31.29-.62.44-.92.25-.51.5-1,.77-1.48.17-.31.35-.61.53-.91q.44-.7.9-1.38c.19-.28.38-.56.58-.83.35-.46.72-.91,1.09-1.36l.56-.67.16-.18c.47-.52,1-1,1.47-1.49l.19-.19c.32-.3.66-.56,1-.84s.65-.57,1-.84l.65-.47.32-.22c.38-.27.76-.54,1.15-.8l.42-.25.41-.25c.29-.17.57-.36.86-.52s.38-.18.57-.28.6-.31.91-.45c.49-.23,1-.45,1.48-.65l.93-.38c.54-.19,1.08-.37,1.63-.53.28-.09.57-.19.86-.27l.25-.07c.62-.17,1.26-.29,1.89-.41.14,0,.27-.07.41-.09.81-.14,1.63-.25,2.46-.32h.16l.78,0c.5,0,1-.06,1.5-.06h.33c.68,0,1.36.06,2.05.12.34,0,.68,0,1,.08a27.72,27.72,0,0,1,3.09.53,28.61,28.61,0,0,1,12.61,6.47c.69.61,1.36,1.26,2,1.94a29,29,0,0,1,5.84,9.33q.49,1.29.87,2.64a29.13,29.13,0,0,1,1,5.52C159.65,248.06,159.67,249,159.65,250Z"/></svg>