<svg xmlns="http://www.w3.org/2000/svg" xmlns:xlink="http://www.w3.org/1999/xlink" width="15px" height="15px" viewBox="0 0 15 15" version="1.1">    <!-- Generator: Sketch 49 (51002) - http://www.bohemiancoding.com/sketch -->    <title>icon_tennis</title>    <desc>Created with Sketch.</desc>    <defs>        <polyline id="path-1" points="2 2.00566183 16.994375 2.00566183 16.994375 17.0056618 2 17.0056618"/>    </defs>    <g id="icon_tennis" stroke="none" stroke-width="1" fill="none" fill-rule="evenodd">        <rect id="Bound" x="0" y="0" width="15" height="15"/>        <path d="M9.03435,11.2368399 C9.658725,11.0326366 10.2111,10.6917946 10.6761,10.2237502 C12.284475,8.60484509 12.284475,5.97096304 10.6761,4.3520579 C9.067725,2.73315275 6.450975,2.73315275 4.8426,4.3520579 C4.377225,4.82047974 4.038975,5.37647118 3.836475,6.00493401 C2.952225,8.74337113 2.32785,9.96028654 0.7626,10.8707084 C1.11735,11.5999517 1.588725,12.2865426 2.190975,12.8927356 C2.793225,13.4989286 3.474975,13.9733897 4.199475,14.3304623 C5.10435,12.754587 6.31335,12.1265017 9.03435,11.2368399" id="Fill-1" fill="#FFFFFF"/>        <g id="Group-5" transform="translate(-2.000000, -2.000000)">            <mask id="mask-2" fill="white">                <use xlink:href="#path-1"/>            </mask>            <g id="Clip-4" transform="translate(9.497187, 9.505662) rotate(15.000000) translate(-9.497187, -9.505662) "/>            <path d="M4.19187335,4.2032999 C2.05169441,6.34350188 1.48223049,9.4527033 2.46847597,12.1162325 C3.80247707,11.317924 4.31116816,10.2397574 5.12409853,7.73641512 C5.36381358,6.99775469 5.76408894,6.34462732 6.31404552,5.79503996 C8.2152597,3.89343016 11.309422,3.89343016 13.2106362,5.79503996 C15.1122255,7.69627461 15.1122255,10.7900951 13.2106362,12.6917049 C12.6603044,13.2420425 12.006809,13.6423222 11.2685316,13.8812895 C8.76596656,14.694979 7.68781156,15.2033004 6.88951169,16.537691 C9.55338735,17.5235719 12.6625553,16.9541019 14.8023591,14.8138999 C17.7325848,11.8840178 17.7325848,7.13318202 14.8023591,4.2032999 C11.8725085,1.27341777 7.12172392,1.27341777 4.19187335,4.2032999" id="Fill-3" fill="#FFFFFF" mask="url(#mask-2)"/>        </g>    </g></svg>