<?xml version="1.0" encoding="iso-8859-1"?>
<!-- Generator: Adobe Illustrator 19.0.0, SVG Export Plug-In . SVG Version: 6.00 Build 0)  -->
<svg version="1.1" id="Capa_1" xmlns="http://www.w3.org/2000/svg" xmlns:xlink="http://www.w3.org/1999/xlink" x="0px" y="0px"
	 viewBox="0 0 511.999 511.999" style="enable-background:new 0 0 511.999 511.999;" xml:space="preserve">
<polygon style="fill:#F2AD49;" points="239.687,295.949 215.137,320.498 127.119,408.516 103.488,384.885 191.924,296.458 
	216.565,271.817 "/>
<g>
	<polygon style="fill:#DD983C;" points="227.54,283.271 216.562,271.813 103.491,384.885 114.708,396.102 	"/>
	<path style="fill:#DD983C;" d="M216.565,271.817l-24.641,24.641c3.661,5.038,7.751,9.822,12.259,14.33
		c3.488,3.488,7.15,6.731,10.954,9.71l24.549-24.549L216.565,271.817z"/>
</g>
<path style="fill:#566468;" d="M32.678,501.294l-21.967-21.967c-4.083-4.083-4.083-10.702,0-14.785l90.221-90.221
	c4.083-4.083,10.702-4.083,14.785,0l21.967,21.967c4.083,4.083,4.083,10.702,0,14.785l-90.221,90.221
	C43.38,505.377,36.761,505.377,32.678,501.294z"/>
<path style="fill:#3E4E51;" d="M26.822,480.653l90.221-90.221c4.083-4.083,10.702-4.083,14.785,0l-16.11-16.11
	c-4.083-4.083-10.702-4.083-14.785,0l-90.221,90.221c-4.083,4.083-4.083,10.702,0,14.785l16.11,16.11
	C22.739,491.356,22.739,484.736,26.822,480.653z"/>
<path style="fill:#4477C1;" d="M467.203,44.801C409.84-12.562,306.61-2.336,236.632,67.642s-80.205,173.208-22.841,230.571
	c57.363,57.363,160.593,47.136,230.571-22.841C514.339,205.394,524.565,102.164,467.203,44.801z M418.108,249.118
	c-27.792,27.792-62.391,45.01-97.423,48.48c-32.273,3.197-60.912-5.908-80.642-25.638c-19.73-19.73-28.836-48.37-25.638-80.642
	c3.471-35.032,20.688-69.63,48.48-97.423c27.792-27.792,62.391-45.01,97.423-48.48c32.273-3.197,60.912,5.908,80.642,25.638
	c19.73,19.73,28.836,48.37,25.638,80.642C463.118,186.728,445.901,221.326,418.108,249.118z"/>
<circle style="fill:#EAC300;" cx="159.564" cy="100.022" r="61.191"/>
<path style="fill:#C9A302;" d="M150.978,143.293c-23.896-23.896-23.896-62.641,0-86.538c7.489-7.489,16.437-12.63,25.929-15.424
	c-20.795-6.124-44.202-0.983-60.609,15.424c-23.896,23.896-23.896,62.641,0,86.538c16.407,16.407,39.814,21.548,60.609,15.424
	C167.416,155.922,158.467,150.782,150.978,143.293z"/>
<path d="M472.612,39.389C443.22,9.996,401.767-3.688,355.895,0.857c-45.304,4.49-89.581,26.287-124.671,61.377
	c-3.067,3.067-6.045,6.23-8.928,9.46c-3.323-7.38-7.998-14.294-14.051-20.348l0,0c-26.841-26.841-70.515-26.84-97.355,0
	c-26.977,26.978-26.84,70.958,0.411,97.762c11.693,11.503,27.233,18.509,43.599,19.601c6.114,0.408,12.134,0.008,17.952-1.123
	c-4.735,22.533-5.048,44.654-1.166,65.231l-0.135-0.001c-0.214,20.572-4.648,77.839-22.359,95.551l-35.934,35.934
	c-1.586-0.447-3.24-0.692-4.933-0.692c-4.835,0-9.382,1.883-12.801,5.303L39.62,424.816c-2.987,2.987-2.987,7.83,0,10.817l0,0
	c2.987,2.987,7.83,2.987,10.817,0l55.903-55.903c0.715-0.715,1.55-0.822,1.984-0.822s1.265,0.107,1.979,0.817l21.979,21.979
	c1.086,1.094,1.084,2.868-0.006,3.959l-90.221,90.221c-1.095,1.095-2.872,1.095-3.967,0L16.12,473.917
	c-1.095-1.095-1.095-2.872,0-3.967l9.222-9.222c2.987-2.987,2.987-7.83,0-10.817l0,0c-2.987-2.987-7.83-2.987-10.817,0l-9.222,9.222
	c-7.07,7.07-7.07,18.533,0,25.603l21.968,21.967c3.529,3.529,8.165,5.294,12.801,5.294s9.272-1.764,12.801-5.294l90.221-90.221
	c4.794-4.794,6.322-11.627,4.605-17.731l35.94-35.94l0,0c17.687-17.687,74.972-22.137,95.553-22.359l-0.001-0.11
	c5.153,0.965,10.419,1.672,15.789,2.113c4.455,0.366,8.932,0.549,13.435,0.549c26.3,0,53.256-6.22,79.017-18.265
	c3.952-1.848,5.616-6.576,3.62-10.456v-0.001c-1.871-3.637-6.285-5.187-9.989-3.453c-27.791,13.016-56.976,18.671-84.83,16.38
	c-30.384-2.498-57.022-14.395-77.035-34.405c-31.823-31.823-42.64-80.579-29.259-130.983c6.693-3.296,12.877-7.691,18.307-13.121
	c16.182-16.182,22.591-38.479,19.262-59.52c4.536-5.573,9.399-10.995,14.535-16.13c32.596-32.596,73.566-52.829,115.362-56.971
	c41.229-4.086,78.3,8.034,104.391,34.124c54.283,54.293,44.035,152.873-22.846,219.753c-8.209,8.21-17.048,15.714-26.345,22.371
	c-3.332,2.386-4.148,6.999-1.884,10.414l0,0c2.405,3.627,7.333,4.503,10.87,1.967c9.949-7.13,19.401-15.158,28.177-23.935
	c35.091-35.091,56.888-79.365,61.377-124.667C515.689,110.239,502.005,68.786,472.612,39.389z M183.397,275.492
	c0.267-1.873,0.512-3.72,0.739-5.538c2.573,5.122,5.458,10.068,8.666,14.802l-13.728,13.728
	C180.757,291.529,182.201,283.866,183.397,275.492z M202.207,296.987c1.976,2.274,4.028,4.492,6.172,6.637
	c2.145,2.144,4.355,4.204,6.628,6.182L138.513,386.3l-12.809-12.81L202.207,296.987z M236.511,328.607
	c-8.373,1.195-16.037,2.638-22.992,4.322l13.713-13.713c4.704,3.197,9.615,6.091,14.72,8.663
	C240.165,328.104,238.35,328.345,236.511,328.607z M212.676,93.529c-11.828-1.415-22.739-6.691-31.334-15.286
	c-8.591-8.591-13.868-19.507-15.281-31.327c11.473,1.39,22.58,6.463,31.366,15.25C206.213,70.95,211.286,82.056,212.676,93.529z
	 M106.457,106.514c11.821,1.424,22.743,6.704,31.326,15.287c8.595,8.595,13.878,19.523,15.297,31.362
	c-11.844-1.422-22.806-6.713-31.373-15.279C112.92,129.097,107.846,117.988,106.457,106.514z M197.427,137.884
	c-7.993,7.993-18.072,13.133-29.005,14.943c-1.541-15.802-8.403-30.425-19.821-41.844c-11.408-11.407-26.01-18.267-41.805-19.812
	c1.768-10.628,6.728-20.826,14.911-29.008c8.185-8.184,18.383-13.145,29.014-14.912c1.535,15.784,8.389,30.393,19.804,41.807
	c11.419,11.42,26.025,18.297,41.81,19.832C210.565,119.515,205.606,129.706,197.427,137.884z"/>
<path d="M446.359,65.645c-21.381-21.381-52.207-31.269-86.804-27.842c-36.787,3.644-73.039,21.643-102.077,50.683
	c-29.04,29.039-47.039,65.291-50.683,102.077c-3.427,34.596,6.461,65.424,27.842,86.805c18.605,18.605,44.361,28.507,73.531,28.507
	c4.352,0,8.782-0.22,13.274-0.666c36.787-3.644,73.039-21.645,102.077-50.683c29.04-29.04,47.039-65.291,50.683-102.077
	C477.627,117.854,467.74,87.025,446.359,65.645z M299.337,284.148l-30.332-30.332l30.338-30.338l30.332,30.332L299.337,284.148z
	 M280.346,286.792c-10.924-3.144-20.786-8.221-29.21-15.107l7.052-7.052L280.346,286.792z M381.649,58.867l30.335,30.335
	l-30.338,30.338L351.31,89.205L381.649,58.867z M400.661,56.244c10.915,3.145,20.772,8.211,29.19,15.092l-7.05,7.05L400.661,56.244z
	 M370.828,130.357l-30.329,30.329l-30.335-30.335l30.329-30.329L370.828,130.357z M299.346,119.534l-25.523-25.523
	c11.008-10.107,22.981-18.551,35.529-25.13l20.324,20.324L299.346,119.534z M288.526,130.354L258.19,160.69l-20.323-20.322
	c6.579-12.551,15.025-24.526,25.135-35.537L288.526,130.354z M299.344,141.171l30.335,30.335l-30.336,30.336l-30.335-30.335
	L299.344,141.171z M288.526,212.66l-30.338,30.338l-30.335-30.335l30.338-30.338L288.526,212.66z M310.161,212.66l30.336-30.336
	l30.332,30.332l-30.336,30.336L310.161,212.66z M381.647,223.474L407.173,249c-11.011,10.11-22.986,18.556-35.537,25.135
	l-20.325-20.325L381.647,223.474z M392.466,212.655l30.329-30.329l20.327,20.327c-6.578,12.548-15.022,24.521-25.13,35.528
	L392.466,212.655z M381.649,201.837l-30.332-30.332l30.329-30.329l30.332,30.332L381.649,201.837z M392.463,130.357l30.338-30.338
	l30.332,30.332l-30.338,30.338L392.463,130.357z M433.619,89.202l7.056-7.056c6.888,8.426,11.967,18.293,15.111,29.221
	L433.619,89.202z M361.062,53.027c1.743-0.172,3.471-0.3,5.188-0.397l-25.758,25.758l-16.307-16.307
	C336.22,57.331,348.618,54.26,361.062,53.027z M231.067,155.202l16.305,16.305l-25.757,25.757c0.097-1.719,0.227-3.448,0.4-5.192
	C223.249,179.63,226.32,167.234,231.067,155.202z M225.211,231.657l22.159,22.159l-7.052,7.052
	C233.432,252.443,228.356,242.581,225.211,231.657z M319.931,289.987c-1.745,0.173-3.478,0.304-5.198,0.4l25.76-25.76l16.308,16.308
	C344.769,285.684,332.374,288.754,319.931,289.987z M449.923,187.818l-16.31-16.31l25.764-25.764
	c-0.097,1.721-0.227,3.452-0.4,5.197C457.744,163.386,454.672,175.784,449.923,187.818z"/>
<g>
</g>
<g>
</g>
<g>
</g>
<g>
</g>
<g>
</g>
<g>
</g>
<g>
</g>
<g>
</g>
<g>
</g>
<g>
</g>
<g>
</g>
<g>
</g>
<g>
</g>
<g>
</g>
<g>
</g>
</svg>
