<?xml version="1.0" ?><!DOCTYPE svg  PUBLIC '-//W3C//DTD SVG 1.1//EN'  'http://www.w3.org/Graphics/SVG/1.1/DTD/svg11.dtd'><svg enable-background="new 0 0 633.48 633.48" height="633.48px" id="Layer_1" version="1.1" viewBox="0 0 633.48 633.48" width="633.48px" xml:space="preserve" xmlns="http://www.w3.org/2000/svg" xmlns:xlink="http://www.w3.org/1999/xlink"><g><path d="M542.076,514.057c-14.8-11.101-43.377-20.131-63.703-20.131H314.384c-99.453,0-180.365-78.778-180.365-175.612v-0.354   c0-0.238,0.004-0.475,0.007-0.711l0.005-0.246l0.001-0.065v-0.003v-0.019l-0.003-0.107c-0.004-0.278-0.01-0.553-0.01-0.831v-0.354   c0-96.834,80.912-175.612,180.365-175.612h163.988c20.326,0,48.902-9.03,63.703-20.131c6.44-4.829,3.005-12.958-1.011-18.929   c-1.482-2.202-2.923-2.653-4.63-2.653c-3.826-0.002-9.447,2.588-15.955,5.586c-10.853,4.999-24.357,11.22-40.882,11.22h-0.111   l-0.11-0.005l-0.313-0.017H314.384c-54.464,0-105.802,20.619-144.555,58.058c-39.169,37.84-60.739,88.441-60.739,142.483v0.354   c0,0.195,0.004,0.39,0.007,0.585l0.006,0.349v0.058v0.058l-0.006,0.346c-0.003,0.196-0.007,0.393-0.007,0.588v0.354   c0,54.042,21.57,104.644,60.739,142.483c38.752,37.438,90.09,58.057,144.555,58.057h164.679l0.313-0.016l0.11-0.006h0.111   c16.522,0,30.029,6.221,40.882,11.221c6.508,2.997,12.129,5.586,15.955,5.586c1.707,0,3.147-0.451,4.63-2.655   C545.081,527.015,548.516,518.886,542.076,514.057z"/><g><path d="M316.741,633.48c-84.604,0-164.146-32.947-223.97-92.771C32.947,480.884,0,401.344,0,316.74    c0-84.605,32.946-164.146,92.771-223.97S232.136,0,316.741,0c84.604,0,164.145,32.946,223.969,92.771    s92.771,139.364,92.771,223.97c0,84.604-32.946,164.144-92.771,223.969C480.885,600.533,401.344,633.48,316.741,633.48z     M316.741,20.529C153.41,20.529,20.53,153.408,20.53,316.74s132.88,296.21,296.211,296.21c163.33,0,296.21-132.878,296.21-296.21    S480.071,20.529,316.741,20.529z"/></g></g></svg>