<svg viewBox="0 0 100 100" xmlns="http://www.w3.org/2000/svg" id="tennis-icon">
  <path d="M95.832 47.732c-11.04-.288-22.075-5.083-30.282-13.285-8.201-8.203-12.997-19.242-13.284-30.277 11.035.287 22.058 5.097 30.26 13.3 8.208 8.203 13.016 19.23 13.307 30.262zM82.526 82.526c-8.477 8.482-19.517 12.722-30.537 13.58-.584-11.877-5.39-24.033-14.726-33.37-9.34-9.34-20.926-14.158-33.37-14.73.276-11.018 5.1-22.058 13.578-30.535C25.948 8.994 36.989 4.75 48.008 3.894c.582 11.878 5.39 24.03 14.73 33.37 9.336 9.335 20.925 14.156 33.369 14.727-.858 11.018-5.1 22.06-13.58 30.536zm-65.055 0C8.993 74.05 4.457 63.3 4.168 52.266c11.037.286 22.076 5.08 30.278 13.284 8.204 8.202 12.998 19.242 13.285 30.28-11.03-.29-21.783-4.822-30.26-13.304Zm-2.832-67.888c-19.518 19.517-19.518 51.203 0 70.72 19.52 19.523 51.201 19.523 70.72 0 19.521-19.517 19.521-51.203 0-70.72-19.519-19.517-51.2-19.517-70.72 0z" fill-rule="evenodd"/>
</svg>
