<?xml version="1.0" encoding="iso-8859-1"?>
<!-- Uploaded to: SVG Repo, www.svgrepo.com, Generator: SVG Repo Mixer Tools -->
<svg version="1.1" id="Layer_1" xmlns="http://www.w3.org/2000/svg" xmlns:xlink="http://www.w3.org/1999/xlink" 
	 viewBox="0 0 480 480" xml:space="preserve">
<path style="fill:#E5E8E8;" d="M336,272.952l-41.016,20.504l-14.224,64.096l26.552,26.64h66.504
	c11.584-24,18.184-46.056,18.184-72.096c0-3.824-0.336-7.632-0.616-11.408L336,272.952z"/>
<path style="fill:#E07940;" d="M161.688,442.216l5.248-42.024h-50.64C128.376,416.192,143.832,431.424,161.688,442.216z"/>
<path style="fill:#E5E8E8;" d="M268.688,368.192h-57.376L183.6,395.816l-6.8,54.296c19.272,8.856,40.632,13.912,63.2,13.912
	s43.92-5.088,63.192-13.944l-6.792-54.264L268.688,368.192z"/>
<g>
	<path style="fill:#EBC858;" d="M240,168c3.264,0,8-6.232,8-16s-4.736-16-8-16s-8,6.232-8,16S236.736,168,240,168z"/>
	<path style="fill:#EBC858;" d="M382.744,232.192H384V80.44l-73.544,100.296c-1.736,2.36-4.552,3.608-7.52,3.2
		c-2.904-0.392-5.36-2.344-6.408-5.08L240,30.472l-56.52,148.376c-1.048,2.736-3.504,4.688-6.408,5.08
		c-2.96,0.392-5.792-0.848-7.52-3.2L96,80.44v151.752h1.256H382.744z M352,200h16v16h-16V200z M320,200h16v16h-16V200z M288,200h16
		v16h-16V200z M272,216h-16v-16h16V216z M240,120c13.464,0,24,14.056,24,32s-10.536,32-24,32s-24-14.056-24-32S226.536,120,240,120z
		 M208,200h16v16h-16V200z M176,200h16v16h-16V200z M144,200h16v16h-16V200z M112,200h16v16h-16V200z"/>
</g>
<path style="fill:#E5E8E8;" d="M185.016,293.456L144,272.952l-55.384,27.696c-0.28,3.768-0.616,7.624-0.616,11.448
	c0,26.04,6.6,48.096,18.184,72.096h66.504l26.552-26.64L185.016,293.456z"/>
<g>
	<path style="fill:#E07940;" d="M136,248.192h-33.744c-5.048,8-8.664,21.904-11.04,33.352L136,259.056V248.192z"/>
	<polygon style="fill:#E07940;" points="265.584,352.192 278.832,292.464 240,272.992 201.168,292.488 214.416,352.192 	"/>
</g>
<g>
	<polygon style="fill:#E5E8E8;" points="152,248.192 152,259.056 192,279.056 232,259.056 232,248.192 	"/>
	<polygon style="fill:#E5E8E8;" points="328,259.056 328,248.192 248,248.192 248,259.056 288,279.056 	"/>
</g>
<g>
	<path style="fill:#E07940;" d="M344,248.192v10.864l44.784,22.488c-2.376-11.448-5.992-25.352-11.04-33.352H344z"/>
	<path style="fill:#E07940;" d="M318.312,442.216c17.856-10.792,33.312-26.024,45.392-42.024h-50.64L318.312,442.216z"/>
</g>
<g>
	<path style="fill:#334C5B;" d="M394.928,247.408C397.896,246.24,400,243.384,400,240V56c0-3.464-2.224-6.528-5.512-7.6
		c-3.296-1.08-6.888,0.088-8.944,2.872L306.24,159.416L247.48,5.152C246.296,2.056,243.32,0,240,0s-6.296,2.048-7.48,5.152
		l-58.76,154.264L94.456,51.272C92.4,48.48,88.8,47.312,85.504,48.4C82.224,49.472,80,52.544,80,56v184
		c0,3.376,2.104,6.24,5.072,7.408C76.424,267.976,72,289.64,72,312c0,92.632,75.368,168,168,168s168-75.368,168-168
		C408,289.64,403.576,267.976,394.928,247.408z M388.784,281.544L344,259.056v-10.864h33.744
		C382.792,256.192,386.408,270.096,388.784,281.544z M96,80.44l73.544,100.296c1.736,2.352,4.56,3.592,7.52,3.2
		c2.904-0.392,5.36-2.344,6.408-5.08L240,30.472l56.52,148.376c1.048,2.736,3.504,4.688,6.408,5.08c2.968,0.408,5.792-0.84,7.52-3.2
		L384,80.44v151.752h-1.256H97.256H96V80.44z M240,272.952l38.832,19.512l-13.248,59.728h-51.168l-13.248-59.728L240,272.952z
		 M192,279.056l-40-20v-10.864h80v10.864L192,279.056z M248,259.056v-10.864h80v10.864l-40,20L248,259.056z M102.256,248.192H136
		v10.864l-44.784,22.488C93.592,270.096,97.208,256.192,102.256,248.192z M161.688,442.216
		c-17.856-10.792-33.312-26.024-45.392-42.024h50.64L161.688,442.216z M106.184,384.192C94.6,360.192,88,338.136,88,312.096
		c0-3.824,0.336-7.632,0.616-11.408L144,272.968l41.016,20.496l14.224,64.088l-26.552,26.64H106.184z M240,464
		c-22.568,0-43.92-5.08-63.2-13.936l6.792-54.256l27.72-27.616h57.376l27.72,27.624l6.792,54.304
		C283.92,458.976,262.568,464,240,464z M318.312,442.216l-5.248-42.024h50.64C351.624,416.192,336.168,431.424,318.312,442.216z
		 M373.816,384.192h-66.504l-26.552-26.64l14.224-64.048L336,272.968l55.384,27.68c0.28,3.776,0.616,7.632,0.616,11.456
		C392,338.136,385.4,360.192,373.816,384.192z"/>
	<path style="fill:#334C5B;" d="M240,184c13.464,0,24-14.056,24-32s-10.536-32-24-32s-24,14.056-24,32
		C216,169.952,226.536,184,240,184z M240,136c3.264,0,8,6.232,8,16s-4.736,16-8,16s-8-6.232-8-16S236.736,136,240,136z"/>
	<rect x="256" y="200" style="fill:#334C5B;" width="16" height="16"/>
	<rect x="288" y="200" style="fill:#334C5B;" width="16" height="16"/>
	<rect x="320" y="200" style="fill:#334C5B;" width="16" height="16"/>
	<rect x="352" y="200" style="fill:#334C5B;" width="16" height="16"/>
	<rect x="112" y="200" style="fill:#334C5B;" width="16" height="16"/>
	<rect x="144" y="200" style="fill:#334C5B;" width="16" height="16"/>
	<rect x="176" y="200" style="fill:#334C5B;" width="16" height="16"/>
	<rect x="208" y="200" style="fill:#334C5B;" width="16" height="16"/>
</g>
</svg>