<svg xmlns="http://www.w3.org/2000/svg" viewBox="0 0 100 100" xml:space="preserve" id="valorant-icon">
  <path d="M49.6 89.6H35.3c-1 0-1.7-.4-2.3-1.1-4.5-5.7-9.1-11.4-13.6-17.1-3.6-4.5-7.1-9-10.7-13.4-2.1-2.6-4.1-5.2-6.2-7.8-.4-.5-.6-1.1-.6-1.7v-37c0-.2 0-.4.1-.6.1-.3.3-.4.5-.2.2.1.3.2.4.4C8 17.2 13.1 23.6 18.1 29.9c4.4 5.5 8.7 11 13.1 16.5 5 6.3 10 12.5 14.9 18.8C50.5 70.8 55 76.4 59.5 82c1.7 2.2 3.5 4.4 5.2 6.6.2.2.4.4.2.7-.2.3-.5.3-.8.3H49.6zm48.5-59.8v18.4c0 .3-.1.6-.2 1-.4 1.3-1.4 2.2-2.3 3.3-2.4 3.1-4.8 6.1-7.3 9.2-.6.8-1.4 1.2-2.4 1.2H56.3c-.1 0-.2-.1-.2-.1 0-.3-.1-.7.1-1 1.9-2.4 3.8-4.7 5.7-7.1 4.8-6.1 9.6-12.1 14.4-18.2 4.2-5.3 8.5-10.7 12.7-16 2.5-3.1 5-6.3 7.5-9.4.3-.3.5-.6 1-.5.3 0 .6.2.6.6v18.6z"/>
</svg>
