<svg xmlns="http://www.w3.org/2000/svg" xmlns:xlink="http://www.w3.org/1999/xlink" width="15px" height="15px" viewBox="0 0 15 15" version="1.1">    <!-- Generator: Sketch 49 (51002) - http://www.bohemiancoding.com/sketch -->    <title>Volleyball-icon</title>    <desc>Created with Sketch.</desc>    <defs>        <polygon id="path-1" points="8.33333333e-05 -8.33333333e-05 15 -8.33333333e-05 15 14.9996667 8.33333333e-05 14.9996667"/>    </defs>    <g id="Volleyball-icon" stroke="none" stroke-width="1" fill="none" fill-rule="evenodd">        <rect id="Bound" x="0" y="0" width="15" height="15"/>        <g>            <mask id="mask-2" fill="white">                <use xlink:href="#path-1"/>            </mask>            <g id="Clip-2"/>            <path d="M5.17508333,0.37175 C3.09175,1.05091667 1.40925,2.61466667 0.57425,4.62216667 C1.028,4.98383333 1.50758333,5.30633333 2.00675,5.59258333 C2.7505,3.693 3.82925,1.91758333 5.17508333,0.37175 M9.9055,4.5905 C11.2138333,6.85883333 11.9096667,9.43841667 11.9096667,12.0734167 C11.9096667,12.5896667 11.8809167,13.1059167 11.8284167,13.618 C12.69175,13.0063333 13.41675,12.21675 13.95675,11.3021667 C13.8271667,8.38841667 12.9638333,5.58341667 11.4346667,3.11091667 C10.8788333,3.55633333 10.3688333,4.05258333 9.9055,4.5905 M4.59925,6.68508333 C5.57216667,4.16341667 7.24216667,1.91758333 9.37758333,0.246333333 C8.77675,0.0909166667 8.14966667,-0.000333333333 7.50008333,-0.000333333333 C7.14883333,-0.000333333333 6.80591667,0.0325833333 6.468,0.07925 C4.81591667,1.75091667 3.51425,3.76591667 2.67258333,5.94841667 C3.29133333,6.25091667 3.93591667,6.498 4.59925,6.68508333 M1.99133333,12.5771667 C3.36175,14.063 5.31925,14.9996667 7.50008333,14.9996667 C7.673,14.9996667 7.84216667,14.9855 8.01216667,14.97425 C8.14383333,14.4688333 8.24008333,13.9550833 8.30216667,13.4355 C8.03966667,13.44675 7.77675,13.45425 7.51466667,13.45425 C5.618,13.45425 3.76716667,13.1571667 1.99133333,12.5771667 M8.17633333,9.86383333 C8.04383333,9.18258333 7.84675,8.5155 7.5905,7.8655 C4.95008333,7.83716667 2.4005,6.95716667 0.312583333,5.3655 C0.11175,6.04216667 8.33333333e-05,6.75758333 8.33333333e-05,7.49966667 C8.33333333e-05,7.58258333 0.00966666667,7.66258333 0.0121666667,7.74425 C2.26425,9.14341667 4.84216667,9.88883333 7.51466667,9.88883333 C7.7355,9.88883333 7.9555,9.87425 8.17633333,9.86383333 M8.163,7.30925 L8.17508333,7.30425 C8.81508333,8.81508333 9.14008333,10.4196667 9.14008333,12.0734167 C9.14008333,13.023 9.02883333,13.9621667 8.81383333,14.8775833 C9.59466667,14.73925 10.3346667,14.4846667 11.0121667,14.1250833 C11.10925,13.448 11.1596667,12.7605 11.1596667,12.0734167 C11.1596667,9.66758333 10.54675,7.31133333 9.39633333,5.21883333 C8.913,5.86675 8.50175,6.56841667 8.163,7.30925 M12.7884167,2.18341667 C12.5321667,2.33425 12.283,2.49383333 12.0405,2.66341667 C13.4184167,4.87383333 14.2834167,7.34133333 14.59425,9.91758333 C14.8534167,9.158 15.0000833,8.34716667 15.0000833,7.49966667 C15.0000833,5.42133333 14.15425,3.54133333 12.7884167,2.18341667 M7.51466667,10.6388333 C4.89258333,10.6388333 2.35383333,9.963 0.10175,8.67883333 C0.262166667,9.69216667 0.623,10.63675 1.14633333,11.47175 C3.17008333,12.28675 5.31008333,12.7046667 7.51466667,12.7046667 C7.79883333,12.7046667 8.08341667,12.68925 8.36758333,12.6750833 C8.378,12.4750833 8.39008333,12.2746667 8.39008333,12.0734167 C8.39008333,11.5821667 8.35591667,11.0963333 8.29508333,10.6159167 C8.03508333,10.62925 7.77425,10.6388333 7.51466667,10.6388333 M10.2496667,0.527166667 C10.9588333,0.807166667 11.6159167,1.18883333 12.1996667,1.65966667 C10.0996667,2.95258333 8.43091667,4.85675 7.42758333,7.11216667 C6.71883333,7.09383333 6.018,7.01091667 5.33258333,6.86508333 C6.32466667,4.34675 8.04966667,2.123 10.2496667,0.527166667" id="Fill-1" fill="#FFFFFF" mask="url(#mask-2)"/>        </g>    </g></svg>