<svg id="Layer_1" data-name="Layer 1" xmlns="http://www.w3.org/2000/svg" xmlns:xlink="http://www.w3.org/1999/xlink" viewBox="0 0 354.18 325.41"><defs><style>.cls-1{fill:url(#New_Gradient_Swatch_15);}</style><linearGradient id="New_Gradient_Swatch_15" x1="71.92" y1="162.7" x2="276.03" y2="162.7" gradientUnits="userSpaceOnUse"><stop offset="0" stop-color="#950c37"/><stop offset="0.43" stop-color="#ff265a"/><stop offset="1" stop-color="#ff4d7c"/></linearGradient></defs><path class="cls-1" d="M174,60.65A102.06,102.06,0,1,0,276,162.7,102.17,102.17,0,0,0,174,60.65ZM218.57,81A108.19,108.19,0,0,1,217.86,183a88.08,88.08,0,0,1-39.3-21.1c12-21.33,15.19-46.91,8.93-72.39a99.61,99.61,0,0,0-7.15-19.68A92.54,92.54,0,0,1,218.57,81ZM80.9,162.7a93.05,93.05,0,0,1,91.11-93,92.3,92.3,0,0,1,8.33,21.63,101.31,101.31,0,0,1,2.58,16c-35.4-1.4-75.35,22-93.14,45.84A115.68,115.68,0,0,0,81,166.81C80.94,165.45,80.9,164.08,80.9,162.7Zm17.3,54a92.52,92.52,0,0,1-15.66-36.63,109.47,109.47,0,0,1,13-22.67c16.85-22.54,55.49-44.51,87.73-42.94a87.93,87.93,0,0,1-11.66,44.81c-24.47,4-46.69,18-62.73,39.41A99.74,99.74,0,0,0,98.2,216.72ZM174,255.78a92.83,92.83,0,0,1-70.62-32.49,91.58,91.58,0,0,1,11.42-20.18,102.12,102.12,0,0,1,9-10.52c17.71,23.44,59.65,43.28,92.92,43.28A116,116,0,0,0,233,234.69,92.66,92.66,0,0,1,174,255.78Zm68.69-30.27a108.94,108.94,0,0,1-25.94,3.18c-33.88,0-72.95-21.18-87.64-41.07a88,88,0,0,1,43.66-21.06c18,17.23,42.39,26.72,69,26.72A98.79,98.79,0,0,0,262.65,191,93.12,93.12,0,0,1,242.66,225.51ZM264.81,183a92.09,92.09,0,0,1-23,2.94,100.53,100.53,0,0,1-16.58-1.38,115.14,115.14,0,0,0,9.62-80.8,116.87,116.87,0,0,0-5-15.51,93.05,93.05,0,0,1,35,94.75Z"/></svg>