<svg id="Layer_1" data-name="Layer 1" xmlns="http://www.w3.org/2000/svg" xmlns:xlink="http://www.w3.org/1999/xlink" viewBox="0 0 354.18 325.41"><defs><style>.cls-1{fill:url(#linear-gradient);}.cls-2{fill:url(#linear-gradient-2);}.cls-3{fill:url(#linear-gradient-3);}</style><linearGradient id="linear-gradient" x1="66" y1="150.4" x2="289.58" y2="150.4" gradientUnits="userSpaceOnUse"><stop offset="0" stop-color="#005781"/><stop offset="0.57" stop-color="#00a9b3"/><stop offset="1" stop-color="#03cddd"/></linearGradient><linearGradient id="linear-gradient-2" x1="30.61" y1="237.9" x2="310.84" y2="237.9" xlink:href="#linear-gradient"/><linearGradient id="linear-gradient-3" x1="30.61" y1="274.99" x2="310.84" y2="274.99" xlink:href="#linear-gradient"/></defs><path class="cls-1" d="M266.24,108.09l0,0A111.6,111.6,0,0,0,109.84,87.67l-.12.09A111.77,111.77,0,0,0,81.66,233.48a5.61,5.61,0,1,0,9.63-5.74,100.73,100.73,0,0,1-8.65-84c6.06-1,21.27-2.53,40.37,3.47-4,11.12-12,37.72-10.47,67.32a5.6,5.6,0,0,0,5.6,5.31h.29a5.6,5.6,0,0,0,5.3-5.89c-1.43-27.25,6.13-52.39,9.79-62.77,12,5.27,25.06,13.66,38,26.83A167.77,167.77,0,0,0,167,214.16a5.61,5.61,0,0,0,5.52,5.69h.08a5.6,5.6,0,0,0,5.61-5.52,158,158,0,0,1,4.23-33.52c13-4.2,62-22.16,80.57-57.83a99.91,99.91,0,0,1,14.79,42.46c-8.49,16.05-18.68,29.1-30.31,38.78a5.6,5.6,0,1,0,7.18,8.6,126.47,126.47,0,0,0,23.14-25.74A99.85,99.85,0,0,1,272,211.81a5.6,5.6,0,0,0,10.49,3.94,111.81,111.81,0,0,0-16.21-107.66ZM87.59,131.9a101.28,101.28,0,0,1,28.27-34.73c8.45-2.79,75.81-22.41,106,52.49-17.15,11.25-35.29,17.93-42.45,20.33C142.85,133,105.39,130.52,87.59,131.9Zm143.59,11c-21.77-51.33-60.42-61.31-88-61a100.52,100.52,0,0,1,112.24,30.63C250.72,124.59,241.6,134.7,231.18,143Z"/><path class="cls-2" d="M299.85,255.78c-15.4,0-23.27-7.31-30.21-13.77-6.21-5.78-11.58-10.77-22.57-10.77s-16.35,5-22.55,10.77c-6.94,6.45-14.81,13.77-30.21,13.77s-23.24-7.32-30.17-13.77c-6.2-5.78-11.55-10.77-22.52-10.77s-16.33,5-22.53,10.77c-6.93,6.45-14.79,13.77-30.17,13.77S65.68,248.47,58.75,242c-6.21-5.78-11.56-10.77-22.54-10.77a5.61,5.61,0,0,1,0-11.21c15.39,0,23.25,7.32,30.18,13.77,6.21,5.78,11.56,10.77,22.53,10.77s16.32-5,22.53-10.77c6.93-6.45,14.79-13.77,30.17-13.77s23.24,7.32,30.17,13.77c6.2,5.78,11.56,10.77,22.52,10.77s16.36-5,22.56-10.77c6.95-6.46,14.81-13.77,30.2-13.77s23.27,7.31,30.21,13.77c6.21,5.78,11.58,10.77,22.57,10.77a31.4,31.4,0,0,0,4.59-.32,5.7,5.7,0,0,1,6.35,4.75,5.61,5.61,0,0,1-4.75,6.35A42.77,42.77,0,0,1,299.85,255.78Z"/><path class="cls-3" d="M299.85,292.86c-15.4,0-23.27-7.31-30.21-13.77-6.21-5.78-11.58-10.77-22.57-10.77s-16.35,5-22.55,10.77c-6.94,6.45-14.81,13.77-30.21,13.77s-23.24-7.32-30.17-13.77c-6.2-5.78-11.55-10.77-22.52-10.77s-16.33,5-22.53,10.77c-6.93,6.45-14.79,13.77-30.17,13.77s-23.24-7.31-30.17-13.77c-6.21-5.78-11.56-10.77-22.54-10.77a5.61,5.61,0,0,1,0-11.21c15.39,0,23.25,7.32,30.18,13.77,6.21,5.78,11.56,10.77,22.53,10.77s16.32-5,22.53-10.77c6.93-6.45,14.79-13.77,30.17-13.77s23.24,7.32,30.17,13.77c6.2,5.78,11.56,10.77,22.52,10.77s16.36-5,22.56-10.77c6.95-6.46,14.81-13.77,30.2-13.77s23.27,7.31,30.21,13.77c6.21,5.78,11.58,10.77,22.57,10.77a31.4,31.4,0,0,0,4.59-.32,5.7,5.7,0,0,1,6.35,4.76,5.6,5.6,0,0,1-4.75,6.34A42.77,42.77,0,0,1,299.85,292.86Z"/></svg>