<svg xmlns="http://www.w3.org/2000/svg" xmlns:xlink="http://www.w3.org/1999/xlink" version="1.1" id="Capa_1" x="0px" y="0px" viewBox="0 0 470.001 470.001" style="enable-background:new 0 0 470.001 470.001;fill: #fff;" xml:space="preserve"><g>	<g id="Layer_1_36_">		<g>			<path d="M156.494,391.966c26.143,1.121,51.844-0.82,77.467-6.164c26.338-5.502,52.354-9.764,79.313-10.77     c26.658-0.992,53.928,0.609,81.023,3.301c25.486,2.602,50.518,2.066,75.703-2.859c-25.533-5.445-50.379-11.24-75.305-19.078     c-26.5-8.328-53.18-13.27-80.959-14.459c-8.416-0.359-16.789-0.396-25.131-0.111l16.076-68.855l114.336-4.242     c10.246-0.408,18.688-8.645,19.088-19.064c0.418-10.947-8.117-20.162-19.064-20.58c0,0-149.008,9.68-175.107-4.693     c-23-12.668-44.652-50.453-46.084-60.5c-1.43-10.049-1.777-81.641-1.777-81.641c0.051-7.998-5.922-14.926-14.051-15.881     c-8.725-1.025-16.629,5.215-17.654,13.941l-10.596,90.127c-0.469,4.016,0.42,8.234,2.826,11.871l1.197,1.809l40.414,61.074     l-26.297,112.627c-5.131,0.453-10.283,0.854-15.486,1.148c-12.045,0.035-25.836,0.84-38.514,0.434     c-14.965-0.48-29.746-2.457-44.617-3.977c-24.734-2.53-48.867-1.423-73.295,3.057c25.535,5.414,50.396,11.16,75.313,19.025     C101.889,385.897,128.621,390.776,156.494,391.966z"/>			<path d="M313.736,396.909c-26.211-1.115-52.018,0.826-77.697,6.211c-26.543,5.564-52.51,9.283-79.613,10.818     c-12.045,0.035-25.836,0.84-38.514,0.434c-14.965-0.48-29.746-2.457-44.617-3.977c-24.734-2.529-48.867-1.422-73.295,3.059     c25.535,5.414,50.396,11.16,75.313,19.025c26.576,8.391,53.309,13.27,81.182,14.459c26.143,1.121,51.844-0.82,77.467-6.164     c26.338-5.502,52.354-9.764,79.313-10.77c26.658-0.992,53.928,0.609,81.023,3.301c25.486,2.602,50.518,2.066,75.703-2.859     c-25.533-5.445-50.379-11.24-75.305-19.078C368.195,403.04,341.516,398.099,313.736,396.909z"/>			<path d="M229.719,161.194c-8.205,24.535,5.033,51.07,29.568,59.273c24.533,8.203,51.068-5.035,59.27-29.568     c8.203-24.535-5.035-51.07-29.568-59.273C264.456,123.423,237.918,136.665,229.719,161.194z"/>			<path d="M245.588,109.758c23.988,0,43.5-19.513,43.5-43.5s-19.512-43.5-43.5-43.5c-23.986,0-43.5,19.513-43.5,43.5     C202.088,90.245,221.602,109.758,245.588,109.758z M245.588,101.499c-4.348,0-8.514-0.798-12.365-2.246     c0.205-1.102,0.42-2.212,0.666-3.354c6.828-6.466,16.57-6.464,23.4,0c0.246,1.142,0.461,2.252,0.666,3.354     C254.104,100.701,249.938,101.499,245.588,101.499z M245.588,31.016c4.35,0,8.514,0.798,12.367,2.246     c-0.205,1.1-0.42,2.209-0.666,3.349c-6.83,6.466-16.572,6.463-23.4,0c-0.246-1.14-0.461-2.25-0.666-3.349     C237.074,31.814,241.24,31.016,245.588,31.016z M225.672,54.551c14.385-3.088,25.449-3.088,39.834,0     c6.465,6.832,6.463,16.575,0,23.404c-14.385,3.091-25.449,3.092-39.834,0C219.205,71.126,219.207,61.384,225.672,54.551z"/>		</g>	</g></g><g></g><g></g><g></g><g></g><g></g><g></g><g></g><g></g><g></g><g></g><g></g><g></g><g></g><g></g><g></g></svg>