<?xml version="1.0" encoding="iso-8859-1"?>
<!-- Generator: Adobe Illustrator 17.1.0, SVG Export Plug-In . SVG Version: 6.00 Build 0)  -->
<!DOCTYPE svg PUBLIC "-//W3C//DTD SVG 1.1//EN" "http://www.w3.org/Graphics/SVG/1.1/DTD/svg11.dtd">
<svg version="1.1" id="Capa_1" xmlns="http://www.w3.org/2000/svg" xmlns:xlink="http://www.w3.org/1999/xlink" x="0px" y="0px"
	 viewBox="0 0 420 420" style="enable-background:new 0 0 420 420;" xml:space="preserve">
<g>
	<path d="M10,339.997c13.896,0,20.203,3.784,28.187,8.575c8.925,5.355,19.042,11.425,38.478,11.425
		c19.436,0,29.551-6.07,38.476-11.425c7.984-4.791,14.291-8.575,28.186-8.575c13.896,0,20.203,3.784,28.188,8.575
		c8.925,5.355,19.042,11.425,38.478,11.425c19.437,0,29.553-6.07,38.479-11.425c7.985-4.791,14.292-8.575,28.189-8.575
		c13.898,0,20.205,3.784,28.19,8.575c8.926,5.355,19.043,11.425,38.48,11.425c19.437,0,29.554-6.07,38.48-11.425
		c7.985-4.791,14.292-8.575,28.19-8.575c5.523,0,10-4.477,10-10c0-5.523-4.477-10-10-10c-19.437,0-29.554,6.07-38.48,11.425
		c-7.985,4.791-14.292,8.575-28.19,8.575c-13.898,0-20.206-3.784-28.191-8.575c-8.926-5.355-19.043-11.425-38.479-11.425
		c-19.437,0-29.553,6.07-38.479,11.425c-7.985,4.791-14.292,8.575-28.189,8.575c-13.896,0-20.203-3.784-28.188-8.575
		c-8.925-5.355-19.042-11.425-38.478-11.425c-19.435,0-29.551,6.07-38.476,11.425c-7.984,4.79-14.291,8.575-28.186,8.575
		c-13.896,0-20.203-3.784-28.188-8.575c-8.925-5.355-19.041-11.425-38.477-11.425c-5.523,0-10,4.477-10,10
		C0,335.52,4.477,339.997,10,339.997z"/>
	<path d="M410,379.997c-19.437,0-29.554,6.07-38.48,11.425c-7.985,4.791-14.292,8.575-28.19,8.575
		c-13.898,0-20.206-3.784-28.191-8.575c-8.926-5.355-19.043-11.425-38.479-11.425c-19.437,0-29.553,6.07-38.479,11.425
		c-7.985,4.791-14.292,8.575-28.189,8.575c-13.896,0-20.203-3.784-28.188-8.575c-8.925-5.355-19.042-11.425-38.478-11.425
		c-19.435,0-29.551,6.07-38.476,11.425c-7.984,4.79-14.291,8.575-28.186,8.575c-13.896,0-20.203-3.784-28.188-8.575
		c-8.925-5.355-19.041-11.425-38.477-11.425c-5.523,0-10,4.477-10,10c0,5.523,4.477,10,10,10c13.896,0,20.203,3.784,28.187,8.575
		c8.925,5.355,19.042,11.425,38.478,11.425c19.436,0,29.551-6.07,38.476-11.425c7.984-4.791,14.291-8.575,28.186-8.575
		c13.896,0,20.203,3.784,28.188,8.575c8.925,5.355,19.042,11.425,38.478,11.425c19.437,0,29.553-6.07,38.479-11.425
		c7.985-4.791,14.292-8.575,28.189-8.575c13.898,0,20.205,3.784,28.19,8.575c8.926,5.355,19.043,11.425,38.48,11.425
		c19.437,0,29.554-6.07,38.48-11.425c7.985-4.791,14.292-8.575,28.19-8.575c5.523,0,10-4.477,10-10
		C420,384.474,415.523,379.997,410,379.997z"/>
	<path d="M209.986,0.003c-82.706,0-149.992,67.288-149.992,149.996c0,82.706,67.286,149.992,149.992,149.992
		c82.71,0,150-67.286,150-149.992C359.985,67.29,292.696,0.003,209.986,0.003z M207.308,279.956
		c-16.741-0.34-32.714-3.859-47.34-9.98c35.81-26.935,58.063-68.886,59.887-113.972c14.943-7.79,31.086-12.494,47.483-14.082
		C278.698,195.848,254.796,251.354,207.308,279.956z M210.258,138.452c-14.21-9.041-26.349-20.662-35.92-34.058
		c41.022-36.803,101.019-43.85,149.534-17.023c7.71,13.964,12.931,29.484,15.049,45.965
		C297.686,115.783,250.221,117.486,210.258,138.452z M299.974,56.273c-47.081-12.657-98.184-1.652-136.132,30.7
		c-8.079-16.103-12.851-33.912-13.706-52.346c17.924-9.336,38.28-14.624,59.849-14.624C244.878,20.003,276.6,33.824,299.974,56.273z
		 M131.104,46.749c5.436,44.456,30.635,84.679,68.752,108.791c-0.725,16.837-4.723,33.168-11.546,48.162
		c-52.37-17.121-88.483-65.555-89.526-120.965C107.234,68.819,118.226,56.611,131.104,46.749z M79.994,149.999
		c0-10.756,1.322-21.208,3.797-31.211c12.546,47.167,47.652,85.983,94.691,102.689c-9.903,15.044-22.935,28.077-38.466,38.033
		C103.946,236.383,79.994,195.935,79.994,149.999z M246.062,274.893c34.573-34.449,50.635-84.258,41.583-133.347
		c17.991,1.055,35.805,5.829,52.201,14.312C337.324,212.447,298.45,259.739,246.062,274.893z"/>
</g>
<g>
</g>
<g>
</g>
<g>
</g>
<g>
</g>
<g>
</g>
<g>
</g>
<g>
</g>
<g>
</g>
<g>
</g>
<g>
</g>
<g>
</g>
<g>
</g>
<g>
</g>
<g>
</g>
<g>
</g>
</svg>
