<svg id="Layer_1" data-name="Layer 1" xmlns="http://www.w3.org/2000/svg" viewBox="0 0 24 24"><defs><style>.cls-1{fill:none;stroke:#000;stroke-linecap:round;stroke-linejoin:round;stroke-width:1.5px;}</style></defs><path class="cls-1" d="M19.29,7.52h.49a2.11,2.11,0,0,0,1.51-.63,2.14,2.14,0,0,0-1.51-3.66H4.2a2.15,2.15,0,0,0-1.52.63,2.11,2.11,0,0,0-.63,1.51A2.15,2.15,0,0,0,4.2,7.52h.48"/><path class="cls-1" d="M19.79,22.74H4.17A1.17,1.17,0,0,1,3,21.43L4.72,7.18a1.17,1.17,0,0,1,1.16-1h12.2a1.17,1.17,0,0,1,1.16,1L21,21.43A1.17,1.17,0,0,1,19.79,22.74Z"/><line class="cls-1" x1="16.01" y1="9.38" x2="17.25" y2="20.21"/><line class="cls-1" x1="7.41" y1="9.38" x2="6.85" y2="14.3"/><line class="cls-1" x1="11.52" y1="8.68" x2="11.52" y2="18.09"/></svg>